G04 #@! TF.FileFunction,Soldermask,Bot*
%FSLAX46Y46*%
G04 Gerber Fmt 4.6, Leading zero omitted, Abs format (unit mm)*
G04 Created by KiCad (PCBNEW 4.0.6) date 12/04/17 20:41:38*
%MOMM*%
%LPD*%
G01*
G04 APERTURE LIST*
%ADD10C,0.050000*%
%ADD11C,2.000000*%
%ADD12O,2.000000X2.000000*%
%ADD13C,1.600000*%
%ADD14R,2.000000X2.000000*%
%ADD15O,4.400000X2.400000*%
%ADD16O,2.400000X4.400000*%
%ADD17O,3.400000X2.400000*%
%ADD18C,1.900000*%
G04 APERTURE END LIST*
D10*
D11*
X119210000Y-72860000D03*
D12*
X119210000Y-83020000D03*
D13*
X92540000Y-60160000D03*
X92540000Y-62700000D03*
X92540000Y-65240000D03*
X92540000Y-67780000D03*
X92540000Y-70320000D03*
X92540000Y-72860000D03*
X92540000Y-75400000D03*
X92540000Y-77940000D03*
X92540000Y-80480000D03*
X92540000Y-83020000D03*
X92540000Y-85560000D03*
X92540000Y-88100000D03*
X92540000Y-90640000D03*
X92540000Y-93180000D03*
X92540000Y-95720000D03*
X107780000Y-95720000D03*
X107780000Y-93180000D03*
X107780000Y-90640000D03*
X107780000Y-88100000D03*
X107780000Y-85560000D03*
X107780000Y-83020000D03*
X107780000Y-80480000D03*
X107780000Y-77940000D03*
X107780000Y-75400000D03*
X107780000Y-72860000D03*
X107780000Y-70320000D03*
X107780000Y-67780000D03*
X107780000Y-65240000D03*
X107780000Y-62700000D03*
X107780000Y-60160000D03*
D14*
X103970000Y-80480000D03*
D12*
X96350000Y-60160000D03*
X103970000Y-77940000D03*
X96350000Y-62700000D03*
X103970000Y-75400000D03*
X96350000Y-65240000D03*
X103970000Y-72860000D03*
X96350000Y-67780000D03*
X103970000Y-70320000D03*
X96350000Y-70320000D03*
X103970000Y-67780000D03*
X96350000Y-72860000D03*
X103970000Y-65240000D03*
X96350000Y-75400000D03*
X103970000Y-62700000D03*
X96350000Y-77940000D03*
X103970000Y-60160000D03*
X96350000Y-80480000D03*
D14*
X96350000Y-88100000D03*
D12*
X103970000Y-95720000D03*
X96350000Y-90640000D03*
X103970000Y-93180000D03*
X96350000Y-93180000D03*
X103970000Y-90640000D03*
X96350000Y-95720000D03*
X103970000Y-88100000D03*
D11*
X123020000Y-89370000D03*
X115400000Y-89370000D03*
X115400000Y-94450000D03*
X123020000Y-94450000D03*
D15*
X154770000Y-53810000D03*
X154770000Y-56350000D03*
X170010000Y-53810000D03*
X170010000Y-56350000D03*
D16*
X153500000Y-96990000D03*
X150960000Y-96990000D03*
X171280000Y-96990000D03*
X173820000Y-96990000D03*
D17*
X187790000Y-94450000D03*
X187790000Y-91910000D03*
X187790000Y-89370000D03*
X187790000Y-86830000D03*
X187790000Y-84290000D03*
X187790000Y-81750000D03*
X187790000Y-79210000D03*
X187790000Y-76670000D03*
X187790000Y-74130000D03*
X187790000Y-71590000D03*
X187790000Y-69050000D03*
X187790000Y-66510000D03*
X180170000Y-66510000D03*
X180170000Y-69050000D03*
X180170000Y-71590000D03*
X180170000Y-74130000D03*
X180170000Y-76670000D03*
X180170000Y-79210000D03*
X180170000Y-81750000D03*
X180170000Y-84290000D03*
X180170000Y-86830000D03*
X180170000Y-89370000D03*
X180170000Y-91910000D03*
X180170000Y-94450000D03*
X187790000Y-61430000D03*
X187790000Y-58890000D03*
X187790000Y-56350000D03*
X180170000Y-56350000D03*
X180170000Y-58890000D03*
X180170000Y-61430000D03*
D13*
X130640000Y-60160000D03*
X130640000Y-62700000D03*
X130640000Y-65240000D03*
X130640000Y-67780000D03*
X130640000Y-70320000D03*
X130640000Y-72860000D03*
X130640000Y-75400000D03*
X130640000Y-77940000D03*
X130640000Y-80480000D03*
X130640000Y-83020000D03*
X130640000Y-85560000D03*
X130640000Y-88100000D03*
X130640000Y-90640000D03*
X130640000Y-93180000D03*
X130640000Y-95720000D03*
X145880000Y-95720000D03*
X145880000Y-93180000D03*
X145880000Y-90640000D03*
X145880000Y-88100000D03*
X145880000Y-85560000D03*
X145880000Y-83020000D03*
X145880000Y-80480000D03*
X145880000Y-77940000D03*
X145880000Y-75400000D03*
X145880000Y-72860000D03*
X145880000Y-70320000D03*
X145880000Y-67780000D03*
X145880000Y-65240000D03*
X145880000Y-62700000D03*
X145880000Y-60160000D03*
D14*
X142070000Y-80480000D03*
D12*
X134450000Y-60160000D03*
X142070000Y-77940000D03*
X134450000Y-62700000D03*
X142070000Y-75400000D03*
X134450000Y-65240000D03*
X142070000Y-72860000D03*
X134450000Y-67780000D03*
X142070000Y-70320000D03*
X134450000Y-70320000D03*
X142070000Y-67780000D03*
X134450000Y-72860000D03*
X142070000Y-65240000D03*
X134450000Y-75400000D03*
X142070000Y-62700000D03*
X134450000Y-77940000D03*
X142070000Y-60160000D03*
X134450000Y-80480000D03*
D14*
X134450000Y-88100000D03*
D12*
X142070000Y-95720000D03*
X134450000Y-90640000D03*
X142070000Y-93180000D03*
X134450000Y-93180000D03*
X142070000Y-90640000D03*
X134450000Y-95720000D03*
X142070000Y-88100000D03*
D18*
X97620000Y-53810000D03*
X102620000Y-53810000D03*
X135720000Y-53810000D03*
X140720000Y-53810000D03*
M02*
