M48
INCH,TZ
T1C0.016
T2C0.028
T3C0.030
T4C0.031
T5C0.039
%
G90
G05
T1
X35933Y-27185
X35933Y-36185
X37433Y-20185
X37433Y-28685
X37433Y-32685
X38683Y-31185
X38683Y-35685
X39183Y-28435
X39183Y-33185
X39683Y-30185
X39683Y-31685
X41433Y-21935
X41683Y-25685
X41683Y-26935
X42683Y-20685
X43183Y-33685
X43183Y-36685
X43433Y-22185
X43433Y-25185
X43433Y-26685
X43683Y-34185
X44183Y-35685
X44933Y-36435
X45433Y-22185
X45433Y-25185
X45683Y-38185
X46433Y-38935
X46933Y-25185
X46933Y-34685
X47433Y-22185
X47433Y-25185
X47433Y-37435
X47433Y-39185
X48183Y-38185
X49433Y-22185
X49433Y-25185
X49433Y-26185
X49433Y-36185
X49933Y-36685
X50683Y-37185
X51183Y-20685
X51433Y-29185
X51433Y-30185
X51433Y-31185
X51433Y-32185
X51433Y-33185
X51433Y-34185
X51433Y-35185
X51933Y-25185
X51933Y-26185
X51933Y-27685
X51933Y-28685
X52433Y-36185
X52683Y-22435
X52683Y-22935
X53933Y-37185
X54183Y-26935
X56183Y-22435
X56183Y-22935
X56433Y-20185
X56433Y-23685
X56433Y-38685
X56933Y-39185
X57933Y-29185
X57933Y-30185
X57933Y-31185
X57933Y-32685
X57933Y-33685
X57933Y-34685
X57933Y-36685
X58183Y-31685
X58683Y-26685
X58683Y-32685
X58933Y-36685
X59183Y-33685
X62183Y-26685
X62183Y-31685
X62183Y-32685
X62183Y-33685
X62683Y-24685
X62683Y-25685
X62683Y-27685
X62683Y-28685
X62683Y-29685
X65933Y-21685
X69433Y-35185
X69933Y-22185
X69933Y-23185
X69933Y-24185
X69933Y-26185
X69933Y-27185
X69933Y-28185
X69933Y-36185
X71683Y-29685
X71683Y-30685
X71683Y-31685
X71683Y-32685
X71683Y-33685
X71683Y-34685
T2
X70933Y-22185
X70933Y-23185
X70933Y-24185
X70933Y-26185
X70933Y-27185
X70933Y-28185
X70933Y-29185
X70933Y-30185
X70933Y-31185
X70933Y-32185
X70933Y-33185
X70933Y-34185
X70933Y-35185
X70933Y-36185
X70933Y-37185
X73933Y-22185
X73933Y-23185
X73933Y-24185
X73933Y-26185
X73933Y-27185
X73933Y-28185
X73933Y-29185
X73933Y-30185
X73933Y-31185
X73933Y-32185
X73933Y-33185
X73933Y-34185
X73933Y-35185
X73933Y-36185
X73933Y-37185
T3
X36433Y-23685
X36433Y-24685
X36433Y-25685
X36433Y-26685
X36433Y-27685
X36433Y-28685
X36433Y-29685
X36433Y-30685
X36433Y-31685
X36433Y-32685
X36433Y-33685
X36433Y-34685
X36433Y-35685
X36433Y-36685
X36433Y-37685
X42433Y-23685
X42433Y-24685
X42433Y-25685
X42433Y-26685
X42433Y-27685
X42433Y-28685
X42433Y-29685
X42433Y-30685
X42433Y-31685
X42433Y-32685
X42433Y-33685
X42433Y-34685
X42433Y-35685
X42433Y-36685
X42433Y-37685
X45433Y-35185
X45433Y-37185
X48433Y-35185
X48433Y-37185
X51433Y-23685
X51433Y-24685
X51433Y-25685
X51433Y-26685
X51433Y-27685
X51433Y-28685
X51433Y-29685
X51433Y-30685
X51433Y-31685
X51433Y-32685
X51433Y-33685
X51433Y-34685
X51433Y-35685
X51433Y-36685
X51433Y-37685
X57433Y-23685
X57433Y-24685
X57433Y-25685
X57433Y-26685
X57433Y-27685
X57433Y-28685
X57433Y-29685
X57433Y-30685
X57433Y-31685
X57433Y-32685
X57433Y-33685
X57433Y-34685
X57433Y-35685
X57433Y-36685
X57433Y-37685
T4
X37933Y-23685
X37933Y-24685
X37933Y-25685
X37933Y-26685
X37933Y-27685
X37933Y-28685
X37933Y-29685
X37933Y-30685
X37933Y-31685
X37933Y-34685
X37933Y-35685
X37933Y-36685
X37933Y-37685
X38433Y-21185
X40402Y-21185
X40933Y-23685
X40933Y-24685
X40933Y-25685
X40933Y-26685
X40933Y-27685
X40933Y-28685
X40933Y-29685
X40933Y-30685
X40933Y-31685
X40933Y-34685
X40933Y-35685
X40933Y-36685
X40933Y-37685
X46933Y-28685
X46933Y-32685
X52933Y-23685
X52933Y-24685
X52933Y-25685
X52933Y-26685
X52933Y-27685
X52933Y-28685
X52933Y-29685
X52933Y-30685
X52933Y-31685
X52933Y-34685
X52933Y-35685
X52933Y-36685
X52933Y-37685
X53433Y-21185
X55402Y-21185
X55933Y-23685
X55933Y-24685
X55933Y-25685
X55933Y-26685
X55933Y-27685
X55933Y-28685
X55933Y-29685
X55933Y-30685
X55933Y-31685
X55933Y-34685
X55933Y-35685
X55933Y-36685
X55933Y-37685
T5
X59433Y-38185
X60433Y-38185
X60933Y-21185
X60933Y-22185
X66933Y-21185
X66933Y-22185
X67433Y-38185
X68433Y-38185
T0
M30
