G04 #@! TF.FileFunction,Copper,L1,Top,Signal*
%FSLAX46Y46*%
G04 Gerber Fmt 4.6, Leading zero omitted, Abs format (unit mm)*
G04 Created by KiCad (PCBNEW 4.0.6) date 12/04/17 20:41:38*
%MOMM*%
%LPD*%
G01*
G04 APERTURE LIST*
%ADD10C,0.050000*%
%ADD11R,1.250000X1.500000*%
%ADD12R,1.200000X0.900000*%
%ADD13R,1.500000X1.300000*%
%ADD14C,1.600000*%
%ADD15O,1.600000X1.600000*%
%ADD16C,1.200000*%
%ADD17R,1.600000X1.600000*%
%ADD18O,4.000000X2.000000*%
%ADD19O,2.000000X4.000000*%
%ADD20O,3.000000X2.000000*%
%ADD21C,1.500000*%
%ADD22C,0.600000*%
%ADD23C,0.400000*%
%ADD24C,0.254000*%
G04 APERTURE END LIST*
D10*
D11*
X93810000Y-52560000D03*
X93810000Y-55060000D03*
X106510000Y-52560000D03*
X106510000Y-55060000D03*
X131910000Y-52560000D03*
X131910000Y-55060000D03*
X144610000Y-52560000D03*
X144610000Y-55060000D03*
D12*
X110490000Y-62700000D03*
X112690000Y-62700000D03*
X110490000Y-55080000D03*
X112690000Y-55080000D03*
X115570000Y-62700000D03*
X117770000Y-62700000D03*
X115570000Y-55080000D03*
X117770000Y-55080000D03*
X125730000Y-55080000D03*
X127930000Y-55080000D03*
X125730000Y-62700000D03*
X127930000Y-62700000D03*
X120650000Y-55080000D03*
X122850000Y-55080000D03*
X120650000Y-62700000D03*
X122850000Y-62700000D03*
D13*
X110240000Y-65240000D03*
X112940000Y-65240000D03*
X110240000Y-57620000D03*
X112940000Y-57620000D03*
X115320000Y-65240000D03*
X118020000Y-65240000D03*
X115320000Y-57620000D03*
X118020000Y-57620000D03*
X117860000Y-96990000D03*
X120560000Y-96990000D03*
X161040000Y-62700000D03*
X163740000Y-62700000D03*
X161040000Y-65240000D03*
X163740000Y-65240000D03*
X161040000Y-67780000D03*
X163740000Y-67780000D03*
X161040000Y-70320000D03*
X163740000Y-70320000D03*
X126910000Y-96990000D03*
X124210000Y-96990000D03*
X125480000Y-57620000D03*
X128180000Y-57620000D03*
X125480000Y-65240000D03*
X128180000Y-65240000D03*
X120400000Y-57620000D03*
X123100000Y-57620000D03*
X120400000Y-65240000D03*
X123100000Y-65240000D03*
X161040000Y-72860000D03*
X163740000Y-72860000D03*
X161040000Y-75400000D03*
X163740000Y-75400000D03*
X111510000Y-96990000D03*
X114210000Y-96990000D03*
D14*
X119210000Y-72860000D03*
D15*
X119210000Y-83020000D03*
D16*
X92540000Y-60160000D03*
X92540000Y-62700000D03*
X92540000Y-65240000D03*
X92540000Y-67780000D03*
X92540000Y-70320000D03*
X92540000Y-72860000D03*
X92540000Y-75400000D03*
X92540000Y-77940000D03*
X92540000Y-80480000D03*
X92540000Y-83020000D03*
X92540000Y-85560000D03*
X92540000Y-88100000D03*
X92540000Y-90640000D03*
X92540000Y-93180000D03*
X92540000Y-95720000D03*
X107780000Y-95720000D03*
X107780000Y-93180000D03*
X107780000Y-90640000D03*
X107780000Y-88100000D03*
X107780000Y-85560000D03*
X107780000Y-83020000D03*
X107780000Y-80480000D03*
X107780000Y-77940000D03*
X107780000Y-75400000D03*
X107780000Y-72860000D03*
X107780000Y-70320000D03*
X107780000Y-67780000D03*
X107780000Y-65240000D03*
X107780000Y-62700000D03*
X107780000Y-60160000D03*
D17*
X103970000Y-80480000D03*
D15*
X96350000Y-60160000D03*
X103970000Y-77940000D03*
X96350000Y-62700000D03*
X103970000Y-75400000D03*
X96350000Y-65240000D03*
X103970000Y-72860000D03*
X96350000Y-67780000D03*
X103970000Y-70320000D03*
X96350000Y-70320000D03*
X103970000Y-67780000D03*
X96350000Y-72860000D03*
X103970000Y-65240000D03*
X96350000Y-75400000D03*
X103970000Y-62700000D03*
X96350000Y-77940000D03*
X103970000Y-60160000D03*
X96350000Y-80480000D03*
D17*
X96350000Y-88100000D03*
D15*
X103970000Y-95720000D03*
X96350000Y-90640000D03*
X103970000Y-93180000D03*
X96350000Y-93180000D03*
X103970000Y-90640000D03*
X96350000Y-95720000D03*
X103970000Y-88100000D03*
D14*
X123020000Y-89370000D03*
X115400000Y-89370000D03*
X115400000Y-94450000D03*
X123020000Y-94450000D03*
D18*
X154770000Y-53810000D03*
X154770000Y-56350000D03*
X170010000Y-53810000D03*
X170010000Y-56350000D03*
D19*
X153500000Y-96990000D03*
X150960000Y-96990000D03*
X171280000Y-96990000D03*
X173820000Y-96990000D03*
D20*
X187790000Y-94450000D03*
X187790000Y-91910000D03*
X187790000Y-89370000D03*
X187790000Y-86830000D03*
X187790000Y-84290000D03*
X187790000Y-81750000D03*
X187790000Y-79210000D03*
X187790000Y-76670000D03*
X187790000Y-74130000D03*
X187790000Y-71590000D03*
X187790000Y-69050000D03*
X187790000Y-66510000D03*
X180170000Y-66510000D03*
X180170000Y-69050000D03*
X180170000Y-71590000D03*
X180170000Y-74130000D03*
X180170000Y-76670000D03*
X180170000Y-79210000D03*
X180170000Y-81750000D03*
X180170000Y-84290000D03*
X180170000Y-86830000D03*
X180170000Y-89370000D03*
X180170000Y-91910000D03*
X180170000Y-94450000D03*
X187790000Y-61430000D03*
X187790000Y-58890000D03*
X187790000Y-56350000D03*
X180170000Y-56350000D03*
X180170000Y-58890000D03*
X180170000Y-61430000D03*
D16*
X130640000Y-60160000D03*
X130640000Y-62700000D03*
X130640000Y-65240000D03*
X130640000Y-67780000D03*
X130640000Y-70320000D03*
X130640000Y-72860000D03*
X130640000Y-75400000D03*
X130640000Y-77940000D03*
X130640000Y-80480000D03*
X130640000Y-83020000D03*
X130640000Y-85560000D03*
X130640000Y-88100000D03*
X130640000Y-90640000D03*
X130640000Y-93180000D03*
X130640000Y-95720000D03*
X145880000Y-95720000D03*
X145880000Y-93180000D03*
X145880000Y-90640000D03*
X145880000Y-88100000D03*
X145880000Y-85560000D03*
X145880000Y-83020000D03*
X145880000Y-80480000D03*
X145880000Y-77940000D03*
X145880000Y-75400000D03*
X145880000Y-72860000D03*
X145880000Y-70320000D03*
X145880000Y-67780000D03*
X145880000Y-65240000D03*
X145880000Y-62700000D03*
X145880000Y-60160000D03*
D17*
X142070000Y-80480000D03*
D15*
X134450000Y-60160000D03*
X142070000Y-77940000D03*
X134450000Y-62700000D03*
X142070000Y-75400000D03*
X134450000Y-65240000D03*
X142070000Y-72860000D03*
X134450000Y-67780000D03*
X142070000Y-70320000D03*
X134450000Y-70320000D03*
X142070000Y-67780000D03*
X134450000Y-72860000D03*
X142070000Y-65240000D03*
X134450000Y-75400000D03*
X142070000Y-62700000D03*
X134450000Y-77940000D03*
X142070000Y-60160000D03*
X134450000Y-80480000D03*
D17*
X134450000Y-88100000D03*
D15*
X142070000Y-95720000D03*
X134450000Y-90640000D03*
X142070000Y-93180000D03*
X134450000Y-93180000D03*
X142070000Y-90640000D03*
X134450000Y-95720000D03*
X142070000Y-88100000D03*
D21*
X97620000Y-53810000D03*
X102620000Y-53810000D03*
X135720000Y-53810000D03*
X140720000Y-53810000D03*
D22*
X95080000Y-51270000D03*
X133180000Y-91910000D03*
X105875000Y-65240000D03*
X105875000Y-68415000D03*
X109685000Y-85560000D03*
X105240000Y-55715000D03*
X98255000Y-90640000D03*
X109685000Y-93180000D03*
X112225000Y-90640000D03*
X114130000Y-92545000D03*
X167470000Y-55080000D03*
X143340000Y-60160000D03*
X116035000Y-96990000D03*
X122385000Y-96990000D03*
X108415000Y-52540000D03*
X130005000Y-52540000D03*
X143340000Y-51270000D03*
X99525000Y-72225000D03*
X91270000Y-69050000D03*
X91270000Y-91910000D03*
X95080000Y-72860000D03*
X100795000Y-80480000D03*
X100795000Y-76670000D03*
X131910000Y-63970000D03*
X131910000Y-72860000D03*
X137625000Y-68415000D03*
X119210000Y-63970000D03*
X128735000Y-94450000D03*
X136990000Y-94450000D03*
X125560000Y-91910000D03*
X149055000Y-67780000D03*
X125560000Y-66510000D03*
X131910000Y-66510000D03*
X98255000Y-79210000D03*
X99525000Y-84290000D03*
X117940000Y-98895000D03*
X157945000Y-67780000D03*
X159215000Y-65240000D03*
X159215000Y-70320000D03*
X159215000Y-72860000D03*
X159215000Y-62700000D03*
X159215000Y-75400000D03*
X110320000Y-67780000D03*
X115400000Y-56350000D03*
X120480000Y-56350000D03*
X110320000Y-56350000D03*
X125560000Y-56350000D03*
X115400000Y-63970000D03*
X120480000Y-63970000D03*
X110320000Y-63970000D03*
X125560000Y-63970000D03*
X95080000Y-83020000D03*
X119210000Y-88100000D03*
X120480000Y-99530000D03*
X120480000Y-95085000D03*
X147150000Y-74130000D03*
X177630000Y-56350000D03*
X147150000Y-76670000D03*
X177630000Y-58890000D03*
X147150000Y-79210000D03*
X177630000Y-61430000D03*
X147150000Y-83020000D03*
X177630000Y-66510000D03*
X144610000Y-99530000D03*
X147150000Y-85560000D03*
X177630000Y-69050000D03*
X147150000Y-88100000D03*
X177630000Y-71590000D03*
X110955000Y-86830000D03*
X143340000Y-98260000D03*
X126830000Y-93180000D03*
X149690000Y-93180000D03*
X147150000Y-93180000D03*
X133815000Y-58255000D03*
X142705000Y-58255000D03*
X133815000Y-56985000D03*
X142705000Y-56985000D03*
X182075000Y-75400000D03*
X130640000Y-89370000D03*
X182075000Y-77940000D03*
X130640000Y-86830000D03*
X130640000Y-84290000D03*
X182075000Y-80480000D03*
X130640000Y-81750000D03*
X182075000Y-83020000D03*
X130640000Y-79210000D03*
X182075000Y-85560000D03*
X157945000Y-85560000D03*
X150325000Y-85560000D03*
X130640000Y-76670000D03*
X182075000Y-88100000D03*
X149055000Y-83020000D03*
X157945000Y-83020000D03*
X176360000Y-89370000D03*
X130640000Y-74130000D03*
X131910000Y-70320000D03*
X147785000Y-80480000D03*
X177630000Y-91910000D03*
X157945000Y-80480000D03*
D23*
X95080000Y-51270000D02*
X93810000Y-52540000D01*
X93810000Y-52540000D02*
X93810000Y-52560000D01*
X138260000Y-54445000D02*
X138875000Y-55060000D01*
X138895000Y-55080000D02*
X138895000Y-55060000D01*
X138875000Y-55060000D02*
X138895000Y-55080000D01*
X138260000Y-53175000D02*
X138260000Y-54445000D01*
X136355000Y-51270000D02*
X138260000Y-53175000D01*
X128735000Y-51270000D02*
X102065000Y-51270000D01*
X100160000Y-53175000D02*
X102065000Y-51270000D01*
X100160000Y-54445000D02*
X100160000Y-53175000D01*
X128735000Y-51270000D02*
X136355000Y-51270000D01*
X137625000Y-55080000D02*
X137625000Y-55060000D01*
X137645000Y-55060000D02*
X137625000Y-55080000D01*
X138260000Y-54445000D02*
X137645000Y-55060000D01*
X100160000Y-54445000D02*
X100795000Y-55080000D01*
X99545000Y-55060000D02*
X100160000Y-54445000D01*
X93810000Y-55060000D02*
X99545000Y-55060000D01*
X100795000Y-55080000D02*
X106490000Y-55080000D01*
X106490000Y-55080000D02*
X106510000Y-55060000D01*
X128100000Y-91910000D02*
X126830000Y-90640000D01*
X133180000Y-91910000D02*
X128100000Y-91910000D01*
X117305000Y-92545000D02*
X114130000Y-92545000D01*
X118575000Y-91275000D02*
X117305000Y-92545000D01*
X124290000Y-91275000D02*
X118575000Y-91275000D01*
X124925000Y-90640000D02*
X124290000Y-91275000D01*
X126830000Y-90640000D02*
X124925000Y-90640000D01*
X105875000Y-65240000D02*
X105875000Y-68415000D01*
X112225000Y-86195000D02*
X112225000Y-90640000D01*
X111590000Y-85560000D02*
X112225000Y-86195000D01*
X109685000Y-85560000D02*
X111590000Y-85560000D01*
X106510000Y-55060000D02*
X105895000Y-55060000D01*
X105895000Y-55060000D02*
X105240000Y-55715000D01*
X98255000Y-90640000D02*
X102065000Y-94450000D01*
X102065000Y-94450000D02*
X108415000Y-94450000D01*
X108415000Y-94450000D02*
X109685000Y-93180000D01*
X112225000Y-90640000D02*
X114130000Y-92545000D01*
X150960000Y-51905000D02*
X164295000Y-51905000D01*
X147805000Y-55060000D02*
X150960000Y-51905000D01*
X144610000Y-55060000D02*
X147805000Y-55060000D01*
X164295000Y-51905000D02*
X167470000Y-55080000D01*
X131910000Y-55060000D02*
X137625000Y-55060000D01*
X138895000Y-55060000D02*
X144610000Y-55060000D01*
X144610000Y-55060000D02*
X144610000Y-58890000D01*
X144610000Y-58890000D02*
X143340000Y-60160000D01*
X114210000Y-96990000D02*
X116035000Y-96990000D01*
X124210000Y-96990000D02*
X122385000Y-96990000D01*
X108415000Y-52540000D02*
X106530000Y-52540000D01*
X106530000Y-52540000D02*
X106510000Y-52560000D01*
X106510000Y-52560000D02*
X106510000Y-52540000D01*
X130005000Y-52540000D02*
X131890000Y-52540000D01*
X131890000Y-52540000D02*
X131910000Y-52560000D01*
X131910000Y-52560000D02*
X131910000Y-52540000D01*
X143340000Y-51270000D02*
X144610000Y-52540000D01*
X144610000Y-52540000D02*
X144610000Y-52560000D01*
X102065000Y-63970000D02*
X99525000Y-66510000D01*
X108415000Y-63970000D02*
X109685000Y-62700000D01*
X110490000Y-62700000D02*
X109685000Y-62700000D01*
X108415000Y-63970000D02*
X102065000Y-63970000D01*
X99525000Y-66510000D02*
X99525000Y-72225000D01*
X91270000Y-91910000D02*
X91270000Y-71590000D01*
X91270000Y-71590000D02*
X91270000Y-69050000D01*
X112690000Y-62700000D02*
X112690000Y-64990000D01*
X112690000Y-64990000D02*
X112940000Y-65240000D01*
X108500000Y-57070000D02*
X107315000Y-58255000D01*
X94445000Y-71590000D02*
X94445000Y-60160000D01*
X94445000Y-71590000D02*
X94445000Y-72225000D01*
X94445000Y-72225000D02*
X95080000Y-72860000D01*
X96350000Y-58255000D02*
X106510000Y-58255000D01*
X94445000Y-60160000D02*
X96350000Y-58255000D01*
X107315000Y-58255000D02*
X106510000Y-58255000D01*
X108415000Y-57155000D02*
X108500000Y-57070000D01*
X108500000Y-57070000D02*
X110490000Y-55080000D01*
X109685000Y-55080000D02*
X110490000Y-55080000D01*
X112690000Y-55080000D02*
X112690000Y-57370000D01*
X112690000Y-57370000D02*
X112940000Y-57620000D01*
X98255000Y-69050000D02*
X98255000Y-72860000D01*
X98255000Y-64605000D02*
X98255000Y-69050000D01*
X110320000Y-60795000D02*
X109050000Y-60795000D01*
X113495000Y-60795000D02*
X110320000Y-60795000D01*
X115400000Y-62700000D02*
X113495000Y-60795000D01*
X101430000Y-61430000D02*
X99525000Y-63335000D01*
X108415000Y-61430000D02*
X101430000Y-61430000D01*
X109050000Y-60795000D02*
X108415000Y-61430000D01*
X99525000Y-63335000D02*
X98255000Y-64605000D01*
X102065000Y-79210000D02*
X100795000Y-80480000D01*
X102065000Y-76670000D02*
X102065000Y-79210000D01*
X98255000Y-72860000D02*
X102065000Y-76670000D01*
X115570000Y-62700000D02*
X115400000Y-62700000D01*
X117770000Y-62700000D02*
X117770000Y-64990000D01*
X117770000Y-64990000D02*
X118020000Y-65240000D01*
X98890000Y-56985000D02*
X107145000Y-56985000D01*
X93810000Y-59525000D02*
X96350000Y-56985000D01*
X96350000Y-56985000D02*
X98890000Y-56985000D01*
X93810000Y-62065000D02*
X93810000Y-70955000D01*
X93810000Y-73495000D02*
X93810000Y-70955000D01*
X94445000Y-74130000D02*
X93810000Y-73495000D01*
X98255000Y-74130000D02*
X94445000Y-74130000D01*
X100795000Y-76670000D02*
X98255000Y-74130000D01*
X93810000Y-62065000D02*
X93810000Y-59525000D01*
X113665000Y-53175000D02*
X115570000Y-55080000D01*
X109685000Y-53175000D02*
X113665000Y-53175000D01*
X108415000Y-54445000D02*
X109685000Y-53175000D01*
X108415000Y-55715000D02*
X108415000Y-54445000D01*
X107145000Y-56985000D02*
X108415000Y-55715000D01*
X115570000Y-55080000D02*
X115400000Y-55080000D01*
X117770000Y-55080000D02*
X117770000Y-57370000D01*
X117770000Y-57370000D02*
X118020000Y-57620000D01*
X126195000Y-53810000D02*
X125730000Y-54275000D01*
X128735000Y-53810000D02*
X126195000Y-53810000D01*
X131910000Y-60160000D02*
X131910000Y-58890000D01*
X131910000Y-63970000D02*
X131910000Y-60160000D01*
X130005000Y-56985000D02*
X130005000Y-55080000D01*
X131910000Y-58890000D02*
X130005000Y-56985000D01*
X130005000Y-55080000D02*
X128735000Y-53810000D01*
X125730000Y-54275000D02*
X125730000Y-55080000D01*
X127930000Y-55080000D02*
X127930000Y-57370000D01*
X127930000Y-57370000D02*
X128180000Y-57620000D01*
X129370000Y-65240000D02*
X129370000Y-61430000D01*
X131275000Y-71590000D02*
X130005000Y-71590000D01*
X131910000Y-72860000D02*
X131910000Y-72225000D01*
X131910000Y-72225000D02*
X131275000Y-71590000D01*
X129370000Y-69685000D02*
X129370000Y-65240000D01*
X129370000Y-70955000D02*
X129370000Y-69685000D01*
X130005000Y-71590000D02*
X129370000Y-70955000D01*
X125730000Y-61895000D02*
X125730000Y-62700000D01*
X126830000Y-60795000D02*
X125730000Y-61895000D01*
X128735000Y-60795000D02*
X126830000Y-60795000D01*
X129370000Y-61430000D02*
X128735000Y-60795000D01*
X127930000Y-62700000D02*
X127930000Y-64990000D01*
X127930000Y-64990000D02*
X128180000Y-65240000D01*
X130640000Y-56350000D02*
X130640000Y-54445000D01*
X133815000Y-63970000D02*
X133180000Y-63335000D01*
X137625000Y-68415000D02*
X137625000Y-65875000D01*
X137625000Y-65875000D02*
X135720000Y-63970000D01*
X135720000Y-63970000D02*
X133815000Y-63970000D01*
X133180000Y-58890000D02*
X130640000Y-56350000D01*
X133180000Y-61430000D02*
X133180000Y-58890000D01*
X133180000Y-63335000D02*
X133180000Y-61430000D01*
X120650000Y-54275000D02*
X120650000Y-55080000D01*
X122385000Y-52540000D02*
X120650000Y-54275000D01*
X128735000Y-52540000D02*
X122385000Y-52540000D01*
X130640000Y-54445000D02*
X128735000Y-52540000D01*
X122850000Y-55080000D02*
X122850000Y-57370000D01*
X122850000Y-57370000D02*
X123100000Y-57620000D01*
X120650000Y-62700000D02*
X120480000Y-62700000D01*
X120480000Y-62700000D02*
X119210000Y-63970000D01*
X130005000Y-94450000D02*
X133180000Y-94450000D01*
X133180000Y-94450000D02*
X136990000Y-94450000D01*
X130005000Y-94450000D02*
X128735000Y-94450000D01*
X122850000Y-62700000D02*
X122850000Y-64990000D01*
X122850000Y-64990000D02*
X123100000Y-65240000D01*
X121115000Y-91910000D02*
X120480000Y-92545000D01*
X117860000Y-96990000D02*
X117860000Y-95165000D01*
X120480000Y-92545000D02*
X117860000Y-95165000D01*
X124290000Y-91910000D02*
X121115000Y-91910000D01*
X125560000Y-91910000D02*
X124290000Y-91910000D01*
X107145000Y-69050000D02*
X109050000Y-69050000D01*
X105875000Y-70320000D02*
X107145000Y-69050000D01*
X99525000Y-84290000D02*
X103335000Y-84290000D01*
X105875000Y-81750000D02*
X105875000Y-79210000D01*
X103335000Y-84290000D02*
X105875000Y-81750000D01*
X105875000Y-79210000D02*
X105875000Y-70320000D01*
X109050000Y-69050000D02*
X110320000Y-67780000D01*
X131910000Y-67780000D02*
X131910000Y-66510000D01*
X149055000Y-67780000D02*
X147785000Y-69050000D01*
X147785000Y-69050000D02*
X139530000Y-69050000D01*
X139530000Y-69050000D02*
X138895000Y-69685000D01*
X138895000Y-69685000D02*
X136355000Y-69685000D01*
X136355000Y-69685000D02*
X135720000Y-69050000D01*
X135720000Y-69050000D02*
X133180000Y-69050000D01*
X133180000Y-69050000D02*
X131910000Y-67780000D01*
X125480000Y-66430000D02*
X125480000Y-65240000D01*
X125560000Y-66510000D02*
X125480000Y-66430000D01*
X99525000Y-80480000D02*
X98255000Y-79210000D01*
X99525000Y-84290000D02*
X99525000Y-80480000D01*
X117860000Y-98815000D02*
X117860000Y-96990000D01*
X117940000Y-98895000D02*
X117860000Y-98815000D01*
X161040000Y-67780000D02*
X157945000Y-67780000D01*
X161040000Y-65240000D02*
X159215000Y-65240000D01*
X161040000Y-70320000D02*
X159215000Y-70320000D01*
X161040000Y-72860000D02*
X159215000Y-72860000D01*
X161040000Y-62700000D02*
X159215000Y-62700000D01*
X159215000Y-75400000D02*
X161040000Y-75400000D01*
X110240000Y-65240000D02*
X110240000Y-67700000D01*
X110240000Y-67700000D02*
X110320000Y-67780000D01*
X115320000Y-57620000D02*
X115320000Y-56430000D01*
X115320000Y-56430000D02*
X115400000Y-56350000D01*
X120400000Y-57620000D02*
X120400000Y-56430000D01*
X120400000Y-56430000D02*
X120480000Y-56350000D01*
X125480000Y-57620000D02*
X125480000Y-56430000D01*
X110240000Y-56430000D02*
X110320000Y-56350000D01*
X110240000Y-56430000D02*
X110240000Y-57620000D01*
X125480000Y-56430000D02*
X125560000Y-56350000D01*
X115320000Y-65240000D02*
X115320000Y-64050000D01*
X115320000Y-64050000D02*
X115400000Y-63970000D01*
X120400000Y-65240000D02*
X120400000Y-64050000D01*
X120400000Y-64050000D02*
X120480000Y-63970000D01*
X110240000Y-65240000D02*
X110240000Y-64050000D01*
X110240000Y-64050000D02*
X110320000Y-63970000D01*
X125480000Y-64050000D02*
X125480000Y-65240000D01*
X125560000Y-63970000D02*
X125480000Y-64050000D01*
X95080000Y-83020000D02*
X97620000Y-85560000D01*
X97620000Y-85560000D02*
X103335000Y-85560000D01*
X103335000Y-85560000D02*
X104605000Y-84290000D01*
X104605000Y-84290000D02*
X115400000Y-84290000D01*
X115400000Y-84290000D02*
X119210000Y-88100000D01*
X120560000Y-99450000D02*
X120560000Y-96990000D01*
X120480000Y-99530000D02*
X120560000Y-99450000D01*
X120560000Y-96990000D02*
X120560000Y-95165000D01*
X120560000Y-95165000D02*
X120480000Y-95085000D01*
X157310000Y-63970000D02*
X147150000Y-74130000D01*
X157310000Y-63970000D02*
X158580000Y-63970000D01*
X163025000Y-63970000D02*
X158580000Y-63970000D01*
X163740000Y-63255000D02*
X163025000Y-63970000D01*
X163740000Y-62700000D02*
X163740000Y-63255000D01*
X167470000Y-62700000D02*
X163740000Y-62700000D01*
X173820000Y-56350000D02*
X167470000Y-62700000D01*
X177630000Y-56350000D02*
X173820000Y-56350000D01*
X157310000Y-66510000D02*
X147150000Y-76670000D01*
X163740000Y-65795000D02*
X163025000Y-66510000D01*
X163025000Y-66510000D02*
X158580000Y-66510000D01*
X158580000Y-66510000D02*
X157310000Y-66510000D01*
X163740000Y-65240000D02*
X163740000Y-65795000D01*
X163740000Y-65240000D02*
X167470000Y-65240000D01*
X177630000Y-58890000D02*
X173820000Y-58890000D01*
X173820000Y-58890000D02*
X167470000Y-65240000D01*
X148420000Y-77940000D02*
X147150000Y-79210000D01*
X157310000Y-69050000D02*
X158580000Y-69050000D01*
X162470000Y-69050000D02*
X158580000Y-69050000D01*
X163740000Y-67780000D02*
X162470000Y-69050000D01*
X148420000Y-77940000D02*
X157310000Y-69050000D01*
X163740000Y-67780000D02*
X167470000Y-67780000D01*
X177630000Y-61430000D02*
X173820000Y-61430000D01*
X173820000Y-61430000D02*
X167470000Y-67780000D01*
X149690000Y-80480000D02*
X147150000Y-83020000D01*
X149690000Y-79210000D02*
X157310000Y-71590000D01*
X163740000Y-70320000D02*
X162470000Y-71590000D01*
X162470000Y-71590000D02*
X158580000Y-71590000D01*
X157310000Y-71590000D02*
X158580000Y-71590000D01*
X149690000Y-79210000D02*
X149690000Y-80480000D01*
X163740000Y-70320000D02*
X167470000Y-70320000D01*
X177630000Y-66510000D02*
X171280000Y-66510000D01*
X171280000Y-66510000D02*
X167470000Y-70320000D01*
X128775000Y-98855000D02*
X129450000Y-99530000D01*
X129450000Y-99530000D02*
X144610000Y-99530000D01*
X126910000Y-96990000D02*
X128775000Y-98855000D01*
X128775000Y-98855000D02*
X128815000Y-98895000D01*
X147785000Y-85560000D02*
X147150000Y-85560000D01*
X148420000Y-85560000D02*
X151595000Y-82385000D01*
X151595000Y-82385000D02*
X151595000Y-81750000D01*
X157310000Y-74130000D02*
X151595000Y-79845000D01*
X157310000Y-74130000D02*
X158580000Y-74130000D01*
X162470000Y-74130000D02*
X158580000Y-74130000D01*
X163740000Y-72860000D02*
X162470000Y-74130000D01*
X151595000Y-79845000D02*
X151595000Y-81750000D01*
X147785000Y-85560000D02*
X148420000Y-85560000D01*
X163740000Y-72860000D02*
X167470000Y-72860000D01*
X177630000Y-69050000D02*
X171280000Y-69050000D01*
X171280000Y-69050000D02*
X167470000Y-72860000D01*
X148420000Y-88100000D02*
X147150000Y-88100000D01*
X153500000Y-84290000D02*
X153500000Y-83020000D01*
X148420000Y-88100000D02*
X149690000Y-88100000D01*
X149690000Y-88100000D02*
X152865000Y-84925000D01*
X156675000Y-77305000D02*
X153500000Y-80480000D01*
X156675000Y-77305000D02*
X157310000Y-76670000D01*
X157310000Y-76670000D02*
X158580000Y-76670000D01*
X162470000Y-76670000D02*
X158580000Y-76670000D01*
X163740000Y-75400000D02*
X162470000Y-76670000D01*
X153500000Y-80480000D02*
X153500000Y-82385000D01*
X153500000Y-82385000D02*
X153500000Y-83020000D01*
X152865000Y-84925000D02*
X153500000Y-84290000D01*
X163740000Y-75400000D02*
X167470000Y-75400000D01*
X177630000Y-71590000D02*
X171280000Y-71590000D01*
X171280000Y-71590000D02*
X167470000Y-75400000D01*
X111510000Y-96990000D02*
X110955000Y-96435000D01*
X110955000Y-96435000D02*
X110955000Y-86830000D01*
X128100000Y-95720000D02*
X126830000Y-94450000D01*
X130640000Y-98260000D02*
X128735000Y-96355000D01*
X143340000Y-98260000D02*
X130640000Y-98260000D01*
X128100000Y-95720000D02*
X128735000Y-96355000D01*
X126830000Y-94450000D02*
X126830000Y-93180000D01*
X147150000Y-93180000D02*
X149690000Y-93180000D01*
X142705000Y-58255000D02*
X133815000Y-58255000D01*
X142705000Y-56985000D02*
X133815000Y-56985000D01*
X185885000Y-95085000D02*
X185885000Y-79210000D01*
X184014998Y-100130002D02*
X185885000Y-98260000D01*
X185885000Y-98260000D02*
X185885000Y-95085000D01*
X180170000Y-100130002D02*
X184014998Y-100130002D01*
X185885000Y-79210000D02*
X182075000Y-75400000D01*
X154770000Y-100130002D02*
X180170000Y-100130002D01*
X180170000Y-100130002D02*
X180204998Y-100130002D01*
X145245000Y-98260000D02*
X147115002Y-100130002D01*
X143975000Y-96990000D02*
X145245000Y-98260000D01*
X136355000Y-92545000D02*
X140800000Y-96990000D01*
X136355000Y-90005000D02*
X136355000Y-92545000D01*
X135720000Y-89370000D02*
X136355000Y-90005000D01*
X134450000Y-89370000D02*
X135720000Y-89370000D01*
X130640000Y-89370000D02*
X134450000Y-89370000D01*
X140800000Y-96990000D02*
X143975000Y-96990000D01*
X147115002Y-100130002D02*
X154770000Y-100130002D01*
X154770000Y-100130002D02*
X154804998Y-100130002D01*
X185250000Y-95754998D02*
X185250000Y-81115000D01*
X185250000Y-81115000D02*
X182075000Y-77940000D01*
X185250000Y-97625000D02*
X185250000Y-95754998D01*
X183345000Y-99530000D02*
X185250000Y-97625000D01*
X145245000Y-96990000D02*
X147785000Y-99530000D01*
X130640000Y-86830000D02*
X134450000Y-86830000D01*
X134450000Y-86830000D02*
X136355000Y-86830000D01*
X136355000Y-86830000D02*
X137625000Y-88100000D01*
X137625000Y-88100000D02*
X137625000Y-91275000D01*
X137625000Y-91275000D02*
X140800000Y-94450000D01*
X140800000Y-94450000D02*
X142705000Y-94450000D01*
X142705000Y-94450000D02*
X145245000Y-96990000D01*
X147785000Y-99530000D02*
X154135000Y-99530000D01*
X154135000Y-99530000D02*
X179535000Y-99530000D01*
X179535000Y-99530000D02*
X183345000Y-99530000D01*
X146515000Y-94450000D02*
X155405000Y-94450000D01*
X178265000Y-98895000D02*
X182710000Y-98895000D01*
X175725000Y-97625000D02*
X176995000Y-98895000D01*
X176995000Y-98895000D02*
X178265000Y-98895000D01*
X156040000Y-93815000D02*
X173820000Y-93815000D01*
X140800000Y-91910000D02*
X142705000Y-91910000D01*
X130640000Y-84290000D02*
X135720000Y-84290000D01*
X135720000Y-84290000D02*
X138895000Y-87465000D01*
X138895000Y-87465000D02*
X138895000Y-90005000D01*
X138895000Y-90005000D02*
X140800000Y-91910000D01*
X142705000Y-91910000D02*
X145245000Y-94450000D01*
X146515000Y-94450000D02*
X145245000Y-94450000D01*
X175725000Y-95720000D02*
X175725000Y-96990000D01*
X173820000Y-93815000D02*
X175725000Y-95720000D01*
X175725000Y-96990000D02*
X175725000Y-97625000D01*
X182710000Y-98895000D02*
X184615000Y-96990000D01*
X184615000Y-96990000D02*
X184615000Y-95789996D01*
X184615000Y-83020000D02*
X182075000Y-80480000D01*
X184615000Y-95789996D02*
X184615000Y-83020000D01*
X155405000Y-94450000D02*
X156040000Y-93815000D01*
X184014998Y-96741472D02*
X184014998Y-95789996D01*
X182461472Y-98294998D02*
X184014998Y-96741472D01*
X184014998Y-95789996D02*
X184014998Y-84959998D01*
X173185000Y-91910000D02*
X176325002Y-95050002D01*
X176325002Y-95050002D02*
X176325002Y-96955002D01*
X176325002Y-96955002D02*
X177664998Y-98294998D01*
X177664998Y-98294998D02*
X182461472Y-98294998D01*
X145245000Y-91910000D02*
X152865000Y-91910000D01*
X130640000Y-81750000D02*
X135720000Y-81750000D01*
X135720000Y-81750000D02*
X140165000Y-86195000D01*
X140165000Y-86195000D02*
X140165000Y-88735000D01*
X140165000Y-88735000D02*
X140800000Y-89370000D01*
X140800000Y-89370000D02*
X142705000Y-89370000D01*
X142705000Y-89370000D02*
X145245000Y-91910000D01*
X152865000Y-91910000D02*
X155405000Y-91910000D01*
X155405000Y-91910000D02*
X173185000Y-91910000D01*
X184014998Y-84959998D02*
X182075000Y-83020000D01*
X183414996Y-95789996D02*
X183414996Y-86899996D01*
X171915000Y-89370000D02*
X176995000Y-94450000D01*
X176995000Y-94450000D02*
X176995000Y-96776470D01*
X176995000Y-96776470D02*
X177913526Y-97694996D01*
X177913526Y-97694996D02*
X182005004Y-97694996D01*
X182005004Y-97694996D02*
X183414996Y-96285004D01*
X183414996Y-96285004D02*
X183414996Y-95789996D01*
X145245000Y-89370000D02*
X150325000Y-89370000D01*
X143975000Y-86830000D02*
X143975000Y-88100000D01*
X143975000Y-88100000D02*
X145245000Y-89370000D01*
X136355000Y-79210000D02*
X143340000Y-86195000D01*
X130640000Y-79210000D02*
X136355000Y-79210000D01*
X143340000Y-86195000D02*
X143975000Y-86830000D01*
X150325000Y-89370000D02*
X155405000Y-89370000D01*
X155405000Y-89370000D02*
X171915000Y-89370000D01*
X183414996Y-86899996D02*
X182075000Y-85560000D01*
X182710000Y-95720000D02*
X182710000Y-88735000D01*
X177630000Y-96355000D02*
X178265000Y-96990000D01*
X178265000Y-96990000D02*
X181440000Y-96990000D01*
X181440000Y-96990000D02*
X182710000Y-95720000D01*
X175725000Y-91910000D02*
X177630000Y-93815000D01*
X157945000Y-85560000D02*
X169375000Y-85560000D01*
X169375000Y-85560000D02*
X175725000Y-91910000D01*
X149055000Y-86830000D02*
X148420000Y-86830000D01*
X145245000Y-86830000D02*
X147785000Y-86830000D01*
X140165000Y-78575000D02*
X140165000Y-81750000D01*
X140165000Y-81750000D02*
X145245000Y-86830000D01*
X135085000Y-76670000D02*
X138260000Y-76670000D01*
X130640000Y-76670000D02*
X135085000Y-76670000D01*
X138260000Y-76670000D02*
X140165000Y-78575000D01*
X148420000Y-86830000D02*
X147785000Y-86830000D01*
X150325000Y-85560000D02*
X149055000Y-86830000D01*
X177630000Y-93815000D02*
X177630000Y-95085000D01*
X177630000Y-95085000D02*
X177630000Y-96355000D01*
X182710000Y-88735000D02*
X182075000Y-88100000D01*
X149055000Y-83020000D02*
X148420000Y-83655000D01*
X147785000Y-84290000D02*
X148420000Y-83655000D01*
X145245000Y-84290000D02*
X146515000Y-84290000D01*
X133180000Y-74130000D02*
X138260000Y-74130000D01*
X138260000Y-74130000D02*
X140800000Y-76670000D01*
X140800000Y-76670000D02*
X143340000Y-76670000D01*
X143340000Y-76670000D02*
X143975000Y-77305000D01*
X143975000Y-77305000D02*
X143975000Y-83020000D01*
X143975000Y-83020000D02*
X145245000Y-84290000D01*
X146515000Y-84290000D02*
X147150000Y-84290000D01*
X147150000Y-84290000D02*
X147785000Y-84290000D01*
X170010000Y-83020000D02*
X176360000Y-89370000D01*
X157945000Y-83020000D02*
X170010000Y-83020000D01*
X130640000Y-74130000D02*
X133180000Y-74130000D01*
X145245000Y-81750000D02*
X146515000Y-81750000D01*
X140800000Y-74130000D02*
X143975000Y-74130000D01*
X143975000Y-74130000D02*
X144610000Y-74765000D01*
X144610000Y-74765000D02*
X144610000Y-81115000D01*
X144610000Y-81115000D02*
X145245000Y-81750000D01*
X138260000Y-71590000D02*
X140165000Y-73495000D01*
X133180000Y-71590000D02*
X138260000Y-71590000D01*
X131910000Y-70320000D02*
X133180000Y-71590000D01*
X140165000Y-73495000D02*
X140800000Y-74130000D01*
X146515000Y-81750000D02*
X147785000Y-80480000D01*
X177630000Y-86195000D02*
X177630000Y-91910000D01*
X171915000Y-80480000D02*
X177630000Y-86195000D01*
X157945000Y-80480000D02*
X171915000Y-80480000D01*
D24*
G36*
X126829423Y-63345294D02*
X126944842Y-63524660D01*
X127120951Y-63644990D01*
X127203000Y-63661606D01*
X127203000Y-64109825D01*
X127055340Y-64204842D01*
X126935010Y-64380951D01*
X126892676Y-64590000D01*
X126892676Y-65890000D01*
X126929423Y-66085294D01*
X127044842Y-66264660D01*
X127220951Y-66384990D01*
X127430000Y-66427324D01*
X128643000Y-66427324D01*
X128643000Y-70954995D01*
X128642999Y-70955000D01*
X128676249Y-71122154D01*
X128698340Y-71233211D01*
X128841057Y-71446804D01*
X128855933Y-71469067D01*
X129490931Y-72104064D01*
X129490933Y-72104067D01*
X129680890Y-72230991D01*
X129513196Y-72634842D01*
X129512805Y-73083191D01*
X129684019Y-73497560D01*
X129912224Y-73726165D01*
X129813144Y-73964778D01*
X129812857Y-74293779D01*
X129912169Y-74534132D01*
X129685133Y-74760772D01*
X129513196Y-75174842D01*
X129512805Y-75623191D01*
X129684019Y-76037560D01*
X129912224Y-76266165D01*
X129813144Y-76504778D01*
X129812857Y-76833779D01*
X129912169Y-77074132D01*
X129685133Y-77300772D01*
X129513196Y-77714842D01*
X129512805Y-78163191D01*
X129684019Y-78577560D01*
X129912224Y-78806165D01*
X129813144Y-79044778D01*
X129812857Y-79373779D01*
X129912169Y-79614132D01*
X129685133Y-79840772D01*
X129513196Y-80254842D01*
X129512805Y-80703191D01*
X129684019Y-81117560D01*
X129912224Y-81346165D01*
X129813144Y-81584778D01*
X129812857Y-81913779D01*
X129912169Y-82154132D01*
X129685133Y-82380772D01*
X129513196Y-82794842D01*
X129512805Y-83243191D01*
X129684019Y-83657560D01*
X129912224Y-83886165D01*
X129813144Y-84124778D01*
X129812857Y-84453779D01*
X129912169Y-84694132D01*
X129685133Y-84920772D01*
X129513196Y-85334842D01*
X129512805Y-85783191D01*
X129684019Y-86197560D01*
X129912224Y-86426165D01*
X129813144Y-86664778D01*
X129812857Y-86993779D01*
X129912169Y-87234132D01*
X129685133Y-87460772D01*
X129513196Y-87874842D01*
X129512805Y-88323191D01*
X129684019Y-88737560D01*
X129912224Y-88966165D01*
X129813144Y-89204778D01*
X129812857Y-89533779D01*
X129912169Y-89774132D01*
X129685133Y-90000772D01*
X129513196Y-90414842D01*
X129512805Y-90863191D01*
X129684019Y-91277560D01*
X130000772Y-91594867D01*
X130414842Y-91766804D01*
X130863191Y-91767195D01*
X131277560Y-91595981D01*
X131594867Y-91279228D01*
X131766804Y-90865158D01*
X131767195Y-90416809D01*
X131635052Y-90097000D01*
X133261935Y-90097000D01*
X133152742Y-90360624D01*
X133256981Y-90567000D01*
X134377000Y-90567000D01*
X134377000Y-90547000D01*
X134523000Y-90547000D01*
X134523000Y-90567000D01*
X134543000Y-90567000D01*
X134543000Y-90713000D01*
X134523000Y-90713000D01*
X134523000Y-90733000D01*
X134377000Y-90733000D01*
X134377000Y-90713000D01*
X133256981Y-90713000D01*
X133152742Y-90919376D01*
X133335147Y-91359756D01*
X133695449Y-91731603D01*
X134117019Y-91914063D01*
X133916182Y-91954012D01*
X133485672Y-92241669D01*
X133198015Y-92672179D01*
X133097003Y-93180000D01*
X133198015Y-93687821D01*
X133221521Y-93723000D01*
X131634824Y-93723000D01*
X131766804Y-93405158D01*
X131767195Y-92956809D01*
X131595981Y-92542440D01*
X131279228Y-92225133D01*
X130865158Y-92053196D01*
X130416809Y-92052805D01*
X130002440Y-92224019D01*
X129685133Y-92540772D01*
X129513196Y-92954842D01*
X129512805Y-93403191D01*
X129644948Y-93723000D01*
X129140703Y-93723000D01*
X128900222Y-93623144D01*
X128571221Y-93622857D01*
X128267154Y-93748495D01*
X128034312Y-93980930D01*
X127908144Y-94284778D01*
X127907956Y-94499823D01*
X127557000Y-94148866D01*
X127557000Y-93585703D01*
X127656856Y-93345222D01*
X127657143Y-93016221D01*
X127531505Y-92712154D01*
X127299070Y-92479312D01*
X126995222Y-92353144D01*
X126666221Y-92352857D01*
X126362154Y-92478495D01*
X126129312Y-92710930D01*
X126003144Y-93014778D01*
X126002857Y-93343779D01*
X126103000Y-93586143D01*
X126103000Y-94449995D01*
X126102999Y-94450000D01*
X126136249Y-94617154D01*
X126158340Y-94728211D01*
X126315932Y-94964066D01*
X126315933Y-94964067D01*
X127154543Y-95802676D01*
X126160000Y-95802676D01*
X125964706Y-95839423D01*
X125785340Y-95954842D01*
X125665010Y-96130951D01*
X125622676Y-96340000D01*
X125622676Y-97640000D01*
X125659423Y-97835294D01*
X125774842Y-98014660D01*
X125950951Y-98134990D01*
X126160000Y-98177324D01*
X127069190Y-98177324D01*
X128260931Y-99369064D01*
X128260933Y-99369067D01*
X128935933Y-100044067D01*
X129171789Y-100201660D01*
X129450000Y-100257000D01*
X144204297Y-100257000D01*
X144444778Y-100356856D01*
X144773779Y-100357143D01*
X145077846Y-100231505D01*
X145310688Y-99999070D01*
X145436856Y-99695222D01*
X145437044Y-99480177D01*
X146354867Y-100398000D01*
X92059293Y-100398000D01*
X91469521Y-100280687D01*
X91019804Y-99980196D01*
X90719313Y-99530479D01*
X90602000Y-98940707D01*
X90602000Y-95943191D01*
X91412805Y-95943191D01*
X91584019Y-96357560D01*
X91900772Y-96674867D01*
X92314842Y-96846804D01*
X92763191Y-96847195D01*
X93177560Y-96675981D01*
X93494867Y-96359228D01*
X93666804Y-95945158D01*
X93667195Y-95496809D01*
X93495981Y-95082440D01*
X93179228Y-94765133D01*
X92765158Y-94593196D01*
X92316809Y-94592805D01*
X91902440Y-94764019D01*
X91585133Y-95080772D01*
X91413196Y-95494842D01*
X91412805Y-95943191D01*
X90602000Y-95943191D01*
X90602000Y-92411410D01*
X90800930Y-92610688D01*
X91104778Y-92736856D01*
X91433779Y-92737143D01*
X91518051Y-92702322D01*
X91413196Y-92954842D01*
X91412805Y-93403191D01*
X91584019Y-93817560D01*
X91900772Y-94134867D01*
X92314842Y-94306804D01*
X92763191Y-94307195D01*
X93177560Y-94135981D01*
X93494867Y-93819228D01*
X93666804Y-93405158D01*
X93667000Y-93180000D01*
X94997003Y-93180000D01*
X95098015Y-93687821D01*
X95385672Y-94118331D01*
X95816182Y-94405988D01*
X96037445Y-94450000D01*
X95816182Y-94494012D01*
X95385672Y-94781669D01*
X95098015Y-95212179D01*
X94997003Y-95720000D01*
X95098015Y-96227821D01*
X95385672Y-96658331D01*
X95816182Y-96945988D01*
X96324003Y-97047000D01*
X96375997Y-97047000D01*
X96883818Y-96945988D01*
X97314328Y-96658331D01*
X97601985Y-96227821D01*
X97702997Y-95720000D01*
X97601985Y-95212179D01*
X97314328Y-94781669D01*
X96883818Y-94494012D01*
X96662555Y-94450000D01*
X96883818Y-94405988D01*
X97314328Y-94118331D01*
X97601985Y-93687821D01*
X97702997Y-93180000D01*
X97601985Y-92672179D01*
X97314328Y-92241669D01*
X96883818Y-91954012D01*
X96682981Y-91914063D01*
X97104551Y-91731603D01*
X97464853Y-91359756D01*
X97647258Y-90919376D01*
X97543019Y-90713000D01*
X96423000Y-90713000D01*
X96423000Y-90733000D01*
X96277000Y-90733000D01*
X96277000Y-90713000D01*
X95156981Y-90713000D01*
X95052742Y-90919376D01*
X95235147Y-91359756D01*
X95595449Y-91731603D01*
X96017019Y-91914063D01*
X95816182Y-91954012D01*
X95385672Y-92241669D01*
X95098015Y-92672179D01*
X94997003Y-93180000D01*
X93667000Y-93180000D01*
X93667195Y-92956809D01*
X93495981Y-92542440D01*
X93179228Y-92225133D01*
X92765158Y-92053196D01*
X92316809Y-92052805D01*
X92062539Y-92157867D01*
X92096856Y-92075222D01*
X92097143Y-91746221D01*
X92062322Y-91661949D01*
X92314842Y-91766804D01*
X92763191Y-91767195D01*
X93177560Y-91595981D01*
X93494867Y-91279228D01*
X93666804Y-90865158D01*
X93667195Y-90416809D01*
X93495981Y-90002440D01*
X93179228Y-89685133D01*
X92765158Y-89513196D01*
X92316809Y-89512805D01*
X91997000Y-89644948D01*
X91997000Y-89094824D01*
X92314842Y-89226804D01*
X92763191Y-89227195D01*
X93177560Y-89055981D01*
X93494867Y-88739228D01*
X93666804Y-88325158D01*
X93667195Y-87876809D01*
X93495981Y-87462440D01*
X93333825Y-87300000D01*
X95012676Y-87300000D01*
X95012676Y-88900000D01*
X95049423Y-89095294D01*
X95164842Y-89274660D01*
X95340951Y-89394990D01*
X95550000Y-89437324D01*
X95852081Y-89437324D01*
X95595449Y-89548397D01*
X95235147Y-89920244D01*
X95052742Y-90360624D01*
X95156981Y-90567000D01*
X96277000Y-90567000D01*
X96277000Y-90547000D01*
X96423000Y-90547000D01*
X96423000Y-90567000D01*
X97543019Y-90567000D01*
X97647258Y-90360624D01*
X97464853Y-89920244D01*
X97104551Y-89548397D01*
X96847919Y-89437324D01*
X97150000Y-89437324D01*
X97345294Y-89400577D01*
X97524660Y-89285158D01*
X97644990Y-89109049D01*
X97687324Y-88900000D01*
X97687324Y-88100000D01*
X102617003Y-88100000D01*
X102718015Y-88607821D01*
X103005672Y-89038331D01*
X103436182Y-89325988D01*
X103657445Y-89370000D01*
X103436182Y-89414012D01*
X103005672Y-89701669D01*
X102718015Y-90132179D01*
X102617003Y-90640000D01*
X102718015Y-91147821D01*
X103005672Y-91578331D01*
X103436182Y-91865988D01*
X103657445Y-91910000D01*
X103436182Y-91954012D01*
X103005672Y-92241669D01*
X102718015Y-92672179D01*
X102617003Y-93180000D01*
X102718015Y-93687821D01*
X103005672Y-94118331D01*
X103436182Y-94405988D01*
X103657445Y-94450000D01*
X103436182Y-94494012D01*
X103005672Y-94781669D01*
X102718015Y-95212179D01*
X102617003Y-95720000D01*
X102718015Y-96227821D01*
X103005672Y-96658331D01*
X103436182Y-96945988D01*
X103944003Y-97047000D01*
X103995997Y-97047000D01*
X104503818Y-96945988D01*
X104934328Y-96658331D01*
X105221985Y-96227821D01*
X105278601Y-95943191D01*
X106652805Y-95943191D01*
X106824019Y-96357560D01*
X107140772Y-96674867D01*
X107554842Y-96846804D01*
X108003191Y-96847195D01*
X108417560Y-96675981D01*
X108734867Y-96359228D01*
X108906804Y-95945158D01*
X108907195Y-95496809D01*
X108735981Y-95082440D01*
X108419228Y-94765133D01*
X108005158Y-94593196D01*
X107556809Y-94592805D01*
X107142440Y-94764019D01*
X106825133Y-95080772D01*
X106653196Y-95494842D01*
X106652805Y-95943191D01*
X105278601Y-95943191D01*
X105322997Y-95720000D01*
X105221985Y-95212179D01*
X104934328Y-94781669D01*
X104503818Y-94494012D01*
X104282555Y-94450000D01*
X104503818Y-94405988D01*
X104934328Y-94118331D01*
X105221985Y-93687821D01*
X105278601Y-93403191D01*
X106652805Y-93403191D01*
X106824019Y-93817560D01*
X107140772Y-94134867D01*
X107554842Y-94306804D01*
X108003191Y-94307195D01*
X108417560Y-94135981D01*
X108734867Y-93819228D01*
X108906804Y-93405158D01*
X108907195Y-92956809D01*
X108735981Y-92542440D01*
X108419228Y-92225133D01*
X108005158Y-92053196D01*
X107556809Y-92052805D01*
X107142440Y-92224019D01*
X106825133Y-92540772D01*
X106653196Y-92954842D01*
X106652805Y-93403191D01*
X105278601Y-93403191D01*
X105322997Y-93180000D01*
X105221985Y-92672179D01*
X104934328Y-92241669D01*
X104503818Y-91954012D01*
X104282555Y-91910000D01*
X104503818Y-91865988D01*
X104934328Y-91578331D01*
X105221985Y-91147821D01*
X105278601Y-90863191D01*
X106652805Y-90863191D01*
X106824019Y-91277560D01*
X107140772Y-91594867D01*
X107554842Y-91766804D01*
X108003191Y-91767195D01*
X108417560Y-91595981D01*
X108734867Y-91279228D01*
X108906804Y-90865158D01*
X108907195Y-90416809D01*
X108735981Y-90002440D01*
X108419228Y-89685133D01*
X108005158Y-89513196D01*
X107556809Y-89512805D01*
X107142440Y-89684019D01*
X106825133Y-90000772D01*
X106653196Y-90414842D01*
X106652805Y-90863191D01*
X105278601Y-90863191D01*
X105322997Y-90640000D01*
X105221985Y-90132179D01*
X104934328Y-89701669D01*
X104503818Y-89414012D01*
X104282555Y-89370000D01*
X104503818Y-89325988D01*
X104934328Y-89038331D01*
X105221985Y-88607821D01*
X105278601Y-88323191D01*
X106652805Y-88323191D01*
X106824019Y-88737560D01*
X107140772Y-89054867D01*
X107554842Y-89226804D01*
X108003191Y-89227195D01*
X108417560Y-89055981D01*
X108734867Y-88739228D01*
X108906804Y-88325158D01*
X108907195Y-87876809D01*
X108735981Y-87462440D01*
X108419228Y-87145133D01*
X108054728Y-86993779D01*
X110127857Y-86993779D01*
X110228000Y-87236143D01*
X110228000Y-96313710D01*
X110222676Y-96340000D01*
X110222676Y-97640000D01*
X110259423Y-97835294D01*
X110374842Y-98014660D01*
X110550951Y-98134990D01*
X110760000Y-98177324D01*
X112260000Y-98177324D01*
X112455294Y-98140577D01*
X112634660Y-98025158D01*
X112754990Y-97849049D01*
X112797324Y-97640000D01*
X112797324Y-97194750D01*
X112933000Y-97194750D01*
X112933000Y-97744827D01*
X113013231Y-97938521D01*
X113161478Y-98086769D01*
X113355173Y-98167000D01*
X114005250Y-98167000D01*
X114137000Y-98035250D01*
X114137000Y-97063000D01*
X114283000Y-97063000D01*
X114283000Y-98035250D01*
X114414750Y-98167000D01*
X115064827Y-98167000D01*
X115258522Y-98086769D01*
X115406769Y-97938521D01*
X115487000Y-97744827D01*
X115487000Y-97194750D01*
X115355250Y-97063000D01*
X114283000Y-97063000D01*
X114137000Y-97063000D01*
X113064750Y-97063000D01*
X112933000Y-97194750D01*
X112797324Y-97194750D01*
X112797324Y-96340000D01*
X112777600Y-96235173D01*
X112933000Y-96235173D01*
X112933000Y-96785250D01*
X113064750Y-96917000D01*
X114137000Y-96917000D01*
X114137000Y-95944750D01*
X114283000Y-95944750D01*
X114283000Y-96917000D01*
X115355250Y-96917000D01*
X115487000Y-96785250D01*
X115487000Y-96340000D01*
X116572676Y-96340000D01*
X116572676Y-97640000D01*
X116609423Y-97835294D01*
X116724842Y-98014660D01*
X116900951Y-98134990D01*
X117110000Y-98177324D01*
X117133000Y-98177324D01*
X117133000Y-98681959D01*
X117113144Y-98729778D01*
X117112857Y-99058779D01*
X117238495Y-99362846D01*
X117470930Y-99595688D01*
X117774778Y-99721856D01*
X118103779Y-99722143D01*
X118407846Y-99596505D01*
X118640688Y-99364070D01*
X118766856Y-99060222D01*
X118767143Y-98731221D01*
X118641505Y-98427154D01*
X118587000Y-98372554D01*
X118587000Y-98177324D01*
X118610000Y-98177324D01*
X118805294Y-98140577D01*
X118984660Y-98025158D01*
X119104990Y-97849049D01*
X119147324Y-97640000D01*
X119147324Y-96340000D01*
X119272676Y-96340000D01*
X119272676Y-97640000D01*
X119309423Y-97835294D01*
X119424842Y-98014660D01*
X119600951Y-98134990D01*
X119810000Y-98177324D01*
X119833000Y-98177324D01*
X119833000Y-99007336D01*
X119779312Y-99060930D01*
X119653144Y-99364778D01*
X119652857Y-99693779D01*
X119778495Y-99997846D01*
X120010930Y-100230688D01*
X120314778Y-100356856D01*
X120643779Y-100357143D01*
X120947846Y-100231505D01*
X121180688Y-99999070D01*
X121306856Y-99695222D01*
X121307143Y-99366221D01*
X121287000Y-99317471D01*
X121287000Y-98177324D01*
X121310000Y-98177324D01*
X121505294Y-98140577D01*
X121684660Y-98025158D01*
X121804990Y-97849049D01*
X121847324Y-97640000D01*
X121847324Y-97194750D01*
X122933000Y-97194750D01*
X122933000Y-97744827D01*
X123013231Y-97938521D01*
X123161478Y-98086769D01*
X123355173Y-98167000D01*
X124005250Y-98167000D01*
X124137000Y-98035250D01*
X124137000Y-97063000D01*
X124283000Y-97063000D01*
X124283000Y-98035250D01*
X124414750Y-98167000D01*
X125064827Y-98167000D01*
X125258522Y-98086769D01*
X125406769Y-97938521D01*
X125487000Y-97744827D01*
X125487000Y-97194750D01*
X125355250Y-97063000D01*
X124283000Y-97063000D01*
X124137000Y-97063000D01*
X123064750Y-97063000D01*
X122933000Y-97194750D01*
X121847324Y-97194750D01*
X121847324Y-96340000D01*
X121827600Y-96235173D01*
X122933000Y-96235173D01*
X122933000Y-96785250D01*
X123064750Y-96917000D01*
X124137000Y-96917000D01*
X124137000Y-95944750D01*
X124283000Y-95944750D01*
X124283000Y-96917000D01*
X125355250Y-96917000D01*
X125487000Y-96785250D01*
X125487000Y-96235173D01*
X125406769Y-96041479D01*
X125258522Y-95893231D01*
X125064827Y-95813000D01*
X124414750Y-95813000D01*
X124283000Y-95944750D01*
X124137000Y-95944750D01*
X124005250Y-95813000D01*
X123355173Y-95813000D01*
X123161478Y-95893231D01*
X123013231Y-96041479D01*
X122933000Y-96235173D01*
X121827600Y-96235173D01*
X121810577Y-96144706D01*
X121695158Y-95965340D01*
X121519049Y-95845010D01*
X121310000Y-95802676D01*
X121287000Y-95802676D01*
X121287000Y-95363627D01*
X122209611Y-95363627D01*
X122284945Y-95585911D01*
X122775592Y-95780739D01*
X123303449Y-95772973D01*
X123755055Y-95585911D01*
X123830389Y-95363627D01*
X123020000Y-94553238D01*
X122209611Y-95363627D01*
X121287000Y-95363627D01*
X121287000Y-95298041D01*
X121306856Y-95250222D01*
X121307143Y-94921221D01*
X121181505Y-94617154D01*
X120949070Y-94384312D01*
X120645222Y-94258144D01*
X120316221Y-94257857D01*
X120012154Y-94383495D01*
X119779312Y-94615930D01*
X119653144Y-94919778D01*
X119652857Y-95248779D01*
X119778495Y-95552846D01*
X119833000Y-95607446D01*
X119833000Y-95802676D01*
X119810000Y-95802676D01*
X119614706Y-95839423D01*
X119435340Y-95954842D01*
X119315010Y-96130951D01*
X119272676Y-96340000D01*
X119147324Y-96340000D01*
X119110577Y-96144706D01*
X118995158Y-95965340D01*
X118819049Y-95845010D01*
X118610000Y-95802676D01*
X118587000Y-95802676D01*
X118587000Y-95466134D01*
X119847541Y-94205592D01*
X121689261Y-94205592D01*
X121697027Y-94733449D01*
X121884089Y-95185055D01*
X122106373Y-95260389D01*
X122916762Y-94450000D01*
X123123238Y-94450000D01*
X123933627Y-95260389D01*
X124155911Y-95185055D01*
X124350739Y-94694408D01*
X124342973Y-94166551D01*
X124155911Y-93714945D01*
X123933627Y-93639611D01*
X123123238Y-94450000D01*
X122916762Y-94450000D01*
X122106373Y-93639611D01*
X121884089Y-93714945D01*
X121689261Y-94205592D01*
X119847541Y-94205592D01*
X120516760Y-93536373D01*
X122209611Y-93536373D01*
X123020000Y-94346762D01*
X123830389Y-93536373D01*
X123755055Y-93314089D01*
X123264408Y-93119261D01*
X122736551Y-93127027D01*
X122284945Y-93314089D01*
X122209611Y-93536373D01*
X120516760Y-93536373D01*
X120994064Y-93059069D01*
X120994067Y-93059067D01*
X121416133Y-92637000D01*
X125154297Y-92637000D01*
X125394778Y-92736856D01*
X125723779Y-92737143D01*
X126027846Y-92611505D01*
X126260688Y-92379070D01*
X126386856Y-92075222D01*
X126387143Y-91746221D01*
X126261505Y-91442154D01*
X126029070Y-91209312D01*
X125725222Y-91083144D01*
X125396221Y-91082857D01*
X125153857Y-91183000D01*
X121115005Y-91183000D01*
X121115000Y-91182999D01*
X120882948Y-91229158D01*
X120836789Y-91238340D01*
X120600933Y-91395933D01*
X120600931Y-91395936D01*
X119965933Y-92030933D01*
X119965931Y-92030936D01*
X117345933Y-94650933D01*
X117188340Y-94886789D01*
X117188340Y-94886790D01*
X117132999Y-95165000D01*
X117133000Y-95165005D01*
X117133000Y-95802676D01*
X117110000Y-95802676D01*
X116914706Y-95839423D01*
X116735340Y-95954842D01*
X116615010Y-96130951D01*
X116572676Y-96340000D01*
X115487000Y-96340000D01*
X115487000Y-96235173D01*
X115406769Y-96041479D01*
X115258522Y-95893231D01*
X115064827Y-95813000D01*
X114414750Y-95813000D01*
X114283000Y-95944750D01*
X114137000Y-95944750D01*
X114005250Y-95813000D01*
X113355173Y-95813000D01*
X113161478Y-95893231D01*
X113013231Y-96041479D01*
X112933000Y-96235173D01*
X112777600Y-96235173D01*
X112760577Y-96144706D01*
X112645158Y-95965340D01*
X112469049Y-95845010D01*
X112260000Y-95802676D01*
X111682000Y-95802676D01*
X111682000Y-95363627D01*
X114589611Y-95363627D01*
X114664945Y-95585911D01*
X115155592Y-95780739D01*
X115683449Y-95772973D01*
X116135055Y-95585911D01*
X116210389Y-95363627D01*
X115400000Y-94553238D01*
X114589611Y-95363627D01*
X111682000Y-95363627D01*
X111682000Y-94205592D01*
X114069261Y-94205592D01*
X114077027Y-94733449D01*
X114264089Y-95185055D01*
X114486373Y-95260389D01*
X115296762Y-94450000D01*
X115503238Y-94450000D01*
X116313627Y-95260389D01*
X116535911Y-95185055D01*
X116730739Y-94694408D01*
X116722973Y-94166551D01*
X116535911Y-93714945D01*
X116313627Y-93639611D01*
X115503238Y-94450000D01*
X115296762Y-94450000D01*
X114486373Y-93639611D01*
X114264089Y-93714945D01*
X114069261Y-94205592D01*
X111682000Y-94205592D01*
X111682000Y-93536373D01*
X114589611Y-93536373D01*
X115400000Y-94346762D01*
X116210389Y-93536373D01*
X116135055Y-93314089D01*
X115644408Y-93119261D01*
X115116551Y-93127027D01*
X114664945Y-93314089D01*
X114589611Y-93536373D01*
X111682000Y-93536373D01*
X111682000Y-89632798D01*
X114072771Y-89632798D01*
X114274369Y-90120703D01*
X114647334Y-90494319D01*
X115134885Y-90696769D01*
X115662798Y-90697229D01*
X116150703Y-90495631D01*
X116524319Y-90122666D01*
X116726769Y-89635115D01*
X116726771Y-89632798D01*
X121692771Y-89632798D01*
X121894369Y-90120703D01*
X122267334Y-90494319D01*
X122754885Y-90696769D01*
X123282798Y-90697229D01*
X123770703Y-90495631D01*
X124144319Y-90122666D01*
X124346769Y-89635115D01*
X124347229Y-89107202D01*
X124145631Y-88619297D01*
X123772666Y-88245681D01*
X123285115Y-88043231D01*
X122757202Y-88042771D01*
X122269297Y-88244369D01*
X121895681Y-88617334D01*
X121693231Y-89104885D01*
X121692771Y-89632798D01*
X116726771Y-89632798D01*
X116727229Y-89107202D01*
X116525631Y-88619297D01*
X116152666Y-88245681D01*
X115665115Y-88043231D01*
X115137202Y-88042771D01*
X114649297Y-88244369D01*
X114275681Y-88617334D01*
X114073231Y-89104885D01*
X114072771Y-89632798D01*
X111682000Y-89632798D01*
X111682000Y-87235703D01*
X111781856Y-86995222D01*
X111782143Y-86666221D01*
X111656505Y-86362154D01*
X111424070Y-86129312D01*
X111120222Y-86003144D01*
X110791221Y-86002857D01*
X110487154Y-86128495D01*
X110254312Y-86360930D01*
X110128144Y-86664778D01*
X110127857Y-86993779D01*
X108054728Y-86993779D01*
X108005158Y-86973196D01*
X107556809Y-86972805D01*
X107142440Y-87144019D01*
X106825133Y-87460772D01*
X106653196Y-87874842D01*
X106652805Y-88323191D01*
X105278601Y-88323191D01*
X105322997Y-88100000D01*
X105221985Y-87592179D01*
X104934328Y-87161669D01*
X104503818Y-86874012D01*
X103995997Y-86773000D01*
X103944003Y-86773000D01*
X103436182Y-86874012D01*
X103005672Y-87161669D01*
X102718015Y-87592179D01*
X102617003Y-88100000D01*
X97687324Y-88100000D01*
X97687324Y-87300000D01*
X97650577Y-87104706D01*
X97535158Y-86925340D01*
X97359049Y-86805010D01*
X97150000Y-86762676D01*
X95550000Y-86762676D01*
X95354706Y-86799423D01*
X95175340Y-86914842D01*
X95055010Y-87090951D01*
X95012676Y-87300000D01*
X93333825Y-87300000D01*
X93179228Y-87145133D01*
X92765158Y-86973196D01*
X92316809Y-86972805D01*
X91997000Y-87104948D01*
X91997000Y-86554824D01*
X92314842Y-86686804D01*
X92763191Y-86687195D01*
X93177560Y-86515981D01*
X93494867Y-86199228D01*
X93666804Y-85785158D01*
X93667195Y-85336809D01*
X93495981Y-84922440D01*
X93179228Y-84605133D01*
X92765158Y-84433196D01*
X92316809Y-84432805D01*
X91997000Y-84564948D01*
X91997000Y-84014824D01*
X92314842Y-84146804D01*
X92763191Y-84147195D01*
X93177560Y-83975981D01*
X93494867Y-83659228D01*
X93666804Y-83245158D01*
X93667195Y-82796809D01*
X93495981Y-82382440D01*
X93179228Y-82065133D01*
X92765158Y-81893196D01*
X92316809Y-81892805D01*
X91997000Y-82024948D01*
X91997000Y-81474824D01*
X92314842Y-81606804D01*
X92763191Y-81607195D01*
X93177560Y-81435981D01*
X93494867Y-81119228D01*
X93666804Y-80705158D01*
X93667195Y-80256809D01*
X93495981Y-79842440D01*
X93179228Y-79525133D01*
X92765158Y-79353196D01*
X92316809Y-79352805D01*
X91997000Y-79484948D01*
X91997000Y-78934824D01*
X92314842Y-79066804D01*
X92763191Y-79067195D01*
X93177560Y-78895981D01*
X93494867Y-78579228D01*
X93666804Y-78165158D01*
X93667195Y-77716809D01*
X93495981Y-77302440D01*
X93179228Y-76985133D01*
X92765158Y-76813196D01*
X92316809Y-76812805D01*
X91997000Y-76944948D01*
X91997000Y-76394824D01*
X92314842Y-76526804D01*
X92763191Y-76527195D01*
X93177560Y-76355981D01*
X93494867Y-76039228D01*
X93666804Y-75625158D01*
X93667195Y-75176809D01*
X93495981Y-74762440D01*
X93179228Y-74445133D01*
X92765158Y-74273196D01*
X92316809Y-74272805D01*
X91997000Y-74404948D01*
X91997000Y-73854824D01*
X92314842Y-73986804D01*
X92763191Y-73987195D01*
X93169220Y-73819427D01*
X93279397Y-73984319D01*
X93295933Y-74009067D01*
X93930931Y-74644064D01*
X93930933Y-74644067D01*
X94166789Y-74801660D01*
X94212948Y-74810842D01*
X94445000Y-74857001D01*
X94445005Y-74857000D01*
X95121521Y-74857000D01*
X95098015Y-74892179D01*
X94997003Y-75400000D01*
X95098015Y-75907821D01*
X95385672Y-76338331D01*
X95816182Y-76625988D01*
X96037445Y-76670000D01*
X95816182Y-76714012D01*
X95385672Y-77001669D01*
X95098015Y-77432179D01*
X94997003Y-77940000D01*
X95098015Y-78447821D01*
X95385672Y-78878331D01*
X95816182Y-79165988D01*
X96037445Y-79210000D01*
X95816182Y-79254012D01*
X95385672Y-79541669D01*
X95098015Y-79972179D01*
X94997003Y-80480000D01*
X95098015Y-80987821D01*
X95385672Y-81418331D01*
X95816182Y-81705988D01*
X96324003Y-81807000D01*
X96375997Y-81807000D01*
X96883818Y-81705988D01*
X97314328Y-81418331D01*
X97601985Y-80987821D01*
X97702997Y-80480000D01*
X97601985Y-79972179D01*
X97314328Y-79541669D01*
X96883818Y-79254012D01*
X96662555Y-79210000D01*
X96883818Y-79165988D01*
X97314328Y-78878331D01*
X97601985Y-78447821D01*
X97702997Y-77940000D01*
X97601985Y-77432179D01*
X97314328Y-77001669D01*
X96883818Y-76714012D01*
X96662555Y-76670000D01*
X96883818Y-76625988D01*
X97314328Y-76338331D01*
X97601985Y-75907821D01*
X97702997Y-75400000D01*
X97601985Y-74892179D01*
X97578479Y-74857000D01*
X97953866Y-74857000D01*
X99994059Y-76897192D01*
X100093495Y-77137846D01*
X100325930Y-77370688D01*
X100629778Y-77496856D01*
X100958779Y-77497143D01*
X101262846Y-77371505D01*
X101338000Y-77296482D01*
X101338000Y-78908867D01*
X100567807Y-79679059D01*
X100327154Y-79778495D01*
X100094312Y-80010930D01*
X100084662Y-80034171D01*
X100039067Y-79965933D01*
X100039064Y-79965931D01*
X99055941Y-78982807D01*
X98956505Y-78742154D01*
X98724070Y-78509312D01*
X98420222Y-78383144D01*
X98091221Y-78382857D01*
X97787154Y-78508495D01*
X97554312Y-78740930D01*
X97428144Y-79044778D01*
X97427857Y-79373779D01*
X97553495Y-79677846D01*
X97785930Y-79910688D01*
X98028120Y-80011253D01*
X98798000Y-80781133D01*
X98798000Y-83884297D01*
X98698144Y-84124778D01*
X98697857Y-84453779D01*
X98823495Y-84757846D01*
X98898518Y-84833000D01*
X97921133Y-84833000D01*
X95880941Y-82792807D01*
X95781505Y-82552154D01*
X95549070Y-82319312D01*
X95245222Y-82193144D01*
X94916221Y-82192857D01*
X94612154Y-82318495D01*
X94379312Y-82550930D01*
X94253144Y-82854778D01*
X94252857Y-83183779D01*
X94378495Y-83487846D01*
X94610930Y-83720688D01*
X94853119Y-83821253D01*
X97105931Y-86074064D01*
X97105933Y-86074067D01*
X97341789Y-86231660D01*
X97620000Y-86287000D01*
X103334995Y-86287000D01*
X103335000Y-86287001D01*
X103567052Y-86240842D01*
X103613211Y-86231660D01*
X103849067Y-86074067D01*
X103849068Y-86074066D01*
X104906133Y-85017000D01*
X106785176Y-85017000D01*
X106653196Y-85334842D01*
X106652805Y-85783191D01*
X106824019Y-86197560D01*
X107140772Y-86514867D01*
X107554842Y-86686804D01*
X108003191Y-86687195D01*
X108417560Y-86515981D01*
X108734867Y-86199228D01*
X108906804Y-85785158D01*
X108907195Y-85336809D01*
X108775052Y-85017000D01*
X115098866Y-85017000D01*
X118409059Y-88327192D01*
X118508495Y-88567846D01*
X118740930Y-88800688D01*
X119044778Y-88926856D01*
X119373779Y-88927143D01*
X119677846Y-88801505D01*
X119910688Y-88569070D01*
X120036856Y-88265222D01*
X120037143Y-87936221D01*
X119911505Y-87632154D01*
X119679070Y-87399312D01*
X119436879Y-87298746D01*
X115914067Y-83775933D01*
X115832609Y-83721505D01*
X115678211Y-83618340D01*
X115632052Y-83609158D01*
X115400000Y-83562999D01*
X115399995Y-83563000D01*
X108774824Y-83563000D01*
X108906804Y-83245158D01*
X108907023Y-82994003D01*
X117883000Y-82994003D01*
X117883000Y-83045997D01*
X117984012Y-83553818D01*
X118271669Y-83984328D01*
X118702179Y-84271985D01*
X119210000Y-84372997D01*
X119717821Y-84271985D01*
X120148331Y-83984328D01*
X120435988Y-83553818D01*
X120537000Y-83045997D01*
X120537000Y-82994003D01*
X120435988Y-82486182D01*
X120148331Y-82055672D01*
X119717821Y-81768015D01*
X119210000Y-81667003D01*
X118702179Y-81768015D01*
X118271669Y-82055672D01*
X117984012Y-82486182D01*
X117883000Y-82994003D01*
X108907023Y-82994003D01*
X108907195Y-82796809D01*
X108735981Y-82382440D01*
X108419228Y-82065133D01*
X108005158Y-81893196D01*
X107556809Y-81892805D01*
X107142440Y-82064019D01*
X106825133Y-82380772D01*
X106653196Y-82794842D01*
X106652805Y-83243191D01*
X106784948Y-83563000D01*
X105090134Y-83563000D01*
X106389064Y-82264069D01*
X106389067Y-82264067D01*
X106546660Y-82028211D01*
X106602000Y-81750000D01*
X106602000Y-80703191D01*
X106652805Y-80703191D01*
X106824019Y-81117560D01*
X107140772Y-81434867D01*
X107554842Y-81606804D01*
X108003191Y-81607195D01*
X108417560Y-81435981D01*
X108734867Y-81119228D01*
X108906804Y-80705158D01*
X108907195Y-80256809D01*
X108735981Y-79842440D01*
X108419228Y-79525133D01*
X108005158Y-79353196D01*
X107556809Y-79352805D01*
X107142440Y-79524019D01*
X106825133Y-79840772D01*
X106653196Y-80254842D01*
X106652805Y-80703191D01*
X106602000Y-80703191D01*
X106602000Y-78163191D01*
X106652805Y-78163191D01*
X106824019Y-78577560D01*
X107140772Y-78894867D01*
X107554842Y-79066804D01*
X108003191Y-79067195D01*
X108417560Y-78895981D01*
X108734867Y-78579228D01*
X108906804Y-78165158D01*
X108907195Y-77716809D01*
X108735981Y-77302440D01*
X108419228Y-76985133D01*
X108005158Y-76813196D01*
X107556809Y-76812805D01*
X107142440Y-76984019D01*
X106825133Y-77300772D01*
X106653196Y-77714842D01*
X106652805Y-78163191D01*
X106602000Y-78163191D01*
X106602000Y-75623191D01*
X106652805Y-75623191D01*
X106824019Y-76037560D01*
X107140772Y-76354867D01*
X107554842Y-76526804D01*
X108003191Y-76527195D01*
X108417560Y-76355981D01*
X108734867Y-76039228D01*
X108906804Y-75625158D01*
X108907195Y-75176809D01*
X108735981Y-74762440D01*
X108419228Y-74445133D01*
X108005158Y-74273196D01*
X107556809Y-74272805D01*
X107142440Y-74444019D01*
X106825133Y-74760772D01*
X106653196Y-75174842D01*
X106652805Y-75623191D01*
X106602000Y-75623191D01*
X106602000Y-73083191D01*
X106652805Y-73083191D01*
X106824019Y-73497560D01*
X107140772Y-73814867D01*
X107554842Y-73986804D01*
X108003191Y-73987195D01*
X108417560Y-73815981D01*
X108734867Y-73499228D01*
X108891174Y-73122798D01*
X117882771Y-73122798D01*
X118084369Y-73610703D01*
X118457334Y-73984319D01*
X118944885Y-74186769D01*
X119472798Y-74187229D01*
X119960703Y-73985631D01*
X120334319Y-73612666D01*
X120536769Y-73125115D01*
X120537229Y-72597202D01*
X120335631Y-72109297D01*
X119962666Y-71735681D01*
X119475115Y-71533231D01*
X118947202Y-71532771D01*
X118459297Y-71734369D01*
X118085681Y-72107334D01*
X117883231Y-72594885D01*
X117882771Y-73122798D01*
X108891174Y-73122798D01*
X108906804Y-73085158D01*
X108907195Y-72636809D01*
X108735981Y-72222440D01*
X108419228Y-71905133D01*
X108005158Y-71733196D01*
X107556809Y-71732805D01*
X107142440Y-71904019D01*
X106825133Y-72220772D01*
X106653196Y-72634842D01*
X106652805Y-73083191D01*
X106602000Y-73083191D01*
X106602000Y-70621134D01*
X106660740Y-70562394D01*
X106824019Y-70957560D01*
X107140772Y-71274867D01*
X107554842Y-71446804D01*
X108003191Y-71447195D01*
X108417560Y-71275981D01*
X108734867Y-70959228D01*
X108906804Y-70545158D01*
X108907195Y-70096809D01*
X108775052Y-69777000D01*
X109049995Y-69777000D01*
X109050000Y-69777001D01*
X109282052Y-69730842D01*
X109328211Y-69721660D01*
X109564067Y-69564067D01*
X109564068Y-69564066D01*
X110547192Y-68580941D01*
X110787846Y-68481505D01*
X111020688Y-68249070D01*
X111146856Y-67945222D01*
X111147143Y-67616221D01*
X111021505Y-67312154D01*
X110967000Y-67257554D01*
X110967000Y-66427324D01*
X110990000Y-66427324D01*
X111185294Y-66390577D01*
X111364660Y-66275158D01*
X111484990Y-66099049D01*
X111527324Y-65890000D01*
X111527324Y-64590000D01*
X111490577Y-64394706D01*
X111375158Y-64215340D01*
X111199049Y-64095010D01*
X111146900Y-64084449D01*
X111147143Y-63806221D01*
X111097437Y-63685925D01*
X111285294Y-63650577D01*
X111464660Y-63535158D01*
X111584990Y-63359049D01*
X111588629Y-63341077D01*
X111589423Y-63345294D01*
X111704842Y-63524660D01*
X111880951Y-63644990D01*
X111963000Y-63661606D01*
X111963000Y-64109825D01*
X111815340Y-64204842D01*
X111695010Y-64380951D01*
X111652676Y-64590000D01*
X111652676Y-65890000D01*
X111689423Y-66085294D01*
X111804842Y-66264660D01*
X111980951Y-66384990D01*
X112190000Y-66427324D01*
X113690000Y-66427324D01*
X113885294Y-66390577D01*
X114064660Y-66275158D01*
X114130032Y-66179483D01*
X114184842Y-66264660D01*
X114360951Y-66384990D01*
X114570000Y-66427324D01*
X116070000Y-66427324D01*
X116265294Y-66390577D01*
X116444660Y-66275158D01*
X116564990Y-66099049D01*
X116607324Y-65890000D01*
X116607324Y-64590000D01*
X116570577Y-64394706D01*
X116455158Y-64215340D01*
X116279049Y-64095010D01*
X116226900Y-64084449D01*
X116227143Y-63806221D01*
X116177437Y-63685925D01*
X116365294Y-63650577D01*
X116544660Y-63535158D01*
X116664990Y-63359049D01*
X116668629Y-63341077D01*
X116669423Y-63345294D01*
X116784842Y-63524660D01*
X116960951Y-63644990D01*
X117043000Y-63661606D01*
X117043000Y-64109825D01*
X116895340Y-64204842D01*
X116775010Y-64380951D01*
X116732676Y-64590000D01*
X116732676Y-65890000D01*
X116769423Y-66085294D01*
X116884842Y-66264660D01*
X117060951Y-66384990D01*
X117270000Y-66427324D01*
X118770000Y-66427324D01*
X118965294Y-66390577D01*
X119144660Y-66275158D01*
X119210032Y-66179483D01*
X119264842Y-66264660D01*
X119440951Y-66384990D01*
X119650000Y-66427324D01*
X121150000Y-66427324D01*
X121345294Y-66390577D01*
X121524660Y-66275158D01*
X121644990Y-66099049D01*
X121687324Y-65890000D01*
X121687324Y-64590000D01*
X121650577Y-64394706D01*
X121535158Y-64215340D01*
X121359049Y-64095010D01*
X121306900Y-64084449D01*
X121307143Y-63806221D01*
X121257437Y-63685925D01*
X121445294Y-63650577D01*
X121624660Y-63535158D01*
X121744990Y-63359049D01*
X121748629Y-63341077D01*
X121749423Y-63345294D01*
X121864842Y-63524660D01*
X122040951Y-63644990D01*
X122123000Y-63661606D01*
X122123000Y-64109825D01*
X121975340Y-64204842D01*
X121855010Y-64380951D01*
X121812676Y-64590000D01*
X121812676Y-65890000D01*
X121849423Y-66085294D01*
X121964842Y-66264660D01*
X122140951Y-66384990D01*
X122350000Y-66427324D01*
X123850000Y-66427324D01*
X124045294Y-66390577D01*
X124224660Y-66275158D01*
X124290032Y-66179483D01*
X124344842Y-66264660D01*
X124520951Y-66384990D01*
X124730000Y-66427324D01*
X124733072Y-66427324D01*
X124732857Y-66673779D01*
X124858495Y-66977846D01*
X125090930Y-67210688D01*
X125394778Y-67336856D01*
X125723779Y-67337143D01*
X126027846Y-67211505D01*
X126260688Y-66979070D01*
X126386856Y-66675222D01*
X126387098Y-66397764D01*
X126425294Y-66390577D01*
X126604660Y-66275158D01*
X126724990Y-66099049D01*
X126767324Y-65890000D01*
X126767324Y-64590000D01*
X126730577Y-64394706D01*
X126615158Y-64215340D01*
X126439049Y-64095010D01*
X126386900Y-64084449D01*
X126387143Y-63806221D01*
X126337437Y-63685925D01*
X126525294Y-63650577D01*
X126704660Y-63535158D01*
X126824990Y-63359049D01*
X126828629Y-63341077D01*
X126829423Y-63345294D01*
X126829423Y-63345294D01*
G37*
X126829423Y-63345294D02*
X126944842Y-63524660D01*
X127120951Y-63644990D01*
X127203000Y-63661606D01*
X127203000Y-64109825D01*
X127055340Y-64204842D01*
X126935010Y-64380951D01*
X126892676Y-64590000D01*
X126892676Y-65890000D01*
X126929423Y-66085294D01*
X127044842Y-66264660D01*
X127220951Y-66384990D01*
X127430000Y-66427324D01*
X128643000Y-66427324D01*
X128643000Y-70954995D01*
X128642999Y-70955000D01*
X128676249Y-71122154D01*
X128698340Y-71233211D01*
X128841057Y-71446804D01*
X128855933Y-71469067D01*
X129490931Y-72104064D01*
X129490933Y-72104067D01*
X129680890Y-72230991D01*
X129513196Y-72634842D01*
X129512805Y-73083191D01*
X129684019Y-73497560D01*
X129912224Y-73726165D01*
X129813144Y-73964778D01*
X129812857Y-74293779D01*
X129912169Y-74534132D01*
X129685133Y-74760772D01*
X129513196Y-75174842D01*
X129512805Y-75623191D01*
X129684019Y-76037560D01*
X129912224Y-76266165D01*
X129813144Y-76504778D01*
X129812857Y-76833779D01*
X129912169Y-77074132D01*
X129685133Y-77300772D01*
X129513196Y-77714842D01*
X129512805Y-78163191D01*
X129684019Y-78577560D01*
X129912224Y-78806165D01*
X129813144Y-79044778D01*
X129812857Y-79373779D01*
X129912169Y-79614132D01*
X129685133Y-79840772D01*
X129513196Y-80254842D01*
X129512805Y-80703191D01*
X129684019Y-81117560D01*
X129912224Y-81346165D01*
X129813144Y-81584778D01*
X129812857Y-81913779D01*
X129912169Y-82154132D01*
X129685133Y-82380772D01*
X129513196Y-82794842D01*
X129512805Y-83243191D01*
X129684019Y-83657560D01*
X129912224Y-83886165D01*
X129813144Y-84124778D01*
X129812857Y-84453779D01*
X129912169Y-84694132D01*
X129685133Y-84920772D01*
X129513196Y-85334842D01*
X129512805Y-85783191D01*
X129684019Y-86197560D01*
X129912224Y-86426165D01*
X129813144Y-86664778D01*
X129812857Y-86993779D01*
X129912169Y-87234132D01*
X129685133Y-87460772D01*
X129513196Y-87874842D01*
X129512805Y-88323191D01*
X129684019Y-88737560D01*
X129912224Y-88966165D01*
X129813144Y-89204778D01*
X129812857Y-89533779D01*
X129912169Y-89774132D01*
X129685133Y-90000772D01*
X129513196Y-90414842D01*
X129512805Y-90863191D01*
X129684019Y-91277560D01*
X130000772Y-91594867D01*
X130414842Y-91766804D01*
X130863191Y-91767195D01*
X131277560Y-91595981D01*
X131594867Y-91279228D01*
X131766804Y-90865158D01*
X131767195Y-90416809D01*
X131635052Y-90097000D01*
X133261935Y-90097000D01*
X133152742Y-90360624D01*
X133256981Y-90567000D01*
X134377000Y-90567000D01*
X134377000Y-90547000D01*
X134523000Y-90547000D01*
X134523000Y-90567000D01*
X134543000Y-90567000D01*
X134543000Y-90713000D01*
X134523000Y-90713000D01*
X134523000Y-90733000D01*
X134377000Y-90733000D01*
X134377000Y-90713000D01*
X133256981Y-90713000D01*
X133152742Y-90919376D01*
X133335147Y-91359756D01*
X133695449Y-91731603D01*
X134117019Y-91914063D01*
X133916182Y-91954012D01*
X133485672Y-92241669D01*
X133198015Y-92672179D01*
X133097003Y-93180000D01*
X133198015Y-93687821D01*
X133221521Y-93723000D01*
X131634824Y-93723000D01*
X131766804Y-93405158D01*
X131767195Y-92956809D01*
X131595981Y-92542440D01*
X131279228Y-92225133D01*
X130865158Y-92053196D01*
X130416809Y-92052805D01*
X130002440Y-92224019D01*
X129685133Y-92540772D01*
X129513196Y-92954842D01*
X129512805Y-93403191D01*
X129644948Y-93723000D01*
X129140703Y-93723000D01*
X128900222Y-93623144D01*
X128571221Y-93622857D01*
X128267154Y-93748495D01*
X128034312Y-93980930D01*
X127908144Y-94284778D01*
X127907956Y-94499823D01*
X127557000Y-94148866D01*
X127557000Y-93585703D01*
X127656856Y-93345222D01*
X127657143Y-93016221D01*
X127531505Y-92712154D01*
X127299070Y-92479312D01*
X126995222Y-92353144D01*
X126666221Y-92352857D01*
X126362154Y-92478495D01*
X126129312Y-92710930D01*
X126003144Y-93014778D01*
X126002857Y-93343779D01*
X126103000Y-93586143D01*
X126103000Y-94449995D01*
X126102999Y-94450000D01*
X126136249Y-94617154D01*
X126158340Y-94728211D01*
X126315932Y-94964066D01*
X126315933Y-94964067D01*
X127154543Y-95802676D01*
X126160000Y-95802676D01*
X125964706Y-95839423D01*
X125785340Y-95954842D01*
X125665010Y-96130951D01*
X125622676Y-96340000D01*
X125622676Y-97640000D01*
X125659423Y-97835294D01*
X125774842Y-98014660D01*
X125950951Y-98134990D01*
X126160000Y-98177324D01*
X127069190Y-98177324D01*
X128260931Y-99369064D01*
X128260933Y-99369067D01*
X128935933Y-100044067D01*
X129171789Y-100201660D01*
X129450000Y-100257000D01*
X144204297Y-100257000D01*
X144444778Y-100356856D01*
X144773779Y-100357143D01*
X145077846Y-100231505D01*
X145310688Y-99999070D01*
X145436856Y-99695222D01*
X145437044Y-99480177D01*
X146354867Y-100398000D01*
X92059293Y-100398000D01*
X91469521Y-100280687D01*
X91019804Y-99980196D01*
X90719313Y-99530479D01*
X90602000Y-98940707D01*
X90602000Y-95943191D01*
X91412805Y-95943191D01*
X91584019Y-96357560D01*
X91900772Y-96674867D01*
X92314842Y-96846804D01*
X92763191Y-96847195D01*
X93177560Y-96675981D01*
X93494867Y-96359228D01*
X93666804Y-95945158D01*
X93667195Y-95496809D01*
X93495981Y-95082440D01*
X93179228Y-94765133D01*
X92765158Y-94593196D01*
X92316809Y-94592805D01*
X91902440Y-94764019D01*
X91585133Y-95080772D01*
X91413196Y-95494842D01*
X91412805Y-95943191D01*
X90602000Y-95943191D01*
X90602000Y-92411410D01*
X90800930Y-92610688D01*
X91104778Y-92736856D01*
X91433779Y-92737143D01*
X91518051Y-92702322D01*
X91413196Y-92954842D01*
X91412805Y-93403191D01*
X91584019Y-93817560D01*
X91900772Y-94134867D01*
X92314842Y-94306804D01*
X92763191Y-94307195D01*
X93177560Y-94135981D01*
X93494867Y-93819228D01*
X93666804Y-93405158D01*
X93667000Y-93180000D01*
X94997003Y-93180000D01*
X95098015Y-93687821D01*
X95385672Y-94118331D01*
X95816182Y-94405988D01*
X96037445Y-94450000D01*
X95816182Y-94494012D01*
X95385672Y-94781669D01*
X95098015Y-95212179D01*
X94997003Y-95720000D01*
X95098015Y-96227821D01*
X95385672Y-96658331D01*
X95816182Y-96945988D01*
X96324003Y-97047000D01*
X96375997Y-97047000D01*
X96883818Y-96945988D01*
X97314328Y-96658331D01*
X97601985Y-96227821D01*
X97702997Y-95720000D01*
X97601985Y-95212179D01*
X97314328Y-94781669D01*
X96883818Y-94494012D01*
X96662555Y-94450000D01*
X96883818Y-94405988D01*
X97314328Y-94118331D01*
X97601985Y-93687821D01*
X97702997Y-93180000D01*
X97601985Y-92672179D01*
X97314328Y-92241669D01*
X96883818Y-91954012D01*
X96682981Y-91914063D01*
X97104551Y-91731603D01*
X97464853Y-91359756D01*
X97647258Y-90919376D01*
X97543019Y-90713000D01*
X96423000Y-90713000D01*
X96423000Y-90733000D01*
X96277000Y-90733000D01*
X96277000Y-90713000D01*
X95156981Y-90713000D01*
X95052742Y-90919376D01*
X95235147Y-91359756D01*
X95595449Y-91731603D01*
X96017019Y-91914063D01*
X95816182Y-91954012D01*
X95385672Y-92241669D01*
X95098015Y-92672179D01*
X94997003Y-93180000D01*
X93667000Y-93180000D01*
X93667195Y-92956809D01*
X93495981Y-92542440D01*
X93179228Y-92225133D01*
X92765158Y-92053196D01*
X92316809Y-92052805D01*
X92062539Y-92157867D01*
X92096856Y-92075222D01*
X92097143Y-91746221D01*
X92062322Y-91661949D01*
X92314842Y-91766804D01*
X92763191Y-91767195D01*
X93177560Y-91595981D01*
X93494867Y-91279228D01*
X93666804Y-90865158D01*
X93667195Y-90416809D01*
X93495981Y-90002440D01*
X93179228Y-89685133D01*
X92765158Y-89513196D01*
X92316809Y-89512805D01*
X91997000Y-89644948D01*
X91997000Y-89094824D01*
X92314842Y-89226804D01*
X92763191Y-89227195D01*
X93177560Y-89055981D01*
X93494867Y-88739228D01*
X93666804Y-88325158D01*
X93667195Y-87876809D01*
X93495981Y-87462440D01*
X93333825Y-87300000D01*
X95012676Y-87300000D01*
X95012676Y-88900000D01*
X95049423Y-89095294D01*
X95164842Y-89274660D01*
X95340951Y-89394990D01*
X95550000Y-89437324D01*
X95852081Y-89437324D01*
X95595449Y-89548397D01*
X95235147Y-89920244D01*
X95052742Y-90360624D01*
X95156981Y-90567000D01*
X96277000Y-90567000D01*
X96277000Y-90547000D01*
X96423000Y-90547000D01*
X96423000Y-90567000D01*
X97543019Y-90567000D01*
X97647258Y-90360624D01*
X97464853Y-89920244D01*
X97104551Y-89548397D01*
X96847919Y-89437324D01*
X97150000Y-89437324D01*
X97345294Y-89400577D01*
X97524660Y-89285158D01*
X97644990Y-89109049D01*
X97687324Y-88900000D01*
X97687324Y-88100000D01*
X102617003Y-88100000D01*
X102718015Y-88607821D01*
X103005672Y-89038331D01*
X103436182Y-89325988D01*
X103657445Y-89370000D01*
X103436182Y-89414012D01*
X103005672Y-89701669D01*
X102718015Y-90132179D01*
X102617003Y-90640000D01*
X102718015Y-91147821D01*
X103005672Y-91578331D01*
X103436182Y-91865988D01*
X103657445Y-91910000D01*
X103436182Y-91954012D01*
X103005672Y-92241669D01*
X102718015Y-92672179D01*
X102617003Y-93180000D01*
X102718015Y-93687821D01*
X103005672Y-94118331D01*
X103436182Y-94405988D01*
X103657445Y-94450000D01*
X103436182Y-94494012D01*
X103005672Y-94781669D01*
X102718015Y-95212179D01*
X102617003Y-95720000D01*
X102718015Y-96227821D01*
X103005672Y-96658331D01*
X103436182Y-96945988D01*
X103944003Y-97047000D01*
X103995997Y-97047000D01*
X104503818Y-96945988D01*
X104934328Y-96658331D01*
X105221985Y-96227821D01*
X105278601Y-95943191D01*
X106652805Y-95943191D01*
X106824019Y-96357560D01*
X107140772Y-96674867D01*
X107554842Y-96846804D01*
X108003191Y-96847195D01*
X108417560Y-96675981D01*
X108734867Y-96359228D01*
X108906804Y-95945158D01*
X108907195Y-95496809D01*
X108735981Y-95082440D01*
X108419228Y-94765133D01*
X108005158Y-94593196D01*
X107556809Y-94592805D01*
X107142440Y-94764019D01*
X106825133Y-95080772D01*
X106653196Y-95494842D01*
X106652805Y-95943191D01*
X105278601Y-95943191D01*
X105322997Y-95720000D01*
X105221985Y-95212179D01*
X104934328Y-94781669D01*
X104503818Y-94494012D01*
X104282555Y-94450000D01*
X104503818Y-94405988D01*
X104934328Y-94118331D01*
X105221985Y-93687821D01*
X105278601Y-93403191D01*
X106652805Y-93403191D01*
X106824019Y-93817560D01*
X107140772Y-94134867D01*
X107554842Y-94306804D01*
X108003191Y-94307195D01*
X108417560Y-94135981D01*
X108734867Y-93819228D01*
X108906804Y-93405158D01*
X108907195Y-92956809D01*
X108735981Y-92542440D01*
X108419228Y-92225133D01*
X108005158Y-92053196D01*
X107556809Y-92052805D01*
X107142440Y-92224019D01*
X106825133Y-92540772D01*
X106653196Y-92954842D01*
X106652805Y-93403191D01*
X105278601Y-93403191D01*
X105322997Y-93180000D01*
X105221985Y-92672179D01*
X104934328Y-92241669D01*
X104503818Y-91954012D01*
X104282555Y-91910000D01*
X104503818Y-91865988D01*
X104934328Y-91578331D01*
X105221985Y-91147821D01*
X105278601Y-90863191D01*
X106652805Y-90863191D01*
X106824019Y-91277560D01*
X107140772Y-91594867D01*
X107554842Y-91766804D01*
X108003191Y-91767195D01*
X108417560Y-91595981D01*
X108734867Y-91279228D01*
X108906804Y-90865158D01*
X108907195Y-90416809D01*
X108735981Y-90002440D01*
X108419228Y-89685133D01*
X108005158Y-89513196D01*
X107556809Y-89512805D01*
X107142440Y-89684019D01*
X106825133Y-90000772D01*
X106653196Y-90414842D01*
X106652805Y-90863191D01*
X105278601Y-90863191D01*
X105322997Y-90640000D01*
X105221985Y-90132179D01*
X104934328Y-89701669D01*
X104503818Y-89414012D01*
X104282555Y-89370000D01*
X104503818Y-89325988D01*
X104934328Y-89038331D01*
X105221985Y-88607821D01*
X105278601Y-88323191D01*
X106652805Y-88323191D01*
X106824019Y-88737560D01*
X107140772Y-89054867D01*
X107554842Y-89226804D01*
X108003191Y-89227195D01*
X108417560Y-89055981D01*
X108734867Y-88739228D01*
X108906804Y-88325158D01*
X108907195Y-87876809D01*
X108735981Y-87462440D01*
X108419228Y-87145133D01*
X108054728Y-86993779D01*
X110127857Y-86993779D01*
X110228000Y-87236143D01*
X110228000Y-96313710D01*
X110222676Y-96340000D01*
X110222676Y-97640000D01*
X110259423Y-97835294D01*
X110374842Y-98014660D01*
X110550951Y-98134990D01*
X110760000Y-98177324D01*
X112260000Y-98177324D01*
X112455294Y-98140577D01*
X112634660Y-98025158D01*
X112754990Y-97849049D01*
X112797324Y-97640000D01*
X112797324Y-97194750D01*
X112933000Y-97194750D01*
X112933000Y-97744827D01*
X113013231Y-97938521D01*
X113161478Y-98086769D01*
X113355173Y-98167000D01*
X114005250Y-98167000D01*
X114137000Y-98035250D01*
X114137000Y-97063000D01*
X114283000Y-97063000D01*
X114283000Y-98035250D01*
X114414750Y-98167000D01*
X115064827Y-98167000D01*
X115258522Y-98086769D01*
X115406769Y-97938521D01*
X115487000Y-97744827D01*
X115487000Y-97194750D01*
X115355250Y-97063000D01*
X114283000Y-97063000D01*
X114137000Y-97063000D01*
X113064750Y-97063000D01*
X112933000Y-97194750D01*
X112797324Y-97194750D01*
X112797324Y-96340000D01*
X112777600Y-96235173D01*
X112933000Y-96235173D01*
X112933000Y-96785250D01*
X113064750Y-96917000D01*
X114137000Y-96917000D01*
X114137000Y-95944750D01*
X114283000Y-95944750D01*
X114283000Y-96917000D01*
X115355250Y-96917000D01*
X115487000Y-96785250D01*
X115487000Y-96340000D01*
X116572676Y-96340000D01*
X116572676Y-97640000D01*
X116609423Y-97835294D01*
X116724842Y-98014660D01*
X116900951Y-98134990D01*
X117110000Y-98177324D01*
X117133000Y-98177324D01*
X117133000Y-98681959D01*
X117113144Y-98729778D01*
X117112857Y-99058779D01*
X117238495Y-99362846D01*
X117470930Y-99595688D01*
X117774778Y-99721856D01*
X118103779Y-99722143D01*
X118407846Y-99596505D01*
X118640688Y-99364070D01*
X118766856Y-99060222D01*
X118767143Y-98731221D01*
X118641505Y-98427154D01*
X118587000Y-98372554D01*
X118587000Y-98177324D01*
X118610000Y-98177324D01*
X118805294Y-98140577D01*
X118984660Y-98025158D01*
X119104990Y-97849049D01*
X119147324Y-97640000D01*
X119147324Y-96340000D01*
X119272676Y-96340000D01*
X119272676Y-97640000D01*
X119309423Y-97835294D01*
X119424842Y-98014660D01*
X119600951Y-98134990D01*
X119810000Y-98177324D01*
X119833000Y-98177324D01*
X119833000Y-99007336D01*
X119779312Y-99060930D01*
X119653144Y-99364778D01*
X119652857Y-99693779D01*
X119778495Y-99997846D01*
X120010930Y-100230688D01*
X120314778Y-100356856D01*
X120643779Y-100357143D01*
X120947846Y-100231505D01*
X121180688Y-99999070D01*
X121306856Y-99695222D01*
X121307143Y-99366221D01*
X121287000Y-99317471D01*
X121287000Y-98177324D01*
X121310000Y-98177324D01*
X121505294Y-98140577D01*
X121684660Y-98025158D01*
X121804990Y-97849049D01*
X121847324Y-97640000D01*
X121847324Y-97194750D01*
X122933000Y-97194750D01*
X122933000Y-97744827D01*
X123013231Y-97938521D01*
X123161478Y-98086769D01*
X123355173Y-98167000D01*
X124005250Y-98167000D01*
X124137000Y-98035250D01*
X124137000Y-97063000D01*
X124283000Y-97063000D01*
X124283000Y-98035250D01*
X124414750Y-98167000D01*
X125064827Y-98167000D01*
X125258522Y-98086769D01*
X125406769Y-97938521D01*
X125487000Y-97744827D01*
X125487000Y-97194750D01*
X125355250Y-97063000D01*
X124283000Y-97063000D01*
X124137000Y-97063000D01*
X123064750Y-97063000D01*
X122933000Y-97194750D01*
X121847324Y-97194750D01*
X121847324Y-96340000D01*
X121827600Y-96235173D01*
X122933000Y-96235173D01*
X122933000Y-96785250D01*
X123064750Y-96917000D01*
X124137000Y-96917000D01*
X124137000Y-95944750D01*
X124283000Y-95944750D01*
X124283000Y-96917000D01*
X125355250Y-96917000D01*
X125487000Y-96785250D01*
X125487000Y-96235173D01*
X125406769Y-96041479D01*
X125258522Y-95893231D01*
X125064827Y-95813000D01*
X124414750Y-95813000D01*
X124283000Y-95944750D01*
X124137000Y-95944750D01*
X124005250Y-95813000D01*
X123355173Y-95813000D01*
X123161478Y-95893231D01*
X123013231Y-96041479D01*
X122933000Y-96235173D01*
X121827600Y-96235173D01*
X121810577Y-96144706D01*
X121695158Y-95965340D01*
X121519049Y-95845010D01*
X121310000Y-95802676D01*
X121287000Y-95802676D01*
X121287000Y-95363627D01*
X122209611Y-95363627D01*
X122284945Y-95585911D01*
X122775592Y-95780739D01*
X123303449Y-95772973D01*
X123755055Y-95585911D01*
X123830389Y-95363627D01*
X123020000Y-94553238D01*
X122209611Y-95363627D01*
X121287000Y-95363627D01*
X121287000Y-95298041D01*
X121306856Y-95250222D01*
X121307143Y-94921221D01*
X121181505Y-94617154D01*
X120949070Y-94384312D01*
X120645222Y-94258144D01*
X120316221Y-94257857D01*
X120012154Y-94383495D01*
X119779312Y-94615930D01*
X119653144Y-94919778D01*
X119652857Y-95248779D01*
X119778495Y-95552846D01*
X119833000Y-95607446D01*
X119833000Y-95802676D01*
X119810000Y-95802676D01*
X119614706Y-95839423D01*
X119435340Y-95954842D01*
X119315010Y-96130951D01*
X119272676Y-96340000D01*
X119147324Y-96340000D01*
X119110577Y-96144706D01*
X118995158Y-95965340D01*
X118819049Y-95845010D01*
X118610000Y-95802676D01*
X118587000Y-95802676D01*
X118587000Y-95466134D01*
X119847541Y-94205592D01*
X121689261Y-94205592D01*
X121697027Y-94733449D01*
X121884089Y-95185055D01*
X122106373Y-95260389D01*
X122916762Y-94450000D01*
X123123238Y-94450000D01*
X123933627Y-95260389D01*
X124155911Y-95185055D01*
X124350739Y-94694408D01*
X124342973Y-94166551D01*
X124155911Y-93714945D01*
X123933627Y-93639611D01*
X123123238Y-94450000D01*
X122916762Y-94450000D01*
X122106373Y-93639611D01*
X121884089Y-93714945D01*
X121689261Y-94205592D01*
X119847541Y-94205592D01*
X120516760Y-93536373D01*
X122209611Y-93536373D01*
X123020000Y-94346762D01*
X123830389Y-93536373D01*
X123755055Y-93314089D01*
X123264408Y-93119261D01*
X122736551Y-93127027D01*
X122284945Y-93314089D01*
X122209611Y-93536373D01*
X120516760Y-93536373D01*
X120994064Y-93059069D01*
X120994067Y-93059067D01*
X121416133Y-92637000D01*
X125154297Y-92637000D01*
X125394778Y-92736856D01*
X125723779Y-92737143D01*
X126027846Y-92611505D01*
X126260688Y-92379070D01*
X126386856Y-92075222D01*
X126387143Y-91746221D01*
X126261505Y-91442154D01*
X126029070Y-91209312D01*
X125725222Y-91083144D01*
X125396221Y-91082857D01*
X125153857Y-91183000D01*
X121115005Y-91183000D01*
X121115000Y-91182999D01*
X120882948Y-91229158D01*
X120836789Y-91238340D01*
X120600933Y-91395933D01*
X120600931Y-91395936D01*
X119965933Y-92030933D01*
X119965931Y-92030936D01*
X117345933Y-94650933D01*
X117188340Y-94886789D01*
X117188340Y-94886790D01*
X117132999Y-95165000D01*
X117133000Y-95165005D01*
X117133000Y-95802676D01*
X117110000Y-95802676D01*
X116914706Y-95839423D01*
X116735340Y-95954842D01*
X116615010Y-96130951D01*
X116572676Y-96340000D01*
X115487000Y-96340000D01*
X115487000Y-96235173D01*
X115406769Y-96041479D01*
X115258522Y-95893231D01*
X115064827Y-95813000D01*
X114414750Y-95813000D01*
X114283000Y-95944750D01*
X114137000Y-95944750D01*
X114005250Y-95813000D01*
X113355173Y-95813000D01*
X113161478Y-95893231D01*
X113013231Y-96041479D01*
X112933000Y-96235173D01*
X112777600Y-96235173D01*
X112760577Y-96144706D01*
X112645158Y-95965340D01*
X112469049Y-95845010D01*
X112260000Y-95802676D01*
X111682000Y-95802676D01*
X111682000Y-95363627D01*
X114589611Y-95363627D01*
X114664945Y-95585911D01*
X115155592Y-95780739D01*
X115683449Y-95772973D01*
X116135055Y-95585911D01*
X116210389Y-95363627D01*
X115400000Y-94553238D01*
X114589611Y-95363627D01*
X111682000Y-95363627D01*
X111682000Y-94205592D01*
X114069261Y-94205592D01*
X114077027Y-94733449D01*
X114264089Y-95185055D01*
X114486373Y-95260389D01*
X115296762Y-94450000D01*
X115503238Y-94450000D01*
X116313627Y-95260389D01*
X116535911Y-95185055D01*
X116730739Y-94694408D01*
X116722973Y-94166551D01*
X116535911Y-93714945D01*
X116313627Y-93639611D01*
X115503238Y-94450000D01*
X115296762Y-94450000D01*
X114486373Y-93639611D01*
X114264089Y-93714945D01*
X114069261Y-94205592D01*
X111682000Y-94205592D01*
X111682000Y-93536373D01*
X114589611Y-93536373D01*
X115400000Y-94346762D01*
X116210389Y-93536373D01*
X116135055Y-93314089D01*
X115644408Y-93119261D01*
X115116551Y-93127027D01*
X114664945Y-93314089D01*
X114589611Y-93536373D01*
X111682000Y-93536373D01*
X111682000Y-89632798D01*
X114072771Y-89632798D01*
X114274369Y-90120703D01*
X114647334Y-90494319D01*
X115134885Y-90696769D01*
X115662798Y-90697229D01*
X116150703Y-90495631D01*
X116524319Y-90122666D01*
X116726769Y-89635115D01*
X116726771Y-89632798D01*
X121692771Y-89632798D01*
X121894369Y-90120703D01*
X122267334Y-90494319D01*
X122754885Y-90696769D01*
X123282798Y-90697229D01*
X123770703Y-90495631D01*
X124144319Y-90122666D01*
X124346769Y-89635115D01*
X124347229Y-89107202D01*
X124145631Y-88619297D01*
X123772666Y-88245681D01*
X123285115Y-88043231D01*
X122757202Y-88042771D01*
X122269297Y-88244369D01*
X121895681Y-88617334D01*
X121693231Y-89104885D01*
X121692771Y-89632798D01*
X116726771Y-89632798D01*
X116727229Y-89107202D01*
X116525631Y-88619297D01*
X116152666Y-88245681D01*
X115665115Y-88043231D01*
X115137202Y-88042771D01*
X114649297Y-88244369D01*
X114275681Y-88617334D01*
X114073231Y-89104885D01*
X114072771Y-89632798D01*
X111682000Y-89632798D01*
X111682000Y-87235703D01*
X111781856Y-86995222D01*
X111782143Y-86666221D01*
X111656505Y-86362154D01*
X111424070Y-86129312D01*
X111120222Y-86003144D01*
X110791221Y-86002857D01*
X110487154Y-86128495D01*
X110254312Y-86360930D01*
X110128144Y-86664778D01*
X110127857Y-86993779D01*
X108054728Y-86993779D01*
X108005158Y-86973196D01*
X107556809Y-86972805D01*
X107142440Y-87144019D01*
X106825133Y-87460772D01*
X106653196Y-87874842D01*
X106652805Y-88323191D01*
X105278601Y-88323191D01*
X105322997Y-88100000D01*
X105221985Y-87592179D01*
X104934328Y-87161669D01*
X104503818Y-86874012D01*
X103995997Y-86773000D01*
X103944003Y-86773000D01*
X103436182Y-86874012D01*
X103005672Y-87161669D01*
X102718015Y-87592179D01*
X102617003Y-88100000D01*
X97687324Y-88100000D01*
X97687324Y-87300000D01*
X97650577Y-87104706D01*
X97535158Y-86925340D01*
X97359049Y-86805010D01*
X97150000Y-86762676D01*
X95550000Y-86762676D01*
X95354706Y-86799423D01*
X95175340Y-86914842D01*
X95055010Y-87090951D01*
X95012676Y-87300000D01*
X93333825Y-87300000D01*
X93179228Y-87145133D01*
X92765158Y-86973196D01*
X92316809Y-86972805D01*
X91997000Y-87104948D01*
X91997000Y-86554824D01*
X92314842Y-86686804D01*
X92763191Y-86687195D01*
X93177560Y-86515981D01*
X93494867Y-86199228D01*
X93666804Y-85785158D01*
X93667195Y-85336809D01*
X93495981Y-84922440D01*
X93179228Y-84605133D01*
X92765158Y-84433196D01*
X92316809Y-84432805D01*
X91997000Y-84564948D01*
X91997000Y-84014824D01*
X92314842Y-84146804D01*
X92763191Y-84147195D01*
X93177560Y-83975981D01*
X93494867Y-83659228D01*
X93666804Y-83245158D01*
X93667195Y-82796809D01*
X93495981Y-82382440D01*
X93179228Y-82065133D01*
X92765158Y-81893196D01*
X92316809Y-81892805D01*
X91997000Y-82024948D01*
X91997000Y-81474824D01*
X92314842Y-81606804D01*
X92763191Y-81607195D01*
X93177560Y-81435981D01*
X93494867Y-81119228D01*
X93666804Y-80705158D01*
X93667195Y-80256809D01*
X93495981Y-79842440D01*
X93179228Y-79525133D01*
X92765158Y-79353196D01*
X92316809Y-79352805D01*
X91997000Y-79484948D01*
X91997000Y-78934824D01*
X92314842Y-79066804D01*
X92763191Y-79067195D01*
X93177560Y-78895981D01*
X93494867Y-78579228D01*
X93666804Y-78165158D01*
X93667195Y-77716809D01*
X93495981Y-77302440D01*
X93179228Y-76985133D01*
X92765158Y-76813196D01*
X92316809Y-76812805D01*
X91997000Y-76944948D01*
X91997000Y-76394824D01*
X92314842Y-76526804D01*
X92763191Y-76527195D01*
X93177560Y-76355981D01*
X93494867Y-76039228D01*
X93666804Y-75625158D01*
X93667195Y-75176809D01*
X93495981Y-74762440D01*
X93179228Y-74445133D01*
X92765158Y-74273196D01*
X92316809Y-74272805D01*
X91997000Y-74404948D01*
X91997000Y-73854824D01*
X92314842Y-73986804D01*
X92763191Y-73987195D01*
X93169220Y-73819427D01*
X93279397Y-73984319D01*
X93295933Y-74009067D01*
X93930931Y-74644064D01*
X93930933Y-74644067D01*
X94166789Y-74801660D01*
X94212948Y-74810842D01*
X94445000Y-74857001D01*
X94445005Y-74857000D01*
X95121521Y-74857000D01*
X95098015Y-74892179D01*
X94997003Y-75400000D01*
X95098015Y-75907821D01*
X95385672Y-76338331D01*
X95816182Y-76625988D01*
X96037445Y-76670000D01*
X95816182Y-76714012D01*
X95385672Y-77001669D01*
X95098015Y-77432179D01*
X94997003Y-77940000D01*
X95098015Y-78447821D01*
X95385672Y-78878331D01*
X95816182Y-79165988D01*
X96037445Y-79210000D01*
X95816182Y-79254012D01*
X95385672Y-79541669D01*
X95098015Y-79972179D01*
X94997003Y-80480000D01*
X95098015Y-80987821D01*
X95385672Y-81418331D01*
X95816182Y-81705988D01*
X96324003Y-81807000D01*
X96375997Y-81807000D01*
X96883818Y-81705988D01*
X97314328Y-81418331D01*
X97601985Y-80987821D01*
X97702997Y-80480000D01*
X97601985Y-79972179D01*
X97314328Y-79541669D01*
X96883818Y-79254012D01*
X96662555Y-79210000D01*
X96883818Y-79165988D01*
X97314328Y-78878331D01*
X97601985Y-78447821D01*
X97702997Y-77940000D01*
X97601985Y-77432179D01*
X97314328Y-77001669D01*
X96883818Y-76714012D01*
X96662555Y-76670000D01*
X96883818Y-76625988D01*
X97314328Y-76338331D01*
X97601985Y-75907821D01*
X97702997Y-75400000D01*
X97601985Y-74892179D01*
X97578479Y-74857000D01*
X97953866Y-74857000D01*
X99994059Y-76897192D01*
X100093495Y-77137846D01*
X100325930Y-77370688D01*
X100629778Y-77496856D01*
X100958779Y-77497143D01*
X101262846Y-77371505D01*
X101338000Y-77296482D01*
X101338000Y-78908867D01*
X100567807Y-79679059D01*
X100327154Y-79778495D01*
X100094312Y-80010930D01*
X100084662Y-80034171D01*
X100039067Y-79965933D01*
X100039064Y-79965931D01*
X99055941Y-78982807D01*
X98956505Y-78742154D01*
X98724070Y-78509312D01*
X98420222Y-78383144D01*
X98091221Y-78382857D01*
X97787154Y-78508495D01*
X97554312Y-78740930D01*
X97428144Y-79044778D01*
X97427857Y-79373779D01*
X97553495Y-79677846D01*
X97785930Y-79910688D01*
X98028120Y-80011253D01*
X98798000Y-80781133D01*
X98798000Y-83884297D01*
X98698144Y-84124778D01*
X98697857Y-84453779D01*
X98823495Y-84757846D01*
X98898518Y-84833000D01*
X97921133Y-84833000D01*
X95880941Y-82792807D01*
X95781505Y-82552154D01*
X95549070Y-82319312D01*
X95245222Y-82193144D01*
X94916221Y-82192857D01*
X94612154Y-82318495D01*
X94379312Y-82550930D01*
X94253144Y-82854778D01*
X94252857Y-83183779D01*
X94378495Y-83487846D01*
X94610930Y-83720688D01*
X94853119Y-83821253D01*
X97105931Y-86074064D01*
X97105933Y-86074067D01*
X97341789Y-86231660D01*
X97620000Y-86287000D01*
X103334995Y-86287000D01*
X103335000Y-86287001D01*
X103567052Y-86240842D01*
X103613211Y-86231660D01*
X103849067Y-86074067D01*
X103849068Y-86074066D01*
X104906133Y-85017000D01*
X106785176Y-85017000D01*
X106653196Y-85334842D01*
X106652805Y-85783191D01*
X106824019Y-86197560D01*
X107140772Y-86514867D01*
X107554842Y-86686804D01*
X108003191Y-86687195D01*
X108417560Y-86515981D01*
X108734867Y-86199228D01*
X108906804Y-85785158D01*
X108907195Y-85336809D01*
X108775052Y-85017000D01*
X115098866Y-85017000D01*
X118409059Y-88327192D01*
X118508495Y-88567846D01*
X118740930Y-88800688D01*
X119044778Y-88926856D01*
X119373779Y-88927143D01*
X119677846Y-88801505D01*
X119910688Y-88569070D01*
X120036856Y-88265222D01*
X120037143Y-87936221D01*
X119911505Y-87632154D01*
X119679070Y-87399312D01*
X119436879Y-87298746D01*
X115914067Y-83775933D01*
X115832609Y-83721505D01*
X115678211Y-83618340D01*
X115632052Y-83609158D01*
X115400000Y-83562999D01*
X115399995Y-83563000D01*
X108774824Y-83563000D01*
X108906804Y-83245158D01*
X108907023Y-82994003D01*
X117883000Y-82994003D01*
X117883000Y-83045997D01*
X117984012Y-83553818D01*
X118271669Y-83984328D01*
X118702179Y-84271985D01*
X119210000Y-84372997D01*
X119717821Y-84271985D01*
X120148331Y-83984328D01*
X120435988Y-83553818D01*
X120537000Y-83045997D01*
X120537000Y-82994003D01*
X120435988Y-82486182D01*
X120148331Y-82055672D01*
X119717821Y-81768015D01*
X119210000Y-81667003D01*
X118702179Y-81768015D01*
X118271669Y-82055672D01*
X117984012Y-82486182D01*
X117883000Y-82994003D01*
X108907023Y-82994003D01*
X108907195Y-82796809D01*
X108735981Y-82382440D01*
X108419228Y-82065133D01*
X108005158Y-81893196D01*
X107556809Y-81892805D01*
X107142440Y-82064019D01*
X106825133Y-82380772D01*
X106653196Y-82794842D01*
X106652805Y-83243191D01*
X106784948Y-83563000D01*
X105090134Y-83563000D01*
X106389064Y-82264069D01*
X106389067Y-82264067D01*
X106546660Y-82028211D01*
X106602000Y-81750000D01*
X106602000Y-80703191D01*
X106652805Y-80703191D01*
X106824019Y-81117560D01*
X107140772Y-81434867D01*
X107554842Y-81606804D01*
X108003191Y-81607195D01*
X108417560Y-81435981D01*
X108734867Y-81119228D01*
X108906804Y-80705158D01*
X108907195Y-80256809D01*
X108735981Y-79842440D01*
X108419228Y-79525133D01*
X108005158Y-79353196D01*
X107556809Y-79352805D01*
X107142440Y-79524019D01*
X106825133Y-79840772D01*
X106653196Y-80254842D01*
X106652805Y-80703191D01*
X106602000Y-80703191D01*
X106602000Y-78163191D01*
X106652805Y-78163191D01*
X106824019Y-78577560D01*
X107140772Y-78894867D01*
X107554842Y-79066804D01*
X108003191Y-79067195D01*
X108417560Y-78895981D01*
X108734867Y-78579228D01*
X108906804Y-78165158D01*
X108907195Y-77716809D01*
X108735981Y-77302440D01*
X108419228Y-76985133D01*
X108005158Y-76813196D01*
X107556809Y-76812805D01*
X107142440Y-76984019D01*
X106825133Y-77300772D01*
X106653196Y-77714842D01*
X106652805Y-78163191D01*
X106602000Y-78163191D01*
X106602000Y-75623191D01*
X106652805Y-75623191D01*
X106824019Y-76037560D01*
X107140772Y-76354867D01*
X107554842Y-76526804D01*
X108003191Y-76527195D01*
X108417560Y-76355981D01*
X108734867Y-76039228D01*
X108906804Y-75625158D01*
X108907195Y-75176809D01*
X108735981Y-74762440D01*
X108419228Y-74445133D01*
X108005158Y-74273196D01*
X107556809Y-74272805D01*
X107142440Y-74444019D01*
X106825133Y-74760772D01*
X106653196Y-75174842D01*
X106652805Y-75623191D01*
X106602000Y-75623191D01*
X106602000Y-73083191D01*
X106652805Y-73083191D01*
X106824019Y-73497560D01*
X107140772Y-73814867D01*
X107554842Y-73986804D01*
X108003191Y-73987195D01*
X108417560Y-73815981D01*
X108734867Y-73499228D01*
X108891174Y-73122798D01*
X117882771Y-73122798D01*
X118084369Y-73610703D01*
X118457334Y-73984319D01*
X118944885Y-74186769D01*
X119472798Y-74187229D01*
X119960703Y-73985631D01*
X120334319Y-73612666D01*
X120536769Y-73125115D01*
X120537229Y-72597202D01*
X120335631Y-72109297D01*
X119962666Y-71735681D01*
X119475115Y-71533231D01*
X118947202Y-71532771D01*
X118459297Y-71734369D01*
X118085681Y-72107334D01*
X117883231Y-72594885D01*
X117882771Y-73122798D01*
X108891174Y-73122798D01*
X108906804Y-73085158D01*
X108907195Y-72636809D01*
X108735981Y-72222440D01*
X108419228Y-71905133D01*
X108005158Y-71733196D01*
X107556809Y-71732805D01*
X107142440Y-71904019D01*
X106825133Y-72220772D01*
X106653196Y-72634842D01*
X106652805Y-73083191D01*
X106602000Y-73083191D01*
X106602000Y-70621134D01*
X106660740Y-70562394D01*
X106824019Y-70957560D01*
X107140772Y-71274867D01*
X107554842Y-71446804D01*
X108003191Y-71447195D01*
X108417560Y-71275981D01*
X108734867Y-70959228D01*
X108906804Y-70545158D01*
X108907195Y-70096809D01*
X108775052Y-69777000D01*
X109049995Y-69777000D01*
X109050000Y-69777001D01*
X109282052Y-69730842D01*
X109328211Y-69721660D01*
X109564067Y-69564067D01*
X109564068Y-69564066D01*
X110547192Y-68580941D01*
X110787846Y-68481505D01*
X111020688Y-68249070D01*
X111146856Y-67945222D01*
X111147143Y-67616221D01*
X111021505Y-67312154D01*
X110967000Y-67257554D01*
X110967000Y-66427324D01*
X110990000Y-66427324D01*
X111185294Y-66390577D01*
X111364660Y-66275158D01*
X111484990Y-66099049D01*
X111527324Y-65890000D01*
X111527324Y-64590000D01*
X111490577Y-64394706D01*
X111375158Y-64215340D01*
X111199049Y-64095010D01*
X111146900Y-64084449D01*
X111147143Y-63806221D01*
X111097437Y-63685925D01*
X111285294Y-63650577D01*
X111464660Y-63535158D01*
X111584990Y-63359049D01*
X111588629Y-63341077D01*
X111589423Y-63345294D01*
X111704842Y-63524660D01*
X111880951Y-63644990D01*
X111963000Y-63661606D01*
X111963000Y-64109825D01*
X111815340Y-64204842D01*
X111695010Y-64380951D01*
X111652676Y-64590000D01*
X111652676Y-65890000D01*
X111689423Y-66085294D01*
X111804842Y-66264660D01*
X111980951Y-66384990D01*
X112190000Y-66427324D01*
X113690000Y-66427324D01*
X113885294Y-66390577D01*
X114064660Y-66275158D01*
X114130032Y-66179483D01*
X114184842Y-66264660D01*
X114360951Y-66384990D01*
X114570000Y-66427324D01*
X116070000Y-66427324D01*
X116265294Y-66390577D01*
X116444660Y-66275158D01*
X116564990Y-66099049D01*
X116607324Y-65890000D01*
X116607324Y-64590000D01*
X116570577Y-64394706D01*
X116455158Y-64215340D01*
X116279049Y-64095010D01*
X116226900Y-64084449D01*
X116227143Y-63806221D01*
X116177437Y-63685925D01*
X116365294Y-63650577D01*
X116544660Y-63535158D01*
X116664990Y-63359049D01*
X116668629Y-63341077D01*
X116669423Y-63345294D01*
X116784842Y-63524660D01*
X116960951Y-63644990D01*
X117043000Y-63661606D01*
X117043000Y-64109825D01*
X116895340Y-64204842D01*
X116775010Y-64380951D01*
X116732676Y-64590000D01*
X116732676Y-65890000D01*
X116769423Y-66085294D01*
X116884842Y-66264660D01*
X117060951Y-66384990D01*
X117270000Y-66427324D01*
X118770000Y-66427324D01*
X118965294Y-66390577D01*
X119144660Y-66275158D01*
X119210032Y-66179483D01*
X119264842Y-66264660D01*
X119440951Y-66384990D01*
X119650000Y-66427324D01*
X121150000Y-66427324D01*
X121345294Y-66390577D01*
X121524660Y-66275158D01*
X121644990Y-66099049D01*
X121687324Y-65890000D01*
X121687324Y-64590000D01*
X121650577Y-64394706D01*
X121535158Y-64215340D01*
X121359049Y-64095010D01*
X121306900Y-64084449D01*
X121307143Y-63806221D01*
X121257437Y-63685925D01*
X121445294Y-63650577D01*
X121624660Y-63535158D01*
X121744990Y-63359049D01*
X121748629Y-63341077D01*
X121749423Y-63345294D01*
X121864842Y-63524660D01*
X122040951Y-63644990D01*
X122123000Y-63661606D01*
X122123000Y-64109825D01*
X121975340Y-64204842D01*
X121855010Y-64380951D01*
X121812676Y-64590000D01*
X121812676Y-65890000D01*
X121849423Y-66085294D01*
X121964842Y-66264660D01*
X122140951Y-66384990D01*
X122350000Y-66427324D01*
X123850000Y-66427324D01*
X124045294Y-66390577D01*
X124224660Y-66275158D01*
X124290032Y-66179483D01*
X124344842Y-66264660D01*
X124520951Y-66384990D01*
X124730000Y-66427324D01*
X124733072Y-66427324D01*
X124732857Y-66673779D01*
X124858495Y-66977846D01*
X125090930Y-67210688D01*
X125394778Y-67336856D01*
X125723779Y-67337143D01*
X126027846Y-67211505D01*
X126260688Y-66979070D01*
X126386856Y-66675222D01*
X126387098Y-66397764D01*
X126425294Y-66390577D01*
X126604660Y-66275158D01*
X126724990Y-66099049D01*
X126767324Y-65890000D01*
X126767324Y-64590000D01*
X126730577Y-64394706D01*
X126615158Y-64215340D01*
X126439049Y-64095010D01*
X126386900Y-64084449D01*
X126387143Y-63806221D01*
X126337437Y-63685925D01*
X126525294Y-63650577D01*
X126704660Y-63535158D01*
X126824990Y-63359049D01*
X126828629Y-63341077D01*
X126829423Y-63345294D01*
G36*
X94379312Y-50800930D02*
X94278746Y-51043120D01*
X94049191Y-51272676D01*
X93185000Y-51272676D01*
X92989706Y-51309423D01*
X92810340Y-51424842D01*
X92690010Y-51600951D01*
X92647676Y-51810000D01*
X92647676Y-53310000D01*
X92684423Y-53505294D01*
X92799842Y-53684660D01*
X92975951Y-53804990D01*
X93010294Y-53811945D01*
X92886479Y-53863231D01*
X92738231Y-54011478D01*
X92658000Y-54205173D01*
X92658000Y-54855250D01*
X92789750Y-54987000D01*
X93737000Y-54987000D01*
X93737000Y-54967000D01*
X93883000Y-54967000D01*
X93883000Y-54987000D01*
X94830250Y-54987000D01*
X94962000Y-54855250D01*
X94962000Y-54205173D01*
X94903068Y-54062897D01*
X96342779Y-54062897D01*
X96536781Y-54532417D01*
X96895693Y-54891957D01*
X97364875Y-55086778D01*
X97872897Y-55087221D01*
X98342417Y-54893219D01*
X98701957Y-54534307D01*
X98896778Y-54065125D01*
X98896779Y-54062897D01*
X101342779Y-54062897D01*
X101536781Y-54532417D01*
X101895693Y-54891957D01*
X102364875Y-55086778D01*
X102872897Y-55087221D01*
X103342417Y-54893219D01*
X103701957Y-54534307D01*
X103896778Y-54065125D01*
X103897221Y-53557103D01*
X103703219Y-53087583D01*
X103344307Y-52728043D01*
X102875125Y-52533222D01*
X102367103Y-52532779D01*
X101897583Y-52726781D01*
X101538043Y-53085693D01*
X101343222Y-53554875D01*
X101342779Y-54062897D01*
X98896779Y-54062897D01*
X98897221Y-53557103D01*
X98703219Y-53087583D01*
X98344307Y-52728043D01*
X97875125Y-52533222D01*
X97367103Y-52532779D01*
X96897583Y-52726781D01*
X96538043Y-53085693D01*
X96343222Y-53554875D01*
X96342779Y-54062897D01*
X94903068Y-54062897D01*
X94881769Y-54011478D01*
X94733521Y-53863231D01*
X94613866Y-53813668D01*
X94630294Y-53810577D01*
X94809660Y-53695158D01*
X94929990Y-53519049D01*
X94972324Y-53310000D01*
X94972324Y-52405809D01*
X95307192Y-52070941D01*
X95547846Y-51971505D01*
X95780688Y-51739070D01*
X95906856Y-51435222D01*
X95907143Y-51106221D01*
X95781505Y-50802154D01*
X95581701Y-50602000D01*
X142838590Y-50602000D01*
X142639312Y-50800930D01*
X142513144Y-51104778D01*
X142512857Y-51433779D01*
X142638495Y-51737846D01*
X142870930Y-51970688D01*
X143113120Y-52071253D01*
X143447676Y-52405810D01*
X143447676Y-53310000D01*
X143484423Y-53505294D01*
X143599842Y-53684660D01*
X143775951Y-53804990D01*
X143810294Y-53811945D01*
X143686479Y-53863231D01*
X143538231Y-54011478D01*
X143458000Y-54205173D01*
X143458000Y-54855250D01*
X143589750Y-54987000D01*
X144537000Y-54987000D01*
X144537000Y-54967000D01*
X144683000Y-54967000D01*
X144683000Y-54987000D01*
X145630250Y-54987000D01*
X145762000Y-54855250D01*
X145762000Y-54205173D01*
X145681769Y-54011478D01*
X145533521Y-53863231D01*
X145413866Y-53813668D01*
X145430294Y-53810577D01*
X145431190Y-53810000D01*
X152193493Y-53810000D01*
X152309729Y-54394358D01*
X152640741Y-54889752D01*
X152925467Y-55080000D01*
X152640741Y-55270248D01*
X152309729Y-55765642D01*
X152193493Y-56350000D01*
X152309729Y-56934358D01*
X152640741Y-57429752D01*
X153136135Y-57760764D01*
X153720493Y-57877000D01*
X155819507Y-57877000D01*
X156403865Y-57760764D01*
X156899259Y-57429752D01*
X157230271Y-56934358D01*
X157284704Y-56660704D01*
X167514944Y-56660704D01*
X167571300Y-56866914D01*
X167878629Y-57378133D01*
X168358199Y-57732828D01*
X168937000Y-57877000D01*
X169937000Y-57877000D01*
X169937000Y-56423000D01*
X167616661Y-56423000D01*
X167514944Y-56660704D01*
X157284704Y-56660704D01*
X157346507Y-56350000D01*
X157230271Y-55765642D01*
X156899259Y-55270248D01*
X156614533Y-55080000D01*
X156899259Y-54889752D01*
X157230271Y-54394358D01*
X157284704Y-54120704D01*
X167514944Y-54120704D01*
X167571300Y-54326914D01*
X167878629Y-54838133D01*
X168205648Y-55080000D01*
X167878629Y-55321867D01*
X167571300Y-55833086D01*
X167514944Y-56039296D01*
X167616661Y-56277000D01*
X169937000Y-56277000D01*
X169937000Y-53883000D01*
X170083000Y-53883000D01*
X170083000Y-56277000D01*
X172403339Y-56277000D01*
X172505056Y-56039296D01*
X172448700Y-55833086D01*
X172141371Y-55321867D01*
X171814352Y-55080000D01*
X172141371Y-54838133D01*
X172448700Y-54326914D01*
X172505056Y-54120704D01*
X172403339Y-53883000D01*
X170083000Y-53883000D01*
X169937000Y-53883000D01*
X167616661Y-53883000D01*
X167514944Y-54120704D01*
X157284704Y-54120704D01*
X157346507Y-53810000D01*
X157284705Y-53499296D01*
X167514944Y-53499296D01*
X167616661Y-53737000D01*
X169937000Y-53737000D01*
X169937000Y-52283000D01*
X170083000Y-52283000D01*
X170083000Y-53737000D01*
X172403339Y-53737000D01*
X172505056Y-53499296D01*
X172448700Y-53293086D01*
X172141371Y-52781867D01*
X171661801Y-52427172D01*
X171083000Y-52283000D01*
X170083000Y-52283000D01*
X169937000Y-52283000D01*
X168937000Y-52283000D01*
X168358199Y-52427172D01*
X167878629Y-52781867D01*
X167571300Y-53293086D01*
X167514944Y-53499296D01*
X157284705Y-53499296D01*
X157230271Y-53225642D01*
X156899259Y-52730248D01*
X156403865Y-52399236D01*
X155819507Y-52283000D01*
X153720493Y-52283000D01*
X153136135Y-52399236D01*
X152640741Y-52730248D01*
X152309729Y-53225642D01*
X152193493Y-53810000D01*
X145431190Y-53810000D01*
X145609660Y-53695158D01*
X145729990Y-53519049D01*
X145772324Y-53310000D01*
X145772324Y-51810000D01*
X145735577Y-51614706D01*
X145620158Y-51435340D01*
X145444049Y-51315010D01*
X145235000Y-51272676D01*
X144370810Y-51272676D01*
X144140941Y-51042807D01*
X144041505Y-50802154D01*
X143841701Y-50602000D01*
X187940707Y-50602000D01*
X188530479Y-50719313D01*
X188980196Y-51019804D01*
X189280687Y-51469521D01*
X189398000Y-52059293D01*
X189398000Y-55304582D01*
X188941801Y-54967172D01*
X188363000Y-54823000D01*
X187863000Y-54823000D01*
X187863000Y-56277000D01*
X187883000Y-56277000D01*
X187883000Y-56423000D01*
X187863000Y-56423000D01*
X187863000Y-58817000D01*
X187883000Y-58817000D01*
X187883000Y-58963000D01*
X187863000Y-58963000D01*
X187863000Y-61357000D01*
X187883000Y-61357000D01*
X187883000Y-61503000D01*
X187863000Y-61503000D01*
X187863000Y-62957000D01*
X188363000Y-62957000D01*
X188941801Y-62812828D01*
X189398000Y-62475418D01*
X189398000Y-65464582D01*
X188941801Y-65127172D01*
X188363000Y-64983000D01*
X187863000Y-64983000D01*
X187863000Y-66437000D01*
X187883000Y-66437000D01*
X187883000Y-66583000D01*
X187863000Y-66583000D01*
X187863000Y-68977000D01*
X187883000Y-68977000D01*
X187883000Y-69123000D01*
X187863000Y-69123000D01*
X187863000Y-71517000D01*
X187883000Y-71517000D01*
X187883000Y-71663000D01*
X187863000Y-71663000D01*
X187863000Y-74057000D01*
X187883000Y-74057000D01*
X187883000Y-74203000D01*
X187863000Y-74203000D01*
X187863000Y-76597000D01*
X187883000Y-76597000D01*
X187883000Y-76743000D01*
X187863000Y-76743000D01*
X187863000Y-79137000D01*
X187883000Y-79137000D01*
X187883000Y-79283000D01*
X187863000Y-79283000D01*
X187863000Y-81677000D01*
X187883000Y-81677000D01*
X187883000Y-81823000D01*
X187863000Y-81823000D01*
X187863000Y-84217000D01*
X187883000Y-84217000D01*
X187883000Y-84363000D01*
X187863000Y-84363000D01*
X187863000Y-86757000D01*
X187883000Y-86757000D01*
X187883000Y-86903000D01*
X187863000Y-86903000D01*
X187863000Y-89297000D01*
X187883000Y-89297000D01*
X187883000Y-89443000D01*
X187863000Y-89443000D01*
X187863000Y-91837000D01*
X187883000Y-91837000D01*
X187883000Y-91983000D01*
X187863000Y-91983000D01*
X187863000Y-92003000D01*
X187717000Y-92003000D01*
X187717000Y-91983000D01*
X187697000Y-91983000D01*
X187697000Y-91837000D01*
X187717000Y-91837000D01*
X187717000Y-89443000D01*
X187697000Y-89443000D01*
X187697000Y-89297000D01*
X187717000Y-89297000D01*
X187717000Y-86903000D01*
X187697000Y-86903000D01*
X187697000Y-86757000D01*
X187717000Y-86757000D01*
X187717000Y-84363000D01*
X187697000Y-84363000D01*
X187697000Y-84217000D01*
X187717000Y-84217000D01*
X187717000Y-81823000D01*
X187697000Y-81823000D01*
X187697000Y-81677000D01*
X187717000Y-81677000D01*
X187717000Y-79283000D01*
X187697000Y-79283000D01*
X187697000Y-79137000D01*
X187717000Y-79137000D01*
X187717000Y-76743000D01*
X185896661Y-76743000D01*
X185794944Y-76980704D01*
X185851300Y-77186914D01*
X186158629Y-77698133D01*
X186485648Y-77940000D01*
X186158629Y-78181867D01*
X186055893Y-78352760D01*
X182875941Y-75172807D01*
X182776505Y-74932154D01*
X182544070Y-74699312D01*
X182240222Y-74573144D01*
X182148580Y-74573064D01*
X182174908Y-74440704D01*
X185794944Y-74440704D01*
X185851300Y-74646914D01*
X186158629Y-75158133D01*
X186485648Y-75400000D01*
X186158629Y-75641867D01*
X185851300Y-76153086D01*
X185794944Y-76359296D01*
X185896661Y-76597000D01*
X187717000Y-76597000D01*
X187717000Y-74203000D01*
X185896661Y-74203000D01*
X185794944Y-74440704D01*
X182174908Y-74440704D01*
X182236711Y-74130000D01*
X182120475Y-73545642D01*
X181789463Y-73050248D01*
X181504737Y-72860000D01*
X181789463Y-72669752D01*
X182120475Y-72174358D01*
X182174908Y-71900704D01*
X185794944Y-71900704D01*
X185851300Y-72106914D01*
X186158629Y-72618133D01*
X186485648Y-72860000D01*
X186158629Y-73101867D01*
X185851300Y-73613086D01*
X185794944Y-73819296D01*
X185896661Y-74057000D01*
X187717000Y-74057000D01*
X187717000Y-71663000D01*
X185896661Y-71663000D01*
X185794944Y-71900704D01*
X182174908Y-71900704D01*
X182236711Y-71590000D01*
X182120475Y-71005642D01*
X181789463Y-70510248D01*
X181504737Y-70320000D01*
X181789463Y-70129752D01*
X182120475Y-69634358D01*
X182174908Y-69360704D01*
X185794944Y-69360704D01*
X185851300Y-69566914D01*
X186158629Y-70078133D01*
X186485648Y-70320000D01*
X186158629Y-70561867D01*
X185851300Y-71073086D01*
X185794944Y-71279296D01*
X185896661Y-71517000D01*
X187717000Y-71517000D01*
X187717000Y-69123000D01*
X185896661Y-69123000D01*
X185794944Y-69360704D01*
X182174908Y-69360704D01*
X182236711Y-69050000D01*
X182120475Y-68465642D01*
X181789463Y-67970248D01*
X181504737Y-67780000D01*
X181789463Y-67589752D01*
X182120475Y-67094358D01*
X182174908Y-66820704D01*
X185794944Y-66820704D01*
X185851300Y-67026914D01*
X186158629Y-67538133D01*
X186485648Y-67780000D01*
X186158629Y-68021867D01*
X185851300Y-68533086D01*
X185794944Y-68739296D01*
X185896661Y-68977000D01*
X187717000Y-68977000D01*
X187717000Y-66583000D01*
X185896661Y-66583000D01*
X185794944Y-66820704D01*
X182174908Y-66820704D01*
X182236711Y-66510000D01*
X182174909Y-66199296D01*
X185794944Y-66199296D01*
X185896661Y-66437000D01*
X187717000Y-66437000D01*
X187717000Y-64983000D01*
X187217000Y-64983000D01*
X186638199Y-65127172D01*
X186158629Y-65481867D01*
X185851300Y-65993086D01*
X185794944Y-66199296D01*
X182174909Y-66199296D01*
X182120475Y-65925642D01*
X181789463Y-65430248D01*
X181294069Y-65099236D01*
X180709711Y-64983000D01*
X179630289Y-64983000D01*
X179045931Y-65099236D01*
X178550537Y-65430248D01*
X178219525Y-65925642D01*
X178218806Y-65929257D01*
X178099070Y-65809312D01*
X177795222Y-65683144D01*
X177466221Y-65682857D01*
X177223857Y-65783000D01*
X171280005Y-65783000D01*
X171280000Y-65782999D01*
X171047948Y-65829158D01*
X171001789Y-65838340D01*
X170765933Y-65995933D01*
X170765931Y-65995936D01*
X167168866Y-69593000D01*
X165012835Y-69593000D01*
X164990577Y-69474706D01*
X164875158Y-69295340D01*
X164699049Y-69175010D01*
X164490000Y-69132676D01*
X163415458Y-69132676D01*
X163580810Y-68967324D01*
X164490000Y-68967324D01*
X164685294Y-68930577D01*
X164864660Y-68815158D01*
X164984990Y-68639049D01*
X165011731Y-68507000D01*
X167469995Y-68507000D01*
X167470000Y-68507001D01*
X167702052Y-68460842D01*
X167748211Y-68451660D01*
X167984067Y-68294067D01*
X174121134Y-62157000D01*
X177224297Y-62157000D01*
X177464778Y-62256856D01*
X177793779Y-62257143D01*
X178097846Y-62131505D01*
X178218808Y-62010754D01*
X178219525Y-62014358D01*
X178550537Y-62509752D01*
X179045931Y-62840764D01*
X179630289Y-62957000D01*
X180709711Y-62957000D01*
X181294069Y-62840764D01*
X181789463Y-62509752D01*
X182120475Y-62014358D01*
X182174908Y-61740704D01*
X185794944Y-61740704D01*
X185851300Y-61946914D01*
X186158629Y-62458133D01*
X186638199Y-62812828D01*
X187217000Y-62957000D01*
X187717000Y-62957000D01*
X187717000Y-61503000D01*
X185896661Y-61503000D01*
X185794944Y-61740704D01*
X182174908Y-61740704D01*
X182236711Y-61430000D01*
X182120475Y-60845642D01*
X181789463Y-60350248D01*
X181504737Y-60160000D01*
X181789463Y-59969752D01*
X182120475Y-59474358D01*
X182174908Y-59200704D01*
X185794944Y-59200704D01*
X185851300Y-59406914D01*
X186158629Y-59918133D01*
X186485648Y-60160000D01*
X186158629Y-60401867D01*
X185851300Y-60913086D01*
X185794944Y-61119296D01*
X185896661Y-61357000D01*
X187717000Y-61357000D01*
X187717000Y-58963000D01*
X185896661Y-58963000D01*
X185794944Y-59200704D01*
X182174908Y-59200704D01*
X182236711Y-58890000D01*
X182120475Y-58305642D01*
X181789463Y-57810248D01*
X181504737Y-57620000D01*
X181789463Y-57429752D01*
X182120475Y-56934358D01*
X182174908Y-56660704D01*
X185794944Y-56660704D01*
X185851300Y-56866914D01*
X186158629Y-57378133D01*
X186485648Y-57620000D01*
X186158629Y-57861867D01*
X185851300Y-58373086D01*
X185794944Y-58579296D01*
X185896661Y-58817000D01*
X187717000Y-58817000D01*
X187717000Y-56423000D01*
X185896661Y-56423000D01*
X185794944Y-56660704D01*
X182174908Y-56660704D01*
X182236711Y-56350000D01*
X182174909Y-56039296D01*
X185794944Y-56039296D01*
X185896661Y-56277000D01*
X187717000Y-56277000D01*
X187717000Y-54823000D01*
X187217000Y-54823000D01*
X186638199Y-54967172D01*
X186158629Y-55321867D01*
X185851300Y-55833086D01*
X185794944Y-56039296D01*
X182174909Y-56039296D01*
X182120475Y-55765642D01*
X181789463Y-55270248D01*
X181294069Y-54939236D01*
X180709711Y-54823000D01*
X179630289Y-54823000D01*
X179045931Y-54939236D01*
X178550537Y-55270248D01*
X178219525Y-55765642D01*
X178218806Y-55769257D01*
X178099070Y-55649312D01*
X177795222Y-55523144D01*
X177466221Y-55522857D01*
X177223857Y-55623000D01*
X173820000Y-55623000D01*
X173541789Y-55678340D01*
X173305933Y-55835933D01*
X172497895Y-56643971D01*
X172403339Y-56423000D01*
X170083000Y-56423000D01*
X170083000Y-57877000D01*
X171083000Y-57877000D01*
X171325193Y-57816673D01*
X167168866Y-61973000D01*
X165012835Y-61973000D01*
X164990577Y-61854706D01*
X164875158Y-61675340D01*
X164699049Y-61555010D01*
X164490000Y-61512676D01*
X162990000Y-61512676D01*
X162794706Y-61549423D01*
X162615340Y-61664842D01*
X162495010Y-61840951D01*
X162452676Y-62050000D01*
X162452676Y-63243000D01*
X162327324Y-63243000D01*
X162327324Y-62050000D01*
X162290577Y-61854706D01*
X162175158Y-61675340D01*
X161999049Y-61555010D01*
X161790000Y-61512676D01*
X160290000Y-61512676D01*
X160094706Y-61549423D01*
X159915340Y-61664842D01*
X159795010Y-61840951D01*
X159768269Y-61973000D01*
X159620703Y-61973000D01*
X159380222Y-61873144D01*
X159051221Y-61872857D01*
X158747154Y-61998495D01*
X158514312Y-62230930D01*
X158388144Y-62534778D01*
X158387857Y-62863779D01*
X158513495Y-63167846D01*
X158588518Y-63243000D01*
X157310005Y-63243000D01*
X157310000Y-63242999D01*
X157077948Y-63289158D01*
X157031789Y-63298340D01*
X156795933Y-63455933D01*
X156795931Y-63455936D01*
X146922807Y-73329059D01*
X146901949Y-73337678D01*
X147006804Y-73085158D01*
X147007195Y-72636809D01*
X146835981Y-72222440D01*
X146519228Y-71905133D01*
X146105158Y-71733196D01*
X145656809Y-71732805D01*
X145242440Y-71904019D01*
X144925133Y-72220772D01*
X144753196Y-72634842D01*
X144752805Y-73083191D01*
X144924019Y-73497560D01*
X145240772Y-73814867D01*
X145654842Y-73986804D01*
X146103191Y-73987195D01*
X146357461Y-73882133D01*
X146323144Y-73964778D01*
X146322857Y-74293779D01*
X146357678Y-74378051D01*
X146105158Y-74273196D01*
X145656809Y-74272805D01*
X145250780Y-74440573D01*
X145124067Y-74250933D01*
X145124064Y-74250931D01*
X144489067Y-73615933D01*
X144407609Y-73561505D01*
X144253211Y-73458340D01*
X144207052Y-73449158D01*
X143975000Y-73402999D01*
X143974995Y-73403000D01*
X143298479Y-73403000D01*
X143321985Y-73367821D01*
X143422997Y-72860000D01*
X143321985Y-72352179D01*
X143034328Y-71921669D01*
X142603818Y-71634012D01*
X142382555Y-71590000D01*
X142603818Y-71545988D01*
X143034328Y-71258331D01*
X143321985Y-70827821D01*
X143422997Y-70320000D01*
X143321985Y-69812179D01*
X143298479Y-69777000D01*
X144885176Y-69777000D01*
X144753196Y-70094842D01*
X144752805Y-70543191D01*
X144924019Y-70957560D01*
X145240772Y-71274867D01*
X145654842Y-71446804D01*
X146103191Y-71447195D01*
X146517560Y-71275981D01*
X146834867Y-70959228D01*
X147006804Y-70545158D01*
X147007195Y-70096809D01*
X146875052Y-69777000D01*
X147784995Y-69777000D01*
X147785000Y-69777001D01*
X148017052Y-69730842D01*
X148063211Y-69721660D01*
X148299067Y-69564067D01*
X148299068Y-69564066D01*
X149282192Y-68580941D01*
X149522846Y-68481505D01*
X149755688Y-68249070D01*
X149881856Y-67945222D01*
X149882143Y-67616221D01*
X149756505Y-67312154D01*
X149524070Y-67079312D01*
X149220222Y-66953144D01*
X148891221Y-66952857D01*
X148587154Y-67078495D01*
X148354312Y-67310930D01*
X148253746Y-67553120D01*
X147483866Y-68323000D01*
X146874824Y-68323000D01*
X147006804Y-68005158D01*
X147007195Y-67556809D01*
X146835981Y-67142440D01*
X146519228Y-66825133D01*
X146105158Y-66653196D01*
X145656809Y-66652805D01*
X145242440Y-66824019D01*
X144925133Y-67140772D01*
X144753196Y-67554842D01*
X144752805Y-68003191D01*
X144884948Y-68323000D01*
X143298479Y-68323000D01*
X143321985Y-68287821D01*
X143422997Y-67780000D01*
X143321985Y-67272179D01*
X143034328Y-66841669D01*
X142603818Y-66554012D01*
X142382555Y-66510000D01*
X142603818Y-66465988D01*
X143034328Y-66178331D01*
X143321985Y-65747821D01*
X143378601Y-65463191D01*
X144752805Y-65463191D01*
X144924019Y-65877560D01*
X145240772Y-66194867D01*
X145654842Y-66366804D01*
X146103191Y-66367195D01*
X146517560Y-66195981D01*
X146834867Y-65879228D01*
X147006804Y-65465158D01*
X147007195Y-65016809D01*
X146835981Y-64602440D01*
X146519228Y-64285133D01*
X146105158Y-64113196D01*
X145656809Y-64112805D01*
X145242440Y-64284019D01*
X144925133Y-64600772D01*
X144753196Y-65014842D01*
X144752805Y-65463191D01*
X143378601Y-65463191D01*
X143422997Y-65240000D01*
X143321985Y-64732179D01*
X143034328Y-64301669D01*
X142603818Y-64014012D01*
X142382555Y-63970000D01*
X142603818Y-63925988D01*
X143034328Y-63638331D01*
X143147387Y-63469125D01*
X145214113Y-63469125D01*
X145265011Y-63670655D01*
X145683277Y-63832115D01*
X146131493Y-63821220D01*
X146494989Y-63670655D01*
X146545887Y-63469125D01*
X145880000Y-62803238D01*
X145214113Y-63469125D01*
X143147387Y-63469125D01*
X143321985Y-63207821D01*
X143422997Y-62700000D01*
X143383867Y-62503277D01*
X144747885Y-62503277D01*
X144758780Y-62951493D01*
X144909345Y-63314989D01*
X145110875Y-63365887D01*
X145776762Y-62700000D01*
X145983238Y-62700000D01*
X146649125Y-63365887D01*
X146850655Y-63314989D01*
X147012115Y-62896723D01*
X147001220Y-62448507D01*
X146850655Y-62085011D01*
X146649125Y-62034113D01*
X145983238Y-62700000D01*
X145776762Y-62700000D01*
X145110875Y-62034113D01*
X144909345Y-62085011D01*
X144747885Y-62503277D01*
X143383867Y-62503277D01*
X143321985Y-62192179D01*
X143147388Y-61930875D01*
X145214113Y-61930875D01*
X145880000Y-62596762D01*
X146545887Y-61930875D01*
X146494989Y-61729345D01*
X146076723Y-61567885D01*
X145628507Y-61578780D01*
X145265011Y-61729345D01*
X145214113Y-61930875D01*
X143147388Y-61930875D01*
X143034328Y-61761669D01*
X142603818Y-61474012D01*
X142402981Y-61434063D01*
X142824551Y-61251603D01*
X143184853Y-60879756D01*
X143367258Y-60439376D01*
X143338880Y-60383191D01*
X144752805Y-60383191D01*
X144924019Y-60797560D01*
X145240772Y-61114867D01*
X145654842Y-61286804D01*
X146103191Y-61287195D01*
X146517560Y-61115981D01*
X146834867Y-60799228D01*
X147006804Y-60385158D01*
X147007195Y-59936809D01*
X146835981Y-59522440D01*
X146519228Y-59205133D01*
X146105158Y-59033196D01*
X145656809Y-59032805D01*
X145242440Y-59204019D01*
X144925133Y-59520772D01*
X144753196Y-59934842D01*
X144752805Y-60383191D01*
X143338880Y-60383191D01*
X143263019Y-60233000D01*
X142143000Y-60233000D01*
X142143000Y-60253000D01*
X141997000Y-60253000D01*
X141997000Y-60233000D01*
X140876981Y-60233000D01*
X140772742Y-60439376D01*
X140955147Y-60879756D01*
X141315449Y-61251603D01*
X141737019Y-61434063D01*
X141536182Y-61474012D01*
X141105672Y-61761669D01*
X140818015Y-62192179D01*
X140717003Y-62700000D01*
X140818015Y-63207821D01*
X141105672Y-63638331D01*
X141536182Y-63925988D01*
X141757445Y-63970000D01*
X141536182Y-64014012D01*
X141105672Y-64301669D01*
X140818015Y-64732179D01*
X140717003Y-65240000D01*
X140818015Y-65747821D01*
X141105672Y-66178331D01*
X141536182Y-66465988D01*
X141757445Y-66510000D01*
X141536182Y-66554012D01*
X141105672Y-66841669D01*
X140818015Y-67272179D01*
X140717003Y-67780000D01*
X140818015Y-68287821D01*
X140841521Y-68323000D01*
X139530005Y-68323000D01*
X139530000Y-68322999D01*
X139297948Y-68369158D01*
X139251789Y-68378340D01*
X139015933Y-68535933D01*
X139015931Y-68535936D01*
X138593866Y-68958000D01*
X138251629Y-68958000D01*
X138325688Y-68884070D01*
X138451856Y-68580222D01*
X138452143Y-68251221D01*
X138352000Y-68008857D01*
X138352000Y-65875005D01*
X138352001Y-65875000D01*
X138296660Y-65596790D01*
X138296660Y-65596789D01*
X138139067Y-65360933D01*
X136234067Y-63455933D01*
X136152609Y-63401505D01*
X135998211Y-63298340D01*
X135952052Y-63289158D01*
X135720000Y-63242999D01*
X135719995Y-63243000D01*
X135678479Y-63243000D01*
X135701985Y-63207821D01*
X135802997Y-62700000D01*
X135701985Y-62192179D01*
X135414328Y-61761669D01*
X134983818Y-61474012D01*
X134762555Y-61430000D01*
X134983818Y-61385988D01*
X135414328Y-61098331D01*
X135701985Y-60667821D01*
X135802997Y-60160000D01*
X135701985Y-59652179D01*
X135414328Y-59221669D01*
X135055637Y-58982000D01*
X141515067Y-58982000D01*
X141315449Y-59068397D01*
X140955147Y-59440244D01*
X140772742Y-59880624D01*
X140876981Y-60087000D01*
X141997000Y-60087000D01*
X141997000Y-60067000D01*
X142143000Y-60067000D01*
X142143000Y-60087000D01*
X143263019Y-60087000D01*
X143367258Y-59880624D01*
X143184853Y-59440244D01*
X142837844Y-59082116D01*
X142868779Y-59082143D01*
X143172846Y-58956505D01*
X143405688Y-58724070D01*
X143531856Y-58420222D01*
X143532143Y-58091221D01*
X143406505Y-57787154D01*
X143239555Y-57619912D01*
X143405688Y-57454070D01*
X143531856Y-57150222D01*
X143532143Y-56821221D01*
X143406505Y-56517154D01*
X143174070Y-56284312D01*
X142870222Y-56158144D01*
X142541221Y-56157857D01*
X142298857Y-56258000D01*
X134220703Y-56258000D01*
X133980222Y-56158144D01*
X133651221Y-56157857D01*
X133347154Y-56283495D01*
X133114312Y-56515930D01*
X132988144Y-56819778D01*
X132987857Y-57148779D01*
X133113495Y-57452846D01*
X133280445Y-57620088D01*
X133114312Y-57785930D01*
X133111305Y-57793172D01*
X131655134Y-56337000D01*
X131705250Y-56337000D01*
X131837000Y-56205250D01*
X131837000Y-55133000D01*
X131983000Y-55133000D01*
X131983000Y-56205250D01*
X132114750Y-56337000D01*
X132639827Y-56337000D01*
X132833521Y-56256769D01*
X132981769Y-56108522D01*
X133062000Y-55914827D01*
X133062000Y-55264750D01*
X143458000Y-55264750D01*
X143458000Y-55914827D01*
X143538231Y-56108522D01*
X143686479Y-56256769D01*
X143880173Y-56337000D01*
X144405250Y-56337000D01*
X144537000Y-56205250D01*
X144537000Y-55133000D01*
X144683000Y-55133000D01*
X144683000Y-56205250D01*
X144814750Y-56337000D01*
X145339827Y-56337000D01*
X145533521Y-56256769D01*
X145681769Y-56108522D01*
X145762000Y-55914827D01*
X145762000Y-55264750D01*
X145630250Y-55133000D01*
X144683000Y-55133000D01*
X144537000Y-55133000D01*
X143589750Y-55133000D01*
X143458000Y-55264750D01*
X133062000Y-55264750D01*
X132930250Y-55133000D01*
X131983000Y-55133000D01*
X131837000Y-55133000D01*
X131817000Y-55133000D01*
X131817000Y-54987000D01*
X131837000Y-54987000D01*
X131837000Y-54967000D01*
X131983000Y-54967000D01*
X131983000Y-54987000D01*
X132930250Y-54987000D01*
X133062000Y-54855250D01*
X133062000Y-54205173D01*
X133003068Y-54062897D01*
X134442779Y-54062897D01*
X134636781Y-54532417D01*
X134995693Y-54891957D01*
X135464875Y-55086778D01*
X135972897Y-55087221D01*
X136442417Y-54893219D01*
X136801957Y-54534307D01*
X136996778Y-54065125D01*
X136996779Y-54062897D01*
X139442779Y-54062897D01*
X139636781Y-54532417D01*
X139995693Y-54891957D01*
X140464875Y-55086778D01*
X140972897Y-55087221D01*
X141442417Y-54893219D01*
X141801957Y-54534307D01*
X141996778Y-54065125D01*
X141997221Y-53557103D01*
X141803219Y-53087583D01*
X141444307Y-52728043D01*
X140975125Y-52533222D01*
X140467103Y-52532779D01*
X139997583Y-52726781D01*
X139638043Y-53085693D01*
X139443222Y-53554875D01*
X139442779Y-54062897D01*
X136996779Y-54062897D01*
X136997221Y-53557103D01*
X136803219Y-53087583D01*
X136444307Y-52728043D01*
X135975125Y-52533222D01*
X135467103Y-52532779D01*
X134997583Y-52726781D01*
X134638043Y-53085693D01*
X134443222Y-53554875D01*
X134442779Y-54062897D01*
X133003068Y-54062897D01*
X132981769Y-54011478D01*
X132833521Y-53863231D01*
X132713866Y-53813668D01*
X132730294Y-53810577D01*
X132909660Y-53695158D01*
X133029990Y-53519049D01*
X133072324Y-53310000D01*
X133072324Y-51810000D01*
X133035577Y-51614706D01*
X132920158Y-51435340D01*
X132744049Y-51315010D01*
X132535000Y-51272676D01*
X131285000Y-51272676D01*
X131089706Y-51309423D01*
X130910340Y-51424842D01*
X130790010Y-51600951D01*
X130747676Y-51810000D01*
X130747676Y-51813000D01*
X130410703Y-51813000D01*
X130170222Y-51713144D01*
X129841221Y-51712857D01*
X129537154Y-51838495D01*
X129304312Y-52070930D01*
X129301305Y-52078171D01*
X129249067Y-52025933D01*
X129167609Y-51971505D01*
X129013211Y-51868340D01*
X128967052Y-51859158D01*
X128735000Y-51812999D01*
X128734995Y-51813000D01*
X122385005Y-51813000D01*
X122385000Y-51812999D01*
X122106790Y-51868339D01*
X122085513Y-51882556D01*
X121870933Y-52025933D01*
X121870931Y-52025936D01*
X120135933Y-53760933D01*
X119978340Y-53996789D01*
X119978340Y-53996790D01*
X119955738Y-54110412D01*
X119854706Y-54129423D01*
X119675340Y-54244842D01*
X119555010Y-54420951D01*
X119512676Y-54630000D01*
X119512676Y-55530000D01*
X119549423Y-55725294D01*
X119664842Y-55904660D01*
X119746337Y-55960343D01*
X119653144Y-56184778D01*
X119652928Y-56432676D01*
X119650000Y-56432676D01*
X119454706Y-56469423D01*
X119275340Y-56584842D01*
X119209968Y-56680517D01*
X119155158Y-56595340D01*
X118979049Y-56475010D01*
X118770000Y-56432676D01*
X118497000Y-56432676D01*
X118497000Y-56043427D01*
X118565294Y-56030577D01*
X118744660Y-55915158D01*
X118864990Y-55739049D01*
X118907324Y-55530000D01*
X118907324Y-54630000D01*
X118870577Y-54434706D01*
X118755158Y-54255340D01*
X118579049Y-54135010D01*
X118370000Y-54092676D01*
X117170000Y-54092676D01*
X116974706Y-54129423D01*
X116795340Y-54244842D01*
X116675010Y-54420951D01*
X116671371Y-54438923D01*
X116670577Y-54434706D01*
X116555158Y-54255340D01*
X116379049Y-54135010D01*
X116170000Y-54092676D01*
X115610810Y-54092676D01*
X114179067Y-52660933D01*
X113943211Y-52503340D01*
X113897052Y-52494158D01*
X113665000Y-52447999D01*
X113664995Y-52448000D01*
X109685000Y-52448000D01*
X109406789Y-52503340D01*
X109241936Y-52613491D01*
X109242143Y-52376221D01*
X109116505Y-52072154D01*
X108884070Y-51839312D01*
X108580222Y-51713144D01*
X108251221Y-51712857D01*
X108008857Y-51813000D01*
X107672324Y-51813000D01*
X107672324Y-51810000D01*
X107635577Y-51614706D01*
X107520158Y-51435340D01*
X107344049Y-51315010D01*
X107135000Y-51272676D01*
X105885000Y-51272676D01*
X105689706Y-51309423D01*
X105510340Y-51424842D01*
X105390010Y-51600951D01*
X105347676Y-51810000D01*
X105347676Y-53310000D01*
X105384423Y-53505294D01*
X105499842Y-53684660D01*
X105675951Y-53804990D01*
X105710294Y-53811945D01*
X105586479Y-53863231D01*
X105438231Y-54011478D01*
X105358000Y-54205173D01*
X105358000Y-54855250D01*
X105489750Y-54987000D01*
X106437000Y-54987000D01*
X106437000Y-54967000D01*
X106583000Y-54967000D01*
X106583000Y-54987000D01*
X107530250Y-54987000D01*
X107662000Y-54855250D01*
X107662000Y-54205173D01*
X107581769Y-54011478D01*
X107433521Y-53863231D01*
X107313866Y-53813668D01*
X107330294Y-53810577D01*
X107509660Y-53695158D01*
X107629990Y-53519049D01*
X107672324Y-53310000D01*
X107672324Y-53267000D01*
X108009297Y-53267000D01*
X108249778Y-53366856D01*
X108464823Y-53367044D01*
X107900933Y-53930933D01*
X107743340Y-54166789D01*
X107743340Y-54166790D01*
X107687999Y-54445000D01*
X107688000Y-54445005D01*
X107688000Y-55413867D01*
X107662000Y-55439867D01*
X107662000Y-55264750D01*
X107530250Y-55133000D01*
X106583000Y-55133000D01*
X106583000Y-55153000D01*
X106437000Y-55153000D01*
X106437000Y-55133000D01*
X105489750Y-55133000D01*
X105358000Y-55264750D01*
X105358000Y-55914827D01*
X105438231Y-56108522D01*
X105586479Y-56256769D01*
X105589451Y-56258000D01*
X96350000Y-56258000D01*
X96071789Y-56313340D01*
X95835933Y-56470933D01*
X95835931Y-56470936D01*
X93295933Y-59010933D01*
X93169009Y-59200890D01*
X92765158Y-59033196D01*
X92316809Y-59032805D01*
X91902440Y-59204019D01*
X91585133Y-59520772D01*
X91413196Y-59934842D01*
X91412805Y-60383191D01*
X91584019Y-60797560D01*
X91900772Y-61114867D01*
X92314842Y-61286804D01*
X92763191Y-61287195D01*
X93083000Y-61155052D01*
X93083000Y-61705176D01*
X92765158Y-61573196D01*
X92316809Y-61572805D01*
X91902440Y-61744019D01*
X91585133Y-62060772D01*
X91413196Y-62474842D01*
X91412805Y-62923191D01*
X91584019Y-63337560D01*
X91900772Y-63654867D01*
X92314842Y-63826804D01*
X92763191Y-63827195D01*
X93083000Y-63695052D01*
X93083000Y-64245176D01*
X92765158Y-64113196D01*
X92316809Y-64112805D01*
X91902440Y-64284019D01*
X91585133Y-64600772D01*
X91413196Y-65014842D01*
X91412805Y-65463191D01*
X91584019Y-65877560D01*
X91900772Y-66194867D01*
X92314842Y-66366804D01*
X92763191Y-66367195D01*
X93083000Y-66235052D01*
X93083000Y-66785176D01*
X92765158Y-66653196D01*
X92316809Y-66652805D01*
X91902440Y-66824019D01*
X91585133Y-67140772D01*
X91413196Y-67554842D01*
X91412805Y-68003191D01*
X91517867Y-68257461D01*
X91435222Y-68223144D01*
X91106221Y-68222857D01*
X90802154Y-68348495D01*
X90602000Y-68548299D01*
X90602000Y-55264750D01*
X92658000Y-55264750D01*
X92658000Y-55914827D01*
X92738231Y-56108522D01*
X92886479Y-56256769D01*
X93080173Y-56337000D01*
X93605250Y-56337000D01*
X93737000Y-56205250D01*
X93737000Y-55133000D01*
X93883000Y-55133000D01*
X93883000Y-56205250D01*
X94014750Y-56337000D01*
X94539827Y-56337000D01*
X94733521Y-56256769D01*
X94881769Y-56108522D01*
X94962000Y-55914827D01*
X94962000Y-55264750D01*
X94830250Y-55133000D01*
X93883000Y-55133000D01*
X93737000Y-55133000D01*
X92789750Y-55133000D01*
X92658000Y-55264750D01*
X90602000Y-55264750D01*
X90602000Y-52059293D01*
X90719313Y-51469521D01*
X91019804Y-51019804D01*
X91469521Y-50719313D01*
X92059293Y-50602000D01*
X94578590Y-50602000D01*
X94379312Y-50800930D01*
X94379312Y-50800930D01*
G37*
X94379312Y-50800930D02*
X94278746Y-51043120D01*
X94049191Y-51272676D01*
X93185000Y-51272676D01*
X92989706Y-51309423D01*
X92810340Y-51424842D01*
X92690010Y-51600951D01*
X92647676Y-51810000D01*
X92647676Y-53310000D01*
X92684423Y-53505294D01*
X92799842Y-53684660D01*
X92975951Y-53804990D01*
X93010294Y-53811945D01*
X92886479Y-53863231D01*
X92738231Y-54011478D01*
X92658000Y-54205173D01*
X92658000Y-54855250D01*
X92789750Y-54987000D01*
X93737000Y-54987000D01*
X93737000Y-54967000D01*
X93883000Y-54967000D01*
X93883000Y-54987000D01*
X94830250Y-54987000D01*
X94962000Y-54855250D01*
X94962000Y-54205173D01*
X94903068Y-54062897D01*
X96342779Y-54062897D01*
X96536781Y-54532417D01*
X96895693Y-54891957D01*
X97364875Y-55086778D01*
X97872897Y-55087221D01*
X98342417Y-54893219D01*
X98701957Y-54534307D01*
X98896778Y-54065125D01*
X98896779Y-54062897D01*
X101342779Y-54062897D01*
X101536781Y-54532417D01*
X101895693Y-54891957D01*
X102364875Y-55086778D01*
X102872897Y-55087221D01*
X103342417Y-54893219D01*
X103701957Y-54534307D01*
X103896778Y-54065125D01*
X103897221Y-53557103D01*
X103703219Y-53087583D01*
X103344307Y-52728043D01*
X102875125Y-52533222D01*
X102367103Y-52532779D01*
X101897583Y-52726781D01*
X101538043Y-53085693D01*
X101343222Y-53554875D01*
X101342779Y-54062897D01*
X98896779Y-54062897D01*
X98897221Y-53557103D01*
X98703219Y-53087583D01*
X98344307Y-52728043D01*
X97875125Y-52533222D01*
X97367103Y-52532779D01*
X96897583Y-52726781D01*
X96538043Y-53085693D01*
X96343222Y-53554875D01*
X96342779Y-54062897D01*
X94903068Y-54062897D01*
X94881769Y-54011478D01*
X94733521Y-53863231D01*
X94613866Y-53813668D01*
X94630294Y-53810577D01*
X94809660Y-53695158D01*
X94929990Y-53519049D01*
X94972324Y-53310000D01*
X94972324Y-52405809D01*
X95307192Y-52070941D01*
X95547846Y-51971505D01*
X95780688Y-51739070D01*
X95906856Y-51435222D01*
X95907143Y-51106221D01*
X95781505Y-50802154D01*
X95581701Y-50602000D01*
X142838590Y-50602000D01*
X142639312Y-50800930D01*
X142513144Y-51104778D01*
X142512857Y-51433779D01*
X142638495Y-51737846D01*
X142870930Y-51970688D01*
X143113120Y-52071253D01*
X143447676Y-52405810D01*
X143447676Y-53310000D01*
X143484423Y-53505294D01*
X143599842Y-53684660D01*
X143775951Y-53804990D01*
X143810294Y-53811945D01*
X143686479Y-53863231D01*
X143538231Y-54011478D01*
X143458000Y-54205173D01*
X143458000Y-54855250D01*
X143589750Y-54987000D01*
X144537000Y-54987000D01*
X144537000Y-54967000D01*
X144683000Y-54967000D01*
X144683000Y-54987000D01*
X145630250Y-54987000D01*
X145762000Y-54855250D01*
X145762000Y-54205173D01*
X145681769Y-54011478D01*
X145533521Y-53863231D01*
X145413866Y-53813668D01*
X145430294Y-53810577D01*
X145431190Y-53810000D01*
X152193493Y-53810000D01*
X152309729Y-54394358D01*
X152640741Y-54889752D01*
X152925467Y-55080000D01*
X152640741Y-55270248D01*
X152309729Y-55765642D01*
X152193493Y-56350000D01*
X152309729Y-56934358D01*
X152640741Y-57429752D01*
X153136135Y-57760764D01*
X153720493Y-57877000D01*
X155819507Y-57877000D01*
X156403865Y-57760764D01*
X156899259Y-57429752D01*
X157230271Y-56934358D01*
X157284704Y-56660704D01*
X167514944Y-56660704D01*
X167571300Y-56866914D01*
X167878629Y-57378133D01*
X168358199Y-57732828D01*
X168937000Y-57877000D01*
X169937000Y-57877000D01*
X169937000Y-56423000D01*
X167616661Y-56423000D01*
X167514944Y-56660704D01*
X157284704Y-56660704D01*
X157346507Y-56350000D01*
X157230271Y-55765642D01*
X156899259Y-55270248D01*
X156614533Y-55080000D01*
X156899259Y-54889752D01*
X157230271Y-54394358D01*
X157284704Y-54120704D01*
X167514944Y-54120704D01*
X167571300Y-54326914D01*
X167878629Y-54838133D01*
X168205648Y-55080000D01*
X167878629Y-55321867D01*
X167571300Y-55833086D01*
X167514944Y-56039296D01*
X167616661Y-56277000D01*
X169937000Y-56277000D01*
X169937000Y-53883000D01*
X170083000Y-53883000D01*
X170083000Y-56277000D01*
X172403339Y-56277000D01*
X172505056Y-56039296D01*
X172448700Y-55833086D01*
X172141371Y-55321867D01*
X171814352Y-55080000D01*
X172141371Y-54838133D01*
X172448700Y-54326914D01*
X172505056Y-54120704D01*
X172403339Y-53883000D01*
X170083000Y-53883000D01*
X169937000Y-53883000D01*
X167616661Y-53883000D01*
X167514944Y-54120704D01*
X157284704Y-54120704D01*
X157346507Y-53810000D01*
X157284705Y-53499296D01*
X167514944Y-53499296D01*
X167616661Y-53737000D01*
X169937000Y-53737000D01*
X169937000Y-52283000D01*
X170083000Y-52283000D01*
X170083000Y-53737000D01*
X172403339Y-53737000D01*
X172505056Y-53499296D01*
X172448700Y-53293086D01*
X172141371Y-52781867D01*
X171661801Y-52427172D01*
X171083000Y-52283000D01*
X170083000Y-52283000D01*
X169937000Y-52283000D01*
X168937000Y-52283000D01*
X168358199Y-52427172D01*
X167878629Y-52781867D01*
X167571300Y-53293086D01*
X167514944Y-53499296D01*
X157284705Y-53499296D01*
X157230271Y-53225642D01*
X156899259Y-52730248D01*
X156403865Y-52399236D01*
X155819507Y-52283000D01*
X153720493Y-52283000D01*
X153136135Y-52399236D01*
X152640741Y-52730248D01*
X152309729Y-53225642D01*
X152193493Y-53810000D01*
X145431190Y-53810000D01*
X145609660Y-53695158D01*
X145729990Y-53519049D01*
X145772324Y-53310000D01*
X145772324Y-51810000D01*
X145735577Y-51614706D01*
X145620158Y-51435340D01*
X145444049Y-51315010D01*
X145235000Y-51272676D01*
X144370810Y-51272676D01*
X144140941Y-51042807D01*
X144041505Y-50802154D01*
X143841701Y-50602000D01*
X187940707Y-50602000D01*
X188530479Y-50719313D01*
X188980196Y-51019804D01*
X189280687Y-51469521D01*
X189398000Y-52059293D01*
X189398000Y-55304582D01*
X188941801Y-54967172D01*
X188363000Y-54823000D01*
X187863000Y-54823000D01*
X187863000Y-56277000D01*
X187883000Y-56277000D01*
X187883000Y-56423000D01*
X187863000Y-56423000D01*
X187863000Y-58817000D01*
X187883000Y-58817000D01*
X187883000Y-58963000D01*
X187863000Y-58963000D01*
X187863000Y-61357000D01*
X187883000Y-61357000D01*
X187883000Y-61503000D01*
X187863000Y-61503000D01*
X187863000Y-62957000D01*
X188363000Y-62957000D01*
X188941801Y-62812828D01*
X189398000Y-62475418D01*
X189398000Y-65464582D01*
X188941801Y-65127172D01*
X188363000Y-64983000D01*
X187863000Y-64983000D01*
X187863000Y-66437000D01*
X187883000Y-66437000D01*
X187883000Y-66583000D01*
X187863000Y-66583000D01*
X187863000Y-68977000D01*
X187883000Y-68977000D01*
X187883000Y-69123000D01*
X187863000Y-69123000D01*
X187863000Y-71517000D01*
X187883000Y-71517000D01*
X187883000Y-71663000D01*
X187863000Y-71663000D01*
X187863000Y-74057000D01*
X187883000Y-74057000D01*
X187883000Y-74203000D01*
X187863000Y-74203000D01*
X187863000Y-76597000D01*
X187883000Y-76597000D01*
X187883000Y-76743000D01*
X187863000Y-76743000D01*
X187863000Y-79137000D01*
X187883000Y-79137000D01*
X187883000Y-79283000D01*
X187863000Y-79283000D01*
X187863000Y-81677000D01*
X187883000Y-81677000D01*
X187883000Y-81823000D01*
X187863000Y-81823000D01*
X187863000Y-84217000D01*
X187883000Y-84217000D01*
X187883000Y-84363000D01*
X187863000Y-84363000D01*
X187863000Y-86757000D01*
X187883000Y-86757000D01*
X187883000Y-86903000D01*
X187863000Y-86903000D01*
X187863000Y-89297000D01*
X187883000Y-89297000D01*
X187883000Y-89443000D01*
X187863000Y-89443000D01*
X187863000Y-91837000D01*
X187883000Y-91837000D01*
X187883000Y-91983000D01*
X187863000Y-91983000D01*
X187863000Y-92003000D01*
X187717000Y-92003000D01*
X187717000Y-91983000D01*
X187697000Y-91983000D01*
X187697000Y-91837000D01*
X187717000Y-91837000D01*
X187717000Y-89443000D01*
X187697000Y-89443000D01*
X187697000Y-89297000D01*
X187717000Y-89297000D01*
X187717000Y-86903000D01*
X187697000Y-86903000D01*
X187697000Y-86757000D01*
X187717000Y-86757000D01*
X187717000Y-84363000D01*
X187697000Y-84363000D01*
X187697000Y-84217000D01*
X187717000Y-84217000D01*
X187717000Y-81823000D01*
X187697000Y-81823000D01*
X187697000Y-81677000D01*
X187717000Y-81677000D01*
X187717000Y-79283000D01*
X187697000Y-79283000D01*
X187697000Y-79137000D01*
X187717000Y-79137000D01*
X187717000Y-76743000D01*
X185896661Y-76743000D01*
X185794944Y-76980704D01*
X185851300Y-77186914D01*
X186158629Y-77698133D01*
X186485648Y-77940000D01*
X186158629Y-78181867D01*
X186055893Y-78352760D01*
X182875941Y-75172807D01*
X182776505Y-74932154D01*
X182544070Y-74699312D01*
X182240222Y-74573144D01*
X182148580Y-74573064D01*
X182174908Y-74440704D01*
X185794944Y-74440704D01*
X185851300Y-74646914D01*
X186158629Y-75158133D01*
X186485648Y-75400000D01*
X186158629Y-75641867D01*
X185851300Y-76153086D01*
X185794944Y-76359296D01*
X185896661Y-76597000D01*
X187717000Y-76597000D01*
X187717000Y-74203000D01*
X185896661Y-74203000D01*
X185794944Y-74440704D01*
X182174908Y-74440704D01*
X182236711Y-74130000D01*
X182120475Y-73545642D01*
X181789463Y-73050248D01*
X181504737Y-72860000D01*
X181789463Y-72669752D01*
X182120475Y-72174358D01*
X182174908Y-71900704D01*
X185794944Y-71900704D01*
X185851300Y-72106914D01*
X186158629Y-72618133D01*
X186485648Y-72860000D01*
X186158629Y-73101867D01*
X185851300Y-73613086D01*
X185794944Y-73819296D01*
X185896661Y-74057000D01*
X187717000Y-74057000D01*
X187717000Y-71663000D01*
X185896661Y-71663000D01*
X185794944Y-71900704D01*
X182174908Y-71900704D01*
X182236711Y-71590000D01*
X182120475Y-71005642D01*
X181789463Y-70510248D01*
X181504737Y-70320000D01*
X181789463Y-70129752D01*
X182120475Y-69634358D01*
X182174908Y-69360704D01*
X185794944Y-69360704D01*
X185851300Y-69566914D01*
X186158629Y-70078133D01*
X186485648Y-70320000D01*
X186158629Y-70561867D01*
X185851300Y-71073086D01*
X185794944Y-71279296D01*
X185896661Y-71517000D01*
X187717000Y-71517000D01*
X187717000Y-69123000D01*
X185896661Y-69123000D01*
X185794944Y-69360704D01*
X182174908Y-69360704D01*
X182236711Y-69050000D01*
X182120475Y-68465642D01*
X181789463Y-67970248D01*
X181504737Y-67780000D01*
X181789463Y-67589752D01*
X182120475Y-67094358D01*
X182174908Y-66820704D01*
X185794944Y-66820704D01*
X185851300Y-67026914D01*
X186158629Y-67538133D01*
X186485648Y-67780000D01*
X186158629Y-68021867D01*
X185851300Y-68533086D01*
X185794944Y-68739296D01*
X185896661Y-68977000D01*
X187717000Y-68977000D01*
X187717000Y-66583000D01*
X185896661Y-66583000D01*
X185794944Y-66820704D01*
X182174908Y-66820704D01*
X182236711Y-66510000D01*
X182174909Y-66199296D01*
X185794944Y-66199296D01*
X185896661Y-66437000D01*
X187717000Y-66437000D01*
X187717000Y-64983000D01*
X187217000Y-64983000D01*
X186638199Y-65127172D01*
X186158629Y-65481867D01*
X185851300Y-65993086D01*
X185794944Y-66199296D01*
X182174909Y-66199296D01*
X182120475Y-65925642D01*
X181789463Y-65430248D01*
X181294069Y-65099236D01*
X180709711Y-64983000D01*
X179630289Y-64983000D01*
X179045931Y-65099236D01*
X178550537Y-65430248D01*
X178219525Y-65925642D01*
X178218806Y-65929257D01*
X178099070Y-65809312D01*
X177795222Y-65683144D01*
X177466221Y-65682857D01*
X177223857Y-65783000D01*
X171280005Y-65783000D01*
X171280000Y-65782999D01*
X171047948Y-65829158D01*
X171001789Y-65838340D01*
X170765933Y-65995933D01*
X170765931Y-65995936D01*
X167168866Y-69593000D01*
X165012835Y-69593000D01*
X164990577Y-69474706D01*
X164875158Y-69295340D01*
X164699049Y-69175010D01*
X164490000Y-69132676D01*
X163415458Y-69132676D01*
X163580810Y-68967324D01*
X164490000Y-68967324D01*
X164685294Y-68930577D01*
X164864660Y-68815158D01*
X164984990Y-68639049D01*
X165011731Y-68507000D01*
X167469995Y-68507000D01*
X167470000Y-68507001D01*
X167702052Y-68460842D01*
X167748211Y-68451660D01*
X167984067Y-68294067D01*
X174121134Y-62157000D01*
X177224297Y-62157000D01*
X177464778Y-62256856D01*
X177793779Y-62257143D01*
X178097846Y-62131505D01*
X178218808Y-62010754D01*
X178219525Y-62014358D01*
X178550537Y-62509752D01*
X179045931Y-62840764D01*
X179630289Y-62957000D01*
X180709711Y-62957000D01*
X181294069Y-62840764D01*
X181789463Y-62509752D01*
X182120475Y-62014358D01*
X182174908Y-61740704D01*
X185794944Y-61740704D01*
X185851300Y-61946914D01*
X186158629Y-62458133D01*
X186638199Y-62812828D01*
X187217000Y-62957000D01*
X187717000Y-62957000D01*
X187717000Y-61503000D01*
X185896661Y-61503000D01*
X185794944Y-61740704D01*
X182174908Y-61740704D01*
X182236711Y-61430000D01*
X182120475Y-60845642D01*
X181789463Y-60350248D01*
X181504737Y-60160000D01*
X181789463Y-59969752D01*
X182120475Y-59474358D01*
X182174908Y-59200704D01*
X185794944Y-59200704D01*
X185851300Y-59406914D01*
X186158629Y-59918133D01*
X186485648Y-60160000D01*
X186158629Y-60401867D01*
X185851300Y-60913086D01*
X185794944Y-61119296D01*
X185896661Y-61357000D01*
X187717000Y-61357000D01*
X187717000Y-58963000D01*
X185896661Y-58963000D01*
X185794944Y-59200704D01*
X182174908Y-59200704D01*
X182236711Y-58890000D01*
X182120475Y-58305642D01*
X181789463Y-57810248D01*
X181504737Y-57620000D01*
X181789463Y-57429752D01*
X182120475Y-56934358D01*
X182174908Y-56660704D01*
X185794944Y-56660704D01*
X185851300Y-56866914D01*
X186158629Y-57378133D01*
X186485648Y-57620000D01*
X186158629Y-57861867D01*
X185851300Y-58373086D01*
X185794944Y-58579296D01*
X185896661Y-58817000D01*
X187717000Y-58817000D01*
X187717000Y-56423000D01*
X185896661Y-56423000D01*
X185794944Y-56660704D01*
X182174908Y-56660704D01*
X182236711Y-56350000D01*
X182174909Y-56039296D01*
X185794944Y-56039296D01*
X185896661Y-56277000D01*
X187717000Y-56277000D01*
X187717000Y-54823000D01*
X187217000Y-54823000D01*
X186638199Y-54967172D01*
X186158629Y-55321867D01*
X185851300Y-55833086D01*
X185794944Y-56039296D01*
X182174909Y-56039296D01*
X182120475Y-55765642D01*
X181789463Y-55270248D01*
X181294069Y-54939236D01*
X180709711Y-54823000D01*
X179630289Y-54823000D01*
X179045931Y-54939236D01*
X178550537Y-55270248D01*
X178219525Y-55765642D01*
X178218806Y-55769257D01*
X178099070Y-55649312D01*
X177795222Y-55523144D01*
X177466221Y-55522857D01*
X177223857Y-55623000D01*
X173820000Y-55623000D01*
X173541789Y-55678340D01*
X173305933Y-55835933D01*
X172497895Y-56643971D01*
X172403339Y-56423000D01*
X170083000Y-56423000D01*
X170083000Y-57877000D01*
X171083000Y-57877000D01*
X171325193Y-57816673D01*
X167168866Y-61973000D01*
X165012835Y-61973000D01*
X164990577Y-61854706D01*
X164875158Y-61675340D01*
X164699049Y-61555010D01*
X164490000Y-61512676D01*
X162990000Y-61512676D01*
X162794706Y-61549423D01*
X162615340Y-61664842D01*
X162495010Y-61840951D01*
X162452676Y-62050000D01*
X162452676Y-63243000D01*
X162327324Y-63243000D01*
X162327324Y-62050000D01*
X162290577Y-61854706D01*
X162175158Y-61675340D01*
X161999049Y-61555010D01*
X161790000Y-61512676D01*
X160290000Y-61512676D01*
X160094706Y-61549423D01*
X159915340Y-61664842D01*
X159795010Y-61840951D01*
X159768269Y-61973000D01*
X159620703Y-61973000D01*
X159380222Y-61873144D01*
X159051221Y-61872857D01*
X158747154Y-61998495D01*
X158514312Y-62230930D01*
X158388144Y-62534778D01*
X158387857Y-62863779D01*
X158513495Y-63167846D01*
X158588518Y-63243000D01*
X157310005Y-63243000D01*
X157310000Y-63242999D01*
X157077948Y-63289158D01*
X157031789Y-63298340D01*
X156795933Y-63455933D01*
X156795931Y-63455936D01*
X146922807Y-73329059D01*
X146901949Y-73337678D01*
X147006804Y-73085158D01*
X147007195Y-72636809D01*
X146835981Y-72222440D01*
X146519228Y-71905133D01*
X146105158Y-71733196D01*
X145656809Y-71732805D01*
X145242440Y-71904019D01*
X144925133Y-72220772D01*
X144753196Y-72634842D01*
X144752805Y-73083191D01*
X144924019Y-73497560D01*
X145240772Y-73814867D01*
X145654842Y-73986804D01*
X146103191Y-73987195D01*
X146357461Y-73882133D01*
X146323144Y-73964778D01*
X146322857Y-74293779D01*
X146357678Y-74378051D01*
X146105158Y-74273196D01*
X145656809Y-74272805D01*
X145250780Y-74440573D01*
X145124067Y-74250933D01*
X145124064Y-74250931D01*
X144489067Y-73615933D01*
X144407609Y-73561505D01*
X144253211Y-73458340D01*
X144207052Y-73449158D01*
X143975000Y-73402999D01*
X143974995Y-73403000D01*
X143298479Y-73403000D01*
X143321985Y-73367821D01*
X143422997Y-72860000D01*
X143321985Y-72352179D01*
X143034328Y-71921669D01*
X142603818Y-71634012D01*
X142382555Y-71590000D01*
X142603818Y-71545988D01*
X143034328Y-71258331D01*
X143321985Y-70827821D01*
X143422997Y-70320000D01*
X143321985Y-69812179D01*
X143298479Y-69777000D01*
X144885176Y-69777000D01*
X144753196Y-70094842D01*
X144752805Y-70543191D01*
X144924019Y-70957560D01*
X145240772Y-71274867D01*
X145654842Y-71446804D01*
X146103191Y-71447195D01*
X146517560Y-71275981D01*
X146834867Y-70959228D01*
X147006804Y-70545158D01*
X147007195Y-70096809D01*
X146875052Y-69777000D01*
X147784995Y-69777000D01*
X147785000Y-69777001D01*
X148017052Y-69730842D01*
X148063211Y-69721660D01*
X148299067Y-69564067D01*
X148299068Y-69564066D01*
X149282192Y-68580941D01*
X149522846Y-68481505D01*
X149755688Y-68249070D01*
X149881856Y-67945222D01*
X149882143Y-67616221D01*
X149756505Y-67312154D01*
X149524070Y-67079312D01*
X149220222Y-66953144D01*
X148891221Y-66952857D01*
X148587154Y-67078495D01*
X148354312Y-67310930D01*
X148253746Y-67553120D01*
X147483866Y-68323000D01*
X146874824Y-68323000D01*
X147006804Y-68005158D01*
X147007195Y-67556809D01*
X146835981Y-67142440D01*
X146519228Y-66825133D01*
X146105158Y-66653196D01*
X145656809Y-66652805D01*
X145242440Y-66824019D01*
X144925133Y-67140772D01*
X144753196Y-67554842D01*
X144752805Y-68003191D01*
X144884948Y-68323000D01*
X143298479Y-68323000D01*
X143321985Y-68287821D01*
X143422997Y-67780000D01*
X143321985Y-67272179D01*
X143034328Y-66841669D01*
X142603818Y-66554012D01*
X142382555Y-66510000D01*
X142603818Y-66465988D01*
X143034328Y-66178331D01*
X143321985Y-65747821D01*
X143378601Y-65463191D01*
X144752805Y-65463191D01*
X144924019Y-65877560D01*
X145240772Y-66194867D01*
X145654842Y-66366804D01*
X146103191Y-66367195D01*
X146517560Y-66195981D01*
X146834867Y-65879228D01*
X147006804Y-65465158D01*
X147007195Y-65016809D01*
X146835981Y-64602440D01*
X146519228Y-64285133D01*
X146105158Y-64113196D01*
X145656809Y-64112805D01*
X145242440Y-64284019D01*
X144925133Y-64600772D01*
X144753196Y-65014842D01*
X144752805Y-65463191D01*
X143378601Y-65463191D01*
X143422997Y-65240000D01*
X143321985Y-64732179D01*
X143034328Y-64301669D01*
X142603818Y-64014012D01*
X142382555Y-63970000D01*
X142603818Y-63925988D01*
X143034328Y-63638331D01*
X143147387Y-63469125D01*
X145214113Y-63469125D01*
X145265011Y-63670655D01*
X145683277Y-63832115D01*
X146131493Y-63821220D01*
X146494989Y-63670655D01*
X146545887Y-63469125D01*
X145880000Y-62803238D01*
X145214113Y-63469125D01*
X143147387Y-63469125D01*
X143321985Y-63207821D01*
X143422997Y-62700000D01*
X143383867Y-62503277D01*
X144747885Y-62503277D01*
X144758780Y-62951493D01*
X144909345Y-63314989D01*
X145110875Y-63365887D01*
X145776762Y-62700000D01*
X145983238Y-62700000D01*
X146649125Y-63365887D01*
X146850655Y-63314989D01*
X147012115Y-62896723D01*
X147001220Y-62448507D01*
X146850655Y-62085011D01*
X146649125Y-62034113D01*
X145983238Y-62700000D01*
X145776762Y-62700000D01*
X145110875Y-62034113D01*
X144909345Y-62085011D01*
X144747885Y-62503277D01*
X143383867Y-62503277D01*
X143321985Y-62192179D01*
X143147388Y-61930875D01*
X145214113Y-61930875D01*
X145880000Y-62596762D01*
X146545887Y-61930875D01*
X146494989Y-61729345D01*
X146076723Y-61567885D01*
X145628507Y-61578780D01*
X145265011Y-61729345D01*
X145214113Y-61930875D01*
X143147388Y-61930875D01*
X143034328Y-61761669D01*
X142603818Y-61474012D01*
X142402981Y-61434063D01*
X142824551Y-61251603D01*
X143184853Y-60879756D01*
X143367258Y-60439376D01*
X143338880Y-60383191D01*
X144752805Y-60383191D01*
X144924019Y-60797560D01*
X145240772Y-61114867D01*
X145654842Y-61286804D01*
X146103191Y-61287195D01*
X146517560Y-61115981D01*
X146834867Y-60799228D01*
X147006804Y-60385158D01*
X147007195Y-59936809D01*
X146835981Y-59522440D01*
X146519228Y-59205133D01*
X146105158Y-59033196D01*
X145656809Y-59032805D01*
X145242440Y-59204019D01*
X144925133Y-59520772D01*
X144753196Y-59934842D01*
X144752805Y-60383191D01*
X143338880Y-60383191D01*
X143263019Y-60233000D01*
X142143000Y-60233000D01*
X142143000Y-60253000D01*
X141997000Y-60253000D01*
X141997000Y-60233000D01*
X140876981Y-60233000D01*
X140772742Y-60439376D01*
X140955147Y-60879756D01*
X141315449Y-61251603D01*
X141737019Y-61434063D01*
X141536182Y-61474012D01*
X141105672Y-61761669D01*
X140818015Y-62192179D01*
X140717003Y-62700000D01*
X140818015Y-63207821D01*
X141105672Y-63638331D01*
X141536182Y-63925988D01*
X141757445Y-63970000D01*
X141536182Y-64014012D01*
X141105672Y-64301669D01*
X140818015Y-64732179D01*
X140717003Y-65240000D01*
X140818015Y-65747821D01*
X141105672Y-66178331D01*
X141536182Y-66465988D01*
X141757445Y-66510000D01*
X141536182Y-66554012D01*
X141105672Y-66841669D01*
X140818015Y-67272179D01*
X140717003Y-67780000D01*
X140818015Y-68287821D01*
X140841521Y-68323000D01*
X139530005Y-68323000D01*
X139530000Y-68322999D01*
X139297948Y-68369158D01*
X139251789Y-68378340D01*
X139015933Y-68535933D01*
X139015931Y-68535936D01*
X138593866Y-68958000D01*
X138251629Y-68958000D01*
X138325688Y-68884070D01*
X138451856Y-68580222D01*
X138452143Y-68251221D01*
X138352000Y-68008857D01*
X138352000Y-65875005D01*
X138352001Y-65875000D01*
X138296660Y-65596790D01*
X138296660Y-65596789D01*
X138139067Y-65360933D01*
X136234067Y-63455933D01*
X136152609Y-63401505D01*
X135998211Y-63298340D01*
X135952052Y-63289158D01*
X135720000Y-63242999D01*
X135719995Y-63243000D01*
X135678479Y-63243000D01*
X135701985Y-63207821D01*
X135802997Y-62700000D01*
X135701985Y-62192179D01*
X135414328Y-61761669D01*
X134983818Y-61474012D01*
X134762555Y-61430000D01*
X134983818Y-61385988D01*
X135414328Y-61098331D01*
X135701985Y-60667821D01*
X135802997Y-60160000D01*
X135701985Y-59652179D01*
X135414328Y-59221669D01*
X135055637Y-58982000D01*
X141515067Y-58982000D01*
X141315449Y-59068397D01*
X140955147Y-59440244D01*
X140772742Y-59880624D01*
X140876981Y-60087000D01*
X141997000Y-60087000D01*
X141997000Y-60067000D01*
X142143000Y-60067000D01*
X142143000Y-60087000D01*
X143263019Y-60087000D01*
X143367258Y-59880624D01*
X143184853Y-59440244D01*
X142837844Y-59082116D01*
X142868779Y-59082143D01*
X143172846Y-58956505D01*
X143405688Y-58724070D01*
X143531856Y-58420222D01*
X143532143Y-58091221D01*
X143406505Y-57787154D01*
X143239555Y-57619912D01*
X143405688Y-57454070D01*
X143531856Y-57150222D01*
X143532143Y-56821221D01*
X143406505Y-56517154D01*
X143174070Y-56284312D01*
X142870222Y-56158144D01*
X142541221Y-56157857D01*
X142298857Y-56258000D01*
X134220703Y-56258000D01*
X133980222Y-56158144D01*
X133651221Y-56157857D01*
X133347154Y-56283495D01*
X133114312Y-56515930D01*
X132988144Y-56819778D01*
X132987857Y-57148779D01*
X133113495Y-57452846D01*
X133280445Y-57620088D01*
X133114312Y-57785930D01*
X133111305Y-57793172D01*
X131655134Y-56337000D01*
X131705250Y-56337000D01*
X131837000Y-56205250D01*
X131837000Y-55133000D01*
X131983000Y-55133000D01*
X131983000Y-56205250D01*
X132114750Y-56337000D01*
X132639827Y-56337000D01*
X132833521Y-56256769D01*
X132981769Y-56108522D01*
X133062000Y-55914827D01*
X133062000Y-55264750D01*
X143458000Y-55264750D01*
X143458000Y-55914827D01*
X143538231Y-56108522D01*
X143686479Y-56256769D01*
X143880173Y-56337000D01*
X144405250Y-56337000D01*
X144537000Y-56205250D01*
X144537000Y-55133000D01*
X144683000Y-55133000D01*
X144683000Y-56205250D01*
X144814750Y-56337000D01*
X145339827Y-56337000D01*
X145533521Y-56256769D01*
X145681769Y-56108522D01*
X145762000Y-55914827D01*
X145762000Y-55264750D01*
X145630250Y-55133000D01*
X144683000Y-55133000D01*
X144537000Y-55133000D01*
X143589750Y-55133000D01*
X143458000Y-55264750D01*
X133062000Y-55264750D01*
X132930250Y-55133000D01*
X131983000Y-55133000D01*
X131837000Y-55133000D01*
X131817000Y-55133000D01*
X131817000Y-54987000D01*
X131837000Y-54987000D01*
X131837000Y-54967000D01*
X131983000Y-54967000D01*
X131983000Y-54987000D01*
X132930250Y-54987000D01*
X133062000Y-54855250D01*
X133062000Y-54205173D01*
X133003068Y-54062897D01*
X134442779Y-54062897D01*
X134636781Y-54532417D01*
X134995693Y-54891957D01*
X135464875Y-55086778D01*
X135972897Y-55087221D01*
X136442417Y-54893219D01*
X136801957Y-54534307D01*
X136996778Y-54065125D01*
X136996779Y-54062897D01*
X139442779Y-54062897D01*
X139636781Y-54532417D01*
X139995693Y-54891957D01*
X140464875Y-55086778D01*
X140972897Y-55087221D01*
X141442417Y-54893219D01*
X141801957Y-54534307D01*
X141996778Y-54065125D01*
X141997221Y-53557103D01*
X141803219Y-53087583D01*
X141444307Y-52728043D01*
X140975125Y-52533222D01*
X140467103Y-52532779D01*
X139997583Y-52726781D01*
X139638043Y-53085693D01*
X139443222Y-53554875D01*
X139442779Y-54062897D01*
X136996779Y-54062897D01*
X136997221Y-53557103D01*
X136803219Y-53087583D01*
X136444307Y-52728043D01*
X135975125Y-52533222D01*
X135467103Y-52532779D01*
X134997583Y-52726781D01*
X134638043Y-53085693D01*
X134443222Y-53554875D01*
X134442779Y-54062897D01*
X133003068Y-54062897D01*
X132981769Y-54011478D01*
X132833521Y-53863231D01*
X132713866Y-53813668D01*
X132730294Y-53810577D01*
X132909660Y-53695158D01*
X133029990Y-53519049D01*
X133072324Y-53310000D01*
X133072324Y-51810000D01*
X133035577Y-51614706D01*
X132920158Y-51435340D01*
X132744049Y-51315010D01*
X132535000Y-51272676D01*
X131285000Y-51272676D01*
X131089706Y-51309423D01*
X130910340Y-51424842D01*
X130790010Y-51600951D01*
X130747676Y-51810000D01*
X130747676Y-51813000D01*
X130410703Y-51813000D01*
X130170222Y-51713144D01*
X129841221Y-51712857D01*
X129537154Y-51838495D01*
X129304312Y-52070930D01*
X129301305Y-52078171D01*
X129249067Y-52025933D01*
X129167609Y-51971505D01*
X129013211Y-51868340D01*
X128967052Y-51859158D01*
X128735000Y-51812999D01*
X128734995Y-51813000D01*
X122385005Y-51813000D01*
X122385000Y-51812999D01*
X122106790Y-51868339D01*
X122085513Y-51882556D01*
X121870933Y-52025933D01*
X121870931Y-52025936D01*
X120135933Y-53760933D01*
X119978340Y-53996789D01*
X119978340Y-53996790D01*
X119955738Y-54110412D01*
X119854706Y-54129423D01*
X119675340Y-54244842D01*
X119555010Y-54420951D01*
X119512676Y-54630000D01*
X119512676Y-55530000D01*
X119549423Y-55725294D01*
X119664842Y-55904660D01*
X119746337Y-55960343D01*
X119653144Y-56184778D01*
X119652928Y-56432676D01*
X119650000Y-56432676D01*
X119454706Y-56469423D01*
X119275340Y-56584842D01*
X119209968Y-56680517D01*
X119155158Y-56595340D01*
X118979049Y-56475010D01*
X118770000Y-56432676D01*
X118497000Y-56432676D01*
X118497000Y-56043427D01*
X118565294Y-56030577D01*
X118744660Y-55915158D01*
X118864990Y-55739049D01*
X118907324Y-55530000D01*
X118907324Y-54630000D01*
X118870577Y-54434706D01*
X118755158Y-54255340D01*
X118579049Y-54135010D01*
X118370000Y-54092676D01*
X117170000Y-54092676D01*
X116974706Y-54129423D01*
X116795340Y-54244842D01*
X116675010Y-54420951D01*
X116671371Y-54438923D01*
X116670577Y-54434706D01*
X116555158Y-54255340D01*
X116379049Y-54135010D01*
X116170000Y-54092676D01*
X115610810Y-54092676D01*
X114179067Y-52660933D01*
X113943211Y-52503340D01*
X113897052Y-52494158D01*
X113665000Y-52447999D01*
X113664995Y-52448000D01*
X109685000Y-52448000D01*
X109406789Y-52503340D01*
X109241936Y-52613491D01*
X109242143Y-52376221D01*
X109116505Y-52072154D01*
X108884070Y-51839312D01*
X108580222Y-51713144D01*
X108251221Y-51712857D01*
X108008857Y-51813000D01*
X107672324Y-51813000D01*
X107672324Y-51810000D01*
X107635577Y-51614706D01*
X107520158Y-51435340D01*
X107344049Y-51315010D01*
X107135000Y-51272676D01*
X105885000Y-51272676D01*
X105689706Y-51309423D01*
X105510340Y-51424842D01*
X105390010Y-51600951D01*
X105347676Y-51810000D01*
X105347676Y-53310000D01*
X105384423Y-53505294D01*
X105499842Y-53684660D01*
X105675951Y-53804990D01*
X105710294Y-53811945D01*
X105586479Y-53863231D01*
X105438231Y-54011478D01*
X105358000Y-54205173D01*
X105358000Y-54855250D01*
X105489750Y-54987000D01*
X106437000Y-54987000D01*
X106437000Y-54967000D01*
X106583000Y-54967000D01*
X106583000Y-54987000D01*
X107530250Y-54987000D01*
X107662000Y-54855250D01*
X107662000Y-54205173D01*
X107581769Y-54011478D01*
X107433521Y-53863231D01*
X107313866Y-53813668D01*
X107330294Y-53810577D01*
X107509660Y-53695158D01*
X107629990Y-53519049D01*
X107672324Y-53310000D01*
X107672324Y-53267000D01*
X108009297Y-53267000D01*
X108249778Y-53366856D01*
X108464823Y-53367044D01*
X107900933Y-53930933D01*
X107743340Y-54166789D01*
X107743340Y-54166790D01*
X107687999Y-54445000D01*
X107688000Y-54445005D01*
X107688000Y-55413867D01*
X107662000Y-55439867D01*
X107662000Y-55264750D01*
X107530250Y-55133000D01*
X106583000Y-55133000D01*
X106583000Y-55153000D01*
X106437000Y-55153000D01*
X106437000Y-55133000D01*
X105489750Y-55133000D01*
X105358000Y-55264750D01*
X105358000Y-55914827D01*
X105438231Y-56108522D01*
X105586479Y-56256769D01*
X105589451Y-56258000D01*
X96350000Y-56258000D01*
X96071789Y-56313340D01*
X95835933Y-56470933D01*
X95835931Y-56470936D01*
X93295933Y-59010933D01*
X93169009Y-59200890D01*
X92765158Y-59033196D01*
X92316809Y-59032805D01*
X91902440Y-59204019D01*
X91585133Y-59520772D01*
X91413196Y-59934842D01*
X91412805Y-60383191D01*
X91584019Y-60797560D01*
X91900772Y-61114867D01*
X92314842Y-61286804D01*
X92763191Y-61287195D01*
X93083000Y-61155052D01*
X93083000Y-61705176D01*
X92765158Y-61573196D01*
X92316809Y-61572805D01*
X91902440Y-61744019D01*
X91585133Y-62060772D01*
X91413196Y-62474842D01*
X91412805Y-62923191D01*
X91584019Y-63337560D01*
X91900772Y-63654867D01*
X92314842Y-63826804D01*
X92763191Y-63827195D01*
X93083000Y-63695052D01*
X93083000Y-64245176D01*
X92765158Y-64113196D01*
X92316809Y-64112805D01*
X91902440Y-64284019D01*
X91585133Y-64600772D01*
X91413196Y-65014842D01*
X91412805Y-65463191D01*
X91584019Y-65877560D01*
X91900772Y-66194867D01*
X92314842Y-66366804D01*
X92763191Y-66367195D01*
X93083000Y-66235052D01*
X93083000Y-66785176D01*
X92765158Y-66653196D01*
X92316809Y-66652805D01*
X91902440Y-66824019D01*
X91585133Y-67140772D01*
X91413196Y-67554842D01*
X91412805Y-68003191D01*
X91517867Y-68257461D01*
X91435222Y-68223144D01*
X91106221Y-68222857D01*
X90802154Y-68348495D01*
X90602000Y-68548299D01*
X90602000Y-55264750D01*
X92658000Y-55264750D01*
X92658000Y-55914827D01*
X92738231Y-56108522D01*
X92886479Y-56256769D01*
X93080173Y-56337000D01*
X93605250Y-56337000D01*
X93737000Y-56205250D01*
X93737000Y-55133000D01*
X93883000Y-55133000D01*
X93883000Y-56205250D01*
X94014750Y-56337000D01*
X94539827Y-56337000D01*
X94733521Y-56256769D01*
X94881769Y-56108522D01*
X94962000Y-55914827D01*
X94962000Y-55264750D01*
X94830250Y-55133000D01*
X93883000Y-55133000D01*
X93737000Y-55133000D01*
X92789750Y-55133000D01*
X92658000Y-55264750D01*
X90602000Y-55264750D01*
X90602000Y-52059293D01*
X90719313Y-51469521D01*
X91019804Y-51019804D01*
X91469521Y-50719313D01*
X92059293Y-50602000D01*
X94578590Y-50602000D01*
X94379312Y-50800930D01*
G36*
X108952676Y-64590000D02*
X108952676Y-65890000D01*
X108989423Y-66085294D01*
X109104842Y-66264660D01*
X109280951Y-66384990D01*
X109490000Y-66427324D01*
X109513000Y-66427324D01*
X109513000Y-67558867D01*
X108793257Y-68278609D01*
X108906804Y-68005158D01*
X108907195Y-67556809D01*
X108735981Y-67142440D01*
X108419228Y-66825133D01*
X108005158Y-66653196D01*
X107556809Y-66652805D01*
X107142440Y-66824019D01*
X106825133Y-67140772D01*
X106653196Y-67554842D01*
X106652805Y-68003191D01*
X106820573Y-68409220D01*
X106630933Y-68535933D01*
X106630931Y-68535936D01*
X105360933Y-69805933D01*
X105252903Y-69967613D01*
X105221985Y-69812179D01*
X104934328Y-69381669D01*
X104503818Y-69094012D01*
X104282555Y-69050000D01*
X104503818Y-69005988D01*
X104934328Y-68718331D01*
X105221985Y-68287821D01*
X105322997Y-67780000D01*
X105221985Y-67272179D01*
X104934328Y-66841669D01*
X104503818Y-66554012D01*
X104282555Y-66510000D01*
X104503818Y-66465988D01*
X104934328Y-66178331D01*
X105221985Y-65747821D01*
X105322997Y-65240000D01*
X105221985Y-64732179D01*
X105198479Y-64697000D01*
X106785176Y-64697000D01*
X106653196Y-65014842D01*
X106652805Y-65463191D01*
X106824019Y-65877560D01*
X107140772Y-66194867D01*
X107554842Y-66366804D01*
X108003191Y-66367195D01*
X108417560Y-66195981D01*
X108734867Y-65879228D01*
X108906804Y-65465158D01*
X108907195Y-65016809D01*
X108739427Y-64610780D01*
X108929067Y-64484067D01*
X108985571Y-64427563D01*
X108952676Y-64590000D01*
X108952676Y-64590000D01*
G37*
X108952676Y-64590000D02*
X108952676Y-65890000D01*
X108989423Y-66085294D01*
X109104842Y-66264660D01*
X109280951Y-66384990D01*
X109490000Y-66427324D01*
X109513000Y-66427324D01*
X109513000Y-67558867D01*
X108793257Y-68278609D01*
X108906804Y-68005158D01*
X108907195Y-67556809D01*
X108735981Y-67142440D01*
X108419228Y-66825133D01*
X108005158Y-66653196D01*
X107556809Y-66652805D01*
X107142440Y-66824019D01*
X106825133Y-67140772D01*
X106653196Y-67554842D01*
X106652805Y-68003191D01*
X106820573Y-68409220D01*
X106630933Y-68535933D01*
X106630931Y-68535936D01*
X105360933Y-69805933D01*
X105252903Y-69967613D01*
X105221985Y-69812179D01*
X104934328Y-69381669D01*
X104503818Y-69094012D01*
X104282555Y-69050000D01*
X104503818Y-69005988D01*
X104934328Y-68718331D01*
X105221985Y-68287821D01*
X105322997Y-67780000D01*
X105221985Y-67272179D01*
X104934328Y-66841669D01*
X104503818Y-66554012D01*
X104282555Y-66510000D01*
X104503818Y-66465988D01*
X104934328Y-66178331D01*
X105221985Y-65747821D01*
X105322997Y-65240000D01*
X105221985Y-64732179D01*
X105198479Y-64697000D01*
X106785176Y-64697000D01*
X106653196Y-65014842D01*
X106652805Y-65463191D01*
X106824019Y-65877560D01*
X107140772Y-66194867D01*
X107554842Y-66366804D01*
X108003191Y-66367195D01*
X108417560Y-66195981D01*
X108734867Y-65879228D01*
X108906804Y-65465158D01*
X108907195Y-65016809D01*
X108739427Y-64610780D01*
X108929067Y-64484067D01*
X108985571Y-64427563D01*
X108952676Y-64590000D01*
G36*
X126829423Y-55725294D02*
X126944842Y-55904660D01*
X127120951Y-56024990D01*
X127203000Y-56041606D01*
X127203000Y-56489825D01*
X127055340Y-56584842D01*
X126935010Y-56760951D01*
X126892676Y-56970000D01*
X126892676Y-58270000D01*
X126929423Y-58465294D01*
X127044842Y-58644660D01*
X127220951Y-58764990D01*
X127430000Y-58807324D01*
X128930000Y-58807324D01*
X129125294Y-58770577D01*
X129304660Y-58655158D01*
X129424990Y-58479049D01*
X129467324Y-58270000D01*
X129467324Y-57463733D01*
X129490933Y-57499067D01*
X131138609Y-59146743D01*
X130865158Y-59033196D01*
X130416809Y-59032805D01*
X130002440Y-59204019D01*
X129685133Y-59520772D01*
X129513196Y-59934842D01*
X129512805Y-60383191D01*
X129626509Y-60658376D01*
X129249067Y-60280933D01*
X129205767Y-60252001D01*
X129013211Y-60123340D01*
X128967052Y-60114158D01*
X128735000Y-60067999D01*
X128734995Y-60068000D01*
X126830005Y-60068000D01*
X126830000Y-60067999D01*
X126597948Y-60114158D01*
X126551789Y-60123340D01*
X126359233Y-60252001D01*
X126315933Y-60280933D01*
X125215933Y-61380933D01*
X125058340Y-61616789D01*
X125058340Y-61616790D01*
X125035738Y-61730412D01*
X124934706Y-61749423D01*
X124755340Y-61864842D01*
X124635010Y-62040951D01*
X124592676Y-62250000D01*
X124592676Y-63150000D01*
X124629423Y-63345294D01*
X124744842Y-63524660D01*
X124826337Y-63580343D01*
X124733144Y-63804778D01*
X124732928Y-64052676D01*
X124730000Y-64052676D01*
X124534706Y-64089423D01*
X124355340Y-64204842D01*
X124289968Y-64300517D01*
X124235158Y-64215340D01*
X124059049Y-64095010D01*
X123850000Y-64052676D01*
X123577000Y-64052676D01*
X123577000Y-63663427D01*
X123645294Y-63650577D01*
X123824660Y-63535158D01*
X123944990Y-63359049D01*
X123987324Y-63150000D01*
X123987324Y-62250000D01*
X123950577Y-62054706D01*
X123835158Y-61875340D01*
X123659049Y-61755010D01*
X123450000Y-61712676D01*
X122250000Y-61712676D01*
X122054706Y-61749423D01*
X121875340Y-61864842D01*
X121755010Y-62040951D01*
X121751371Y-62058923D01*
X121750577Y-62054706D01*
X121635158Y-61875340D01*
X121459049Y-61755010D01*
X121250000Y-61712676D01*
X120050000Y-61712676D01*
X119854706Y-61749423D01*
X119675340Y-61864842D01*
X119555010Y-62040951D01*
X119512676Y-62250000D01*
X119512676Y-62639191D01*
X118982807Y-63169059D01*
X118896219Y-63204837D01*
X118907324Y-63150000D01*
X118907324Y-62250000D01*
X118870577Y-62054706D01*
X118755158Y-61875340D01*
X118579049Y-61755010D01*
X118370000Y-61712676D01*
X117170000Y-61712676D01*
X116974706Y-61749423D01*
X116795340Y-61864842D01*
X116675010Y-62040951D01*
X116671371Y-62058923D01*
X116670577Y-62054706D01*
X116555158Y-61875340D01*
X116379049Y-61755010D01*
X116170000Y-61712676D01*
X115440810Y-61712676D01*
X114009067Y-60280933D01*
X113965767Y-60252001D01*
X113773211Y-60123340D01*
X113727052Y-60114158D01*
X113495000Y-60067999D01*
X113494995Y-60068000D01*
X109050005Y-60068000D01*
X109050000Y-60067999D01*
X108907056Y-60096433D01*
X108907195Y-59936809D01*
X108735981Y-59522440D01*
X108419228Y-59205133D01*
X108005158Y-59033196D01*
X107556809Y-59032805D01*
X107142440Y-59204019D01*
X106825133Y-59520772D01*
X106653196Y-59934842D01*
X106652805Y-60383191D01*
X106784948Y-60703000D01*
X105158065Y-60703000D01*
X105267258Y-60439376D01*
X105163019Y-60233000D01*
X104043000Y-60233000D01*
X104043000Y-60253000D01*
X103897000Y-60253000D01*
X103897000Y-60233000D01*
X102776981Y-60233000D01*
X102672742Y-60439376D01*
X102781935Y-60703000D01*
X101430005Y-60703000D01*
X101430000Y-60702999D01*
X101197948Y-60749158D01*
X101151789Y-60758340D01*
X101021132Y-60845642D01*
X100915933Y-60915933D01*
X99010933Y-62820933D01*
X99010931Y-62820936D01*
X97740933Y-64090933D01*
X97583340Y-64326789D01*
X97574158Y-64372948D01*
X97527999Y-64605000D01*
X97528000Y-64605005D01*
X97528000Y-64621452D01*
X97314328Y-64301669D01*
X96883818Y-64014012D01*
X96662555Y-63970000D01*
X96883818Y-63925988D01*
X97314328Y-63638331D01*
X97601985Y-63207821D01*
X97702997Y-62700000D01*
X97601985Y-62192179D01*
X97314328Y-61761669D01*
X96883818Y-61474012D01*
X96662555Y-61430000D01*
X96883818Y-61385988D01*
X97314328Y-61098331D01*
X97601985Y-60667821D01*
X97702997Y-60160000D01*
X97601985Y-59652179D01*
X97314328Y-59221669D01*
X96955637Y-58982000D01*
X103415067Y-58982000D01*
X103215449Y-59068397D01*
X102855147Y-59440244D01*
X102672742Y-59880624D01*
X102776981Y-60087000D01*
X103897000Y-60087000D01*
X103897000Y-60067000D01*
X104043000Y-60067000D01*
X104043000Y-60087000D01*
X105163019Y-60087000D01*
X105267258Y-59880624D01*
X105084853Y-59440244D01*
X104724551Y-59068397D01*
X104524933Y-58982000D01*
X107314995Y-58982000D01*
X107315000Y-58982001D01*
X107556250Y-58934012D01*
X107593211Y-58926660D01*
X107829067Y-58769067D01*
X108952676Y-57645458D01*
X108952676Y-58270000D01*
X108989423Y-58465294D01*
X109104842Y-58644660D01*
X109280951Y-58764990D01*
X109490000Y-58807324D01*
X110990000Y-58807324D01*
X111185294Y-58770577D01*
X111364660Y-58655158D01*
X111484990Y-58479049D01*
X111527324Y-58270000D01*
X111527324Y-56970000D01*
X111490577Y-56774706D01*
X111375158Y-56595340D01*
X111199049Y-56475010D01*
X111146900Y-56464449D01*
X111147143Y-56186221D01*
X111097437Y-56065925D01*
X111285294Y-56030577D01*
X111464660Y-55915158D01*
X111584990Y-55739049D01*
X111588629Y-55721077D01*
X111589423Y-55725294D01*
X111704842Y-55904660D01*
X111880951Y-56024990D01*
X111963000Y-56041606D01*
X111963000Y-56489825D01*
X111815340Y-56584842D01*
X111695010Y-56760951D01*
X111652676Y-56970000D01*
X111652676Y-58270000D01*
X111689423Y-58465294D01*
X111804842Y-58644660D01*
X111980951Y-58764990D01*
X112190000Y-58807324D01*
X113690000Y-58807324D01*
X113885294Y-58770577D01*
X114064660Y-58655158D01*
X114130032Y-58559483D01*
X114184842Y-58644660D01*
X114360951Y-58764990D01*
X114570000Y-58807324D01*
X116070000Y-58807324D01*
X116265294Y-58770577D01*
X116444660Y-58655158D01*
X116564990Y-58479049D01*
X116607324Y-58270000D01*
X116607324Y-56970000D01*
X116570577Y-56774706D01*
X116455158Y-56595340D01*
X116279049Y-56475010D01*
X116226900Y-56464449D01*
X116227143Y-56186221D01*
X116177437Y-56065925D01*
X116365294Y-56030577D01*
X116544660Y-55915158D01*
X116664990Y-55739049D01*
X116668629Y-55721077D01*
X116669423Y-55725294D01*
X116784842Y-55904660D01*
X116960951Y-56024990D01*
X117043000Y-56041606D01*
X117043000Y-56489825D01*
X116895340Y-56584842D01*
X116775010Y-56760951D01*
X116732676Y-56970000D01*
X116732676Y-58270000D01*
X116769423Y-58465294D01*
X116884842Y-58644660D01*
X117060951Y-58764990D01*
X117270000Y-58807324D01*
X118770000Y-58807324D01*
X118965294Y-58770577D01*
X119144660Y-58655158D01*
X119210032Y-58559483D01*
X119264842Y-58644660D01*
X119440951Y-58764990D01*
X119650000Y-58807324D01*
X121150000Y-58807324D01*
X121345294Y-58770577D01*
X121524660Y-58655158D01*
X121644990Y-58479049D01*
X121687324Y-58270000D01*
X121687324Y-56970000D01*
X121650577Y-56774706D01*
X121535158Y-56595340D01*
X121359049Y-56475010D01*
X121306900Y-56464449D01*
X121307143Y-56186221D01*
X121257437Y-56065925D01*
X121445294Y-56030577D01*
X121624660Y-55915158D01*
X121744990Y-55739049D01*
X121748629Y-55721077D01*
X121749423Y-55725294D01*
X121864842Y-55904660D01*
X122040951Y-56024990D01*
X122123000Y-56041606D01*
X122123000Y-56489825D01*
X121975340Y-56584842D01*
X121855010Y-56760951D01*
X121812676Y-56970000D01*
X121812676Y-58270000D01*
X121849423Y-58465294D01*
X121964842Y-58644660D01*
X122140951Y-58764990D01*
X122350000Y-58807324D01*
X123850000Y-58807324D01*
X124045294Y-58770577D01*
X124224660Y-58655158D01*
X124290032Y-58559483D01*
X124344842Y-58644660D01*
X124520951Y-58764990D01*
X124730000Y-58807324D01*
X126230000Y-58807324D01*
X126425294Y-58770577D01*
X126604660Y-58655158D01*
X126724990Y-58479049D01*
X126767324Y-58270000D01*
X126767324Y-56970000D01*
X126730577Y-56774706D01*
X126615158Y-56595340D01*
X126439049Y-56475010D01*
X126386900Y-56464449D01*
X126387143Y-56186221D01*
X126337437Y-56065925D01*
X126525294Y-56030577D01*
X126704660Y-55915158D01*
X126824990Y-55739049D01*
X126828629Y-55721077D01*
X126829423Y-55725294D01*
X126829423Y-55725294D01*
G37*
X126829423Y-55725294D02*
X126944842Y-55904660D01*
X127120951Y-56024990D01*
X127203000Y-56041606D01*
X127203000Y-56489825D01*
X127055340Y-56584842D01*
X126935010Y-56760951D01*
X126892676Y-56970000D01*
X126892676Y-58270000D01*
X126929423Y-58465294D01*
X127044842Y-58644660D01*
X127220951Y-58764990D01*
X127430000Y-58807324D01*
X128930000Y-58807324D01*
X129125294Y-58770577D01*
X129304660Y-58655158D01*
X129424990Y-58479049D01*
X129467324Y-58270000D01*
X129467324Y-57463733D01*
X129490933Y-57499067D01*
X131138609Y-59146743D01*
X130865158Y-59033196D01*
X130416809Y-59032805D01*
X130002440Y-59204019D01*
X129685133Y-59520772D01*
X129513196Y-59934842D01*
X129512805Y-60383191D01*
X129626509Y-60658376D01*
X129249067Y-60280933D01*
X129205767Y-60252001D01*
X129013211Y-60123340D01*
X128967052Y-60114158D01*
X128735000Y-60067999D01*
X128734995Y-60068000D01*
X126830005Y-60068000D01*
X126830000Y-60067999D01*
X126597948Y-60114158D01*
X126551789Y-60123340D01*
X126359233Y-60252001D01*
X126315933Y-60280933D01*
X125215933Y-61380933D01*
X125058340Y-61616789D01*
X125058340Y-61616790D01*
X125035738Y-61730412D01*
X124934706Y-61749423D01*
X124755340Y-61864842D01*
X124635010Y-62040951D01*
X124592676Y-62250000D01*
X124592676Y-63150000D01*
X124629423Y-63345294D01*
X124744842Y-63524660D01*
X124826337Y-63580343D01*
X124733144Y-63804778D01*
X124732928Y-64052676D01*
X124730000Y-64052676D01*
X124534706Y-64089423D01*
X124355340Y-64204842D01*
X124289968Y-64300517D01*
X124235158Y-64215340D01*
X124059049Y-64095010D01*
X123850000Y-64052676D01*
X123577000Y-64052676D01*
X123577000Y-63663427D01*
X123645294Y-63650577D01*
X123824660Y-63535158D01*
X123944990Y-63359049D01*
X123987324Y-63150000D01*
X123987324Y-62250000D01*
X123950577Y-62054706D01*
X123835158Y-61875340D01*
X123659049Y-61755010D01*
X123450000Y-61712676D01*
X122250000Y-61712676D01*
X122054706Y-61749423D01*
X121875340Y-61864842D01*
X121755010Y-62040951D01*
X121751371Y-62058923D01*
X121750577Y-62054706D01*
X121635158Y-61875340D01*
X121459049Y-61755010D01*
X121250000Y-61712676D01*
X120050000Y-61712676D01*
X119854706Y-61749423D01*
X119675340Y-61864842D01*
X119555010Y-62040951D01*
X119512676Y-62250000D01*
X119512676Y-62639191D01*
X118982807Y-63169059D01*
X118896219Y-63204837D01*
X118907324Y-63150000D01*
X118907324Y-62250000D01*
X118870577Y-62054706D01*
X118755158Y-61875340D01*
X118579049Y-61755010D01*
X118370000Y-61712676D01*
X117170000Y-61712676D01*
X116974706Y-61749423D01*
X116795340Y-61864842D01*
X116675010Y-62040951D01*
X116671371Y-62058923D01*
X116670577Y-62054706D01*
X116555158Y-61875340D01*
X116379049Y-61755010D01*
X116170000Y-61712676D01*
X115440810Y-61712676D01*
X114009067Y-60280933D01*
X113965767Y-60252001D01*
X113773211Y-60123340D01*
X113727052Y-60114158D01*
X113495000Y-60067999D01*
X113494995Y-60068000D01*
X109050005Y-60068000D01*
X109050000Y-60067999D01*
X108907056Y-60096433D01*
X108907195Y-59936809D01*
X108735981Y-59522440D01*
X108419228Y-59205133D01*
X108005158Y-59033196D01*
X107556809Y-59032805D01*
X107142440Y-59204019D01*
X106825133Y-59520772D01*
X106653196Y-59934842D01*
X106652805Y-60383191D01*
X106784948Y-60703000D01*
X105158065Y-60703000D01*
X105267258Y-60439376D01*
X105163019Y-60233000D01*
X104043000Y-60233000D01*
X104043000Y-60253000D01*
X103897000Y-60253000D01*
X103897000Y-60233000D01*
X102776981Y-60233000D01*
X102672742Y-60439376D01*
X102781935Y-60703000D01*
X101430005Y-60703000D01*
X101430000Y-60702999D01*
X101197948Y-60749158D01*
X101151789Y-60758340D01*
X101021132Y-60845642D01*
X100915933Y-60915933D01*
X99010933Y-62820933D01*
X99010931Y-62820936D01*
X97740933Y-64090933D01*
X97583340Y-64326789D01*
X97574158Y-64372948D01*
X97527999Y-64605000D01*
X97528000Y-64605005D01*
X97528000Y-64621452D01*
X97314328Y-64301669D01*
X96883818Y-64014012D01*
X96662555Y-63970000D01*
X96883818Y-63925988D01*
X97314328Y-63638331D01*
X97601985Y-63207821D01*
X97702997Y-62700000D01*
X97601985Y-62192179D01*
X97314328Y-61761669D01*
X96883818Y-61474012D01*
X96662555Y-61430000D01*
X96883818Y-61385988D01*
X97314328Y-61098331D01*
X97601985Y-60667821D01*
X97702997Y-60160000D01*
X97601985Y-59652179D01*
X97314328Y-59221669D01*
X96955637Y-58982000D01*
X103415067Y-58982000D01*
X103215449Y-59068397D01*
X102855147Y-59440244D01*
X102672742Y-59880624D01*
X102776981Y-60087000D01*
X103897000Y-60087000D01*
X103897000Y-60067000D01*
X104043000Y-60067000D01*
X104043000Y-60087000D01*
X105163019Y-60087000D01*
X105267258Y-59880624D01*
X105084853Y-59440244D01*
X104724551Y-59068397D01*
X104524933Y-58982000D01*
X107314995Y-58982000D01*
X107315000Y-58982001D01*
X107556250Y-58934012D01*
X107593211Y-58926660D01*
X107829067Y-58769067D01*
X108952676Y-57645458D01*
X108952676Y-58270000D01*
X108989423Y-58465294D01*
X109104842Y-58644660D01*
X109280951Y-58764990D01*
X109490000Y-58807324D01*
X110990000Y-58807324D01*
X111185294Y-58770577D01*
X111364660Y-58655158D01*
X111484990Y-58479049D01*
X111527324Y-58270000D01*
X111527324Y-56970000D01*
X111490577Y-56774706D01*
X111375158Y-56595340D01*
X111199049Y-56475010D01*
X111146900Y-56464449D01*
X111147143Y-56186221D01*
X111097437Y-56065925D01*
X111285294Y-56030577D01*
X111464660Y-55915158D01*
X111584990Y-55739049D01*
X111588629Y-55721077D01*
X111589423Y-55725294D01*
X111704842Y-55904660D01*
X111880951Y-56024990D01*
X111963000Y-56041606D01*
X111963000Y-56489825D01*
X111815340Y-56584842D01*
X111695010Y-56760951D01*
X111652676Y-56970000D01*
X111652676Y-58270000D01*
X111689423Y-58465294D01*
X111804842Y-58644660D01*
X111980951Y-58764990D01*
X112190000Y-58807324D01*
X113690000Y-58807324D01*
X113885294Y-58770577D01*
X114064660Y-58655158D01*
X114130032Y-58559483D01*
X114184842Y-58644660D01*
X114360951Y-58764990D01*
X114570000Y-58807324D01*
X116070000Y-58807324D01*
X116265294Y-58770577D01*
X116444660Y-58655158D01*
X116564990Y-58479049D01*
X116607324Y-58270000D01*
X116607324Y-56970000D01*
X116570577Y-56774706D01*
X116455158Y-56595340D01*
X116279049Y-56475010D01*
X116226900Y-56464449D01*
X116227143Y-56186221D01*
X116177437Y-56065925D01*
X116365294Y-56030577D01*
X116544660Y-55915158D01*
X116664990Y-55739049D01*
X116668629Y-55721077D01*
X116669423Y-55725294D01*
X116784842Y-55904660D01*
X116960951Y-56024990D01*
X117043000Y-56041606D01*
X117043000Y-56489825D01*
X116895340Y-56584842D01*
X116775010Y-56760951D01*
X116732676Y-56970000D01*
X116732676Y-58270000D01*
X116769423Y-58465294D01*
X116884842Y-58644660D01*
X117060951Y-58764990D01*
X117270000Y-58807324D01*
X118770000Y-58807324D01*
X118965294Y-58770577D01*
X119144660Y-58655158D01*
X119210032Y-58559483D01*
X119264842Y-58644660D01*
X119440951Y-58764990D01*
X119650000Y-58807324D01*
X121150000Y-58807324D01*
X121345294Y-58770577D01*
X121524660Y-58655158D01*
X121644990Y-58479049D01*
X121687324Y-58270000D01*
X121687324Y-56970000D01*
X121650577Y-56774706D01*
X121535158Y-56595340D01*
X121359049Y-56475010D01*
X121306900Y-56464449D01*
X121307143Y-56186221D01*
X121257437Y-56065925D01*
X121445294Y-56030577D01*
X121624660Y-55915158D01*
X121744990Y-55739049D01*
X121748629Y-55721077D01*
X121749423Y-55725294D01*
X121864842Y-55904660D01*
X122040951Y-56024990D01*
X122123000Y-56041606D01*
X122123000Y-56489825D01*
X121975340Y-56584842D01*
X121855010Y-56760951D01*
X121812676Y-56970000D01*
X121812676Y-58270000D01*
X121849423Y-58465294D01*
X121964842Y-58644660D01*
X122140951Y-58764990D01*
X122350000Y-58807324D01*
X123850000Y-58807324D01*
X124045294Y-58770577D01*
X124224660Y-58655158D01*
X124290032Y-58559483D01*
X124344842Y-58644660D01*
X124520951Y-58764990D01*
X124730000Y-58807324D01*
X126230000Y-58807324D01*
X126425294Y-58770577D01*
X126604660Y-58655158D01*
X126724990Y-58479049D01*
X126767324Y-58270000D01*
X126767324Y-56970000D01*
X126730577Y-56774706D01*
X126615158Y-56595340D01*
X126439049Y-56475010D01*
X126386900Y-56464449D01*
X126387143Y-56186221D01*
X126337437Y-56065925D01*
X126525294Y-56030577D01*
X126704660Y-55915158D01*
X126824990Y-55739049D01*
X126828629Y-55721077D01*
X126829423Y-55725294D01*
G36*
X107897380Y-62685858D02*
X107883238Y-62700000D01*
X107897380Y-62714142D01*
X107794142Y-62817380D01*
X107780000Y-62803238D01*
X107765858Y-62817380D01*
X107662620Y-62714142D01*
X107676762Y-62700000D01*
X107662620Y-62685858D01*
X107765858Y-62582620D01*
X107780000Y-62596762D01*
X107794142Y-62582620D01*
X107897380Y-62685858D01*
X107897380Y-62685858D01*
G37*
X107897380Y-62685858D02*
X107883238Y-62700000D01*
X107897380Y-62714142D01*
X107794142Y-62817380D01*
X107780000Y-62803238D01*
X107765858Y-62817380D01*
X107662620Y-62714142D01*
X107676762Y-62700000D01*
X107662620Y-62685858D01*
X107765858Y-62582620D01*
X107780000Y-62596762D01*
X107794142Y-62582620D01*
X107897380Y-62685858D01*
M02*
