G04 #@! TF.FileFunction,Legend,Top*
%FSLAX46Y46*%
G04 Gerber Fmt 4.6, Leading zero omitted, Abs format (unit mm)*
G04 Created by KiCad (PCBNEW 4.0.6) date 12/04/17 20:41:38*
%MOMM*%
%LPD*%
G01*
G04 APERTURE LIST*
%ADD10C,0.050000*%
%ADD11C,0.200000*%
%ADD12C,0.120000*%
%ADD13C,0.150000*%
%ADD14C,0.010000*%
G04 APERTURE END LIST*
D10*
D11*
X129200000Y-61200000D02*
X128800000Y-61600000D01*
X129200000Y-61200000D02*
X128800000Y-60800000D01*
X109200000Y-61200000D02*
X129200000Y-61200000D01*
X109200000Y-53600000D02*
X109600000Y-53200000D01*
X109200000Y-53600000D02*
X109600000Y-54000000D01*
X129200000Y-53600000D02*
X109200000Y-53600000D01*
D12*
X94660000Y-54310000D02*
X94660000Y-53310000D01*
X92960000Y-53310000D02*
X92960000Y-54310000D01*
X107360000Y-54310000D02*
X107360000Y-53310000D01*
X105660000Y-53310000D02*
X105660000Y-54310000D01*
X132760000Y-54310000D02*
X132760000Y-53310000D01*
X131060000Y-53310000D02*
X131060000Y-54310000D01*
X145460000Y-54310000D02*
X145460000Y-53310000D01*
X143760000Y-53310000D02*
X143760000Y-54310000D01*
X109790000Y-62150000D02*
X109790000Y-63250000D01*
X109790000Y-63250000D02*
X112390000Y-63250000D01*
X109790000Y-62150000D02*
X112390000Y-62150000D01*
X109790000Y-54530000D02*
X109790000Y-55630000D01*
X109790000Y-55630000D02*
X112390000Y-55630000D01*
X109790000Y-54530000D02*
X112390000Y-54530000D01*
X114870000Y-62150000D02*
X114870000Y-63250000D01*
X114870000Y-63250000D02*
X117470000Y-63250000D01*
X114870000Y-62150000D02*
X117470000Y-62150000D01*
X114870000Y-54530000D02*
X114870000Y-55630000D01*
X114870000Y-55630000D02*
X117470000Y-55630000D01*
X114870000Y-54530000D02*
X117470000Y-54530000D01*
X125030000Y-54530000D02*
X125030000Y-55630000D01*
X125030000Y-55630000D02*
X127630000Y-55630000D01*
X125030000Y-54530000D02*
X127630000Y-54530000D01*
X125030000Y-62150000D02*
X125030000Y-63250000D01*
X125030000Y-63250000D02*
X127630000Y-63250000D01*
X125030000Y-62150000D02*
X127630000Y-62150000D01*
X119950000Y-54530000D02*
X119950000Y-55630000D01*
X119950000Y-55630000D02*
X122550000Y-55630000D01*
X119950000Y-54530000D02*
X122550000Y-54530000D01*
X119950000Y-62150000D02*
X119950000Y-63250000D01*
X119950000Y-63250000D02*
X122550000Y-63250000D01*
X119950000Y-62150000D02*
X122550000Y-62150000D01*
X112190000Y-66120000D02*
X110990000Y-66120000D01*
X110990000Y-64360000D02*
X112190000Y-64360000D01*
X112190000Y-58500000D02*
X110990000Y-58500000D01*
X110990000Y-56740000D02*
X112190000Y-56740000D01*
X117270000Y-66120000D02*
X116070000Y-66120000D01*
X116070000Y-64360000D02*
X117270000Y-64360000D01*
X117270000Y-58500000D02*
X116070000Y-58500000D01*
X116070000Y-56740000D02*
X117270000Y-56740000D01*
X119810000Y-97870000D02*
X118610000Y-97870000D01*
X118610000Y-96110000D02*
X119810000Y-96110000D01*
X162990000Y-63580000D02*
X161790000Y-63580000D01*
X161790000Y-61820000D02*
X162990000Y-61820000D01*
X162990000Y-66120000D02*
X161790000Y-66120000D01*
X161790000Y-64360000D02*
X162990000Y-64360000D01*
X162990000Y-68660000D02*
X161790000Y-68660000D01*
X161790000Y-66900000D02*
X162990000Y-66900000D01*
X162990000Y-71200000D02*
X161790000Y-71200000D01*
X161790000Y-69440000D02*
X162990000Y-69440000D01*
X124960000Y-96110000D02*
X126160000Y-96110000D01*
X126160000Y-97870000D02*
X124960000Y-97870000D01*
X127430000Y-58500000D02*
X126230000Y-58500000D01*
X126230000Y-56740000D02*
X127430000Y-56740000D01*
X127430000Y-66120000D02*
X126230000Y-66120000D01*
X126230000Y-64360000D02*
X127430000Y-64360000D01*
X122350000Y-58500000D02*
X121150000Y-58500000D01*
X121150000Y-56740000D02*
X122350000Y-56740000D01*
X122350000Y-66120000D02*
X121150000Y-66120000D01*
X121150000Y-64360000D02*
X122350000Y-64360000D01*
X162990000Y-73740000D02*
X161790000Y-73740000D01*
X161790000Y-71980000D02*
X162990000Y-71980000D01*
X162990000Y-76280000D02*
X161790000Y-76280000D01*
X161790000Y-74520000D02*
X162990000Y-74520000D01*
X113460000Y-97870000D02*
X112260000Y-97870000D01*
X112260000Y-96110000D02*
X113460000Y-96110000D01*
X120520000Y-74730000D02*
X117900000Y-74730000D01*
X117900000Y-74730000D02*
X117900000Y-81150000D01*
X117900000Y-81150000D02*
X120520000Y-81150000D01*
X120520000Y-81150000D02*
X120520000Y-74730000D01*
X119210000Y-73840000D02*
X119210000Y-74730000D01*
X119210000Y-82040000D02*
X119210000Y-81150000D01*
D13*
X98128000Y-95974000D02*
X102192000Y-95974000D01*
X102192000Y-95974000D02*
X102192000Y-99276000D01*
X102192000Y-99276000D02*
X98128000Y-99276000D01*
X98128000Y-99276000D02*
X98128000Y-95974000D01*
X92540000Y-57620000D02*
X107780000Y-57620000D01*
X107780000Y-57620000D02*
X107780000Y-98260000D01*
X107780000Y-98260000D02*
X92540000Y-98260000D01*
X92540000Y-98260000D02*
X92540000Y-57620000D01*
D12*
X99160000Y-81810000D02*
G75*
G02X101160000Y-81810000I1000000J0D01*
G01*
X101160000Y-81810000D02*
X102810000Y-81810000D01*
X102810000Y-81810000D02*
X102810000Y-58830000D01*
X102810000Y-58830000D02*
X97510000Y-58830000D01*
X97510000Y-58830000D02*
X97510000Y-81810000D01*
X97510000Y-81810000D02*
X99160000Y-81810000D01*
X101160000Y-86770000D02*
G75*
G02X99160000Y-86770000I-1000000J0D01*
G01*
X99160000Y-86770000D02*
X97510000Y-86770000D01*
X97510000Y-86770000D02*
X97510000Y-97050000D01*
X97510000Y-97050000D02*
X102810000Y-97050000D01*
X102810000Y-97050000D02*
X102810000Y-86770000D01*
X102810000Y-86770000D02*
X101160000Y-86770000D01*
D13*
X115400000Y-89370000D02*
X123020000Y-89370000D01*
X123020000Y-89370000D02*
X123020000Y-94450000D01*
X123020000Y-94450000D02*
X115400000Y-94450000D01*
X115400000Y-94450000D02*
X115400000Y-89370000D01*
X136228000Y-95974000D02*
X140292000Y-95974000D01*
X140292000Y-95974000D02*
X140292000Y-99276000D01*
X140292000Y-99276000D02*
X136228000Y-99276000D01*
X136228000Y-99276000D02*
X136228000Y-95974000D01*
X130640000Y-57620000D02*
X145880000Y-57620000D01*
X145880000Y-57620000D02*
X145880000Y-98260000D01*
X145880000Y-98260000D02*
X130640000Y-98260000D01*
X130640000Y-98260000D02*
X130640000Y-57620000D01*
D12*
X137260000Y-81810000D02*
G75*
G02X139260000Y-81810000I1000000J0D01*
G01*
X139260000Y-81810000D02*
X140910000Y-81810000D01*
X140910000Y-81810000D02*
X140910000Y-58830000D01*
X140910000Y-58830000D02*
X135610000Y-58830000D01*
X135610000Y-58830000D02*
X135610000Y-81810000D01*
X135610000Y-81810000D02*
X137260000Y-81810000D01*
X139260000Y-86770000D02*
G75*
G02X137260000Y-86770000I-1000000J0D01*
G01*
X137260000Y-86770000D02*
X135610000Y-86770000D01*
X135610000Y-86770000D02*
X135610000Y-97050000D01*
X135610000Y-97050000D02*
X140910000Y-97050000D01*
X140910000Y-97050000D02*
X140910000Y-86770000D01*
X140910000Y-86770000D02*
X139260000Y-86770000D01*
X97620000Y-51110000D02*
X102620000Y-51110000D01*
X97620000Y-56510000D02*
X102620000Y-56510000D01*
X97620000Y-56510000D02*
G75*
G02X97620000Y-51110000I0J2700000D01*
G01*
X102620000Y-56510000D02*
G75*
G03X102620000Y-51110000I0J2700000D01*
G01*
X135720000Y-51110000D02*
X140720000Y-51110000D01*
X135720000Y-56510000D02*
X140720000Y-56510000D01*
X135720000Y-56510000D02*
G75*
G02X135720000Y-51110000I0J2700000D01*
G01*
X140720000Y-56510000D02*
G75*
G03X140720000Y-51110000I0J2700000D01*
G01*
D14*
G36*
X166464592Y-87463902D02*
X166496951Y-87489987D01*
X166522811Y-87547134D01*
X166542892Y-87642174D01*
X166557911Y-87781938D01*
X166568589Y-87973257D01*
X166575644Y-88222962D01*
X166579796Y-88537885D01*
X166581763Y-88924855D01*
X166582265Y-89390705D01*
X166582021Y-89942265D01*
X166581750Y-90586366D01*
X166581749Y-90630020D01*
X166581749Y-93798782D01*
X166082731Y-93798782D01*
X166082731Y-93224912D01*
X166079170Y-92998984D01*
X166069489Y-92814928D01*
X166055193Y-92692441D01*
X166038884Y-92651042D01*
X165992174Y-92692354D01*
X165936313Y-92793258D01*
X165930170Y-92807642D01*
X165826346Y-92979506D01*
X165657755Y-93173824D01*
X165448568Y-93367758D01*
X165222953Y-93538471D01*
X165045213Y-93643818D01*
X164602840Y-93817920D01*
X164123732Y-93919646D01*
X163638540Y-93944768D01*
X163213380Y-93896635D01*
X162772000Y-93767842D01*
X162405283Y-93575253D01*
X162107300Y-93313943D01*
X161872121Y-92978984D01*
X161728185Y-92662673D01*
X161696938Y-92572678D01*
X161672118Y-92480099D01*
X161652793Y-92371959D01*
X161638030Y-92235280D01*
X161626895Y-92057088D01*
X161618456Y-91824406D01*
X161611779Y-91524257D01*
X161605930Y-91143665D01*
X161603073Y-90923000D01*
X161584899Y-89469418D01*
X161725466Y-89418576D01*
X161856740Y-89369875D01*
X161947669Y-89334523D01*
X161971886Y-89332138D01*
X161991246Y-89353836D01*
X162006558Y-89410046D01*
X162018628Y-89511198D01*
X162028267Y-89667722D01*
X162036281Y-89890048D01*
X162043479Y-90188606D01*
X162050669Y-90573825D01*
X162052633Y-90689242D01*
X162062723Y-91175903D01*
X162076686Y-91575164D01*
X162097006Y-91899418D01*
X162126169Y-92161061D01*
X162166661Y-92372485D01*
X162220967Y-92546085D01*
X162291574Y-92694254D01*
X162380966Y-92829387D01*
X162491629Y-92963877D01*
X162513801Y-92988753D01*
X162740994Y-93200618D01*
X162992740Y-93348018D01*
X163290821Y-93440004D01*
X163657020Y-93485626D01*
X163717663Y-93488958D01*
X164204944Y-93469608D01*
X164643605Y-93363349D01*
X165032133Y-93171052D01*
X165369017Y-92893586D01*
X165652743Y-92531824D01*
X165784431Y-92299529D01*
X165855737Y-92151695D01*
X165914687Y-92009309D01*
X165962449Y-91861257D01*
X166000190Y-91696422D01*
X166029078Y-91503689D01*
X166050280Y-91271940D01*
X166064963Y-90990061D01*
X166074295Y-90646935D01*
X166079443Y-90231446D01*
X166081574Y-89732478D01*
X166081865Y-89467258D01*
X166082731Y-87605870D01*
X166255785Y-87533564D01*
X166321331Y-87503711D01*
X166377501Y-87477595D01*
X166425015Y-87462049D01*
X166464592Y-87463902D01*
X166464592Y-87463902D01*
G37*
X166464592Y-87463902D02*
X166496951Y-87489987D01*
X166522811Y-87547134D01*
X166542892Y-87642174D01*
X166557911Y-87781938D01*
X166568589Y-87973257D01*
X166575644Y-88222962D01*
X166579796Y-88537885D01*
X166581763Y-88924855D01*
X166582265Y-89390705D01*
X166582021Y-89942265D01*
X166581750Y-90586366D01*
X166581749Y-90630020D01*
X166581749Y-93798782D01*
X166082731Y-93798782D01*
X166082731Y-93224912D01*
X166079170Y-92998984D01*
X166069489Y-92814928D01*
X166055193Y-92692441D01*
X166038884Y-92651042D01*
X165992174Y-92692354D01*
X165936313Y-92793258D01*
X165930170Y-92807642D01*
X165826346Y-92979506D01*
X165657755Y-93173824D01*
X165448568Y-93367758D01*
X165222953Y-93538471D01*
X165045213Y-93643818D01*
X164602840Y-93817920D01*
X164123732Y-93919646D01*
X163638540Y-93944768D01*
X163213380Y-93896635D01*
X162772000Y-93767842D01*
X162405283Y-93575253D01*
X162107300Y-93313943D01*
X161872121Y-92978984D01*
X161728185Y-92662673D01*
X161696938Y-92572678D01*
X161672118Y-92480099D01*
X161652793Y-92371959D01*
X161638030Y-92235280D01*
X161626895Y-92057088D01*
X161618456Y-91824406D01*
X161611779Y-91524257D01*
X161605930Y-91143665D01*
X161603073Y-90923000D01*
X161584899Y-89469418D01*
X161725466Y-89418576D01*
X161856740Y-89369875D01*
X161947669Y-89334523D01*
X161971886Y-89332138D01*
X161991246Y-89353836D01*
X162006558Y-89410046D01*
X162018628Y-89511198D01*
X162028267Y-89667722D01*
X162036281Y-89890048D01*
X162043479Y-90188606D01*
X162050669Y-90573825D01*
X162052633Y-90689242D01*
X162062723Y-91175903D01*
X162076686Y-91575164D01*
X162097006Y-91899418D01*
X162126169Y-92161061D01*
X162166661Y-92372485D01*
X162220967Y-92546085D01*
X162291574Y-92694254D01*
X162380966Y-92829387D01*
X162491629Y-92963877D01*
X162513801Y-92988753D01*
X162740994Y-93200618D01*
X162992740Y-93348018D01*
X163290821Y-93440004D01*
X163657020Y-93485626D01*
X163717663Y-93488958D01*
X164204944Y-93469608D01*
X164643605Y-93363349D01*
X165032133Y-93171052D01*
X165369017Y-92893586D01*
X165652743Y-92531824D01*
X165784431Y-92299529D01*
X165855737Y-92151695D01*
X165914687Y-92009309D01*
X165962449Y-91861257D01*
X166000190Y-91696422D01*
X166029078Y-91503689D01*
X166050280Y-91271940D01*
X166064963Y-90990061D01*
X166074295Y-90646935D01*
X166079443Y-90231446D01*
X166081574Y-89732478D01*
X166081865Y-89467258D01*
X166082731Y-87605870D01*
X166255785Y-87533564D01*
X166321331Y-87503711D01*
X166377501Y-87477595D01*
X166425015Y-87462049D01*
X166464592Y-87463902D01*
G36*
X168899272Y-86312275D02*
X168916219Y-86453711D01*
X168925494Y-86681105D01*
X168927132Y-86862437D01*
X168927132Y-87461258D01*
X170274480Y-87461258D01*
X170274480Y-87910374D01*
X168924415Y-87910374D01*
X168938249Y-90376897D01*
X168941503Y-90936783D01*
X168944699Y-91405530D01*
X168948226Y-91791803D01*
X168952471Y-92104264D01*
X168957824Y-92351579D01*
X168964673Y-92542411D01*
X168973406Y-92685424D01*
X168984410Y-92789282D01*
X168998076Y-92862648D01*
X169014790Y-92914187D01*
X169034941Y-92952563D01*
X169054970Y-92981181D01*
X169192141Y-93141404D01*
X169334808Y-93245682D01*
X169510738Y-93306565D01*
X169747699Y-93336604D01*
X169853937Y-93342312D01*
X170274480Y-93359908D01*
X170274480Y-93798782D01*
X169862790Y-93797153D01*
X169509706Y-93775101D01*
X169218134Y-93714534D01*
X169187402Y-93704437D01*
X168915083Y-93577782D01*
X168710635Y-93400033D01*
X168560488Y-93175010D01*
X168536320Y-93127551D01*
X168515964Y-93076755D01*
X168498991Y-93013851D01*
X168484977Y-92930074D01*
X168473493Y-92816654D01*
X168464114Y-92664823D01*
X168456411Y-92465813D01*
X168449960Y-92210856D01*
X168444332Y-91891184D01*
X168439101Y-91498029D01*
X168433840Y-91022622D01*
X168428123Y-90456196D01*
X168428114Y-90455364D01*
X168403163Y-87935325D01*
X167816818Y-87921265D01*
X167230472Y-87907206D01*
X167230472Y-87464425D01*
X167816818Y-87450366D01*
X168403163Y-87436307D01*
X168417445Y-86949858D01*
X168431726Y-86463408D01*
X168627539Y-86363512D01*
X168758790Y-86302169D01*
X168855508Y-86266930D01*
X168875242Y-86263615D01*
X168899272Y-86312275D01*
X168899272Y-86312275D01*
G37*
X168899272Y-86312275D02*
X168916219Y-86453711D01*
X168925494Y-86681105D01*
X168927132Y-86862437D01*
X168927132Y-87461258D01*
X170274480Y-87461258D01*
X170274480Y-87910374D01*
X168924415Y-87910374D01*
X168938249Y-90376897D01*
X168941503Y-90936783D01*
X168944699Y-91405530D01*
X168948226Y-91791803D01*
X168952471Y-92104264D01*
X168957824Y-92351579D01*
X168964673Y-92542411D01*
X168973406Y-92685424D01*
X168984410Y-92789282D01*
X168998076Y-92862648D01*
X169014790Y-92914187D01*
X169034941Y-92952563D01*
X169054970Y-92981181D01*
X169192141Y-93141404D01*
X169334808Y-93245682D01*
X169510738Y-93306565D01*
X169747699Y-93336604D01*
X169853937Y-93342312D01*
X170274480Y-93359908D01*
X170274480Y-93798782D01*
X169862790Y-93797153D01*
X169509706Y-93775101D01*
X169218134Y-93714534D01*
X169187402Y-93704437D01*
X168915083Y-93577782D01*
X168710635Y-93400033D01*
X168560488Y-93175010D01*
X168536320Y-93127551D01*
X168515964Y-93076755D01*
X168498991Y-93013851D01*
X168484977Y-92930074D01*
X168473493Y-92816654D01*
X168464114Y-92664823D01*
X168456411Y-92465813D01*
X168449960Y-92210856D01*
X168444332Y-91891184D01*
X168439101Y-91498029D01*
X168433840Y-91022622D01*
X168428123Y-90456196D01*
X168428114Y-90455364D01*
X168403163Y-87935325D01*
X167816818Y-87921265D01*
X167230472Y-87907206D01*
X167230472Y-87464425D01*
X167816818Y-87450366D01*
X168403163Y-87436307D01*
X168417445Y-86949858D01*
X168431726Y-86463408D01*
X168627539Y-86363512D01*
X168758790Y-86302169D01*
X168855508Y-86266930D01*
X168875242Y-86263615D01*
X168899272Y-86312275D01*
G36*
X172095894Y-87436307D02*
X172782044Y-87450191D01*
X173468193Y-87464074D01*
X173468193Y-87907557D01*
X172782044Y-87921441D01*
X172095894Y-87935325D01*
X172082908Y-90228755D01*
X172079964Y-90817503D01*
X172078963Y-91315051D01*
X172080830Y-91729995D01*
X172086488Y-92070933D01*
X172096863Y-92346462D01*
X172112877Y-92565181D01*
X172135456Y-92735685D01*
X172165524Y-92866574D01*
X172204004Y-92966443D01*
X172251822Y-93043892D01*
X172309901Y-93107516D01*
X172379165Y-93165914D01*
X172400404Y-93182282D01*
X172505528Y-93252403D01*
X172616258Y-93296516D01*
X172763146Y-93322688D01*
X172976747Y-93338984D01*
X172998382Y-93340142D01*
X173418291Y-93362182D01*
X173418291Y-93798782D01*
X173031552Y-93793674D01*
X172821559Y-93786368D01*
X172630704Y-93771913D01*
X172497629Y-93753310D01*
X172490019Y-93751586D01*
X172178069Y-93634607D01*
X171933618Y-93446086D01*
X171748902Y-93180024D01*
X171748137Y-93178532D01*
X171596877Y-92882875D01*
X171581824Y-90396624D01*
X171566771Y-87910374D01*
X170424185Y-87910374D01*
X170424185Y-87461258D01*
X171571926Y-87461258D01*
X171571926Y-85515089D01*
X172068788Y-85515089D01*
X172095894Y-87436307D01*
X172095894Y-87436307D01*
G37*
X172095894Y-87436307D02*
X172782044Y-87450191D01*
X173468193Y-87464074D01*
X173468193Y-87907557D01*
X172782044Y-87921441D01*
X172095894Y-87935325D01*
X172082908Y-90228755D01*
X172079964Y-90817503D01*
X172078963Y-91315051D01*
X172080830Y-91729995D01*
X172086488Y-92070933D01*
X172096863Y-92346462D01*
X172112877Y-92565181D01*
X172135456Y-92735685D01*
X172165524Y-92866574D01*
X172204004Y-92966443D01*
X172251822Y-93043892D01*
X172309901Y-93107516D01*
X172379165Y-93165914D01*
X172400404Y-93182282D01*
X172505528Y-93252403D01*
X172616258Y-93296516D01*
X172763146Y-93322688D01*
X172976747Y-93338984D01*
X172998382Y-93340142D01*
X173418291Y-93362182D01*
X173418291Y-93798782D01*
X173031552Y-93793674D01*
X172821559Y-93786368D01*
X172630704Y-93771913D01*
X172497629Y-93753310D01*
X172490019Y-93751586D01*
X172178069Y-93634607D01*
X171933618Y-93446086D01*
X171748902Y-93180024D01*
X171748137Y-93178532D01*
X171596877Y-92882875D01*
X171581824Y-90396624D01*
X171566771Y-87910374D01*
X170424185Y-87910374D01*
X170424185Y-87461258D01*
X171571926Y-87461258D01*
X171571926Y-85515089D01*
X172068788Y-85515089D01*
X172095894Y-87436307D01*
G36*
X174247679Y-76141394D02*
X174333432Y-76152030D01*
X174467080Y-76185573D01*
X174454178Y-78914127D01*
X174441277Y-81642681D01*
X173942260Y-82033601D01*
X173738832Y-82188048D01*
X173475543Y-82380643D01*
X173175868Y-82594618D01*
X172863282Y-82813206D01*
X172569961Y-83013772D01*
X171500095Y-83708198D01*
X170374602Y-84386825D01*
X169201137Y-85046903D01*
X167987359Y-85685678D01*
X166740926Y-86300400D01*
X165469494Y-86888317D01*
X164180722Y-87446678D01*
X162882266Y-87972730D01*
X161581785Y-88463722D01*
X160286935Y-88916903D01*
X159005375Y-89329520D01*
X157744761Y-89698823D01*
X156512752Y-90022059D01*
X155317004Y-90296477D01*
X154165175Y-90519326D01*
X153064923Y-90687853D01*
X152023906Y-90799307D01*
X151049779Y-90850936D01*
X150750413Y-90854375D01*
X150313773Y-90854578D01*
X150313773Y-87351669D01*
X150702931Y-87351669D01*
X150751633Y-87626747D01*
X150892253Y-87863880D01*
X151124379Y-88062353D01*
X151447595Y-88221450D01*
X151835776Y-88334834D01*
X152049948Y-88367166D01*
X152341068Y-88389292D01*
X152686809Y-88401231D01*
X153064839Y-88402995D01*
X153452830Y-88394603D01*
X153828451Y-88376067D01*
X154169374Y-88347406D01*
X154290883Y-88333128D01*
X155349814Y-88163862D01*
X156462427Y-87925858D01*
X157615604Y-87624536D01*
X158796231Y-87265313D01*
X159991191Y-86853606D01*
X161187370Y-86394834D01*
X162371651Y-85894416D01*
X163530919Y-85357768D01*
X164652058Y-84790309D01*
X165721952Y-84197457D01*
X166727486Y-83584630D01*
X167655545Y-82957247D01*
X168102334Y-82627684D01*
X168376840Y-82406953D01*
X168671366Y-82150090D01*
X168969807Y-81872991D01*
X169256052Y-81591554D01*
X169513995Y-81321677D01*
X169727527Y-81079258D01*
X169880541Y-80880195D01*
X169895234Y-80858196D01*
X170104741Y-80488720D01*
X170224030Y-80158569D01*
X170253378Y-79864986D01*
X170193065Y-79605213D01*
X170044818Y-79378093D01*
X169822817Y-79186679D01*
X169537908Y-79038167D01*
X169183093Y-78930667D01*
X168751373Y-78862285D01*
X168235750Y-78831131D01*
X168012035Y-78828661D01*
X167464814Y-78841955D01*
X166910396Y-78882784D01*
X166332020Y-78953594D01*
X165712928Y-79056833D01*
X165036361Y-79194948D01*
X164285560Y-79370386D01*
X164261317Y-79376349D01*
X163326179Y-79624110D01*
X162380759Y-79908021D01*
X161431282Y-80224676D01*
X160483975Y-80570673D01*
X159545065Y-80942606D01*
X158620778Y-81337071D01*
X157717341Y-81750665D01*
X156840982Y-82179983D01*
X155997926Y-82621621D01*
X155194400Y-83072174D01*
X154436631Y-83528238D01*
X153730846Y-83986409D01*
X153083271Y-84443283D01*
X152500133Y-84895456D01*
X151987659Y-85339523D01*
X151552076Y-85772080D01*
X151199609Y-86189723D01*
X150936487Y-86589048D01*
X150882940Y-86690530D01*
X150746562Y-87039358D01*
X150702931Y-87351669D01*
X150313773Y-87351669D01*
X150313773Y-85215215D01*
X150925069Y-84759026D01*
X151989396Y-84001816D01*
X153135675Y-83255257D01*
X154353712Y-82523484D01*
X155633315Y-81810631D01*
X156964291Y-81120836D01*
X158336447Y-80458231D01*
X159739591Y-79826954D01*
X161163529Y-79231140D01*
X162598068Y-78674923D01*
X164033016Y-78162439D01*
X165458180Y-77697823D01*
X166863367Y-77285212D01*
X168238383Y-76928739D01*
X169573037Y-76632541D01*
X170857135Y-76400753D01*
X171871336Y-76260935D01*
X172162859Y-76230849D01*
X172490661Y-76203555D01*
X172837391Y-76179820D01*
X173185699Y-76160411D01*
X173518233Y-76146097D01*
X173817642Y-76137644D01*
X174066574Y-76135821D01*
X174247679Y-76141394D01*
X174247679Y-76141394D01*
G37*
X174247679Y-76141394D02*
X174333432Y-76152030D01*
X174467080Y-76185573D01*
X174454178Y-78914127D01*
X174441277Y-81642681D01*
X173942260Y-82033601D01*
X173738832Y-82188048D01*
X173475543Y-82380643D01*
X173175868Y-82594618D01*
X172863282Y-82813206D01*
X172569961Y-83013772D01*
X171500095Y-83708198D01*
X170374602Y-84386825D01*
X169201137Y-85046903D01*
X167987359Y-85685678D01*
X166740926Y-86300400D01*
X165469494Y-86888317D01*
X164180722Y-87446678D01*
X162882266Y-87972730D01*
X161581785Y-88463722D01*
X160286935Y-88916903D01*
X159005375Y-89329520D01*
X157744761Y-89698823D01*
X156512752Y-90022059D01*
X155317004Y-90296477D01*
X154165175Y-90519326D01*
X153064923Y-90687853D01*
X152023906Y-90799307D01*
X151049779Y-90850936D01*
X150750413Y-90854375D01*
X150313773Y-90854578D01*
X150313773Y-87351669D01*
X150702931Y-87351669D01*
X150751633Y-87626747D01*
X150892253Y-87863880D01*
X151124379Y-88062353D01*
X151447595Y-88221450D01*
X151835776Y-88334834D01*
X152049948Y-88367166D01*
X152341068Y-88389292D01*
X152686809Y-88401231D01*
X153064839Y-88402995D01*
X153452830Y-88394603D01*
X153828451Y-88376067D01*
X154169374Y-88347406D01*
X154290883Y-88333128D01*
X155349814Y-88163862D01*
X156462427Y-87925858D01*
X157615604Y-87624536D01*
X158796231Y-87265313D01*
X159991191Y-86853606D01*
X161187370Y-86394834D01*
X162371651Y-85894416D01*
X163530919Y-85357768D01*
X164652058Y-84790309D01*
X165721952Y-84197457D01*
X166727486Y-83584630D01*
X167655545Y-82957247D01*
X168102334Y-82627684D01*
X168376840Y-82406953D01*
X168671366Y-82150090D01*
X168969807Y-81872991D01*
X169256052Y-81591554D01*
X169513995Y-81321677D01*
X169727527Y-81079258D01*
X169880541Y-80880195D01*
X169895234Y-80858196D01*
X170104741Y-80488720D01*
X170224030Y-80158569D01*
X170253378Y-79864986D01*
X170193065Y-79605213D01*
X170044818Y-79378093D01*
X169822817Y-79186679D01*
X169537908Y-79038167D01*
X169183093Y-78930667D01*
X168751373Y-78862285D01*
X168235750Y-78831131D01*
X168012035Y-78828661D01*
X167464814Y-78841955D01*
X166910396Y-78882784D01*
X166332020Y-78953594D01*
X165712928Y-79056833D01*
X165036361Y-79194948D01*
X164285560Y-79370386D01*
X164261317Y-79376349D01*
X163326179Y-79624110D01*
X162380759Y-79908021D01*
X161431282Y-80224676D01*
X160483975Y-80570673D01*
X159545065Y-80942606D01*
X158620778Y-81337071D01*
X157717341Y-81750665D01*
X156840982Y-82179983D01*
X155997926Y-82621621D01*
X155194400Y-83072174D01*
X154436631Y-83528238D01*
X153730846Y-83986409D01*
X153083271Y-84443283D01*
X152500133Y-84895456D01*
X151987659Y-85339523D01*
X151552076Y-85772080D01*
X151199609Y-86189723D01*
X150936487Y-86589048D01*
X150882940Y-86690530D01*
X150746562Y-87039358D01*
X150702931Y-87351669D01*
X150313773Y-87351669D01*
X150313773Y-85215215D01*
X150925069Y-84759026D01*
X151989396Y-84001816D01*
X153135675Y-83255257D01*
X154353712Y-82523484D01*
X155633315Y-81810631D01*
X156964291Y-81120836D01*
X158336447Y-80458231D01*
X159739591Y-79826954D01*
X161163529Y-79231140D01*
X162598068Y-78674923D01*
X164033016Y-78162439D01*
X165458180Y-77697823D01*
X166863367Y-77285212D01*
X168238383Y-76928739D01*
X169573037Y-76632541D01*
X170857135Y-76400753D01*
X171871336Y-76260935D01*
X172162859Y-76230849D01*
X172490661Y-76203555D01*
X172837391Y-76179820D01*
X173185699Y-76160411D01*
X173518233Y-76146097D01*
X173817642Y-76137644D01*
X174066574Y-76135821D01*
X174247679Y-76141394D01*
G36*
X157054288Y-83335870D02*
X157415482Y-83402077D01*
X157709814Y-83530447D01*
X157932537Y-83717803D01*
X158078903Y-83960970D01*
X158144164Y-84256772D01*
X158147254Y-84349192D01*
X158096787Y-84704805D01*
X157949353Y-85043526D01*
X157706827Y-85362297D01*
X157371085Y-85658055D01*
X157325159Y-85691470D01*
X156862000Y-85966245D01*
X156368211Y-86155863D01*
X155858967Y-86256155D01*
X155349441Y-86262956D01*
X155271540Y-86255388D01*
X154919812Y-86177953D01*
X154632942Y-86036806D01*
X154417400Y-85839747D01*
X154279655Y-85594573D01*
X154226179Y-85309081D01*
X154254271Y-85029310D01*
X154381352Y-84680942D01*
X154594926Y-84353551D01*
X154882408Y-84056109D01*
X155231211Y-83797588D01*
X155628751Y-83586959D01*
X156062440Y-83433195D01*
X156519694Y-83345269D01*
X156630979Y-83335001D01*
X157054288Y-83335870D01*
X157054288Y-83335870D01*
G37*
X157054288Y-83335870D02*
X157415482Y-83402077D01*
X157709814Y-83530447D01*
X157932537Y-83717803D01*
X158078903Y-83960970D01*
X158144164Y-84256772D01*
X158147254Y-84349192D01*
X158096787Y-84704805D01*
X157949353Y-85043526D01*
X157706827Y-85362297D01*
X157371085Y-85658055D01*
X157325159Y-85691470D01*
X156862000Y-85966245D01*
X156368211Y-86155863D01*
X155858967Y-86256155D01*
X155349441Y-86262956D01*
X155271540Y-86255388D01*
X154919812Y-86177953D01*
X154632942Y-86036806D01*
X154417400Y-85839747D01*
X154279655Y-85594573D01*
X154226179Y-85309081D01*
X154254271Y-85029310D01*
X154381352Y-84680942D01*
X154594926Y-84353551D01*
X154882408Y-84056109D01*
X155231211Y-83797588D01*
X155628751Y-83586959D01*
X156062440Y-83433195D01*
X156519694Y-83345269D01*
X156630979Y-83335001D01*
X157054288Y-83335870D01*
M02*
