G04 #@! TF.FileFunction,Copper,L2,Bot,Signal*
%FSLAX46Y46*%
G04 Gerber Fmt 4.6, Leading zero omitted, Abs format (unit mm)*
G04 Created by KiCad (PCBNEW 4.0.6) date 12/04/17 20:41:38*
%MOMM*%
%LPD*%
G01*
G04 APERTURE LIST*
%ADD10C,0.050000*%
%ADD11C,1.600000*%
%ADD12O,1.600000X1.600000*%
%ADD13C,1.200000*%
%ADD14R,1.600000X1.600000*%
%ADD15O,4.000000X2.000000*%
%ADD16O,2.000000X4.000000*%
%ADD17O,3.000000X2.000000*%
%ADD18C,1.500000*%
%ADD19C,0.600000*%
%ADD20C,0.400000*%
%ADD21C,2.000000*%
%ADD22C,0.254000*%
G04 APERTURE END LIST*
D10*
D11*
X119210000Y-72860000D03*
D12*
X119210000Y-83020000D03*
D13*
X92540000Y-60160000D03*
X92540000Y-62700000D03*
X92540000Y-65240000D03*
X92540000Y-67780000D03*
X92540000Y-70320000D03*
X92540000Y-72860000D03*
X92540000Y-75400000D03*
X92540000Y-77940000D03*
X92540000Y-80480000D03*
X92540000Y-83020000D03*
X92540000Y-85560000D03*
X92540000Y-88100000D03*
X92540000Y-90640000D03*
X92540000Y-93180000D03*
X92540000Y-95720000D03*
X107780000Y-95720000D03*
X107780000Y-93180000D03*
X107780000Y-90640000D03*
X107780000Y-88100000D03*
X107780000Y-85560000D03*
X107780000Y-83020000D03*
X107780000Y-80480000D03*
X107780000Y-77940000D03*
X107780000Y-75400000D03*
X107780000Y-72860000D03*
X107780000Y-70320000D03*
X107780000Y-67780000D03*
X107780000Y-65240000D03*
X107780000Y-62700000D03*
X107780000Y-60160000D03*
D14*
X103970000Y-80480000D03*
D12*
X96350000Y-60160000D03*
X103970000Y-77940000D03*
X96350000Y-62700000D03*
X103970000Y-75400000D03*
X96350000Y-65240000D03*
X103970000Y-72860000D03*
X96350000Y-67780000D03*
X103970000Y-70320000D03*
X96350000Y-70320000D03*
X103970000Y-67780000D03*
X96350000Y-72860000D03*
X103970000Y-65240000D03*
X96350000Y-75400000D03*
X103970000Y-62700000D03*
X96350000Y-77940000D03*
X103970000Y-60160000D03*
X96350000Y-80480000D03*
D14*
X96350000Y-88100000D03*
D12*
X103970000Y-95720000D03*
X96350000Y-90640000D03*
X103970000Y-93180000D03*
X96350000Y-93180000D03*
X103970000Y-90640000D03*
X96350000Y-95720000D03*
X103970000Y-88100000D03*
D11*
X123020000Y-89370000D03*
X115400000Y-89370000D03*
X115400000Y-94450000D03*
X123020000Y-94450000D03*
D15*
X154770000Y-53810000D03*
X154770000Y-56350000D03*
X170010000Y-53810000D03*
X170010000Y-56350000D03*
D16*
X153500000Y-96990000D03*
X150960000Y-96990000D03*
X171280000Y-96990000D03*
X173820000Y-96990000D03*
D17*
X187790000Y-94450000D03*
X187790000Y-91910000D03*
X187790000Y-89370000D03*
X187790000Y-86830000D03*
X187790000Y-84290000D03*
X187790000Y-81750000D03*
X187790000Y-79210000D03*
X187790000Y-76670000D03*
X187790000Y-74130000D03*
X187790000Y-71590000D03*
X187790000Y-69050000D03*
X187790000Y-66510000D03*
X180170000Y-66510000D03*
X180170000Y-69050000D03*
X180170000Y-71590000D03*
X180170000Y-74130000D03*
X180170000Y-76670000D03*
X180170000Y-79210000D03*
X180170000Y-81750000D03*
X180170000Y-84290000D03*
X180170000Y-86830000D03*
X180170000Y-89370000D03*
X180170000Y-91910000D03*
X180170000Y-94450000D03*
X187790000Y-61430000D03*
X187790000Y-58890000D03*
X187790000Y-56350000D03*
X180170000Y-56350000D03*
X180170000Y-58890000D03*
X180170000Y-61430000D03*
D13*
X130640000Y-60160000D03*
X130640000Y-62700000D03*
X130640000Y-65240000D03*
X130640000Y-67780000D03*
X130640000Y-70320000D03*
X130640000Y-72860000D03*
X130640000Y-75400000D03*
X130640000Y-77940000D03*
X130640000Y-80480000D03*
X130640000Y-83020000D03*
X130640000Y-85560000D03*
X130640000Y-88100000D03*
X130640000Y-90640000D03*
X130640000Y-93180000D03*
X130640000Y-95720000D03*
X145880000Y-95720000D03*
X145880000Y-93180000D03*
X145880000Y-90640000D03*
X145880000Y-88100000D03*
X145880000Y-85560000D03*
X145880000Y-83020000D03*
X145880000Y-80480000D03*
X145880000Y-77940000D03*
X145880000Y-75400000D03*
X145880000Y-72860000D03*
X145880000Y-70320000D03*
X145880000Y-67780000D03*
X145880000Y-65240000D03*
X145880000Y-62700000D03*
X145880000Y-60160000D03*
D14*
X142070000Y-80480000D03*
D12*
X134450000Y-60160000D03*
X142070000Y-77940000D03*
X134450000Y-62700000D03*
X142070000Y-75400000D03*
X134450000Y-65240000D03*
X142070000Y-72860000D03*
X134450000Y-67780000D03*
X142070000Y-70320000D03*
X134450000Y-70320000D03*
X142070000Y-67780000D03*
X134450000Y-72860000D03*
X142070000Y-65240000D03*
X134450000Y-75400000D03*
X142070000Y-62700000D03*
X134450000Y-77940000D03*
X142070000Y-60160000D03*
X134450000Y-80480000D03*
D14*
X134450000Y-88100000D03*
D12*
X142070000Y-95720000D03*
X134450000Y-90640000D03*
X142070000Y-93180000D03*
X134450000Y-93180000D03*
X142070000Y-90640000D03*
X134450000Y-95720000D03*
X142070000Y-88100000D03*
D18*
X97620000Y-53810000D03*
X102620000Y-53810000D03*
X135720000Y-53810000D03*
X140720000Y-53810000D03*
D19*
X95080000Y-51270000D03*
X133180000Y-91910000D03*
X105875000Y-65240000D03*
X105875000Y-68415000D03*
X109685000Y-85560000D03*
X105240000Y-55715000D03*
X98255000Y-90640000D03*
X109685000Y-93180000D03*
X112225000Y-90640000D03*
X114130000Y-92545000D03*
X167470000Y-55080000D03*
X143340000Y-60160000D03*
X116035000Y-96990000D03*
X122385000Y-96990000D03*
X108415000Y-52540000D03*
X130005000Y-52540000D03*
X143340000Y-51270000D03*
X99525000Y-72225000D03*
X91270000Y-69050000D03*
X91270000Y-91910000D03*
X95080000Y-72860000D03*
X100795000Y-80480000D03*
X100795000Y-76670000D03*
X131910000Y-63970000D03*
X131910000Y-72860000D03*
X137625000Y-68415000D03*
X119210000Y-63970000D03*
X128735000Y-94450000D03*
X136990000Y-94450000D03*
X125560000Y-91910000D03*
X149055000Y-67780000D03*
X125560000Y-66510000D03*
X131910000Y-66510000D03*
X98255000Y-79210000D03*
X99525000Y-84290000D03*
X117940000Y-98895000D03*
X157945000Y-67780000D03*
X159215000Y-65240000D03*
X159215000Y-70320000D03*
X159215000Y-72860000D03*
X159215000Y-62700000D03*
X159215000Y-75400000D03*
X110320000Y-67780000D03*
X115400000Y-56350000D03*
X120480000Y-56350000D03*
X110320000Y-56350000D03*
X125560000Y-56350000D03*
X115400000Y-63970000D03*
X120480000Y-63970000D03*
X110320000Y-63970000D03*
X125560000Y-63970000D03*
X95080000Y-83020000D03*
X119210000Y-88100000D03*
X120480000Y-99530000D03*
X120480000Y-95085000D03*
X147150000Y-74130000D03*
X177630000Y-56350000D03*
X147150000Y-76670000D03*
X177630000Y-58890000D03*
X147150000Y-79210000D03*
X177630000Y-61430000D03*
X147150000Y-83020000D03*
X177630000Y-66510000D03*
X144610000Y-99530000D03*
X147150000Y-85560000D03*
X177630000Y-69050000D03*
X147150000Y-88100000D03*
X177630000Y-71590000D03*
X110955000Y-86830000D03*
X143340000Y-98260000D03*
X126830000Y-93180000D03*
X149690000Y-93180000D03*
X147150000Y-93180000D03*
X133815000Y-58255000D03*
X142705000Y-58255000D03*
X133815000Y-56985000D03*
X142705000Y-56985000D03*
X182075000Y-75400000D03*
X130640000Y-89370000D03*
X182075000Y-77940000D03*
X130640000Y-86830000D03*
X130640000Y-84290000D03*
X182075000Y-80480000D03*
X130640000Y-81750000D03*
X182075000Y-83020000D03*
X130640000Y-79210000D03*
X182075000Y-85560000D03*
X157945000Y-85560000D03*
X150325000Y-85560000D03*
X130640000Y-76670000D03*
X182075000Y-88100000D03*
X149055000Y-83020000D03*
X157945000Y-83020000D03*
X176360000Y-89370000D03*
X130640000Y-74130000D03*
X131910000Y-70320000D03*
X147785000Y-80480000D03*
X177630000Y-91910000D03*
X157945000Y-80480000D03*
D20*
X97620000Y-53810000D02*
X100160000Y-56350000D01*
X100160000Y-61430000D02*
X103970000Y-65240000D01*
X100160000Y-56350000D02*
X100160000Y-61430000D01*
X97620000Y-53810000D02*
X95080000Y-51270000D01*
X134450000Y-90640000D02*
X133180000Y-91910000D01*
X107145000Y-74130000D02*
X109050000Y-74130000D01*
X105875000Y-64605000D02*
X105875000Y-65240000D01*
X105875000Y-68415000D02*
X105875000Y-72860000D01*
X105875000Y-72860000D02*
X105875000Y-73495000D01*
X105875000Y-73495000D02*
X106510000Y-74130000D01*
X106510000Y-74130000D02*
X107145000Y-74130000D01*
X107780000Y-62700000D02*
X105875000Y-64605000D01*
X109685000Y-74765000D02*
X109685000Y-85560000D01*
X109050000Y-74130000D02*
X109685000Y-74765000D01*
X105240000Y-55715000D02*
X105240000Y-60160000D01*
X103970000Y-60160000D02*
X105240000Y-60160000D01*
X105240000Y-60160000D02*
X107780000Y-62700000D01*
X96350000Y-90640000D02*
X98255000Y-90640000D01*
X109685000Y-93180000D02*
X112225000Y-90640000D01*
X114130000Y-92545000D02*
X115400000Y-93815000D01*
X115400000Y-93815000D02*
X115400000Y-94450000D01*
X116035000Y-95085000D02*
X117940000Y-95085000D01*
X119845000Y-96990000D02*
X122385000Y-96990000D01*
X117940000Y-95085000D02*
X119845000Y-96990000D01*
X170010000Y-55080000D02*
X176360000Y-55080000D01*
X187790000Y-55080000D02*
X187790000Y-56350000D01*
X186520000Y-53810000D02*
X187790000Y-55080000D01*
X177630000Y-53810000D02*
X186520000Y-53810000D01*
X176360000Y-55080000D02*
X177630000Y-53810000D01*
X167470000Y-55080000D02*
X170010000Y-55080000D01*
X142070000Y-60160000D02*
X143340000Y-60160000D01*
X143340000Y-60160000D02*
X145880000Y-62700000D01*
X116035000Y-95085000D02*
X115400000Y-94450000D01*
X116035000Y-96990000D02*
X116035000Y-95085000D01*
X122385000Y-95085000D02*
X123020000Y-94450000D01*
X122385000Y-96990000D02*
X122385000Y-95085000D01*
D21*
X187790000Y-91910000D02*
X187790000Y-56350000D01*
X170010000Y-53810000D02*
X170010000Y-55080000D01*
X170010000Y-55080000D02*
X170010000Y-56350000D01*
D20*
X187790000Y-89370000D02*
X187790000Y-91910000D01*
X187790000Y-86830000D02*
X187790000Y-89370000D01*
X187790000Y-84290000D02*
X187790000Y-86830000D01*
X187790000Y-81750000D02*
X187790000Y-84290000D01*
X187790000Y-79210000D02*
X187790000Y-81750000D01*
X187790000Y-76670000D02*
X187790000Y-79210000D01*
X187790000Y-74130000D02*
X187790000Y-76670000D01*
X187790000Y-71590000D02*
X187790000Y-74130000D01*
X187790000Y-69050000D02*
X187790000Y-71590000D01*
X187790000Y-66510000D02*
X187790000Y-69050000D01*
X187790000Y-61430000D02*
X187790000Y-66510000D01*
X187790000Y-58890000D02*
X187790000Y-61430000D01*
X187790000Y-56350000D02*
X187790000Y-58890000D01*
X102620000Y-53810000D02*
X103890000Y-52540000D01*
X103890000Y-52540000D02*
X108415000Y-52540000D01*
X102620000Y-53810000D02*
X102620000Y-53890000D01*
X102620000Y-53890000D02*
X101430000Y-55080000D01*
X101430000Y-60160000D02*
X103970000Y-62700000D01*
X101430000Y-55080000D02*
X101430000Y-60160000D01*
X102700000Y-53810000D02*
X102620000Y-53810000D01*
X135720000Y-53810000D02*
X134450000Y-52540000D01*
X134450000Y-52540000D02*
X130005000Y-52540000D01*
X135720000Y-53810000D02*
X138260000Y-56350000D01*
X138260000Y-61430000D02*
X142070000Y-65240000D01*
X138260000Y-56350000D02*
X138260000Y-61430000D01*
X140720000Y-53810000D02*
X139530000Y-55000000D01*
X139530000Y-60160000D02*
X142070000Y-62700000D01*
X139530000Y-55000000D02*
X139530000Y-60160000D01*
X140720000Y-53810000D02*
X140800000Y-53810000D01*
X140800000Y-53810000D02*
X143340000Y-51270000D01*
X97620000Y-70320000D02*
X96350000Y-70320000D01*
X99525000Y-72225000D02*
X97620000Y-70320000D01*
X96350000Y-70320000D02*
X95080000Y-70320000D01*
X95080000Y-70320000D02*
X94445000Y-70320000D01*
X91270000Y-91910000D02*
X92540000Y-93180000D01*
X93175000Y-69050000D02*
X91270000Y-69050000D01*
X94445000Y-70320000D02*
X93175000Y-69050000D01*
X93810000Y-79210000D02*
X93810000Y-74130000D01*
X93810000Y-74130000D02*
X95080000Y-72860000D01*
X92540000Y-95720000D02*
X93810000Y-94450000D01*
X93810000Y-94450000D02*
X93810000Y-79210000D01*
X95080000Y-72860000D02*
X96350000Y-72860000D01*
X96350000Y-88100000D02*
X96350000Y-84925000D01*
X96350000Y-84925000D02*
X100795000Y-80480000D01*
X100795000Y-80480000D02*
X103970000Y-80480000D01*
X102065000Y-77940000D02*
X100795000Y-76670000D01*
X94445000Y-93815000D02*
X94445000Y-85560000D01*
X96350000Y-95720000D02*
X94445000Y-93815000D01*
X102065000Y-77940000D02*
X103970000Y-77940000D01*
X94445000Y-85560000D02*
X102065000Y-77940000D01*
X133180000Y-65240000D02*
X131910000Y-63970000D01*
X133180000Y-69050000D02*
X133180000Y-65875000D01*
X133180000Y-65875000D02*
X133180000Y-65240000D01*
X130640000Y-93180000D02*
X128735000Y-91275000D01*
X133180000Y-69050000D02*
X134450000Y-70320000D01*
X129370000Y-69050000D02*
X133180000Y-69050000D01*
X128735000Y-69685000D02*
X129370000Y-69050000D01*
X128735000Y-91275000D02*
X128735000Y-69685000D01*
X131910000Y-93815000D02*
X130640000Y-95085000D01*
X130640000Y-95085000D02*
X130640000Y-95720000D01*
X131910000Y-92545000D02*
X131910000Y-74130000D01*
X133180000Y-72860000D02*
X131910000Y-74130000D01*
X134450000Y-72860000D02*
X133180000Y-72860000D01*
X131910000Y-92545000D02*
X131910000Y-93815000D01*
X134450000Y-72860000D02*
X131910000Y-72860000D01*
X137625000Y-75400000D02*
X137625000Y-68415000D01*
X136355000Y-76670000D02*
X137625000Y-75400000D01*
X133180000Y-76670000D02*
X132545000Y-77305000D01*
X132545000Y-77305000D02*
X132545000Y-86195000D01*
X134450000Y-88100000D02*
X132545000Y-86195000D01*
X143340000Y-79210000D02*
X142070000Y-80480000D01*
X143340000Y-77305000D02*
X142705000Y-76670000D01*
X143340000Y-79210000D02*
X143340000Y-77305000D01*
X136355000Y-76670000D02*
X133180000Y-76670000D01*
X138895000Y-76670000D02*
X142705000Y-76670000D01*
X137625000Y-75400000D02*
X138895000Y-76670000D01*
X119210000Y-63970000D02*
X119210000Y-66510000D01*
X119210000Y-66510000D02*
X121750000Y-69050000D01*
X121750000Y-69050000D02*
X127499998Y-69050000D01*
X127499998Y-69050000D02*
X128134998Y-69685000D01*
X128134998Y-69685000D02*
X128134998Y-74130000D01*
X128134998Y-74130000D02*
X128100000Y-74130000D01*
X128100000Y-74130000D02*
X128100000Y-74130000D01*
X128100000Y-74130000D02*
X128100000Y-91275000D01*
X128735000Y-94450000D02*
X128100000Y-93815000D01*
X128100000Y-93815000D02*
X128100000Y-91275000D01*
X136990000Y-81115000D02*
X136990000Y-93180000D01*
X136355000Y-95720000D02*
X136990000Y-95085000D01*
X136990000Y-95085000D02*
X136990000Y-94450000D01*
X136990000Y-94450000D02*
X136990000Y-93180000D01*
X142070000Y-77940000D02*
X140165000Y-77940000D01*
X136990000Y-81115000D02*
X140165000Y-77940000D01*
X136355000Y-95720000D02*
X134450000Y-95720000D01*
X129370000Y-96990000D02*
X126195000Y-93815000D01*
X126195000Y-93815000D02*
X125560000Y-93180000D01*
X125560000Y-93180000D02*
X125560000Y-91910000D01*
X131910000Y-95720000D02*
X131910000Y-96355000D01*
X131910000Y-95085000D02*
X131910000Y-95720000D01*
X132545000Y-94450000D02*
X133815000Y-93180000D01*
X132545000Y-94450000D02*
X131910000Y-95085000D01*
X131910000Y-96355000D02*
X131275000Y-96990000D01*
X131275000Y-96990000D02*
X129370000Y-96990000D01*
X134450000Y-93180000D02*
X133815000Y-93180000D01*
X131910000Y-66510000D02*
X125560000Y-66510000D01*
X98255000Y-93180000D02*
X99525000Y-91910000D01*
X98255000Y-79210000D02*
X96985000Y-80480000D01*
X99525000Y-91910000D02*
X99525000Y-84290000D01*
X96985000Y-80480000D02*
X96350000Y-80480000D01*
X134450000Y-80480000D02*
X134450000Y-84925000D01*
X135720000Y-91910000D02*
X134450000Y-93180000D01*
X135720000Y-86195000D02*
X135720000Y-91910000D01*
X134450000Y-84925000D02*
X135720000Y-86195000D01*
X96350000Y-93180000D02*
X98255000Y-93180000D01*
X103970000Y-98895000D02*
X117940000Y-98895000D01*
X98255000Y-93180000D02*
X103970000Y-98895000D01*
X157945000Y-67780000D02*
X159215000Y-69050000D01*
X159215000Y-69050000D02*
X159215000Y-70320000D01*
X145880000Y-67780000D02*
X149055000Y-67780000D01*
X149055000Y-67780000D02*
X157945000Y-67780000D01*
X159215000Y-66510000D02*
X159215000Y-65240000D01*
X157945000Y-67780000D02*
X159215000Y-66510000D01*
X159215000Y-62700000D02*
X159215000Y-65240000D01*
X159215000Y-70320000D02*
X159215000Y-72860000D01*
X159215000Y-72860000D02*
X159215000Y-75400000D01*
X110320000Y-67780000D02*
X107780000Y-67780000D01*
X119210000Y-57620000D02*
X119210000Y-62700000D01*
X120480000Y-63970000D02*
X119210000Y-62700000D01*
X117940000Y-63970000D02*
X119210000Y-62700000D01*
X117940000Y-63970000D02*
X115400000Y-63970000D01*
X120480000Y-56350000D02*
X119210000Y-57620000D01*
X117940000Y-56350000D02*
X119210000Y-57620000D01*
X117940000Y-56350000D02*
X115400000Y-56350000D01*
X110320000Y-56350000D02*
X115400000Y-56350000D01*
X120480000Y-56350000D02*
X125560000Y-56350000D01*
X110320000Y-63970000D02*
X115400000Y-63970000D01*
X120480000Y-63970000D02*
X125560000Y-63970000D01*
X144610000Y-65875000D02*
X145245000Y-65240000D01*
X143975000Y-66510000D02*
X144610000Y-65875000D01*
X141435000Y-91910000D02*
X140800000Y-91275000D01*
X143975000Y-81115000D02*
X143975000Y-76035000D01*
X140800000Y-84290000D02*
X143975000Y-81115000D01*
X140800000Y-91275000D02*
X140800000Y-84290000D01*
X143975000Y-76035000D02*
X143975000Y-67145000D01*
X143975000Y-67145000D02*
X143975000Y-66510000D01*
X145245000Y-65240000D02*
X145880000Y-65240000D01*
X99525000Y-76035000D02*
X100795000Y-74765000D01*
X95715000Y-69050000D02*
X95080000Y-68415000D01*
X95080000Y-68415000D02*
X95080000Y-67145000D01*
X95080000Y-67145000D02*
X95715000Y-66510000D01*
X95715000Y-66510000D02*
X106510000Y-66510000D01*
X107780000Y-65240000D02*
X106510000Y-66510000D01*
X97620000Y-77940000D02*
X96350000Y-77940000D01*
X99525000Y-70320000D02*
X98255000Y-69050000D01*
X97620000Y-77940000D02*
X99525000Y-76035000D01*
X98255000Y-69050000D02*
X95715000Y-69050000D01*
X100795000Y-71590000D02*
X99525000Y-70320000D01*
X100795000Y-74765000D02*
X100795000Y-71590000D01*
X119210000Y-88100000D02*
X117940000Y-89370000D01*
X117940000Y-89370000D02*
X115400000Y-89370000D01*
X96350000Y-77940000D02*
X95715000Y-77940000D01*
X95715000Y-77940000D02*
X94445000Y-79210000D01*
X94445000Y-79210000D02*
X94445000Y-82385000D01*
X94445000Y-82385000D02*
X95080000Y-83020000D01*
X119210000Y-88100000D02*
X120480000Y-89370000D01*
X140165000Y-97625000D02*
X139530000Y-97625000D01*
X142705000Y-91910000D02*
X143409996Y-92614996D01*
X143409996Y-92614996D02*
X143409996Y-96920004D01*
X143409996Y-96920004D02*
X142705000Y-97625000D01*
X142705000Y-97625000D02*
X140165000Y-97625000D01*
X135720000Y-94450000D02*
X133815000Y-94450000D01*
X136355000Y-79845000D02*
X136355000Y-93815000D01*
X136355000Y-93815000D02*
X135720000Y-94450000D01*
X140165000Y-93180000D02*
X141435000Y-91910000D01*
X136355000Y-96990000D02*
X140165000Y-93180000D01*
X133815000Y-96990000D02*
X136355000Y-96990000D01*
X133180000Y-96355000D02*
X133815000Y-96990000D01*
X133180000Y-95085000D02*
X133180000Y-96355000D01*
X133815000Y-94450000D02*
X133180000Y-95085000D01*
X141435000Y-91910000D02*
X142705000Y-91910000D01*
X137625000Y-99530000D02*
X120480000Y-99530000D01*
X139530000Y-97625000D02*
X137625000Y-99530000D01*
X134450000Y-77940000D02*
X136355000Y-79845000D01*
X136355000Y-79845000D02*
X136389998Y-79879998D01*
X123020000Y-89370000D02*
X120480000Y-89370000D01*
X120480000Y-95085000D02*
X120480000Y-91910000D01*
X120480000Y-91910000D02*
X123020000Y-89370000D01*
X147150000Y-74130000D02*
X145880000Y-75400000D01*
X180170000Y-56350000D02*
X177630000Y-56350000D01*
X147150000Y-76670000D02*
X145880000Y-77940000D01*
X177630000Y-58890000D02*
X180170000Y-58890000D01*
X147150000Y-79210000D02*
X145880000Y-80480000D01*
X177630000Y-61430000D02*
X180170000Y-61430000D01*
X147150000Y-83020000D02*
X145880000Y-83020000D01*
X177630000Y-66510000D02*
X180170000Y-66510000D01*
X143975000Y-90005000D02*
X142070000Y-88100000D01*
X144610000Y-90640000D02*
X143975000Y-90005000D01*
X144610000Y-99530000D02*
X144610000Y-90640000D01*
X147150000Y-85560000D02*
X145880000Y-85560000D01*
X177630000Y-69050000D02*
X180170000Y-69050000D01*
X147150000Y-88100000D02*
X145880000Y-88100000D01*
X177630000Y-71590000D02*
X180170000Y-71590000D01*
X110955000Y-86830000D02*
X105240000Y-86830000D01*
X105240000Y-86830000D02*
X103970000Y-88100000D01*
X143340000Y-98260000D02*
X144009998Y-97590002D01*
X142070000Y-90640000D02*
X143340000Y-90640000D01*
X144009998Y-91309998D02*
X143340000Y-90640000D01*
X144009998Y-97590002D02*
X144009998Y-91309998D01*
X126830000Y-93180000D02*
X126830000Y-91275000D01*
X126830000Y-88735000D02*
X126830000Y-91275000D01*
X121750000Y-75400000D02*
X121750000Y-83655000D01*
X121750000Y-83655000D02*
X126830000Y-88735000D01*
X119210000Y-72860000D02*
X121750000Y-75400000D01*
X119210000Y-72860000D02*
X116670000Y-75400000D01*
X105240000Y-89370000D02*
X103970000Y-90640000D01*
X107780000Y-89370000D02*
X105240000Y-89370000D01*
X110955000Y-89370000D02*
X107780000Y-89370000D01*
X116670000Y-83655000D02*
X110955000Y-89370000D01*
X116670000Y-75400000D02*
X116670000Y-83655000D01*
X124607500Y-88417500D02*
X124607500Y-93497500D01*
X136990000Y-98260000D02*
X142070000Y-93180000D01*
X128735000Y-97625000D02*
X129370000Y-98260000D01*
X129370000Y-98260000D02*
X136990000Y-98260000D01*
X126195000Y-95085000D02*
X124607500Y-93497500D01*
X128735000Y-97625000D02*
X126195000Y-95085000D01*
X119210000Y-83020000D02*
X124607500Y-88417500D01*
X103970000Y-93180000D02*
X105240000Y-94450000D01*
X113495000Y-88735000D02*
X119210000Y-83020000D01*
X113495000Y-91275000D02*
X113495000Y-88735000D01*
X109685000Y-95085000D02*
X113495000Y-91275000D01*
X109685000Y-97625000D02*
X109685000Y-95085000D01*
X109050000Y-98260000D02*
X109685000Y-97625000D01*
X105875000Y-98260000D02*
X109050000Y-98260000D01*
X105240000Y-97625000D02*
X105875000Y-98260000D01*
X105240000Y-94450000D02*
X105240000Y-97625000D01*
X91270000Y-74130000D02*
X91270000Y-72225000D01*
X91270000Y-77940000D02*
X91270000Y-77305000D01*
X91270000Y-89370000D02*
X91270000Y-77940000D01*
X92540000Y-90640000D02*
X91270000Y-89370000D01*
X91270000Y-74130000D02*
X91270000Y-77305000D01*
X97620000Y-74130000D02*
X96350000Y-75400000D01*
X97620000Y-72225000D02*
X97620000Y-74130000D01*
X96985000Y-71590000D02*
X97620000Y-72225000D01*
X91905000Y-71590000D02*
X96985000Y-71590000D01*
X91270000Y-72225000D02*
X91905000Y-71590000D01*
X102700000Y-76670000D02*
X102065000Y-76035000D01*
X102065000Y-91275000D02*
X102700000Y-91910000D01*
X102700000Y-91910000D02*
X105240000Y-91910000D01*
X105240000Y-91910000D02*
X106510000Y-93180000D01*
X106510000Y-93180000D02*
X106510000Y-94450000D01*
X107780000Y-95720000D02*
X106510000Y-94450000D01*
X105875000Y-80480000D02*
X105875000Y-83020000D01*
X98890000Y-67780000D02*
X101430000Y-70320000D01*
X102700000Y-76670000D02*
X105240000Y-76670000D01*
X105240000Y-76670000D02*
X105875000Y-77305000D01*
X105875000Y-77305000D02*
X105875000Y-80480000D01*
X98890000Y-67780000D02*
X96350000Y-67780000D01*
X102065000Y-86830000D02*
X102065000Y-90005000D01*
X105875000Y-83020000D02*
X102065000Y-86830000D01*
X102065000Y-90005000D02*
X102065000Y-91275000D01*
X102065000Y-70955000D02*
X101430000Y-70320000D01*
X102065000Y-76035000D02*
X102065000Y-70955000D01*
X173185000Y-88100000D02*
X173185000Y-65875000D01*
X149690000Y-93180000D02*
X149055000Y-93815000D01*
X149055000Y-93815000D02*
X149055000Y-98260000D01*
X149055000Y-98260000D02*
X150325000Y-99530000D01*
X150325000Y-99530000D02*
X174455000Y-99530000D01*
X174455000Y-99530000D02*
X175725000Y-98260000D01*
X175725000Y-98260000D02*
X175725000Y-90640000D01*
X175725000Y-90640000D02*
X173185000Y-88100000D01*
X145880000Y-93180000D02*
X147150000Y-93180000D01*
X162390000Y-55080000D02*
X154770000Y-55080000D01*
X173185000Y-65875000D02*
X162390000Y-55080000D01*
D21*
X154770000Y-53810000D02*
X154770000Y-55080000D01*
X154770000Y-55080000D02*
X154770000Y-56350000D01*
D20*
X166200000Y-62700000D02*
X163025000Y-59525000D01*
X164930000Y-96990000D02*
X170645000Y-91275000D01*
X170645000Y-91275000D02*
X170645000Y-67145000D01*
X170645000Y-67145000D02*
X166200000Y-62700000D01*
X152230000Y-96990000D02*
X164930000Y-96990000D01*
X131910000Y-62700000D02*
X130640000Y-62700000D01*
X132545000Y-62065000D02*
X131910000Y-62700000D01*
X132545000Y-59525000D02*
X132545000Y-62065000D01*
X133815000Y-58255000D02*
X132545000Y-59525000D01*
X146515000Y-58255000D02*
X142705000Y-58255000D01*
X147785000Y-59525000D02*
X146515000Y-58255000D01*
X163025000Y-59525000D02*
X147785000Y-59525000D01*
D21*
X150960000Y-96990000D02*
X152230000Y-96990000D01*
X152230000Y-96990000D02*
X153500000Y-96990000D01*
D20*
X147150000Y-56985000D02*
X142705000Y-56985000D01*
X163660000Y-58255000D02*
X149055000Y-58255000D01*
X149055000Y-58255000D02*
X148420000Y-58255000D01*
X148420000Y-58255000D02*
X147150000Y-56985000D01*
X172550000Y-96990000D02*
X172550000Y-90005000D01*
X171915000Y-66510000D02*
X166200000Y-60795000D01*
X171915000Y-89370000D02*
X171915000Y-66510000D01*
X172550000Y-90005000D02*
X171915000Y-89370000D01*
X166200000Y-60795000D02*
X163660000Y-58255000D01*
X130640000Y-58255000D02*
X130640000Y-60160000D01*
X131910000Y-56985000D02*
X130640000Y-58255000D01*
X133815000Y-56985000D02*
X131910000Y-56985000D01*
D21*
X171280000Y-96990000D02*
X172550000Y-96990000D01*
X172550000Y-96990000D02*
X173820000Y-96990000D01*
D20*
X182075000Y-75400000D02*
X180805000Y-74130000D01*
X180805000Y-74130000D02*
X180170000Y-74130000D01*
X130640000Y-88100000D02*
X130640000Y-89370000D01*
X182075000Y-77940000D02*
X180805000Y-76670000D01*
X180805000Y-76670000D02*
X180170000Y-76670000D01*
X130640000Y-85560000D02*
X130640000Y-86830000D01*
X130640000Y-83020000D02*
X130640000Y-84290000D01*
X182075000Y-80480000D02*
X180805000Y-79210000D01*
X180805000Y-79210000D02*
X180170000Y-79210000D01*
X130640000Y-80480000D02*
X130640000Y-81750000D01*
X182075000Y-83020000D02*
X180805000Y-81750000D01*
X180805000Y-81750000D02*
X180170000Y-81750000D01*
X130640000Y-77940000D02*
X130640000Y-79210000D01*
X182075000Y-85560000D02*
X180805000Y-84290000D01*
X180805000Y-84290000D02*
X180170000Y-84290000D01*
X130640000Y-75400000D02*
X130640000Y-76670000D01*
X150325000Y-85560000D02*
X156675000Y-85560000D01*
X156675000Y-85560000D02*
X157945000Y-85560000D01*
X182075000Y-88100000D02*
X180805000Y-86830000D01*
X180805000Y-86830000D02*
X180170000Y-86830000D01*
X130640000Y-72860000D02*
X130640000Y-74130000D01*
X176360000Y-89370000D02*
X180170000Y-89370000D01*
X156675000Y-83020000D02*
X157945000Y-83020000D01*
X149055000Y-83020000D02*
X156675000Y-83020000D01*
X156675000Y-80480000D02*
X157945000Y-80480000D01*
X147785000Y-80480000D02*
X156675000Y-80480000D01*
X130640000Y-70320000D02*
X131910000Y-70320000D01*
X177630000Y-91910000D02*
X180170000Y-91910000D01*
X130005000Y-71590000D02*
X133815000Y-71590000D01*
X129370000Y-72225000D02*
X130005000Y-71590000D01*
X129370000Y-72860000D02*
X129370000Y-75400000D01*
X129370000Y-89370000D02*
X129370000Y-75400000D01*
X130640000Y-90640000D02*
X129370000Y-89370000D01*
X129370000Y-72860000D02*
X129370000Y-72225000D01*
X135720000Y-74130000D02*
X134450000Y-75400000D01*
X135720000Y-72225000D02*
X135720000Y-74130000D01*
X135085000Y-71590000D02*
X135720000Y-72225000D01*
X133815000Y-71590000D02*
X135085000Y-71590000D01*
X142705000Y-66510000D02*
X135720000Y-66510000D01*
X145245000Y-63970000D02*
X142705000Y-66510000D01*
X144575002Y-67179998D02*
X145245000Y-66510000D01*
X145245000Y-66510000D02*
X146515000Y-66510000D01*
X146515000Y-66510000D02*
X147150000Y-65875000D01*
X147150000Y-65875000D02*
X147150000Y-64605000D01*
X147150000Y-64605000D02*
X146515000Y-63970000D01*
X145880000Y-95720000D02*
X147150000Y-95720000D01*
X144575002Y-81784998D02*
X144575002Y-79845000D01*
X143975000Y-82385000D02*
X144575002Y-81784998D01*
X143975000Y-88100000D02*
X143975000Y-82385000D01*
X145245000Y-89370000D02*
X143975000Y-88100000D01*
X147150000Y-89370000D02*
X145245000Y-89370000D01*
X148420000Y-90640000D02*
X147150000Y-89370000D01*
X148420000Y-94450000D02*
X148420000Y-90640000D01*
X147150000Y-95720000D02*
X148420000Y-94450000D01*
X144575002Y-79845000D02*
X144575002Y-67179998D01*
X146515000Y-63970000D02*
X145245000Y-63970000D01*
X135720000Y-66510000D02*
X134450000Y-67780000D01*
D22*
G36*
X188530479Y-50719313D02*
X188980196Y-51019804D01*
X189280687Y-51469521D01*
X189398000Y-52059293D01*
X189398000Y-55304582D01*
X188941801Y-54967172D01*
X188363000Y-54823000D01*
X187863000Y-54823000D01*
X187863000Y-56277000D01*
X187883000Y-56277000D01*
X187883000Y-56423000D01*
X187863000Y-56423000D01*
X187863000Y-58817000D01*
X187883000Y-58817000D01*
X187883000Y-58963000D01*
X187863000Y-58963000D01*
X187863000Y-61357000D01*
X187883000Y-61357000D01*
X187883000Y-61503000D01*
X187863000Y-61503000D01*
X187863000Y-62957000D01*
X188363000Y-62957000D01*
X188941801Y-62812828D01*
X189398000Y-62475418D01*
X189398000Y-65464582D01*
X188941801Y-65127172D01*
X188363000Y-64983000D01*
X187863000Y-64983000D01*
X187863000Y-66437000D01*
X187883000Y-66437000D01*
X187883000Y-66583000D01*
X187863000Y-66583000D01*
X187863000Y-68977000D01*
X187883000Y-68977000D01*
X187883000Y-69123000D01*
X187863000Y-69123000D01*
X187863000Y-71517000D01*
X187883000Y-71517000D01*
X187883000Y-71663000D01*
X187863000Y-71663000D01*
X187863000Y-74057000D01*
X187883000Y-74057000D01*
X187883000Y-74203000D01*
X187863000Y-74203000D01*
X187863000Y-76597000D01*
X187883000Y-76597000D01*
X187883000Y-76743000D01*
X187863000Y-76743000D01*
X187863000Y-79137000D01*
X187883000Y-79137000D01*
X187883000Y-79283000D01*
X187863000Y-79283000D01*
X187863000Y-81677000D01*
X187883000Y-81677000D01*
X187883000Y-81823000D01*
X187863000Y-81823000D01*
X187863000Y-84217000D01*
X187883000Y-84217000D01*
X187883000Y-84363000D01*
X187863000Y-84363000D01*
X187863000Y-86757000D01*
X187883000Y-86757000D01*
X187883000Y-86903000D01*
X187863000Y-86903000D01*
X187863000Y-89297000D01*
X187883000Y-89297000D01*
X187883000Y-89443000D01*
X187863000Y-89443000D01*
X187863000Y-91837000D01*
X187883000Y-91837000D01*
X187883000Y-91983000D01*
X187863000Y-91983000D01*
X187863000Y-92003000D01*
X187717000Y-92003000D01*
X187717000Y-91983000D01*
X185896661Y-91983000D01*
X185794944Y-92220704D01*
X185851300Y-92426914D01*
X186158629Y-92938133D01*
X186471227Y-93169333D01*
X186170537Y-93370248D01*
X185839525Y-93865642D01*
X185723289Y-94450000D01*
X185839525Y-95034358D01*
X186170537Y-95529752D01*
X186665931Y-95860764D01*
X187250289Y-95977000D01*
X188329711Y-95977000D01*
X188914069Y-95860764D01*
X189398000Y-95537411D01*
X189398000Y-98940707D01*
X189280687Y-99530479D01*
X188980196Y-99980196D01*
X188530479Y-100280687D01*
X187940707Y-100398000D01*
X92059293Y-100398000D01*
X91469521Y-100280687D01*
X91019804Y-99980196D01*
X90719313Y-99530479D01*
X90602000Y-98940707D01*
X90602000Y-92411410D01*
X90800930Y-92610688D01*
X91043120Y-92711253D01*
X91413086Y-93081219D01*
X91412805Y-93403191D01*
X91584019Y-93817560D01*
X91900772Y-94134867D01*
X92314842Y-94306804D01*
X92763191Y-94307195D01*
X93038376Y-94193491D01*
X92638781Y-94593086D01*
X92316809Y-94592805D01*
X91902440Y-94764019D01*
X91585133Y-95080772D01*
X91413196Y-95494842D01*
X91412805Y-95943191D01*
X91584019Y-96357560D01*
X91900772Y-96674867D01*
X92314842Y-96846804D01*
X92763191Y-96847195D01*
X93177560Y-96675981D01*
X93494867Y-96359228D01*
X93666804Y-95945158D01*
X93667087Y-95621047D01*
X94324064Y-94964069D01*
X94324067Y-94964067D01*
X94420945Y-94819079D01*
X95050901Y-95449035D01*
X94997003Y-95720000D01*
X95098015Y-96227821D01*
X95385672Y-96658331D01*
X95816182Y-96945988D01*
X96324003Y-97047000D01*
X96375997Y-97047000D01*
X96883818Y-96945988D01*
X97314328Y-96658331D01*
X97601985Y-96227821D01*
X97702997Y-95720000D01*
X97601985Y-95212179D01*
X97314328Y-94781669D01*
X96883818Y-94494012D01*
X96662555Y-94450000D01*
X96883818Y-94405988D01*
X97314328Y-94118331D01*
X97455535Y-93907000D01*
X97953866Y-93907000D01*
X103455931Y-99409064D01*
X103455933Y-99409067D01*
X103488630Y-99430914D01*
X103691790Y-99566661D01*
X103970000Y-99622001D01*
X103970005Y-99622000D01*
X117534297Y-99622000D01*
X117774778Y-99721856D01*
X118103779Y-99722143D01*
X118407846Y-99596505D01*
X118640688Y-99364070D01*
X118766856Y-99060222D01*
X118767143Y-98731221D01*
X118641505Y-98427154D01*
X118409070Y-98194312D01*
X118105222Y-98068144D01*
X117776221Y-98067857D01*
X117533857Y-98168000D01*
X110170133Y-98168000D01*
X110199064Y-98139069D01*
X110199067Y-98139067D01*
X110356660Y-97903211D01*
X110378751Y-97792154D01*
X110412001Y-97625000D01*
X110412000Y-97624995D01*
X110412000Y-95386134D01*
X110434506Y-95363627D01*
X114589611Y-95363627D01*
X114664945Y-95585911D01*
X115155592Y-95780739D01*
X115683449Y-95772973D01*
X116135055Y-95585911D01*
X116210389Y-95363627D01*
X115400000Y-94553238D01*
X114589611Y-95363627D01*
X110434506Y-95363627D01*
X111592541Y-94205592D01*
X114069261Y-94205592D01*
X114077027Y-94733449D01*
X114264089Y-95185055D01*
X114486373Y-95260389D01*
X115296762Y-94450000D01*
X115503238Y-94450000D01*
X116313627Y-95260389D01*
X116535911Y-95185055D01*
X116730739Y-94694408D01*
X116722973Y-94166551D01*
X116535911Y-93714945D01*
X116313627Y-93639611D01*
X115503238Y-94450000D01*
X115296762Y-94450000D01*
X114486373Y-93639611D01*
X114264089Y-93714945D01*
X114069261Y-94205592D01*
X111592541Y-94205592D01*
X112261760Y-93536373D01*
X114589611Y-93536373D01*
X115400000Y-94346762D01*
X116210389Y-93536373D01*
X116135055Y-93314089D01*
X115644408Y-93119261D01*
X115116551Y-93127027D01*
X114664945Y-93314089D01*
X114589611Y-93536373D01*
X112261760Y-93536373D01*
X114009064Y-91789069D01*
X114009067Y-91789067D01*
X114166660Y-91553211D01*
X114188751Y-91442154D01*
X114222001Y-91275000D01*
X114222000Y-91274995D01*
X114222000Y-89993960D01*
X114274369Y-90120703D01*
X114647334Y-90494319D01*
X115134885Y-90696769D01*
X115662798Y-90697229D01*
X116150703Y-90495631D01*
X116524319Y-90122666D01*
X116534977Y-90097000D01*
X117939995Y-90097000D01*
X117940000Y-90097001D01*
X118172052Y-90050842D01*
X118218211Y-90041660D01*
X118454067Y-89884067D01*
X118454068Y-89884066D01*
X119210000Y-89128133D01*
X119965931Y-89884064D01*
X119965933Y-89884067D01*
X120143092Y-90002440D01*
X120201789Y-90041660D01*
X120480000Y-90097000D01*
X121264867Y-90097000D01*
X119965933Y-91395933D01*
X119808340Y-91631789D01*
X119808340Y-91631790D01*
X119752999Y-91910000D01*
X119753000Y-91910005D01*
X119753000Y-94679297D01*
X119653144Y-94919778D01*
X119652857Y-95248779D01*
X119778495Y-95552846D01*
X120010930Y-95785688D01*
X120314778Y-95911856D01*
X120643779Y-95912143D01*
X120947846Y-95786505D01*
X121180688Y-95554070D01*
X121259766Y-95363627D01*
X122209611Y-95363627D01*
X122284945Y-95585911D01*
X122775592Y-95780739D01*
X123303449Y-95772973D01*
X123755055Y-95585911D01*
X123830389Y-95363627D01*
X123020000Y-94553238D01*
X122209611Y-95363627D01*
X121259766Y-95363627D01*
X121306856Y-95250222D01*
X121307143Y-94921221D01*
X121207000Y-94678857D01*
X121207000Y-94205592D01*
X121689261Y-94205592D01*
X121697027Y-94733449D01*
X121884089Y-95185055D01*
X122106373Y-95260389D01*
X122916762Y-94450000D01*
X122106373Y-93639611D01*
X121884089Y-93714945D01*
X121689261Y-94205592D01*
X121207000Y-94205592D01*
X121207000Y-92211134D01*
X122731199Y-90686934D01*
X122754885Y-90696769D01*
X123282798Y-90697229D01*
X123770703Y-90495631D01*
X123880500Y-90386025D01*
X123880500Y-93486260D01*
X123830388Y-93536372D01*
X123755055Y-93314089D01*
X123264408Y-93119261D01*
X122736551Y-93127027D01*
X122284945Y-93314089D01*
X122209611Y-93536373D01*
X123020000Y-94346762D01*
X123034142Y-94332620D01*
X123137380Y-94435858D01*
X123123238Y-94450000D01*
X123933627Y-95260389D01*
X124155911Y-95185055D01*
X124350739Y-94694408D01*
X124344385Y-94262519D01*
X125680933Y-95599067D01*
X128220931Y-98139064D01*
X128220933Y-98139067D01*
X128855931Y-98774064D01*
X128855933Y-98774067D01*
X128899235Y-98803000D01*
X120885703Y-98803000D01*
X120645222Y-98703144D01*
X120316221Y-98702857D01*
X120012154Y-98828495D01*
X119779312Y-99060930D01*
X119653144Y-99364778D01*
X119652857Y-99693779D01*
X119778495Y-99997846D01*
X120010930Y-100230688D01*
X120314778Y-100356856D01*
X120643779Y-100357143D01*
X120886143Y-100257000D01*
X137624995Y-100257000D01*
X137625000Y-100257001D01*
X137857052Y-100210842D01*
X137903211Y-100201660D01*
X138139067Y-100044067D01*
X139831134Y-98352000D01*
X142512920Y-98352000D01*
X142512857Y-98423779D01*
X142638495Y-98727846D01*
X142870930Y-98960688D01*
X143174778Y-99086856D01*
X143503779Y-99087143D01*
X143807846Y-98961505D01*
X143883000Y-98886482D01*
X143883000Y-99124297D01*
X143783144Y-99364778D01*
X143782857Y-99693779D01*
X143908495Y-99997846D01*
X144140930Y-100230688D01*
X144444778Y-100356856D01*
X144773779Y-100357143D01*
X145077846Y-100231505D01*
X145310688Y-99999070D01*
X145436856Y-99695222D01*
X145437143Y-99366221D01*
X145337000Y-99123857D01*
X145337000Y-96714824D01*
X145654842Y-96846804D01*
X146103191Y-96847195D01*
X146517560Y-96675981D01*
X146746941Y-96447000D01*
X147149995Y-96447000D01*
X147150000Y-96447001D01*
X147382052Y-96400842D01*
X147428211Y-96391660D01*
X147664067Y-96234067D01*
X147664068Y-96234066D01*
X148328000Y-95570133D01*
X148328000Y-98259995D01*
X148327999Y-98260000D01*
X148361249Y-98427154D01*
X148383340Y-98538211D01*
X148540933Y-98774067D01*
X149810931Y-100044064D01*
X149810933Y-100044067D01*
X150046789Y-100201660D01*
X150325000Y-100257000D01*
X174454995Y-100257000D01*
X174455000Y-100257001D01*
X174687052Y-100210842D01*
X174733211Y-100201660D01*
X174969067Y-100044067D01*
X174969068Y-100044066D01*
X176239064Y-98774069D01*
X176239067Y-98774067D01*
X176396660Y-98538211D01*
X176452000Y-98260000D01*
X176452000Y-90640000D01*
X176396660Y-90361789D01*
X176286509Y-90196936D01*
X176523779Y-90197143D01*
X176766143Y-90097000D01*
X178314835Y-90097000D01*
X178550537Y-90449752D01*
X178835263Y-90640000D01*
X178550537Y-90830248D01*
X178314835Y-91183000D01*
X178035703Y-91183000D01*
X177795222Y-91083144D01*
X177466221Y-91082857D01*
X177162154Y-91208495D01*
X176929312Y-91440930D01*
X176803144Y-91744778D01*
X176802857Y-92073779D01*
X176928495Y-92377846D01*
X177160930Y-92610688D01*
X177464778Y-92736856D01*
X177793779Y-92737143D01*
X178036143Y-92637000D01*
X178314835Y-92637000D01*
X178550537Y-92989752D01*
X178835263Y-93180000D01*
X178550537Y-93370248D01*
X178219525Y-93865642D01*
X178103289Y-94450000D01*
X178219525Y-95034358D01*
X178550537Y-95529752D01*
X179045931Y-95860764D01*
X179630289Y-95977000D01*
X180709711Y-95977000D01*
X181294069Y-95860764D01*
X181789463Y-95529752D01*
X182120475Y-95034358D01*
X182236711Y-94450000D01*
X182120475Y-93865642D01*
X181789463Y-93370248D01*
X181504737Y-93180000D01*
X181789463Y-92989752D01*
X182120475Y-92494358D01*
X182236711Y-91910000D01*
X182120475Y-91325642D01*
X181789463Y-90830248D01*
X181504737Y-90640000D01*
X181789463Y-90449752D01*
X182120475Y-89954358D01*
X182174908Y-89680704D01*
X185794944Y-89680704D01*
X185851300Y-89886914D01*
X186158629Y-90398133D01*
X186485648Y-90640000D01*
X186158629Y-90881867D01*
X185851300Y-91393086D01*
X185794944Y-91599296D01*
X185896661Y-91837000D01*
X187717000Y-91837000D01*
X187717000Y-89443000D01*
X185896661Y-89443000D01*
X185794944Y-89680704D01*
X182174908Y-89680704D01*
X182236711Y-89370000D01*
X182148606Y-88927064D01*
X182238779Y-88927143D01*
X182542846Y-88801505D01*
X182775688Y-88569070D01*
X182901856Y-88265222D01*
X182902143Y-87936221D01*
X182776505Y-87632154D01*
X182544070Y-87399312D01*
X182301880Y-87298746D01*
X182169753Y-87166620D01*
X182174908Y-87140704D01*
X185794944Y-87140704D01*
X185851300Y-87346914D01*
X186158629Y-87858133D01*
X186485648Y-88100000D01*
X186158629Y-88341867D01*
X185851300Y-88853086D01*
X185794944Y-89059296D01*
X185896661Y-89297000D01*
X187717000Y-89297000D01*
X187717000Y-86903000D01*
X185896661Y-86903000D01*
X185794944Y-87140704D01*
X182174908Y-87140704D01*
X182236711Y-86830000D01*
X182148606Y-86387064D01*
X182238779Y-86387143D01*
X182542846Y-86261505D01*
X182775688Y-86029070D01*
X182901856Y-85725222D01*
X182902143Y-85396221D01*
X182776505Y-85092154D01*
X182544070Y-84859312D01*
X182301880Y-84758746D01*
X182169753Y-84626620D01*
X182174908Y-84600704D01*
X185794944Y-84600704D01*
X185851300Y-84806914D01*
X186158629Y-85318133D01*
X186485648Y-85560000D01*
X186158629Y-85801867D01*
X185851300Y-86313086D01*
X185794944Y-86519296D01*
X185896661Y-86757000D01*
X187717000Y-86757000D01*
X187717000Y-84363000D01*
X185896661Y-84363000D01*
X185794944Y-84600704D01*
X182174908Y-84600704D01*
X182236711Y-84290000D01*
X182148606Y-83847064D01*
X182238779Y-83847143D01*
X182542846Y-83721505D01*
X182775688Y-83489070D01*
X182901856Y-83185222D01*
X182902143Y-82856221D01*
X182776505Y-82552154D01*
X182544070Y-82319312D01*
X182301880Y-82218746D01*
X182169753Y-82086620D01*
X182174908Y-82060704D01*
X185794944Y-82060704D01*
X185851300Y-82266914D01*
X186158629Y-82778133D01*
X186485648Y-83020000D01*
X186158629Y-83261867D01*
X185851300Y-83773086D01*
X185794944Y-83979296D01*
X185896661Y-84217000D01*
X187717000Y-84217000D01*
X187717000Y-81823000D01*
X185896661Y-81823000D01*
X185794944Y-82060704D01*
X182174908Y-82060704D01*
X182236711Y-81750000D01*
X182148606Y-81307064D01*
X182238779Y-81307143D01*
X182542846Y-81181505D01*
X182775688Y-80949070D01*
X182901856Y-80645222D01*
X182902143Y-80316221D01*
X182776505Y-80012154D01*
X182544070Y-79779312D01*
X182301880Y-79678746D01*
X182169753Y-79546620D01*
X182174908Y-79520704D01*
X185794944Y-79520704D01*
X185851300Y-79726914D01*
X186158629Y-80238133D01*
X186485648Y-80480000D01*
X186158629Y-80721867D01*
X185851300Y-81233086D01*
X185794944Y-81439296D01*
X185896661Y-81677000D01*
X187717000Y-81677000D01*
X187717000Y-79283000D01*
X185896661Y-79283000D01*
X185794944Y-79520704D01*
X182174908Y-79520704D01*
X182236711Y-79210000D01*
X182148606Y-78767064D01*
X182238779Y-78767143D01*
X182542846Y-78641505D01*
X182775688Y-78409070D01*
X182901856Y-78105222D01*
X182902143Y-77776221D01*
X182776505Y-77472154D01*
X182544070Y-77239312D01*
X182301880Y-77138746D01*
X182169753Y-77006620D01*
X182174908Y-76980704D01*
X185794944Y-76980704D01*
X185851300Y-77186914D01*
X186158629Y-77698133D01*
X186485648Y-77940000D01*
X186158629Y-78181867D01*
X185851300Y-78693086D01*
X185794944Y-78899296D01*
X185896661Y-79137000D01*
X187717000Y-79137000D01*
X187717000Y-76743000D01*
X185896661Y-76743000D01*
X185794944Y-76980704D01*
X182174908Y-76980704D01*
X182236711Y-76670000D01*
X182148606Y-76227064D01*
X182238779Y-76227143D01*
X182542846Y-76101505D01*
X182775688Y-75869070D01*
X182901856Y-75565222D01*
X182902143Y-75236221D01*
X182776505Y-74932154D01*
X182544070Y-74699312D01*
X182301880Y-74598746D01*
X182169753Y-74466620D01*
X182174908Y-74440704D01*
X185794944Y-74440704D01*
X185851300Y-74646914D01*
X186158629Y-75158133D01*
X186485648Y-75400000D01*
X186158629Y-75641867D01*
X185851300Y-76153086D01*
X185794944Y-76359296D01*
X185896661Y-76597000D01*
X187717000Y-76597000D01*
X187717000Y-74203000D01*
X185896661Y-74203000D01*
X185794944Y-74440704D01*
X182174908Y-74440704D01*
X182236711Y-74130000D01*
X182120475Y-73545642D01*
X181789463Y-73050248D01*
X181504737Y-72860000D01*
X181789463Y-72669752D01*
X182120475Y-72174358D01*
X182174908Y-71900704D01*
X185794944Y-71900704D01*
X185851300Y-72106914D01*
X186158629Y-72618133D01*
X186485648Y-72860000D01*
X186158629Y-73101867D01*
X185851300Y-73613086D01*
X185794944Y-73819296D01*
X185896661Y-74057000D01*
X187717000Y-74057000D01*
X187717000Y-71663000D01*
X185896661Y-71663000D01*
X185794944Y-71900704D01*
X182174908Y-71900704D01*
X182236711Y-71590000D01*
X182120475Y-71005642D01*
X181789463Y-70510248D01*
X181504737Y-70320000D01*
X181789463Y-70129752D01*
X182120475Y-69634358D01*
X182174908Y-69360704D01*
X185794944Y-69360704D01*
X185851300Y-69566914D01*
X186158629Y-70078133D01*
X186485648Y-70320000D01*
X186158629Y-70561867D01*
X185851300Y-71073086D01*
X185794944Y-71279296D01*
X185896661Y-71517000D01*
X187717000Y-71517000D01*
X187717000Y-69123000D01*
X185896661Y-69123000D01*
X185794944Y-69360704D01*
X182174908Y-69360704D01*
X182236711Y-69050000D01*
X182120475Y-68465642D01*
X181789463Y-67970248D01*
X181504737Y-67780000D01*
X181789463Y-67589752D01*
X182120475Y-67094358D01*
X182174908Y-66820704D01*
X185794944Y-66820704D01*
X185851300Y-67026914D01*
X186158629Y-67538133D01*
X186485648Y-67780000D01*
X186158629Y-68021867D01*
X185851300Y-68533086D01*
X185794944Y-68739296D01*
X185896661Y-68977000D01*
X187717000Y-68977000D01*
X187717000Y-66583000D01*
X185896661Y-66583000D01*
X185794944Y-66820704D01*
X182174908Y-66820704D01*
X182236711Y-66510000D01*
X182174909Y-66199296D01*
X185794944Y-66199296D01*
X185896661Y-66437000D01*
X187717000Y-66437000D01*
X187717000Y-64983000D01*
X187217000Y-64983000D01*
X186638199Y-65127172D01*
X186158629Y-65481867D01*
X185851300Y-65993086D01*
X185794944Y-66199296D01*
X182174909Y-66199296D01*
X182120475Y-65925642D01*
X181789463Y-65430248D01*
X181294069Y-65099236D01*
X180709711Y-64983000D01*
X179630289Y-64983000D01*
X179045931Y-65099236D01*
X178550537Y-65430248D01*
X178314835Y-65783000D01*
X178035703Y-65783000D01*
X177795222Y-65683144D01*
X177466221Y-65682857D01*
X177162154Y-65808495D01*
X176929312Y-66040930D01*
X176803144Y-66344778D01*
X176802857Y-66673779D01*
X176928495Y-66977846D01*
X177160930Y-67210688D01*
X177464778Y-67336856D01*
X177793779Y-67337143D01*
X178036143Y-67237000D01*
X178314835Y-67237000D01*
X178550537Y-67589752D01*
X178835263Y-67780000D01*
X178550537Y-67970248D01*
X178314835Y-68323000D01*
X178035703Y-68323000D01*
X177795222Y-68223144D01*
X177466221Y-68222857D01*
X177162154Y-68348495D01*
X176929312Y-68580930D01*
X176803144Y-68884778D01*
X176802857Y-69213779D01*
X176928495Y-69517846D01*
X177160930Y-69750688D01*
X177464778Y-69876856D01*
X177793779Y-69877143D01*
X178036143Y-69777000D01*
X178314835Y-69777000D01*
X178550537Y-70129752D01*
X178835263Y-70320000D01*
X178550537Y-70510248D01*
X178314835Y-70863000D01*
X178035703Y-70863000D01*
X177795222Y-70763144D01*
X177466221Y-70762857D01*
X177162154Y-70888495D01*
X176929312Y-71120930D01*
X176803144Y-71424778D01*
X176802857Y-71753779D01*
X176928495Y-72057846D01*
X177160930Y-72290688D01*
X177464778Y-72416856D01*
X177793779Y-72417143D01*
X178036143Y-72317000D01*
X178314835Y-72317000D01*
X178550537Y-72669752D01*
X178835263Y-72860000D01*
X178550537Y-73050248D01*
X178219525Y-73545642D01*
X178103289Y-74130000D01*
X178219525Y-74714358D01*
X178550537Y-75209752D01*
X178835263Y-75400000D01*
X178550537Y-75590248D01*
X178219525Y-76085642D01*
X178103289Y-76670000D01*
X178219525Y-77254358D01*
X178550537Y-77749752D01*
X178835263Y-77940000D01*
X178550537Y-78130248D01*
X178219525Y-78625642D01*
X178103289Y-79210000D01*
X178219525Y-79794358D01*
X178550537Y-80289752D01*
X178835263Y-80480000D01*
X178550537Y-80670248D01*
X178219525Y-81165642D01*
X178103289Y-81750000D01*
X178219525Y-82334358D01*
X178550537Y-82829752D01*
X178835263Y-83020000D01*
X178550537Y-83210248D01*
X178219525Y-83705642D01*
X178103289Y-84290000D01*
X178219525Y-84874358D01*
X178550537Y-85369752D01*
X178835263Y-85560000D01*
X178550537Y-85750248D01*
X178219525Y-86245642D01*
X178103289Y-86830000D01*
X178219525Y-87414358D01*
X178550537Y-87909752D01*
X178835263Y-88100000D01*
X178550537Y-88290248D01*
X178314835Y-88643000D01*
X176765703Y-88643000D01*
X176525222Y-88543144D01*
X176196221Y-88542857D01*
X175892154Y-88668495D01*
X175659312Y-88900930D01*
X175533144Y-89204778D01*
X175532956Y-89419823D01*
X173912000Y-87798866D01*
X173912000Y-65875000D01*
X173856660Y-65596789D01*
X173699067Y-65360933D01*
X173699064Y-65360931D01*
X164998838Y-56660704D01*
X167514944Y-56660704D01*
X167571300Y-56866914D01*
X167878629Y-57378133D01*
X168358199Y-57732828D01*
X168937000Y-57877000D01*
X169937000Y-57877000D01*
X169937000Y-56423000D01*
X170083000Y-56423000D01*
X170083000Y-57877000D01*
X171083000Y-57877000D01*
X171661801Y-57732828D01*
X172141371Y-57378133D01*
X172448700Y-56866914D01*
X172505056Y-56660704D01*
X172442185Y-56513779D01*
X176802857Y-56513779D01*
X176928495Y-56817846D01*
X177160930Y-57050688D01*
X177464778Y-57176856D01*
X177793779Y-57177143D01*
X178036143Y-57077000D01*
X178314835Y-57077000D01*
X178550537Y-57429752D01*
X178835263Y-57620000D01*
X178550537Y-57810248D01*
X178314835Y-58163000D01*
X178035703Y-58163000D01*
X177795222Y-58063144D01*
X177466221Y-58062857D01*
X177162154Y-58188495D01*
X176929312Y-58420930D01*
X176803144Y-58724778D01*
X176802857Y-59053779D01*
X176928495Y-59357846D01*
X177160930Y-59590688D01*
X177464778Y-59716856D01*
X177793779Y-59717143D01*
X178036143Y-59617000D01*
X178314835Y-59617000D01*
X178550537Y-59969752D01*
X178835263Y-60160000D01*
X178550537Y-60350248D01*
X178314835Y-60703000D01*
X178035703Y-60703000D01*
X177795222Y-60603144D01*
X177466221Y-60602857D01*
X177162154Y-60728495D01*
X176929312Y-60960930D01*
X176803144Y-61264778D01*
X176802857Y-61593779D01*
X176928495Y-61897846D01*
X177160930Y-62130688D01*
X177464778Y-62256856D01*
X177793779Y-62257143D01*
X178036143Y-62157000D01*
X178314835Y-62157000D01*
X178550537Y-62509752D01*
X179045931Y-62840764D01*
X179630289Y-62957000D01*
X180709711Y-62957000D01*
X181294069Y-62840764D01*
X181789463Y-62509752D01*
X182120475Y-62014358D01*
X182174908Y-61740704D01*
X185794944Y-61740704D01*
X185851300Y-61946914D01*
X186158629Y-62458133D01*
X186638199Y-62812828D01*
X187217000Y-62957000D01*
X187717000Y-62957000D01*
X187717000Y-61503000D01*
X185896661Y-61503000D01*
X185794944Y-61740704D01*
X182174908Y-61740704D01*
X182236711Y-61430000D01*
X182120475Y-60845642D01*
X181789463Y-60350248D01*
X181504737Y-60160000D01*
X181789463Y-59969752D01*
X182120475Y-59474358D01*
X182174908Y-59200704D01*
X185794944Y-59200704D01*
X185851300Y-59406914D01*
X186158629Y-59918133D01*
X186485648Y-60160000D01*
X186158629Y-60401867D01*
X185851300Y-60913086D01*
X185794944Y-61119296D01*
X185896661Y-61357000D01*
X187717000Y-61357000D01*
X187717000Y-58963000D01*
X185896661Y-58963000D01*
X185794944Y-59200704D01*
X182174908Y-59200704D01*
X182236711Y-58890000D01*
X182120475Y-58305642D01*
X181789463Y-57810248D01*
X181504737Y-57620000D01*
X181789463Y-57429752D01*
X182120475Y-56934358D01*
X182174908Y-56660704D01*
X185794944Y-56660704D01*
X185851300Y-56866914D01*
X186158629Y-57378133D01*
X186485648Y-57620000D01*
X186158629Y-57861867D01*
X185851300Y-58373086D01*
X185794944Y-58579296D01*
X185896661Y-58817000D01*
X187717000Y-58817000D01*
X187717000Y-56423000D01*
X185896661Y-56423000D01*
X185794944Y-56660704D01*
X182174908Y-56660704D01*
X182236711Y-56350000D01*
X182174909Y-56039296D01*
X185794944Y-56039296D01*
X185896661Y-56277000D01*
X187717000Y-56277000D01*
X187717000Y-54823000D01*
X187217000Y-54823000D01*
X186638199Y-54967172D01*
X186158629Y-55321867D01*
X185851300Y-55833086D01*
X185794944Y-56039296D01*
X182174909Y-56039296D01*
X182120475Y-55765642D01*
X181789463Y-55270248D01*
X181294069Y-54939236D01*
X180709711Y-54823000D01*
X179630289Y-54823000D01*
X179045931Y-54939236D01*
X178550537Y-55270248D01*
X178314835Y-55623000D01*
X178035703Y-55623000D01*
X177795222Y-55523144D01*
X177466221Y-55522857D01*
X177162154Y-55648495D01*
X176929312Y-55880930D01*
X176803144Y-56184778D01*
X176802857Y-56513779D01*
X172442185Y-56513779D01*
X172403339Y-56423000D01*
X170083000Y-56423000D01*
X169937000Y-56423000D01*
X167616661Y-56423000D01*
X167514944Y-56660704D01*
X164998838Y-56660704D01*
X162904067Y-54565933D01*
X162798868Y-54495642D01*
X162668211Y-54408340D01*
X162622052Y-54399158D01*
X162390000Y-54352999D01*
X162389995Y-54353000D01*
X157238498Y-54353000D01*
X157284704Y-54120704D01*
X167514944Y-54120704D01*
X167571300Y-54326914D01*
X167878629Y-54838133D01*
X168205648Y-55080000D01*
X167878629Y-55321867D01*
X167571300Y-55833086D01*
X167514944Y-56039296D01*
X167616661Y-56277000D01*
X169937000Y-56277000D01*
X169937000Y-53883000D01*
X170083000Y-53883000D01*
X170083000Y-56277000D01*
X172403339Y-56277000D01*
X172505056Y-56039296D01*
X172448700Y-55833086D01*
X172141371Y-55321867D01*
X171814352Y-55080000D01*
X172141371Y-54838133D01*
X172448700Y-54326914D01*
X172505056Y-54120704D01*
X172403339Y-53883000D01*
X170083000Y-53883000D01*
X169937000Y-53883000D01*
X167616661Y-53883000D01*
X167514944Y-54120704D01*
X157284704Y-54120704D01*
X157346507Y-53810000D01*
X157284705Y-53499296D01*
X167514944Y-53499296D01*
X167616661Y-53737000D01*
X169937000Y-53737000D01*
X169937000Y-52283000D01*
X170083000Y-52283000D01*
X170083000Y-53737000D01*
X172403339Y-53737000D01*
X172505056Y-53499296D01*
X172448700Y-53293086D01*
X172141371Y-52781867D01*
X171661801Y-52427172D01*
X171083000Y-52283000D01*
X170083000Y-52283000D01*
X169937000Y-52283000D01*
X168937000Y-52283000D01*
X168358199Y-52427172D01*
X167878629Y-52781867D01*
X167571300Y-53293086D01*
X167514944Y-53499296D01*
X157284705Y-53499296D01*
X157230271Y-53225642D01*
X156899259Y-52730248D01*
X156403865Y-52399236D01*
X155819507Y-52283000D01*
X153720493Y-52283000D01*
X153136135Y-52399236D01*
X152640741Y-52730248D01*
X152309729Y-53225642D01*
X152193493Y-53810000D01*
X152309729Y-54394358D01*
X152640741Y-54889752D01*
X152925467Y-55080000D01*
X152640741Y-55270248D01*
X152309729Y-55765642D01*
X152193493Y-56350000D01*
X152309729Y-56934358D01*
X152640741Y-57429752D01*
X152787779Y-57528000D01*
X148721133Y-57528000D01*
X147664067Y-56470933D01*
X147428211Y-56313340D01*
X147382052Y-56304158D01*
X147150000Y-56257999D01*
X147149995Y-56258000D01*
X143110703Y-56258000D01*
X142870222Y-56158144D01*
X142541221Y-56157857D01*
X142237154Y-56283495D01*
X142004312Y-56515930D01*
X141878144Y-56819778D01*
X141877857Y-57148779D01*
X142003495Y-57452846D01*
X142170445Y-57620088D01*
X142004312Y-57785930D01*
X141878144Y-58089778D01*
X141877857Y-58418779D01*
X142003495Y-58722846D01*
X142212172Y-58931889D01*
X142143000Y-58966753D01*
X142143000Y-60087000D01*
X143263019Y-60087000D01*
X143367258Y-59880624D01*
X143184853Y-59440244D01*
X142837844Y-59082116D01*
X142868779Y-59082143D01*
X143111143Y-58982000D01*
X146213866Y-58982000D01*
X146378609Y-59146743D01*
X146105158Y-59033196D01*
X145656809Y-59032805D01*
X145242440Y-59204019D01*
X144925133Y-59520772D01*
X144753196Y-59934842D01*
X144752805Y-60383191D01*
X144924019Y-60797560D01*
X145240772Y-61114867D01*
X145654842Y-61286804D01*
X146103191Y-61287195D01*
X146517560Y-61115981D01*
X146834867Y-60799228D01*
X147006804Y-60385158D01*
X147007195Y-59936809D01*
X146893491Y-59661624D01*
X147270931Y-60039064D01*
X147270933Y-60039067D01*
X147506789Y-60196660D01*
X147785000Y-60252000D01*
X162723866Y-60252000D01*
X165685933Y-63214067D01*
X169918000Y-67446133D01*
X169918000Y-90973867D01*
X164628866Y-96263000D01*
X155027000Y-96263000D01*
X155027000Y-95940493D01*
X154910764Y-95356135D01*
X154579752Y-94860741D01*
X154084358Y-94529729D01*
X153500000Y-94413493D01*
X152915642Y-94529729D01*
X152420248Y-94860741D01*
X152230000Y-95145467D01*
X152039752Y-94860741D01*
X151544358Y-94529729D01*
X150960000Y-94413493D01*
X150375642Y-94529729D01*
X149880248Y-94860741D01*
X149782000Y-95007779D01*
X149782000Y-94116134D01*
X149917192Y-93980941D01*
X150157846Y-93881505D01*
X150390688Y-93649070D01*
X150516856Y-93345222D01*
X150517143Y-93016221D01*
X150391505Y-92712154D01*
X150159070Y-92479312D01*
X149855222Y-92353144D01*
X149526221Y-92352857D01*
X149222154Y-92478495D01*
X149147000Y-92553518D01*
X149147000Y-90640000D01*
X149091660Y-90361789D01*
X148934067Y-90125933D01*
X148934064Y-90125931D01*
X147664067Y-88855933D01*
X147596073Y-88810501D01*
X147617846Y-88801505D01*
X147850688Y-88569070D01*
X147976856Y-88265222D01*
X147977143Y-87936221D01*
X147851505Y-87632154D01*
X147619070Y-87399312D01*
X147315222Y-87273144D01*
X146986221Y-87272857D01*
X146745868Y-87372169D01*
X146519228Y-87145133D01*
X146105158Y-86973196D01*
X145656809Y-86972805D01*
X145242440Y-87144019D01*
X144925133Y-87460772D01*
X144760466Y-87857333D01*
X144702000Y-87798866D01*
X144702000Y-85783191D01*
X144752805Y-85783191D01*
X144924019Y-86197560D01*
X145240772Y-86514867D01*
X145654842Y-86686804D01*
X146103191Y-86687195D01*
X146517560Y-86515981D01*
X146746165Y-86287776D01*
X146984778Y-86386856D01*
X147313779Y-86387143D01*
X147617846Y-86261505D01*
X147850688Y-86029070D01*
X147976856Y-85725222D01*
X147976857Y-85723779D01*
X149497857Y-85723779D01*
X149623495Y-86027846D01*
X149855930Y-86260688D01*
X150159778Y-86386856D01*
X150488779Y-86387143D01*
X150731143Y-86287000D01*
X157539297Y-86287000D01*
X157779778Y-86386856D01*
X158108779Y-86387143D01*
X158412846Y-86261505D01*
X158645688Y-86029070D01*
X158771856Y-85725222D01*
X158772143Y-85396221D01*
X158646505Y-85092154D01*
X158414070Y-84859312D01*
X158110222Y-84733144D01*
X157781221Y-84732857D01*
X157538857Y-84833000D01*
X150730703Y-84833000D01*
X150490222Y-84733144D01*
X150161221Y-84732857D01*
X149857154Y-84858495D01*
X149624312Y-85090930D01*
X149498144Y-85394778D01*
X149497857Y-85723779D01*
X147976857Y-85723779D01*
X147977143Y-85396221D01*
X147851505Y-85092154D01*
X147619070Y-84859312D01*
X147315222Y-84733144D01*
X146986221Y-84732857D01*
X146745868Y-84832169D01*
X146519228Y-84605133D01*
X146105158Y-84433196D01*
X145656809Y-84432805D01*
X145242440Y-84604019D01*
X144925133Y-84920772D01*
X144753196Y-85334842D01*
X144752805Y-85783191D01*
X144702000Y-85783191D01*
X144702000Y-82686134D01*
X144866743Y-82521391D01*
X144753196Y-82794842D01*
X144752805Y-83243191D01*
X144924019Y-83657560D01*
X145240772Y-83974867D01*
X145654842Y-84146804D01*
X146103191Y-84147195D01*
X146517560Y-83975981D01*
X146746165Y-83747776D01*
X146984778Y-83846856D01*
X147313779Y-83847143D01*
X147617846Y-83721505D01*
X147850688Y-83489070D01*
X147976856Y-83185222D01*
X147976857Y-83183779D01*
X148227857Y-83183779D01*
X148353495Y-83487846D01*
X148585930Y-83720688D01*
X148889778Y-83846856D01*
X149218779Y-83847143D01*
X149461143Y-83747000D01*
X157539297Y-83747000D01*
X157779778Y-83846856D01*
X158108779Y-83847143D01*
X158412846Y-83721505D01*
X158645688Y-83489070D01*
X158771856Y-83185222D01*
X158772143Y-82856221D01*
X158646505Y-82552154D01*
X158414070Y-82319312D01*
X158110222Y-82193144D01*
X157781221Y-82192857D01*
X157538857Y-82293000D01*
X149460703Y-82293000D01*
X149220222Y-82193144D01*
X148891221Y-82192857D01*
X148587154Y-82318495D01*
X148354312Y-82550930D01*
X148228144Y-82854778D01*
X148227857Y-83183779D01*
X147976857Y-83183779D01*
X147977143Y-82856221D01*
X147851505Y-82552154D01*
X147619070Y-82319312D01*
X147315222Y-82193144D01*
X146986221Y-82192857D01*
X146745868Y-82292169D01*
X146519228Y-82065133D01*
X146105158Y-81893196D01*
X145656809Y-81892805D01*
X145246865Y-82062191D01*
X145280558Y-81892805D01*
X145302003Y-81784998D01*
X145302002Y-81784993D01*
X145302002Y-81460292D01*
X145654842Y-81606804D01*
X146103191Y-81607195D01*
X146517560Y-81435981D01*
X146834867Y-81119228D01*
X146994982Y-80733628D01*
X147083495Y-80947846D01*
X147315930Y-81180688D01*
X147619778Y-81306856D01*
X147948779Y-81307143D01*
X148191143Y-81207000D01*
X157539297Y-81207000D01*
X157779778Y-81306856D01*
X158108779Y-81307143D01*
X158412846Y-81181505D01*
X158645688Y-80949070D01*
X158771856Y-80645222D01*
X158772143Y-80316221D01*
X158646505Y-80012154D01*
X158414070Y-79779312D01*
X158110222Y-79653144D01*
X157781221Y-79652857D01*
X157538857Y-79753000D01*
X148190703Y-79753000D01*
X147950222Y-79653144D01*
X147861485Y-79653067D01*
X147976856Y-79375222D01*
X147977143Y-79046221D01*
X147851505Y-78742154D01*
X147619070Y-78509312D01*
X147315222Y-78383144D01*
X146986221Y-78382857D01*
X146901949Y-78417678D01*
X147006804Y-78165158D01*
X147007087Y-77841047D01*
X147377192Y-77470941D01*
X147617846Y-77371505D01*
X147850688Y-77139070D01*
X147976856Y-76835222D01*
X147977143Y-76506221D01*
X147851505Y-76202154D01*
X147619070Y-75969312D01*
X147315222Y-75843144D01*
X146986221Y-75842857D01*
X146901949Y-75877678D01*
X147006804Y-75625158D01*
X147007087Y-75301047D01*
X147377192Y-74930941D01*
X147617846Y-74831505D01*
X147850688Y-74599070D01*
X147976856Y-74295222D01*
X147977143Y-73966221D01*
X147851505Y-73662154D01*
X147619070Y-73429312D01*
X147315222Y-73303144D01*
X146986221Y-73302857D01*
X146901949Y-73337678D01*
X147006804Y-73085158D01*
X147007195Y-72636809D01*
X146835981Y-72222440D01*
X146519228Y-71905133D01*
X146105158Y-71733196D01*
X145656809Y-71732805D01*
X145302002Y-71879408D01*
X145302002Y-71300292D01*
X145654842Y-71446804D01*
X146103191Y-71447195D01*
X146517560Y-71275981D01*
X146834867Y-70959228D01*
X147006804Y-70545158D01*
X147007195Y-70096809D01*
X146835981Y-69682440D01*
X146519228Y-69365133D01*
X146105158Y-69193196D01*
X145656809Y-69192805D01*
X145302002Y-69339408D01*
X145302002Y-68760292D01*
X145654842Y-68906804D01*
X146103191Y-68907195D01*
X146517560Y-68735981D01*
X146746941Y-68507000D01*
X148649297Y-68507000D01*
X148889778Y-68606856D01*
X149218779Y-68607143D01*
X149461143Y-68507000D01*
X157539297Y-68507000D01*
X157718120Y-68581253D01*
X158488000Y-69351133D01*
X158488000Y-69914297D01*
X158388144Y-70154778D01*
X158387857Y-70483779D01*
X158488000Y-70726143D01*
X158488000Y-72454297D01*
X158388144Y-72694778D01*
X158387857Y-73023779D01*
X158488000Y-73266143D01*
X158488000Y-74994297D01*
X158388144Y-75234778D01*
X158387857Y-75563779D01*
X158513495Y-75867846D01*
X158745930Y-76100688D01*
X159049778Y-76226856D01*
X159378779Y-76227143D01*
X159682846Y-76101505D01*
X159915688Y-75869070D01*
X160041856Y-75565222D01*
X160042143Y-75236221D01*
X159942000Y-74993857D01*
X159942000Y-73265703D01*
X160041856Y-73025222D01*
X160042143Y-72696221D01*
X159942000Y-72453857D01*
X159942000Y-70725703D01*
X160041856Y-70485222D01*
X160042143Y-70156221D01*
X159942000Y-69913857D01*
X159942000Y-69050000D01*
X159886660Y-68771789D01*
X159729067Y-68535933D01*
X159729064Y-68535931D01*
X158973134Y-67780000D01*
X159729064Y-67024069D01*
X159729067Y-67024067D01*
X159886660Y-66788211D01*
X159942000Y-66510000D01*
X159942000Y-65645703D01*
X160041856Y-65405222D01*
X160042143Y-65076221D01*
X159942000Y-64833857D01*
X159942000Y-63105703D01*
X160041856Y-62865222D01*
X160042143Y-62536221D01*
X159916505Y-62232154D01*
X159684070Y-61999312D01*
X159380222Y-61873144D01*
X159051221Y-61872857D01*
X158747154Y-61998495D01*
X158514312Y-62230930D01*
X158388144Y-62534778D01*
X158387857Y-62863779D01*
X158488000Y-63106143D01*
X158488000Y-64834297D01*
X158388144Y-65074778D01*
X158387857Y-65403779D01*
X158488000Y-65646143D01*
X158488000Y-66208867D01*
X157717807Y-66979059D01*
X157538857Y-67053000D01*
X149460703Y-67053000D01*
X149220222Y-66953144D01*
X148891221Y-66952857D01*
X148648857Y-67053000D01*
X146985765Y-67053000D01*
X147029067Y-67024067D01*
X147029068Y-67024066D01*
X147664064Y-66389069D01*
X147664067Y-66389067D01*
X147821660Y-66153211D01*
X147843751Y-66042154D01*
X147877001Y-65875000D01*
X147877000Y-65874995D01*
X147877000Y-64605005D01*
X147877001Y-64605000D01*
X147821660Y-64326790D01*
X147821660Y-64326789D01*
X147664067Y-64090933D01*
X147664064Y-64090931D01*
X147029067Y-63455933D01*
X146947609Y-63401505D01*
X146827050Y-63320951D01*
X146850655Y-63314989D01*
X147012115Y-62896723D01*
X147001220Y-62448507D01*
X146850655Y-62085011D01*
X146649125Y-62034113D01*
X145983238Y-62700000D01*
X145997380Y-62714142D01*
X145894142Y-62817380D01*
X145880000Y-62803238D01*
X145865858Y-62817380D01*
X145762620Y-62714142D01*
X145776762Y-62700000D01*
X145110875Y-62034113D01*
X144909345Y-62085011D01*
X144747885Y-62503277D01*
X144758780Y-62951493D01*
X144909345Y-63314989D01*
X144932950Y-63320951D01*
X144730933Y-63455933D01*
X144730931Y-63455936D01*
X143344002Y-64842865D01*
X143321985Y-64732179D01*
X143034328Y-64301669D01*
X142603818Y-64014012D01*
X142382555Y-63970000D01*
X142603818Y-63925988D01*
X143034328Y-63638331D01*
X143321985Y-63207821D01*
X143422997Y-62700000D01*
X143321985Y-62192179D01*
X143147388Y-61930875D01*
X145214113Y-61930875D01*
X145880000Y-62596762D01*
X146545887Y-61930875D01*
X146494989Y-61729345D01*
X146076723Y-61567885D01*
X145628507Y-61578780D01*
X145265011Y-61729345D01*
X145214113Y-61930875D01*
X143147388Y-61930875D01*
X143034328Y-61761669D01*
X142603818Y-61474012D01*
X142402981Y-61434063D01*
X142824551Y-61251603D01*
X143184853Y-60879756D01*
X143367258Y-60439376D01*
X143263019Y-60233000D01*
X142143000Y-60233000D01*
X142143000Y-60253000D01*
X141997000Y-60253000D01*
X141997000Y-60233000D01*
X140876981Y-60233000D01*
X140794477Y-60396344D01*
X140278758Y-59880624D01*
X140772742Y-59880624D01*
X140876981Y-60087000D01*
X141997000Y-60087000D01*
X141997000Y-58966753D01*
X141790624Y-58862736D01*
X141315449Y-59068397D01*
X140955147Y-59440244D01*
X140772742Y-59880624D01*
X140278758Y-59880624D01*
X140257000Y-59858866D01*
X140257000Y-55301134D01*
X140471350Y-55086784D01*
X140972897Y-55087221D01*
X141442417Y-54893219D01*
X141801957Y-54534307D01*
X141996778Y-54065125D01*
X141997148Y-53640986D01*
X143567192Y-52070941D01*
X143807846Y-51971505D01*
X144040688Y-51739070D01*
X144166856Y-51435222D01*
X144167143Y-51106221D01*
X144041505Y-50802154D01*
X143841701Y-50602000D01*
X187940707Y-50602000D01*
X188530479Y-50719313D01*
X188530479Y-50719313D01*
G37*
X188530479Y-50719313D02*
X188980196Y-51019804D01*
X189280687Y-51469521D01*
X189398000Y-52059293D01*
X189398000Y-55304582D01*
X188941801Y-54967172D01*
X188363000Y-54823000D01*
X187863000Y-54823000D01*
X187863000Y-56277000D01*
X187883000Y-56277000D01*
X187883000Y-56423000D01*
X187863000Y-56423000D01*
X187863000Y-58817000D01*
X187883000Y-58817000D01*
X187883000Y-58963000D01*
X187863000Y-58963000D01*
X187863000Y-61357000D01*
X187883000Y-61357000D01*
X187883000Y-61503000D01*
X187863000Y-61503000D01*
X187863000Y-62957000D01*
X188363000Y-62957000D01*
X188941801Y-62812828D01*
X189398000Y-62475418D01*
X189398000Y-65464582D01*
X188941801Y-65127172D01*
X188363000Y-64983000D01*
X187863000Y-64983000D01*
X187863000Y-66437000D01*
X187883000Y-66437000D01*
X187883000Y-66583000D01*
X187863000Y-66583000D01*
X187863000Y-68977000D01*
X187883000Y-68977000D01*
X187883000Y-69123000D01*
X187863000Y-69123000D01*
X187863000Y-71517000D01*
X187883000Y-71517000D01*
X187883000Y-71663000D01*
X187863000Y-71663000D01*
X187863000Y-74057000D01*
X187883000Y-74057000D01*
X187883000Y-74203000D01*
X187863000Y-74203000D01*
X187863000Y-76597000D01*
X187883000Y-76597000D01*
X187883000Y-76743000D01*
X187863000Y-76743000D01*
X187863000Y-79137000D01*
X187883000Y-79137000D01*
X187883000Y-79283000D01*
X187863000Y-79283000D01*
X187863000Y-81677000D01*
X187883000Y-81677000D01*
X187883000Y-81823000D01*
X187863000Y-81823000D01*
X187863000Y-84217000D01*
X187883000Y-84217000D01*
X187883000Y-84363000D01*
X187863000Y-84363000D01*
X187863000Y-86757000D01*
X187883000Y-86757000D01*
X187883000Y-86903000D01*
X187863000Y-86903000D01*
X187863000Y-89297000D01*
X187883000Y-89297000D01*
X187883000Y-89443000D01*
X187863000Y-89443000D01*
X187863000Y-91837000D01*
X187883000Y-91837000D01*
X187883000Y-91983000D01*
X187863000Y-91983000D01*
X187863000Y-92003000D01*
X187717000Y-92003000D01*
X187717000Y-91983000D01*
X185896661Y-91983000D01*
X185794944Y-92220704D01*
X185851300Y-92426914D01*
X186158629Y-92938133D01*
X186471227Y-93169333D01*
X186170537Y-93370248D01*
X185839525Y-93865642D01*
X185723289Y-94450000D01*
X185839525Y-95034358D01*
X186170537Y-95529752D01*
X186665931Y-95860764D01*
X187250289Y-95977000D01*
X188329711Y-95977000D01*
X188914069Y-95860764D01*
X189398000Y-95537411D01*
X189398000Y-98940707D01*
X189280687Y-99530479D01*
X188980196Y-99980196D01*
X188530479Y-100280687D01*
X187940707Y-100398000D01*
X92059293Y-100398000D01*
X91469521Y-100280687D01*
X91019804Y-99980196D01*
X90719313Y-99530479D01*
X90602000Y-98940707D01*
X90602000Y-92411410D01*
X90800930Y-92610688D01*
X91043120Y-92711253D01*
X91413086Y-93081219D01*
X91412805Y-93403191D01*
X91584019Y-93817560D01*
X91900772Y-94134867D01*
X92314842Y-94306804D01*
X92763191Y-94307195D01*
X93038376Y-94193491D01*
X92638781Y-94593086D01*
X92316809Y-94592805D01*
X91902440Y-94764019D01*
X91585133Y-95080772D01*
X91413196Y-95494842D01*
X91412805Y-95943191D01*
X91584019Y-96357560D01*
X91900772Y-96674867D01*
X92314842Y-96846804D01*
X92763191Y-96847195D01*
X93177560Y-96675981D01*
X93494867Y-96359228D01*
X93666804Y-95945158D01*
X93667087Y-95621047D01*
X94324064Y-94964069D01*
X94324067Y-94964067D01*
X94420945Y-94819079D01*
X95050901Y-95449035D01*
X94997003Y-95720000D01*
X95098015Y-96227821D01*
X95385672Y-96658331D01*
X95816182Y-96945988D01*
X96324003Y-97047000D01*
X96375997Y-97047000D01*
X96883818Y-96945988D01*
X97314328Y-96658331D01*
X97601985Y-96227821D01*
X97702997Y-95720000D01*
X97601985Y-95212179D01*
X97314328Y-94781669D01*
X96883818Y-94494012D01*
X96662555Y-94450000D01*
X96883818Y-94405988D01*
X97314328Y-94118331D01*
X97455535Y-93907000D01*
X97953866Y-93907000D01*
X103455931Y-99409064D01*
X103455933Y-99409067D01*
X103488630Y-99430914D01*
X103691790Y-99566661D01*
X103970000Y-99622001D01*
X103970005Y-99622000D01*
X117534297Y-99622000D01*
X117774778Y-99721856D01*
X118103779Y-99722143D01*
X118407846Y-99596505D01*
X118640688Y-99364070D01*
X118766856Y-99060222D01*
X118767143Y-98731221D01*
X118641505Y-98427154D01*
X118409070Y-98194312D01*
X118105222Y-98068144D01*
X117776221Y-98067857D01*
X117533857Y-98168000D01*
X110170133Y-98168000D01*
X110199064Y-98139069D01*
X110199067Y-98139067D01*
X110356660Y-97903211D01*
X110378751Y-97792154D01*
X110412001Y-97625000D01*
X110412000Y-97624995D01*
X110412000Y-95386134D01*
X110434506Y-95363627D01*
X114589611Y-95363627D01*
X114664945Y-95585911D01*
X115155592Y-95780739D01*
X115683449Y-95772973D01*
X116135055Y-95585911D01*
X116210389Y-95363627D01*
X115400000Y-94553238D01*
X114589611Y-95363627D01*
X110434506Y-95363627D01*
X111592541Y-94205592D01*
X114069261Y-94205592D01*
X114077027Y-94733449D01*
X114264089Y-95185055D01*
X114486373Y-95260389D01*
X115296762Y-94450000D01*
X115503238Y-94450000D01*
X116313627Y-95260389D01*
X116535911Y-95185055D01*
X116730739Y-94694408D01*
X116722973Y-94166551D01*
X116535911Y-93714945D01*
X116313627Y-93639611D01*
X115503238Y-94450000D01*
X115296762Y-94450000D01*
X114486373Y-93639611D01*
X114264089Y-93714945D01*
X114069261Y-94205592D01*
X111592541Y-94205592D01*
X112261760Y-93536373D01*
X114589611Y-93536373D01*
X115400000Y-94346762D01*
X116210389Y-93536373D01*
X116135055Y-93314089D01*
X115644408Y-93119261D01*
X115116551Y-93127027D01*
X114664945Y-93314089D01*
X114589611Y-93536373D01*
X112261760Y-93536373D01*
X114009064Y-91789069D01*
X114009067Y-91789067D01*
X114166660Y-91553211D01*
X114188751Y-91442154D01*
X114222001Y-91275000D01*
X114222000Y-91274995D01*
X114222000Y-89993960D01*
X114274369Y-90120703D01*
X114647334Y-90494319D01*
X115134885Y-90696769D01*
X115662798Y-90697229D01*
X116150703Y-90495631D01*
X116524319Y-90122666D01*
X116534977Y-90097000D01*
X117939995Y-90097000D01*
X117940000Y-90097001D01*
X118172052Y-90050842D01*
X118218211Y-90041660D01*
X118454067Y-89884067D01*
X118454068Y-89884066D01*
X119210000Y-89128133D01*
X119965931Y-89884064D01*
X119965933Y-89884067D01*
X120143092Y-90002440D01*
X120201789Y-90041660D01*
X120480000Y-90097000D01*
X121264867Y-90097000D01*
X119965933Y-91395933D01*
X119808340Y-91631789D01*
X119808340Y-91631790D01*
X119752999Y-91910000D01*
X119753000Y-91910005D01*
X119753000Y-94679297D01*
X119653144Y-94919778D01*
X119652857Y-95248779D01*
X119778495Y-95552846D01*
X120010930Y-95785688D01*
X120314778Y-95911856D01*
X120643779Y-95912143D01*
X120947846Y-95786505D01*
X121180688Y-95554070D01*
X121259766Y-95363627D01*
X122209611Y-95363627D01*
X122284945Y-95585911D01*
X122775592Y-95780739D01*
X123303449Y-95772973D01*
X123755055Y-95585911D01*
X123830389Y-95363627D01*
X123020000Y-94553238D01*
X122209611Y-95363627D01*
X121259766Y-95363627D01*
X121306856Y-95250222D01*
X121307143Y-94921221D01*
X121207000Y-94678857D01*
X121207000Y-94205592D01*
X121689261Y-94205592D01*
X121697027Y-94733449D01*
X121884089Y-95185055D01*
X122106373Y-95260389D01*
X122916762Y-94450000D01*
X122106373Y-93639611D01*
X121884089Y-93714945D01*
X121689261Y-94205592D01*
X121207000Y-94205592D01*
X121207000Y-92211134D01*
X122731199Y-90686934D01*
X122754885Y-90696769D01*
X123282798Y-90697229D01*
X123770703Y-90495631D01*
X123880500Y-90386025D01*
X123880500Y-93486260D01*
X123830388Y-93536372D01*
X123755055Y-93314089D01*
X123264408Y-93119261D01*
X122736551Y-93127027D01*
X122284945Y-93314089D01*
X122209611Y-93536373D01*
X123020000Y-94346762D01*
X123034142Y-94332620D01*
X123137380Y-94435858D01*
X123123238Y-94450000D01*
X123933627Y-95260389D01*
X124155911Y-95185055D01*
X124350739Y-94694408D01*
X124344385Y-94262519D01*
X125680933Y-95599067D01*
X128220931Y-98139064D01*
X128220933Y-98139067D01*
X128855931Y-98774064D01*
X128855933Y-98774067D01*
X128899235Y-98803000D01*
X120885703Y-98803000D01*
X120645222Y-98703144D01*
X120316221Y-98702857D01*
X120012154Y-98828495D01*
X119779312Y-99060930D01*
X119653144Y-99364778D01*
X119652857Y-99693779D01*
X119778495Y-99997846D01*
X120010930Y-100230688D01*
X120314778Y-100356856D01*
X120643779Y-100357143D01*
X120886143Y-100257000D01*
X137624995Y-100257000D01*
X137625000Y-100257001D01*
X137857052Y-100210842D01*
X137903211Y-100201660D01*
X138139067Y-100044067D01*
X139831134Y-98352000D01*
X142512920Y-98352000D01*
X142512857Y-98423779D01*
X142638495Y-98727846D01*
X142870930Y-98960688D01*
X143174778Y-99086856D01*
X143503779Y-99087143D01*
X143807846Y-98961505D01*
X143883000Y-98886482D01*
X143883000Y-99124297D01*
X143783144Y-99364778D01*
X143782857Y-99693779D01*
X143908495Y-99997846D01*
X144140930Y-100230688D01*
X144444778Y-100356856D01*
X144773779Y-100357143D01*
X145077846Y-100231505D01*
X145310688Y-99999070D01*
X145436856Y-99695222D01*
X145437143Y-99366221D01*
X145337000Y-99123857D01*
X145337000Y-96714824D01*
X145654842Y-96846804D01*
X146103191Y-96847195D01*
X146517560Y-96675981D01*
X146746941Y-96447000D01*
X147149995Y-96447000D01*
X147150000Y-96447001D01*
X147382052Y-96400842D01*
X147428211Y-96391660D01*
X147664067Y-96234067D01*
X147664068Y-96234066D01*
X148328000Y-95570133D01*
X148328000Y-98259995D01*
X148327999Y-98260000D01*
X148361249Y-98427154D01*
X148383340Y-98538211D01*
X148540933Y-98774067D01*
X149810931Y-100044064D01*
X149810933Y-100044067D01*
X150046789Y-100201660D01*
X150325000Y-100257000D01*
X174454995Y-100257000D01*
X174455000Y-100257001D01*
X174687052Y-100210842D01*
X174733211Y-100201660D01*
X174969067Y-100044067D01*
X174969068Y-100044066D01*
X176239064Y-98774069D01*
X176239067Y-98774067D01*
X176396660Y-98538211D01*
X176452000Y-98260000D01*
X176452000Y-90640000D01*
X176396660Y-90361789D01*
X176286509Y-90196936D01*
X176523779Y-90197143D01*
X176766143Y-90097000D01*
X178314835Y-90097000D01*
X178550537Y-90449752D01*
X178835263Y-90640000D01*
X178550537Y-90830248D01*
X178314835Y-91183000D01*
X178035703Y-91183000D01*
X177795222Y-91083144D01*
X177466221Y-91082857D01*
X177162154Y-91208495D01*
X176929312Y-91440930D01*
X176803144Y-91744778D01*
X176802857Y-92073779D01*
X176928495Y-92377846D01*
X177160930Y-92610688D01*
X177464778Y-92736856D01*
X177793779Y-92737143D01*
X178036143Y-92637000D01*
X178314835Y-92637000D01*
X178550537Y-92989752D01*
X178835263Y-93180000D01*
X178550537Y-93370248D01*
X178219525Y-93865642D01*
X178103289Y-94450000D01*
X178219525Y-95034358D01*
X178550537Y-95529752D01*
X179045931Y-95860764D01*
X179630289Y-95977000D01*
X180709711Y-95977000D01*
X181294069Y-95860764D01*
X181789463Y-95529752D01*
X182120475Y-95034358D01*
X182236711Y-94450000D01*
X182120475Y-93865642D01*
X181789463Y-93370248D01*
X181504737Y-93180000D01*
X181789463Y-92989752D01*
X182120475Y-92494358D01*
X182236711Y-91910000D01*
X182120475Y-91325642D01*
X181789463Y-90830248D01*
X181504737Y-90640000D01*
X181789463Y-90449752D01*
X182120475Y-89954358D01*
X182174908Y-89680704D01*
X185794944Y-89680704D01*
X185851300Y-89886914D01*
X186158629Y-90398133D01*
X186485648Y-90640000D01*
X186158629Y-90881867D01*
X185851300Y-91393086D01*
X185794944Y-91599296D01*
X185896661Y-91837000D01*
X187717000Y-91837000D01*
X187717000Y-89443000D01*
X185896661Y-89443000D01*
X185794944Y-89680704D01*
X182174908Y-89680704D01*
X182236711Y-89370000D01*
X182148606Y-88927064D01*
X182238779Y-88927143D01*
X182542846Y-88801505D01*
X182775688Y-88569070D01*
X182901856Y-88265222D01*
X182902143Y-87936221D01*
X182776505Y-87632154D01*
X182544070Y-87399312D01*
X182301880Y-87298746D01*
X182169753Y-87166620D01*
X182174908Y-87140704D01*
X185794944Y-87140704D01*
X185851300Y-87346914D01*
X186158629Y-87858133D01*
X186485648Y-88100000D01*
X186158629Y-88341867D01*
X185851300Y-88853086D01*
X185794944Y-89059296D01*
X185896661Y-89297000D01*
X187717000Y-89297000D01*
X187717000Y-86903000D01*
X185896661Y-86903000D01*
X185794944Y-87140704D01*
X182174908Y-87140704D01*
X182236711Y-86830000D01*
X182148606Y-86387064D01*
X182238779Y-86387143D01*
X182542846Y-86261505D01*
X182775688Y-86029070D01*
X182901856Y-85725222D01*
X182902143Y-85396221D01*
X182776505Y-85092154D01*
X182544070Y-84859312D01*
X182301880Y-84758746D01*
X182169753Y-84626620D01*
X182174908Y-84600704D01*
X185794944Y-84600704D01*
X185851300Y-84806914D01*
X186158629Y-85318133D01*
X186485648Y-85560000D01*
X186158629Y-85801867D01*
X185851300Y-86313086D01*
X185794944Y-86519296D01*
X185896661Y-86757000D01*
X187717000Y-86757000D01*
X187717000Y-84363000D01*
X185896661Y-84363000D01*
X185794944Y-84600704D01*
X182174908Y-84600704D01*
X182236711Y-84290000D01*
X182148606Y-83847064D01*
X182238779Y-83847143D01*
X182542846Y-83721505D01*
X182775688Y-83489070D01*
X182901856Y-83185222D01*
X182902143Y-82856221D01*
X182776505Y-82552154D01*
X182544070Y-82319312D01*
X182301880Y-82218746D01*
X182169753Y-82086620D01*
X182174908Y-82060704D01*
X185794944Y-82060704D01*
X185851300Y-82266914D01*
X186158629Y-82778133D01*
X186485648Y-83020000D01*
X186158629Y-83261867D01*
X185851300Y-83773086D01*
X185794944Y-83979296D01*
X185896661Y-84217000D01*
X187717000Y-84217000D01*
X187717000Y-81823000D01*
X185896661Y-81823000D01*
X185794944Y-82060704D01*
X182174908Y-82060704D01*
X182236711Y-81750000D01*
X182148606Y-81307064D01*
X182238779Y-81307143D01*
X182542846Y-81181505D01*
X182775688Y-80949070D01*
X182901856Y-80645222D01*
X182902143Y-80316221D01*
X182776505Y-80012154D01*
X182544070Y-79779312D01*
X182301880Y-79678746D01*
X182169753Y-79546620D01*
X182174908Y-79520704D01*
X185794944Y-79520704D01*
X185851300Y-79726914D01*
X186158629Y-80238133D01*
X186485648Y-80480000D01*
X186158629Y-80721867D01*
X185851300Y-81233086D01*
X185794944Y-81439296D01*
X185896661Y-81677000D01*
X187717000Y-81677000D01*
X187717000Y-79283000D01*
X185896661Y-79283000D01*
X185794944Y-79520704D01*
X182174908Y-79520704D01*
X182236711Y-79210000D01*
X182148606Y-78767064D01*
X182238779Y-78767143D01*
X182542846Y-78641505D01*
X182775688Y-78409070D01*
X182901856Y-78105222D01*
X182902143Y-77776221D01*
X182776505Y-77472154D01*
X182544070Y-77239312D01*
X182301880Y-77138746D01*
X182169753Y-77006620D01*
X182174908Y-76980704D01*
X185794944Y-76980704D01*
X185851300Y-77186914D01*
X186158629Y-77698133D01*
X186485648Y-77940000D01*
X186158629Y-78181867D01*
X185851300Y-78693086D01*
X185794944Y-78899296D01*
X185896661Y-79137000D01*
X187717000Y-79137000D01*
X187717000Y-76743000D01*
X185896661Y-76743000D01*
X185794944Y-76980704D01*
X182174908Y-76980704D01*
X182236711Y-76670000D01*
X182148606Y-76227064D01*
X182238779Y-76227143D01*
X182542846Y-76101505D01*
X182775688Y-75869070D01*
X182901856Y-75565222D01*
X182902143Y-75236221D01*
X182776505Y-74932154D01*
X182544070Y-74699312D01*
X182301880Y-74598746D01*
X182169753Y-74466620D01*
X182174908Y-74440704D01*
X185794944Y-74440704D01*
X185851300Y-74646914D01*
X186158629Y-75158133D01*
X186485648Y-75400000D01*
X186158629Y-75641867D01*
X185851300Y-76153086D01*
X185794944Y-76359296D01*
X185896661Y-76597000D01*
X187717000Y-76597000D01*
X187717000Y-74203000D01*
X185896661Y-74203000D01*
X185794944Y-74440704D01*
X182174908Y-74440704D01*
X182236711Y-74130000D01*
X182120475Y-73545642D01*
X181789463Y-73050248D01*
X181504737Y-72860000D01*
X181789463Y-72669752D01*
X182120475Y-72174358D01*
X182174908Y-71900704D01*
X185794944Y-71900704D01*
X185851300Y-72106914D01*
X186158629Y-72618133D01*
X186485648Y-72860000D01*
X186158629Y-73101867D01*
X185851300Y-73613086D01*
X185794944Y-73819296D01*
X185896661Y-74057000D01*
X187717000Y-74057000D01*
X187717000Y-71663000D01*
X185896661Y-71663000D01*
X185794944Y-71900704D01*
X182174908Y-71900704D01*
X182236711Y-71590000D01*
X182120475Y-71005642D01*
X181789463Y-70510248D01*
X181504737Y-70320000D01*
X181789463Y-70129752D01*
X182120475Y-69634358D01*
X182174908Y-69360704D01*
X185794944Y-69360704D01*
X185851300Y-69566914D01*
X186158629Y-70078133D01*
X186485648Y-70320000D01*
X186158629Y-70561867D01*
X185851300Y-71073086D01*
X185794944Y-71279296D01*
X185896661Y-71517000D01*
X187717000Y-71517000D01*
X187717000Y-69123000D01*
X185896661Y-69123000D01*
X185794944Y-69360704D01*
X182174908Y-69360704D01*
X182236711Y-69050000D01*
X182120475Y-68465642D01*
X181789463Y-67970248D01*
X181504737Y-67780000D01*
X181789463Y-67589752D01*
X182120475Y-67094358D01*
X182174908Y-66820704D01*
X185794944Y-66820704D01*
X185851300Y-67026914D01*
X186158629Y-67538133D01*
X186485648Y-67780000D01*
X186158629Y-68021867D01*
X185851300Y-68533086D01*
X185794944Y-68739296D01*
X185896661Y-68977000D01*
X187717000Y-68977000D01*
X187717000Y-66583000D01*
X185896661Y-66583000D01*
X185794944Y-66820704D01*
X182174908Y-66820704D01*
X182236711Y-66510000D01*
X182174909Y-66199296D01*
X185794944Y-66199296D01*
X185896661Y-66437000D01*
X187717000Y-66437000D01*
X187717000Y-64983000D01*
X187217000Y-64983000D01*
X186638199Y-65127172D01*
X186158629Y-65481867D01*
X185851300Y-65993086D01*
X185794944Y-66199296D01*
X182174909Y-66199296D01*
X182120475Y-65925642D01*
X181789463Y-65430248D01*
X181294069Y-65099236D01*
X180709711Y-64983000D01*
X179630289Y-64983000D01*
X179045931Y-65099236D01*
X178550537Y-65430248D01*
X178314835Y-65783000D01*
X178035703Y-65783000D01*
X177795222Y-65683144D01*
X177466221Y-65682857D01*
X177162154Y-65808495D01*
X176929312Y-66040930D01*
X176803144Y-66344778D01*
X176802857Y-66673779D01*
X176928495Y-66977846D01*
X177160930Y-67210688D01*
X177464778Y-67336856D01*
X177793779Y-67337143D01*
X178036143Y-67237000D01*
X178314835Y-67237000D01*
X178550537Y-67589752D01*
X178835263Y-67780000D01*
X178550537Y-67970248D01*
X178314835Y-68323000D01*
X178035703Y-68323000D01*
X177795222Y-68223144D01*
X177466221Y-68222857D01*
X177162154Y-68348495D01*
X176929312Y-68580930D01*
X176803144Y-68884778D01*
X176802857Y-69213779D01*
X176928495Y-69517846D01*
X177160930Y-69750688D01*
X177464778Y-69876856D01*
X177793779Y-69877143D01*
X178036143Y-69777000D01*
X178314835Y-69777000D01*
X178550537Y-70129752D01*
X178835263Y-70320000D01*
X178550537Y-70510248D01*
X178314835Y-70863000D01*
X178035703Y-70863000D01*
X177795222Y-70763144D01*
X177466221Y-70762857D01*
X177162154Y-70888495D01*
X176929312Y-71120930D01*
X176803144Y-71424778D01*
X176802857Y-71753779D01*
X176928495Y-72057846D01*
X177160930Y-72290688D01*
X177464778Y-72416856D01*
X177793779Y-72417143D01*
X178036143Y-72317000D01*
X178314835Y-72317000D01*
X178550537Y-72669752D01*
X178835263Y-72860000D01*
X178550537Y-73050248D01*
X178219525Y-73545642D01*
X178103289Y-74130000D01*
X178219525Y-74714358D01*
X178550537Y-75209752D01*
X178835263Y-75400000D01*
X178550537Y-75590248D01*
X178219525Y-76085642D01*
X178103289Y-76670000D01*
X178219525Y-77254358D01*
X178550537Y-77749752D01*
X178835263Y-77940000D01*
X178550537Y-78130248D01*
X178219525Y-78625642D01*
X178103289Y-79210000D01*
X178219525Y-79794358D01*
X178550537Y-80289752D01*
X178835263Y-80480000D01*
X178550537Y-80670248D01*
X178219525Y-81165642D01*
X178103289Y-81750000D01*
X178219525Y-82334358D01*
X178550537Y-82829752D01*
X178835263Y-83020000D01*
X178550537Y-83210248D01*
X178219525Y-83705642D01*
X178103289Y-84290000D01*
X178219525Y-84874358D01*
X178550537Y-85369752D01*
X178835263Y-85560000D01*
X178550537Y-85750248D01*
X178219525Y-86245642D01*
X178103289Y-86830000D01*
X178219525Y-87414358D01*
X178550537Y-87909752D01*
X178835263Y-88100000D01*
X178550537Y-88290248D01*
X178314835Y-88643000D01*
X176765703Y-88643000D01*
X176525222Y-88543144D01*
X176196221Y-88542857D01*
X175892154Y-88668495D01*
X175659312Y-88900930D01*
X175533144Y-89204778D01*
X175532956Y-89419823D01*
X173912000Y-87798866D01*
X173912000Y-65875000D01*
X173856660Y-65596789D01*
X173699067Y-65360933D01*
X173699064Y-65360931D01*
X164998838Y-56660704D01*
X167514944Y-56660704D01*
X167571300Y-56866914D01*
X167878629Y-57378133D01*
X168358199Y-57732828D01*
X168937000Y-57877000D01*
X169937000Y-57877000D01*
X169937000Y-56423000D01*
X170083000Y-56423000D01*
X170083000Y-57877000D01*
X171083000Y-57877000D01*
X171661801Y-57732828D01*
X172141371Y-57378133D01*
X172448700Y-56866914D01*
X172505056Y-56660704D01*
X172442185Y-56513779D01*
X176802857Y-56513779D01*
X176928495Y-56817846D01*
X177160930Y-57050688D01*
X177464778Y-57176856D01*
X177793779Y-57177143D01*
X178036143Y-57077000D01*
X178314835Y-57077000D01*
X178550537Y-57429752D01*
X178835263Y-57620000D01*
X178550537Y-57810248D01*
X178314835Y-58163000D01*
X178035703Y-58163000D01*
X177795222Y-58063144D01*
X177466221Y-58062857D01*
X177162154Y-58188495D01*
X176929312Y-58420930D01*
X176803144Y-58724778D01*
X176802857Y-59053779D01*
X176928495Y-59357846D01*
X177160930Y-59590688D01*
X177464778Y-59716856D01*
X177793779Y-59717143D01*
X178036143Y-59617000D01*
X178314835Y-59617000D01*
X178550537Y-59969752D01*
X178835263Y-60160000D01*
X178550537Y-60350248D01*
X178314835Y-60703000D01*
X178035703Y-60703000D01*
X177795222Y-60603144D01*
X177466221Y-60602857D01*
X177162154Y-60728495D01*
X176929312Y-60960930D01*
X176803144Y-61264778D01*
X176802857Y-61593779D01*
X176928495Y-61897846D01*
X177160930Y-62130688D01*
X177464778Y-62256856D01*
X177793779Y-62257143D01*
X178036143Y-62157000D01*
X178314835Y-62157000D01*
X178550537Y-62509752D01*
X179045931Y-62840764D01*
X179630289Y-62957000D01*
X180709711Y-62957000D01*
X181294069Y-62840764D01*
X181789463Y-62509752D01*
X182120475Y-62014358D01*
X182174908Y-61740704D01*
X185794944Y-61740704D01*
X185851300Y-61946914D01*
X186158629Y-62458133D01*
X186638199Y-62812828D01*
X187217000Y-62957000D01*
X187717000Y-62957000D01*
X187717000Y-61503000D01*
X185896661Y-61503000D01*
X185794944Y-61740704D01*
X182174908Y-61740704D01*
X182236711Y-61430000D01*
X182120475Y-60845642D01*
X181789463Y-60350248D01*
X181504737Y-60160000D01*
X181789463Y-59969752D01*
X182120475Y-59474358D01*
X182174908Y-59200704D01*
X185794944Y-59200704D01*
X185851300Y-59406914D01*
X186158629Y-59918133D01*
X186485648Y-60160000D01*
X186158629Y-60401867D01*
X185851300Y-60913086D01*
X185794944Y-61119296D01*
X185896661Y-61357000D01*
X187717000Y-61357000D01*
X187717000Y-58963000D01*
X185896661Y-58963000D01*
X185794944Y-59200704D01*
X182174908Y-59200704D01*
X182236711Y-58890000D01*
X182120475Y-58305642D01*
X181789463Y-57810248D01*
X181504737Y-57620000D01*
X181789463Y-57429752D01*
X182120475Y-56934358D01*
X182174908Y-56660704D01*
X185794944Y-56660704D01*
X185851300Y-56866914D01*
X186158629Y-57378133D01*
X186485648Y-57620000D01*
X186158629Y-57861867D01*
X185851300Y-58373086D01*
X185794944Y-58579296D01*
X185896661Y-58817000D01*
X187717000Y-58817000D01*
X187717000Y-56423000D01*
X185896661Y-56423000D01*
X185794944Y-56660704D01*
X182174908Y-56660704D01*
X182236711Y-56350000D01*
X182174909Y-56039296D01*
X185794944Y-56039296D01*
X185896661Y-56277000D01*
X187717000Y-56277000D01*
X187717000Y-54823000D01*
X187217000Y-54823000D01*
X186638199Y-54967172D01*
X186158629Y-55321867D01*
X185851300Y-55833086D01*
X185794944Y-56039296D01*
X182174909Y-56039296D01*
X182120475Y-55765642D01*
X181789463Y-55270248D01*
X181294069Y-54939236D01*
X180709711Y-54823000D01*
X179630289Y-54823000D01*
X179045931Y-54939236D01*
X178550537Y-55270248D01*
X178314835Y-55623000D01*
X178035703Y-55623000D01*
X177795222Y-55523144D01*
X177466221Y-55522857D01*
X177162154Y-55648495D01*
X176929312Y-55880930D01*
X176803144Y-56184778D01*
X176802857Y-56513779D01*
X172442185Y-56513779D01*
X172403339Y-56423000D01*
X170083000Y-56423000D01*
X169937000Y-56423000D01*
X167616661Y-56423000D01*
X167514944Y-56660704D01*
X164998838Y-56660704D01*
X162904067Y-54565933D01*
X162798868Y-54495642D01*
X162668211Y-54408340D01*
X162622052Y-54399158D01*
X162390000Y-54352999D01*
X162389995Y-54353000D01*
X157238498Y-54353000D01*
X157284704Y-54120704D01*
X167514944Y-54120704D01*
X167571300Y-54326914D01*
X167878629Y-54838133D01*
X168205648Y-55080000D01*
X167878629Y-55321867D01*
X167571300Y-55833086D01*
X167514944Y-56039296D01*
X167616661Y-56277000D01*
X169937000Y-56277000D01*
X169937000Y-53883000D01*
X170083000Y-53883000D01*
X170083000Y-56277000D01*
X172403339Y-56277000D01*
X172505056Y-56039296D01*
X172448700Y-55833086D01*
X172141371Y-55321867D01*
X171814352Y-55080000D01*
X172141371Y-54838133D01*
X172448700Y-54326914D01*
X172505056Y-54120704D01*
X172403339Y-53883000D01*
X170083000Y-53883000D01*
X169937000Y-53883000D01*
X167616661Y-53883000D01*
X167514944Y-54120704D01*
X157284704Y-54120704D01*
X157346507Y-53810000D01*
X157284705Y-53499296D01*
X167514944Y-53499296D01*
X167616661Y-53737000D01*
X169937000Y-53737000D01*
X169937000Y-52283000D01*
X170083000Y-52283000D01*
X170083000Y-53737000D01*
X172403339Y-53737000D01*
X172505056Y-53499296D01*
X172448700Y-53293086D01*
X172141371Y-52781867D01*
X171661801Y-52427172D01*
X171083000Y-52283000D01*
X170083000Y-52283000D01*
X169937000Y-52283000D01*
X168937000Y-52283000D01*
X168358199Y-52427172D01*
X167878629Y-52781867D01*
X167571300Y-53293086D01*
X167514944Y-53499296D01*
X157284705Y-53499296D01*
X157230271Y-53225642D01*
X156899259Y-52730248D01*
X156403865Y-52399236D01*
X155819507Y-52283000D01*
X153720493Y-52283000D01*
X153136135Y-52399236D01*
X152640741Y-52730248D01*
X152309729Y-53225642D01*
X152193493Y-53810000D01*
X152309729Y-54394358D01*
X152640741Y-54889752D01*
X152925467Y-55080000D01*
X152640741Y-55270248D01*
X152309729Y-55765642D01*
X152193493Y-56350000D01*
X152309729Y-56934358D01*
X152640741Y-57429752D01*
X152787779Y-57528000D01*
X148721133Y-57528000D01*
X147664067Y-56470933D01*
X147428211Y-56313340D01*
X147382052Y-56304158D01*
X147150000Y-56257999D01*
X147149995Y-56258000D01*
X143110703Y-56258000D01*
X142870222Y-56158144D01*
X142541221Y-56157857D01*
X142237154Y-56283495D01*
X142004312Y-56515930D01*
X141878144Y-56819778D01*
X141877857Y-57148779D01*
X142003495Y-57452846D01*
X142170445Y-57620088D01*
X142004312Y-57785930D01*
X141878144Y-58089778D01*
X141877857Y-58418779D01*
X142003495Y-58722846D01*
X142212172Y-58931889D01*
X142143000Y-58966753D01*
X142143000Y-60087000D01*
X143263019Y-60087000D01*
X143367258Y-59880624D01*
X143184853Y-59440244D01*
X142837844Y-59082116D01*
X142868779Y-59082143D01*
X143111143Y-58982000D01*
X146213866Y-58982000D01*
X146378609Y-59146743D01*
X146105158Y-59033196D01*
X145656809Y-59032805D01*
X145242440Y-59204019D01*
X144925133Y-59520772D01*
X144753196Y-59934842D01*
X144752805Y-60383191D01*
X144924019Y-60797560D01*
X145240772Y-61114867D01*
X145654842Y-61286804D01*
X146103191Y-61287195D01*
X146517560Y-61115981D01*
X146834867Y-60799228D01*
X147006804Y-60385158D01*
X147007195Y-59936809D01*
X146893491Y-59661624D01*
X147270931Y-60039064D01*
X147270933Y-60039067D01*
X147506789Y-60196660D01*
X147785000Y-60252000D01*
X162723866Y-60252000D01*
X165685933Y-63214067D01*
X169918000Y-67446133D01*
X169918000Y-90973867D01*
X164628866Y-96263000D01*
X155027000Y-96263000D01*
X155027000Y-95940493D01*
X154910764Y-95356135D01*
X154579752Y-94860741D01*
X154084358Y-94529729D01*
X153500000Y-94413493D01*
X152915642Y-94529729D01*
X152420248Y-94860741D01*
X152230000Y-95145467D01*
X152039752Y-94860741D01*
X151544358Y-94529729D01*
X150960000Y-94413493D01*
X150375642Y-94529729D01*
X149880248Y-94860741D01*
X149782000Y-95007779D01*
X149782000Y-94116134D01*
X149917192Y-93980941D01*
X150157846Y-93881505D01*
X150390688Y-93649070D01*
X150516856Y-93345222D01*
X150517143Y-93016221D01*
X150391505Y-92712154D01*
X150159070Y-92479312D01*
X149855222Y-92353144D01*
X149526221Y-92352857D01*
X149222154Y-92478495D01*
X149147000Y-92553518D01*
X149147000Y-90640000D01*
X149091660Y-90361789D01*
X148934067Y-90125933D01*
X148934064Y-90125931D01*
X147664067Y-88855933D01*
X147596073Y-88810501D01*
X147617846Y-88801505D01*
X147850688Y-88569070D01*
X147976856Y-88265222D01*
X147977143Y-87936221D01*
X147851505Y-87632154D01*
X147619070Y-87399312D01*
X147315222Y-87273144D01*
X146986221Y-87272857D01*
X146745868Y-87372169D01*
X146519228Y-87145133D01*
X146105158Y-86973196D01*
X145656809Y-86972805D01*
X145242440Y-87144019D01*
X144925133Y-87460772D01*
X144760466Y-87857333D01*
X144702000Y-87798866D01*
X144702000Y-85783191D01*
X144752805Y-85783191D01*
X144924019Y-86197560D01*
X145240772Y-86514867D01*
X145654842Y-86686804D01*
X146103191Y-86687195D01*
X146517560Y-86515981D01*
X146746165Y-86287776D01*
X146984778Y-86386856D01*
X147313779Y-86387143D01*
X147617846Y-86261505D01*
X147850688Y-86029070D01*
X147976856Y-85725222D01*
X147976857Y-85723779D01*
X149497857Y-85723779D01*
X149623495Y-86027846D01*
X149855930Y-86260688D01*
X150159778Y-86386856D01*
X150488779Y-86387143D01*
X150731143Y-86287000D01*
X157539297Y-86287000D01*
X157779778Y-86386856D01*
X158108779Y-86387143D01*
X158412846Y-86261505D01*
X158645688Y-86029070D01*
X158771856Y-85725222D01*
X158772143Y-85396221D01*
X158646505Y-85092154D01*
X158414070Y-84859312D01*
X158110222Y-84733144D01*
X157781221Y-84732857D01*
X157538857Y-84833000D01*
X150730703Y-84833000D01*
X150490222Y-84733144D01*
X150161221Y-84732857D01*
X149857154Y-84858495D01*
X149624312Y-85090930D01*
X149498144Y-85394778D01*
X149497857Y-85723779D01*
X147976857Y-85723779D01*
X147977143Y-85396221D01*
X147851505Y-85092154D01*
X147619070Y-84859312D01*
X147315222Y-84733144D01*
X146986221Y-84732857D01*
X146745868Y-84832169D01*
X146519228Y-84605133D01*
X146105158Y-84433196D01*
X145656809Y-84432805D01*
X145242440Y-84604019D01*
X144925133Y-84920772D01*
X144753196Y-85334842D01*
X144752805Y-85783191D01*
X144702000Y-85783191D01*
X144702000Y-82686134D01*
X144866743Y-82521391D01*
X144753196Y-82794842D01*
X144752805Y-83243191D01*
X144924019Y-83657560D01*
X145240772Y-83974867D01*
X145654842Y-84146804D01*
X146103191Y-84147195D01*
X146517560Y-83975981D01*
X146746165Y-83747776D01*
X146984778Y-83846856D01*
X147313779Y-83847143D01*
X147617846Y-83721505D01*
X147850688Y-83489070D01*
X147976856Y-83185222D01*
X147976857Y-83183779D01*
X148227857Y-83183779D01*
X148353495Y-83487846D01*
X148585930Y-83720688D01*
X148889778Y-83846856D01*
X149218779Y-83847143D01*
X149461143Y-83747000D01*
X157539297Y-83747000D01*
X157779778Y-83846856D01*
X158108779Y-83847143D01*
X158412846Y-83721505D01*
X158645688Y-83489070D01*
X158771856Y-83185222D01*
X158772143Y-82856221D01*
X158646505Y-82552154D01*
X158414070Y-82319312D01*
X158110222Y-82193144D01*
X157781221Y-82192857D01*
X157538857Y-82293000D01*
X149460703Y-82293000D01*
X149220222Y-82193144D01*
X148891221Y-82192857D01*
X148587154Y-82318495D01*
X148354312Y-82550930D01*
X148228144Y-82854778D01*
X148227857Y-83183779D01*
X147976857Y-83183779D01*
X147977143Y-82856221D01*
X147851505Y-82552154D01*
X147619070Y-82319312D01*
X147315222Y-82193144D01*
X146986221Y-82192857D01*
X146745868Y-82292169D01*
X146519228Y-82065133D01*
X146105158Y-81893196D01*
X145656809Y-81892805D01*
X145246865Y-82062191D01*
X145280558Y-81892805D01*
X145302003Y-81784998D01*
X145302002Y-81784993D01*
X145302002Y-81460292D01*
X145654842Y-81606804D01*
X146103191Y-81607195D01*
X146517560Y-81435981D01*
X146834867Y-81119228D01*
X146994982Y-80733628D01*
X147083495Y-80947846D01*
X147315930Y-81180688D01*
X147619778Y-81306856D01*
X147948779Y-81307143D01*
X148191143Y-81207000D01*
X157539297Y-81207000D01*
X157779778Y-81306856D01*
X158108779Y-81307143D01*
X158412846Y-81181505D01*
X158645688Y-80949070D01*
X158771856Y-80645222D01*
X158772143Y-80316221D01*
X158646505Y-80012154D01*
X158414070Y-79779312D01*
X158110222Y-79653144D01*
X157781221Y-79652857D01*
X157538857Y-79753000D01*
X148190703Y-79753000D01*
X147950222Y-79653144D01*
X147861485Y-79653067D01*
X147976856Y-79375222D01*
X147977143Y-79046221D01*
X147851505Y-78742154D01*
X147619070Y-78509312D01*
X147315222Y-78383144D01*
X146986221Y-78382857D01*
X146901949Y-78417678D01*
X147006804Y-78165158D01*
X147007087Y-77841047D01*
X147377192Y-77470941D01*
X147617846Y-77371505D01*
X147850688Y-77139070D01*
X147976856Y-76835222D01*
X147977143Y-76506221D01*
X147851505Y-76202154D01*
X147619070Y-75969312D01*
X147315222Y-75843144D01*
X146986221Y-75842857D01*
X146901949Y-75877678D01*
X147006804Y-75625158D01*
X147007087Y-75301047D01*
X147377192Y-74930941D01*
X147617846Y-74831505D01*
X147850688Y-74599070D01*
X147976856Y-74295222D01*
X147977143Y-73966221D01*
X147851505Y-73662154D01*
X147619070Y-73429312D01*
X147315222Y-73303144D01*
X146986221Y-73302857D01*
X146901949Y-73337678D01*
X147006804Y-73085158D01*
X147007195Y-72636809D01*
X146835981Y-72222440D01*
X146519228Y-71905133D01*
X146105158Y-71733196D01*
X145656809Y-71732805D01*
X145302002Y-71879408D01*
X145302002Y-71300292D01*
X145654842Y-71446804D01*
X146103191Y-71447195D01*
X146517560Y-71275981D01*
X146834867Y-70959228D01*
X147006804Y-70545158D01*
X147007195Y-70096809D01*
X146835981Y-69682440D01*
X146519228Y-69365133D01*
X146105158Y-69193196D01*
X145656809Y-69192805D01*
X145302002Y-69339408D01*
X145302002Y-68760292D01*
X145654842Y-68906804D01*
X146103191Y-68907195D01*
X146517560Y-68735981D01*
X146746941Y-68507000D01*
X148649297Y-68507000D01*
X148889778Y-68606856D01*
X149218779Y-68607143D01*
X149461143Y-68507000D01*
X157539297Y-68507000D01*
X157718120Y-68581253D01*
X158488000Y-69351133D01*
X158488000Y-69914297D01*
X158388144Y-70154778D01*
X158387857Y-70483779D01*
X158488000Y-70726143D01*
X158488000Y-72454297D01*
X158388144Y-72694778D01*
X158387857Y-73023779D01*
X158488000Y-73266143D01*
X158488000Y-74994297D01*
X158388144Y-75234778D01*
X158387857Y-75563779D01*
X158513495Y-75867846D01*
X158745930Y-76100688D01*
X159049778Y-76226856D01*
X159378779Y-76227143D01*
X159682846Y-76101505D01*
X159915688Y-75869070D01*
X160041856Y-75565222D01*
X160042143Y-75236221D01*
X159942000Y-74993857D01*
X159942000Y-73265703D01*
X160041856Y-73025222D01*
X160042143Y-72696221D01*
X159942000Y-72453857D01*
X159942000Y-70725703D01*
X160041856Y-70485222D01*
X160042143Y-70156221D01*
X159942000Y-69913857D01*
X159942000Y-69050000D01*
X159886660Y-68771789D01*
X159729067Y-68535933D01*
X159729064Y-68535931D01*
X158973134Y-67780000D01*
X159729064Y-67024069D01*
X159729067Y-67024067D01*
X159886660Y-66788211D01*
X159942000Y-66510000D01*
X159942000Y-65645703D01*
X160041856Y-65405222D01*
X160042143Y-65076221D01*
X159942000Y-64833857D01*
X159942000Y-63105703D01*
X160041856Y-62865222D01*
X160042143Y-62536221D01*
X159916505Y-62232154D01*
X159684070Y-61999312D01*
X159380222Y-61873144D01*
X159051221Y-61872857D01*
X158747154Y-61998495D01*
X158514312Y-62230930D01*
X158388144Y-62534778D01*
X158387857Y-62863779D01*
X158488000Y-63106143D01*
X158488000Y-64834297D01*
X158388144Y-65074778D01*
X158387857Y-65403779D01*
X158488000Y-65646143D01*
X158488000Y-66208867D01*
X157717807Y-66979059D01*
X157538857Y-67053000D01*
X149460703Y-67053000D01*
X149220222Y-66953144D01*
X148891221Y-66952857D01*
X148648857Y-67053000D01*
X146985765Y-67053000D01*
X147029067Y-67024067D01*
X147029068Y-67024066D01*
X147664064Y-66389069D01*
X147664067Y-66389067D01*
X147821660Y-66153211D01*
X147843751Y-66042154D01*
X147877001Y-65875000D01*
X147877000Y-65874995D01*
X147877000Y-64605005D01*
X147877001Y-64605000D01*
X147821660Y-64326790D01*
X147821660Y-64326789D01*
X147664067Y-64090933D01*
X147664064Y-64090931D01*
X147029067Y-63455933D01*
X146947609Y-63401505D01*
X146827050Y-63320951D01*
X146850655Y-63314989D01*
X147012115Y-62896723D01*
X147001220Y-62448507D01*
X146850655Y-62085011D01*
X146649125Y-62034113D01*
X145983238Y-62700000D01*
X145997380Y-62714142D01*
X145894142Y-62817380D01*
X145880000Y-62803238D01*
X145865858Y-62817380D01*
X145762620Y-62714142D01*
X145776762Y-62700000D01*
X145110875Y-62034113D01*
X144909345Y-62085011D01*
X144747885Y-62503277D01*
X144758780Y-62951493D01*
X144909345Y-63314989D01*
X144932950Y-63320951D01*
X144730933Y-63455933D01*
X144730931Y-63455936D01*
X143344002Y-64842865D01*
X143321985Y-64732179D01*
X143034328Y-64301669D01*
X142603818Y-64014012D01*
X142382555Y-63970000D01*
X142603818Y-63925988D01*
X143034328Y-63638331D01*
X143321985Y-63207821D01*
X143422997Y-62700000D01*
X143321985Y-62192179D01*
X143147388Y-61930875D01*
X145214113Y-61930875D01*
X145880000Y-62596762D01*
X146545887Y-61930875D01*
X146494989Y-61729345D01*
X146076723Y-61567885D01*
X145628507Y-61578780D01*
X145265011Y-61729345D01*
X145214113Y-61930875D01*
X143147388Y-61930875D01*
X143034328Y-61761669D01*
X142603818Y-61474012D01*
X142402981Y-61434063D01*
X142824551Y-61251603D01*
X143184853Y-60879756D01*
X143367258Y-60439376D01*
X143263019Y-60233000D01*
X142143000Y-60233000D01*
X142143000Y-60253000D01*
X141997000Y-60253000D01*
X141997000Y-60233000D01*
X140876981Y-60233000D01*
X140794477Y-60396344D01*
X140278758Y-59880624D01*
X140772742Y-59880624D01*
X140876981Y-60087000D01*
X141997000Y-60087000D01*
X141997000Y-58966753D01*
X141790624Y-58862736D01*
X141315449Y-59068397D01*
X140955147Y-59440244D01*
X140772742Y-59880624D01*
X140278758Y-59880624D01*
X140257000Y-59858866D01*
X140257000Y-55301134D01*
X140471350Y-55086784D01*
X140972897Y-55087221D01*
X141442417Y-54893219D01*
X141801957Y-54534307D01*
X141996778Y-54065125D01*
X141997148Y-53640986D01*
X143567192Y-52070941D01*
X143807846Y-51971505D01*
X144040688Y-51739070D01*
X144166856Y-51435222D01*
X144167143Y-51106221D01*
X144041505Y-50802154D01*
X143841701Y-50602000D01*
X187940707Y-50602000D01*
X188530479Y-50719313D01*
G36*
X102632676Y-81280000D02*
X102669423Y-81475294D01*
X102784842Y-81654660D01*
X102960951Y-81774990D01*
X103170000Y-81817324D01*
X104770000Y-81817324D01*
X104965294Y-81780577D01*
X105144660Y-81665158D01*
X105148000Y-81660270D01*
X105148000Y-82718867D01*
X101550933Y-86315933D01*
X101393340Y-86551789D01*
X101393340Y-86551790D01*
X101337999Y-86830000D01*
X101338000Y-86830005D01*
X101338000Y-91274995D01*
X101337999Y-91275000D01*
X101371249Y-91442154D01*
X101393340Y-91553211D01*
X101536057Y-91766804D01*
X101550933Y-91789067D01*
X102185931Y-92424064D01*
X102185933Y-92424067D01*
X102421789Y-92581660D01*
X102467948Y-92590842D01*
X102700000Y-92637001D01*
X102700005Y-92637000D01*
X102741521Y-92637000D01*
X102718015Y-92672179D01*
X102617003Y-93180000D01*
X102718015Y-93687821D01*
X103005672Y-94118331D01*
X103436182Y-94405988D01*
X103657445Y-94450000D01*
X103436182Y-94494012D01*
X103005672Y-94781669D01*
X102718015Y-95212179D01*
X102617003Y-95720000D01*
X102718015Y-96227821D01*
X103005672Y-96658331D01*
X103436182Y-96945988D01*
X103944003Y-97047000D01*
X103995997Y-97047000D01*
X104503818Y-96945988D01*
X104513000Y-96939853D01*
X104513000Y-97624995D01*
X104512999Y-97625000D01*
X104546249Y-97792154D01*
X104568340Y-97903211D01*
X104702548Y-98104069D01*
X104725933Y-98139067D01*
X104754866Y-98168000D01*
X104271133Y-98168000D01*
X99283134Y-93180000D01*
X100039064Y-92424069D01*
X100039067Y-92424067D01*
X100196660Y-92188211D01*
X100252000Y-91910000D01*
X100252000Y-84695703D01*
X100351856Y-84455222D01*
X100352143Y-84126221D01*
X100226505Y-83822154D01*
X99994070Y-83589312D01*
X99690222Y-83463144D01*
X99361221Y-83462857D01*
X99057154Y-83588495D01*
X98824312Y-83820930D01*
X98698144Y-84124778D01*
X98697857Y-84453779D01*
X98798000Y-84696143D01*
X98798000Y-91608867D01*
X97953866Y-92453000D01*
X97455535Y-92453000D01*
X97314328Y-92241669D01*
X96883818Y-91954012D01*
X96682981Y-91914063D01*
X97104551Y-91731603D01*
X97464853Y-91359756D01*
X97647258Y-90919376D01*
X97543019Y-90713000D01*
X96423000Y-90713000D01*
X96423000Y-90733000D01*
X96277000Y-90733000D01*
X96277000Y-90713000D01*
X96257000Y-90713000D01*
X96257000Y-90567000D01*
X96277000Y-90567000D01*
X96277000Y-90547000D01*
X96423000Y-90547000D01*
X96423000Y-90567000D01*
X97543019Y-90567000D01*
X97647258Y-90360624D01*
X97464853Y-89920244D01*
X97104551Y-89548397D01*
X96847919Y-89437324D01*
X97150000Y-89437324D01*
X97345294Y-89400577D01*
X97524660Y-89285158D01*
X97644990Y-89109049D01*
X97687324Y-88900000D01*
X97687324Y-87300000D01*
X97650577Y-87104706D01*
X97535158Y-86925340D01*
X97359049Y-86805010D01*
X97150000Y-86762676D01*
X97077000Y-86762676D01*
X97077000Y-85226134D01*
X101022192Y-81280941D01*
X101201143Y-81207000D01*
X102632676Y-81207000D01*
X102632676Y-81280000D01*
X102632676Y-81280000D01*
G37*
X102632676Y-81280000D02*
X102669423Y-81475294D01*
X102784842Y-81654660D01*
X102960951Y-81774990D01*
X103170000Y-81817324D01*
X104770000Y-81817324D01*
X104965294Y-81780577D01*
X105144660Y-81665158D01*
X105148000Y-81660270D01*
X105148000Y-82718867D01*
X101550933Y-86315933D01*
X101393340Y-86551789D01*
X101393340Y-86551790D01*
X101337999Y-86830000D01*
X101338000Y-86830005D01*
X101338000Y-91274995D01*
X101337999Y-91275000D01*
X101371249Y-91442154D01*
X101393340Y-91553211D01*
X101536057Y-91766804D01*
X101550933Y-91789067D01*
X102185931Y-92424064D01*
X102185933Y-92424067D01*
X102421789Y-92581660D01*
X102467948Y-92590842D01*
X102700000Y-92637001D01*
X102700005Y-92637000D01*
X102741521Y-92637000D01*
X102718015Y-92672179D01*
X102617003Y-93180000D01*
X102718015Y-93687821D01*
X103005672Y-94118331D01*
X103436182Y-94405988D01*
X103657445Y-94450000D01*
X103436182Y-94494012D01*
X103005672Y-94781669D01*
X102718015Y-95212179D01*
X102617003Y-95720000D01*
X102718015Y-96227821D01*
X103005672Y-96658331D01*
X103436182Y-96945988D01*
X103944003Y-97047000D01*
X103995997Y-97047000D01*
X104503818Y-96945988D01*
X104513000Y-96939853D01*
X104513000Y-97624995D01*
X104512999Y-97625000D01*
X104546249Y-97792154D01*
X104568340Y-97903211D01*
X104702548Y-98104069D01*
X104725933Y-98139067D01*
X104754866Y-98168000D01*
X104271133Y-98168000D01*
X99283134Y-93180000D01*
X100039064Y-92424069D01*
X100039067Y-92424067D01*
X100196660Y-92188211D01*
X100252000Y-91910000D01*
X100252000Y-84695703D01*
X100351856Y-84455222D01*
X100352143Y-84126221D01*
X100226505Y-83822154D01*
X99994070Y-83589312D01*
X99690222Y-83463144D01*
X99361221Y-83462857D01*
X99057154Y-83588495D01*
X98824312Y-83820930D01*
X98698144Y-84124778D01*
X98697857Y-84453779D01*
X98798000Y-84696143D01*
X98798000Y-91608867D01*
X97953866Y-92453000D01*
X97455535Y-92453000D01*
X97314328Y-92241669D01*
X96883818Y-91954012D01*
X96682981Y-91914063D01*
X97104551Y-91731603D01*
X97464853Y-91359756D01*
X97647258Y-90919376D01*
X97543019Y-90713000D01*
X96423000Y-90713000D01*
X96423000Y-90733000D01*
X96277000Y-90733000D01*
X96277000Y-90713000D01*
X96257000Y-90713000D01*
X96257000Y-90567000D01*
X96277000Y-90567000D01*
X96277000Y-90547000D01*
X96423000Y-90547000D01*
X96423000Y-90567000D01*
X97543019Y-90567000D01*
X97647258Y-90360624D01*
X97464853Y-89920244D01*
X97104551Y-89548397D01*
X96847919Y-89437324D01*
X97150000Y-89437324D01*
X97345294Y-89400577D01*
X97524660Y-89285158D01*
X97644990Y-89109049D01*
X97687324Y-88900000D01*
X97687324Y-87300000D01*
X97650577Y-87104706D01*
X97535158Y-86925340D01*
X97359049Y-86805010D01*
X97150000Y-86762676D01*
X97077000Y-86762676D01*
X97077000Y-85226134D01*
X101022192Y-81280941D01*
X101201143Y-81207000D01*
X102632676Y-81207000D01*
X102632676Y-81280000D01*
G36*
X112767999Y-88735000D02*
X112768000Y-88735005D01*
X112768000Y-90973867D01*
X109170933Y-94570933D01*
X109013340Y-94806789D01*
X109013340Y-94806790D01*
X108957999Y-95085000D01*
X108958000Y-95085005D01*
X108958000Y-97323867D01*
X108748866Y-97533000D01*
X106176133Y-97533000D01*
X105967000Y-97323866D01*
X105967000Y-94920765D01*
X105995932Y-94964066D01*
X105995933Y-94964067D01*
X106653086Y-95621219D01*
X106652805Y-95943191D01*
X106824019Y-96357560D01*
X107140772Y-96674867D01*
X107554842Y-96846804D01*
X108003191Y-96847195D01*
X108417560Y-96675981D01*
X108734867Y-96359228D01*
X108906804Y-95945158D01*
X108907195Y-95496809D01*
X108735981Y-95082440D01*
X108419228Y-94765133D01*
X108005158Y-94593196D01*
X107681047Y-94592913D01*
X107281391Y-94193257D01*
X107554842Y-94306804D01*
X108003191Y-94307195D01*
X108417560Y-94135981D01*
X108734867Y-93819228D01*
X108906804Y-93405158D01*
X108907195Y-92956809D01*
X108735981Y-92542440D01*
X108419228Y-92225133D01*
X108005158Y-92053196D01*
X107556809Y-92052805D01*
X107142440Y-92224019D01*
X106862051Y-92503918D01*
X105754067Y-91395933D01*
X105648868Y-91325642D01*
X105518211Y-91238340D01*
X105472052Y-91229158D01*
X105240000Y-91182999D01*
X105239995Y-91183000D01*
X105198479Y-91183000D01*
X105221985Y-91147821D01*
X105322997Y-90640000D01*
X105269099Y-90369035D01*
X105541133Y-90097000D01*
X106785176Y-90097000D01*
X106653196Y-90414842D01*
X106652805Y-90863191D01*
X106824019Y-91277560D01*
X107140772Y-91594867D01*
X107554842Y-91766804D01*
X108003191Y-91767195D01*
X108417560Y-91595981D01*
X108734867Y-91279228D01*
X108906804Y-90865158D01*
X108907195Y-90416809D01*
X108775052Y-90097000D01*
X110954995Y-90097000D01*
X110955000Y-90097001D01*
X111187052Y-90050842D01*
X111233211Y-90041660D01*
X111469067Y-89884067D01*
X111469068Y-89884066D01*
X112805212Y-88547921D01*
X112767999Y-88735000D01*
X112767999Y-88735000D01*
G37*
X112767999Y-88735000D02*
X112768000Y-88735005D01*
X112768000Y-90973867D01*
X109170933Y-94570933D01*
X109013340Y-94806789D01*
X109013340Y-94806790D01*
X108957999Y-95085000D01*
X108958000Y-95085005D01*
X108958000Y-97323867D01*
X108748866Y-97533000D01*
X106176133Y-97533000D01*
X105967000Y-97323866D01*
X105967000Y-94920765D01*
X105995932Y-94964066D01*
X105995933Y-94964067D01*
X106653086Y-95621219D01*
X106652805Y-95943191D01*
X106824019Y-96357560D01*
X107140772Y-96674867D01*
X107554842Y-96846804D01*
X108003191Y-96847195D01*
X108417560Y-96675981D01*
X108734867Y-96359228D01*
X108906804Y-95945158D01*
X108907195Y-95496809D01*
X108735981Y-95082440D01*
X108419228Y-94765133D01*
X108005158Y-94593196D01*
X107681047Y-94592913D01*
X107281391Y-94193257D01*
X107554842Y-94306804D01*
X108003191Y-94307195D01*
X108417560Y-94135981D01*
X108734867Y-93819228D01*
X108906804Y-93405158D01*
X108907195Y-92956809D01*
X108735981Y-92542440D01*
X108419228Y-92225133D01*
X108005158Y-92053196D01*
X107556809Y-92052805D01*
X107142440Y-92224019D01*
X106862051Y-92503918D01*
X105754067Y-91395933D01*
X105648868Y-91325642D01*
X105518211Y-91238340D01*
X105472052Y-91229158D01*
X105240000Y-91182999D01*
X105239995Y-91183000D01*
X105198479Y-91183000D01*
X105221985Y-91147821D01*
X105322997Y-90640000D01*
X105269099Y-90369035D01*
X105541133Y-90097000D01*
X106785176Y-90097000D01*
X106653196Y-90414842D01*
X106652805Y-90863191D01*
X106824019Y-91277560D01*
X107140772Y-91594867D01*
X107554842Y-91766804D01*
X108003191Y-91767195D01*
X108417560Y-91595981D01*
X108734867Y-91279228D01*
X108906804Y-90865158D01*
X108907195Y-90416809D01*
X108775052Y-90097000D01*
X110954995Y-90097000D01*
X110955000Y-90097001D01*
X111187052Y-90050842D01*
X111233211Y-90041660D01*
X111469067Y-89884067D01*
X111469068Y-89884066D01*
X112805212Y-88547921D01*
X112767999Y-88735000D01*
G36*
X133112676Y-87790810D02*
X133112676Y-88900000D01*
X133149423Y-89095294D01*
X133264842Y-89274660D01*
X133440951Y-89394990D01*
X133650000Y-89437324D01*
X133952081Y-89437324D01*
X133695449Y-89548397D01*
X133335147Y-89920244D01*
X133152742Y-90360624D01*
X133256981Y-90567000D01*
X134377000Y-90567000D01*
X134377000Y-90547000D01*
X134523000Y-90547000D01*
X134523000Y-90567000D01*
X134543000Y-90567000D01*
X134543000Y-90713000D01*
X134523000Y-90713000D01*
X134523000Y-90733000D01*
X134377000Y-90733000D01*
X134377000Y-90713000D01*
X133256981Y-90713000D01*
X133152742Y-90919376D01*
X133335147Y-91359756D01*
X133695449Y-91731603D01*
X134117019Y-91914063D01*
X133916182Y-91954012D01*
X133485672Y-92241669D01*
X133198015Y-92672179D01*
X133174011Y-92792856D01*
X132637000Y-93329866D01*
X132637000Y-87315134D01*
X133112676Y-87790810D01*
X133112676Y-87790810D01*
G37*
X133112676Y-87790810D02*
X133112676Y-88900000D01*
X133149423Y-89095294D01*
X133264842Y-89274660D01*
X133440951Y-89394990D01*
X133650000Y-89437324D01*
X133952081Y-89437324D01*
X133695449Y-89548397D01*
X133335147Y-89920244D01*
X133152742Y-90360624D01*
X133256981Y-90567000D01*
X134377000Y-90567000D01*
X134377000Y-90547000D01*
X134523000Y-90547000D01*
X134523000Y-90567000D01*
X134543000Y-90567000D01*
X134543000Y-90713000D01*
X134523000Y-90713000D01*
X134523000Y-90733000D01*
X134377000Y-90733000D01*
X134377000Y-90713000D01*
X133256981Y-90713000D01*
X133152742Y-90919376D01*
X133335147Y-91359756D01*
X133695449Y-91731603D01*
X134117019Y-91914063D01*
X133916182Y-91954012D01*
X133485672Y-92241669D01*
X133198015Y-92672179D01*
X133174011Y-92792856D01*
X132637000Y-93329866D01*
X132637000Y-87315134D01*
X133112676Y-87790810D01*
G36*
X142639312Y-50800930D02*
X142538746Y-51043121D01*
X141027073Y-52554793D01*
X140975125Y-52533222D01*
X140467103Y-52532779D01*
X139997583Y-52726781D01*
X139638043Y-53085693D01*
X139443222Y-53554875D01*
X139442782Y-54059084D01*
X139015933Y-54485933D01*
X138858340Y-54721789D01*
X138858340Y-54721790D01*
X138802999Y-55000000D01*
X138803000Y-55000005D01*
X138803000Y-55879235D01*
X138774067Y-55835933D01*
X138774064Y-55835931D01*
X136996784Y-54058650D01*
X136997221Y-53557103D01*
X136803219Y-53087583D01*
X136444307Y-52728043D01*
X135975125Y-52533222D01*
X135470916Y-52532782D01*
X134964067Y-52025933D01*
X134882609Y-51971505D01*
X134728211Y-51868340D01*
X134682052Y-51859158D01*
X134450000Y-51812999D01*
X134449995Y-51813000D01*
X130410703Y-51813000D01*
X130170222Y-51713144D01*
X129841221Y-51712857D01*
X129537154Y-51838495D01*
X129304312Y-52070930D01*
X129178144Y-52374778D01*
X129177857Y-52703779D01*
X129303495Y-53007846D01*
X129535930Y-53240688D01*
X129839778Y-53366856D01*
X130168779Y-53367143D01*
X130411143Y-53267000D01*
X134148866Y-53267000D01*
X134443216Y-53561350D01*
X134442779Y-54062897D01*
X134636781Y-54532417D01*
X134995693Y-54891957D01*
X135464875Y-55086778D01*
X135969084Y-55087218D01*
X137533000Y-56651133D01*
X137533000Y-61429995D01*
X137532999Y-61430000D01*
X137562594Y-61578780D01*
X137588340Y-61708211D01*
X137640844Y-61786789D01*
X137745933Y-61944067D01*
X140770901Y-64969035D01*
X140717003Y-65240000D01*
X140818015Y-65747821D01*
X140841521Y-65783000D01*
X135720000Y-65783000D01*
X135672115Y-65792525D01*
X135701985Y-65747821D01*
X135802997Y-65240000D01*
X135701985Y-64732179D01*
X135414328Y-64301669D01*
X134983818Y-64014012D01*
X134762555Y-63970000D01*
X134983818Y-63925988D01*
X135414328Y-63638331D01*
X135701985Y-63207821D01*
X135802997Y-62700000D01*
X135701985Y-62192179D01*
X135414328Y-61761669D01*
X134983818Y-61474012D01*
X134762555Y-61430000D01*
X134983818Y-61385988D01*
X135414328Y-61098331D01*
X135701985Y-60667821D01*
X135802997Y-60160000D01*
X135701985Y-59652179D01*
X135414328Y-59221669D01*
X134983818Y-58934012D01*
X134475997Y-58833000D01*
X134424003Y-58833000D01*
X134402228Y-58837331D01*
X134515688Y-58724070D01*
X134641856Y-58420222D01*
X134642143Y-58091221D01*
X134516505Y-57787154D01*
X134349555Y-57619912D01*
X134515688Y-57454070D01*
X134641856Y-57150222D01*
X134642143Y-56821221D01*
X134516505Y-56517154D01*
X134284070Y-56284312D01*
X133980222Y-56158144D01*
X133651221Y-56157857D01*
X133408857Y-56258000D01*
X131910000Y-56258000D01*
X131631789Y-56313340D01*
X131395933Y-56470933D01*
X131395931Y-56470936D01*
X130125933Y-57740933D01*
X129968340Y-57976789D01*
X129968340Y-57976790D01*
X129912999Y-58255000D01*
X129913000Y-58255005D01*
X129913000Y-59293303D01*
X129685133Y-59520772D01*
X129513196Y-59934842D01*
X129512805Y-60383191D01*
X129684019Y-60797560D01*
X130000772Y-61114867D01*
X130414842Y-61286804D01*
X130863191Y-61287195D01*
X131277560Y-61115981D01*
X131594867Y-60799228D01*
X131766804Y-60385158D01*
X131767195Y-59936809D01*
X131595981Y-59522440D01*
X131367000Y-59293059D01*
X131367000Y-58556134D01*
X132211133Y-57712000D01*
X133188371Y-57712000D01*
X133114312Y-57785930D01*
X133013746Y-58028120D01*
X132030933Y-59010933D01*
X131873340Y-59246789D01*
X131873340Y-59246790D01*
X131817999Y-59525000D01*
X131818000Y-59525005D01*
X131818000Y-61763867D01*
X131608866Y-61973000D01*
X131506697Y-61973000D01*
X131279228Y-61745133D01*
X130865158Y-61573196D01*
X130416809Y-61572805D01*
X130002440Y-61744019D01*
X129685133Y-62060772D01*
X129513196Y-62474842D01*
X129512805Y-62923191D01*
X129684019Y-63337560D01*
X130000772Y-63654867D01*
X130414842Y-63826804D01*
X130863191Y-63827195D01*
X131117461Y-63722133D01*
X131083144Y-63804778D01*
X131082857Y-64133779D01*
X131117678Y-64218051D01*
X130865158Y-64113196D01*
X130416809Y-64112805D01*
X130002440Y-64284019D01*
X129685133Y-64600772D01*
X129513196Y-65014842D01*
X129512805Y-65463191D01*
X129644948Y-65783000D01*
X125965703Y-65783000D01*
X125725222Y-65683144D01*
X125396221Y-65682857D01*
X125092154Y-65808495D01*
X124859312Y-66040930D01*
X124733144Y-66344778D01*
X124732857Y-66673779D01*
X124858495Y-66977846D01*
X125090930Y-67210688D01*
X125394778Y-67336856D01*
X125723779Y-67337143D01*
X125966143Y-67237000D01*
X129645176Y-67237000D01*
X129513196Y-67554842D01*
X129512805Y-68003191D01*
X129644948Y-68323000D01*
X129370005Y-68323000D01*
X129370000Y-68322999D01*
X129137948Y-68369158D01*
X129091789Y-68378340D01*
X128855933Y-68535933D01*
X128855931Y-68535936D01*
X128434999Y-68956867D01*
X128014065Y-68535933D01*
X127932607Y-68481505D01*
X127778209Y-68378340D01*
X127732050Y-68369158D01*
X127499998Y-68322999D01*
X127499993Y-68323000D01*
X122051133Y-68323000D01*
X119937000Y-66208866D01*
X119937000Y-64596629D01*
X120010930Y-64670688D01*
X120314778Y-64796856D01*
X120643779Y-64797143D01*
X120886143Y-64697000D01*
X125154297Y-64697000D01*
X125394778Y-64796856D01*
X125723779Y-64797143D01*
X126027846Y-64671505D01*
X126260688Y-64439070D01*
X126386856Y-64135222D01*
X126387143Y-63806221D01*
X126261505Y-63502154D01*
X126029070Y-63269312D01*
X125725222Y-63143144D01*
X125396221Y-63142857D01*
X125153857Y-63243000D01*
X120885703Y-63243000D01*
X120706880Y-63168746D01*
X119937000Y-62398866D01*
X119937000Y-57921134D01*
X120707192Y-57150941D01*
X120886143Y-57077000D01*
X125154297Y-57077000D01*
X125394778Y-57176856D01*
X125723779Y-57177143D01*
X126027846Y-57051505D01*
X126260688Y-56819070D01*
X126386856Y-56515222D01*
X126387143Y-56186221D01*
X126261505Y-55882154D01*
X126029070Y-55649312D01*
X125725222Y-55523144D01*
X125396221Y-55522857D01*
X125153857Y-55623000D01*
X120885703Y-55623000D01*
X120645222Y-55523144D01*
X120316221Y-55522857D01*
X120012154Y-55648495D01*
X119779312Y-55880930D01*
X119678746Y-56123120D01*
X119210000Y-56591867D01*
X118454067Y-55835933D01*
X118348868Y-55765642D01*
X118218211Y-55678340D01*
X118172052Y-55669158D01*
X117940000Y-55622999D01*
X117939995Y-55623000D01*
X115805703Y-55623000D01*
X115565222Y-55523144D01*
X115236221Y-55522857D01*
X114993857Y-55623000D01*
X110725703Y-55623000D01*
X110485222Y-55523144D01*
X110156221Y-55522857D01*
X109852154Y-55648495D01*
X109619312Y-55880930D01*
X109493144Y-56184778D01*
X109492857Y-56513779D01*
X109618495Y-56817846D01*
X109850930Y-57050688D01*
X110154778Y-57176856D01*
X110483779Y-57177143D01*
X110726143Y-57077000D01*
X114994297Y-57077000D01*
X115234778Y-57176856D01*
X115563779Y-57177143D01*
X115806143Y-57077000D01*
X117638866Y-57077000D01*
X118483000Y-57921133D01*
X118483000Y-62398867D01*
X117638866Y-63243000D01*
X115805703Y-63243000D01*
X115565222Y-63143144D01*
X115236221Y-63142857D01*
X114993857Y-63243000D01*
X110725703Y-63243000D01*
X110485222Y-63143144D01*
X110156221Y-63142857D01*
X109852154Y-63268495D01*
X109619312Y-63500930D01*
X109493144Y-63804778D01*
X109492857Y-64133779D01*
X109618495Y-64437846D01*
X109850930Y-64670688D01*
X110154778Y-64796856D01*
X110483779Y-64797143D01*
X110726143Y-64697000D01*
X114994297Y-64697000D01*
X115234778Y-64796856D01*
X115563779Y-64797143D01*
X115806143Y-64697000D01*
X117939995Y-64697000D01*
X117940000Y-64697001D01*
X118172052Y-64650842D01*
X118218211Y-64641660D01*
X118454067Y-64484067D01*
X118483000Y-64455134D01*
X118483000Y-66509995D01*
X118482999Y-66510000D01*
X118515578Y-66673779D01*
X118538340Y-66788211D01*
X118648352Y-66952857D01*
X118695933Y-67024067D01*
X121235931Y-69564064D01*
X121235933Y-69564067D01*
X121471789Y-69721660D01*
X121750000Y-69777000D01*
X127198864Y-69777000D01*
X127407998Y-69986133D01*
X127407998Y-73954054D01*
X127373000Y-74130000D01*
X127373000Y-88264235D01*
X127344067Y-88220933D01*
X122477000Y-83353866D01*
X122477000Y-75400000D01*
X122421660Y-75121789D01*
X122264067Y-74885933D01*
X122264064Y-74885931D01*
X120526934Y-73148800D01*
X120536769Y-73125115D01*
X120537229Y-72597202D01*
X120335631Y-72109297D01*
X119962666Y-71735681D01*
X119475115Y-71533231D01*
X118947202Y-71532771D01*
X118459297Y-71734369D01*
X118085681Y-72107334D01*
X117883231Y-72594885D01*
X117882771Y-73122798D01*
X117893384Y-73148483D01*
X116155933Y-74885933D01*
X115998340Y-75121789D01*
X115998340Y-75121790D01*
X115942999Y-75400000D01*
X115943000Y-75400005D01*
X115943000Y-83353867D01*
X110653866Y-88643000D01*
X108774824Y-88643000D01*
X108906804Y-88325158D01*
X108907195Y-87876809D01*
X108775052Y-87557000D01*
X110549297Y-87557000D01*
X110789778Y-87656856D01*
X111118779Y-87657143D01*
X111422846Y-87531505D01*
X111655688Y-87299070D01*
X111781856Y-86995222D01*
X111782143Y-86666221D01*
X111656505Y-86362154D01*
X111424070Y-86129312D01*
X111120222Y-86003144D01*
X110791221Y-86002857D01*
X110548857Y-86103000D01*
X108774824Y-86103000D01*
X108906804Y-85785158D01*
X108907195Y-85336809D01*
X108735981Y-84922440D01*
X108419228Y-84605133D01*
X108005158Y-84433196D01*
X107556809Y-84432805D01*
X107142440Y-84604019D01*
X106825133Y-84920772D01*
X106653196Y-85334842D01*
X106652805Y-85783191D01*
X106784948Y-86103000D01*
X105240000Y-86103000D01*
X104961789Y-86158340D01*
X104725933Y-86315933D01*
X104725931Y-86315936D01*
X104223595Y-86818272D01*
X103995997Y-86773000D01*
X103944003Y-86773000D01*
X103436182Y-86874012D01*
X103005672Y-87161669D01*
X102792000Y-87481452D01*
X102792000Y-87131134D01*
X106389064Y-83534069D01*
X106389067Y-83534067D01*
X106546660Y-83298211D01*
X106557604Y-83243191D01*
X106652805Y-83243191D01*
X106824019Y-83657560D01*
X107140772Y-83974867D01*
X107554842Y-84146804D01*
X108003191Y-84147195D01*
X108417560Y-83975981D01*
X108734867Y-83659228D01*
X108906804Y-83245158D01*
X108907195Y-82796809D01*
X108735981Y-82382440D01*
X108419228Y-82065133D01*
X108005158Y-81893196D01*
X107556809Y-81892805D01*
X107142440Y-82064019D01*
X106825133Y-82380772D01*
X106653196Y-82794842D01*
X106652805Y-83243191D01*
X106557604Y-83243191D01*
X106583700Y-83112001D01*
X106602001Y-83020000D01*
X106602000Y-83019995D01*
X106602000Y-80703191D01*
X106652805Y-80703191D01*
X106824019Y-81117560D01*
X107140772Y-81434867D01*
X107554842Y-81606804D01*
X108003191Y-81607195D01*
X108417560Y-81435981D01*
X108734867Y-81119228D01*
X108906804Y-80705158D01*
X108907195Y-80256809D01*
X108735981Y-79842440D01*
X108419228Y-79525133D01*
X108005158Y-79353196D01*
X107556809Y-79352805D01*
X107142440Y-79524019D01*
X106825133Y-79840772D01*
X106653196Y-80254842D01*
X106652805Y-80703191D01*
X106602000Y-80703191D01*
X106602000Y-78163191D01*
X106652805Y-78163191D01*
X106824019Y-78577560D01*
X107140772Y-78894867D01*
X107554842Y-79066804D01*
X108003191Y-79067195D01*
X108417560Y-78895981D01*
X108734867Y-78579228D01*
X108906804Y-78165158D01*
X108907195Y-77716809D01*
X108735981Y-77302440D01*
X108419228Y-76985133D01*
X108005158Y-76813196D01*
X107556809Y-76812805D01*
X107142440Y-76984019D01*
X106825133Y-77300772D01*
X106653196Y-77714842D01*
X106652805Y-78163191D01*
X106602000Y-78163191D01*
X106602000Y-77305005D01*
X106602001Y-77305000D01*
X106546660Y-77026790D01*
X106546660Y-77026789D01*
X106389067Y-76790933D01*
X106389064Y-76790931D01*
X105754067Y-76155933D01*
X105672609Y-76101505D01*
X105518211Y-75998340D01*
X105472052Y-75989158D01*
X105240000Y-75942999D01*
X105239995Y-75943000D01*
X105198479Y-75943000D01*
X105221985Y-75907821D01*
X105278601Y-75623191D01*
X106652805Y-75623191D01*
X106824019Y-76037560D01*
X107140772Y-76354867D01*
X107554842Y-76526804D01*
X108003191Y-76527195D01*
X108417560Y-76355981D01*
X108734867Y-76039228D01*
X108906804Y-75625158D01*
X108907195Y-75176809D01*
X108735981Y-74762440D01*
X108419228Y-74445133D01*
X108005158Y-74273196D01*
X107556809Y-74272805D01*
X107142440Y-74444019D01*
X106825133Y-74760772D01*
X106653196Y-75174842D01*
X106652805Y-75623191D01*
X105278601Y-75623191D01*
X105322997Y-75400000D01*
X105221985Y-74892179D01*
X104934328Y-74461669D01*
X104503818Y-74174012D01*
X104282555Y-74130000D01*
X104503818Y-74085988D01*
X104934328Y-73798331D01*
X105221985Y-73367821D01*
X105278601Y-73083191D01*
X106652805Y-73083191D01*
X106824019Y-73497560D01*
X107140772Y-73814867D01*
X107554842Y-73986804D01*
X108003191Y-73987195D01*
X108417560Y-73815981D01*
X108734867Y-73499228D01*
X108906804Y-73085158D01*
X108907195Y-72636809D01*
X108735981Y-72222440D01*
X108419228Y-71905133D01*
X108005158Y-71733196D01*
X107556809Y-71732805D01*
X107142440Y-71904019D01*
X106825133Y-72220772D01*
X106653196Y-72634842D01*
X106652805Y-73083191D01*
X105278601Y-73083191D01*
X105322997Y-72860000D01*
X105221985Y-72352179D01*
X104934328Y-71921669D01*
X104503818Y-71634012D01*
X104282555Y-71590000D01*
X104503818Y-71545988D01*
X104934328Y-71258331D01*
X105221985Y-70827821D01*
X105278601Y-70543191D01*
X106652805Y-70543191D01*
X106824019Y-70957560D01*
X107140772Y-71274867D01*
X107554842Y-71446804D01*
X108003191Y-71447195D01*
X108417560Y-71275981D01*
X108734867Y-70959228D01*
X108906804Y-70545158D01*
X108907195Y-70096809D01*
X108735981Y-69682440D01*
X108419228Y-69365133D01*
X108005158Y-69193196D01*
X107556809Y-69192805D01*
X107142440Y-69364019D01*
X106825133Y-69680772D01*
X106653196Y-70094842D01*
X106652805Y-70543191D01*
X105278601Y-70543191D01*
X105322997Y-70320000D01*
X105221985Y-69812179D01*
X104934328Y-69381669D01*
X104503818Y-69094012D01*
X104282555Y-69050000D01*
X104503818Y-69005988D01*
X104934328Y-68718331D01*
X105221985Y-68287821D01*
X105322997Y-67780000D01*
X105221985Y-67272179D01*
X105198479Y-67237000D01*
X106509995Y-67237000D01*
X106510000Y-67237001D01*
X106742052Y-67190842D01*
X106788211Y-67181660D01*
X106815813Y-67163217D01*
X106653196Y-67554842D01*
X106652805Y-68003191D01*
X106824019Y-68417560D01*
X107140772Y-68734867D01*
X107554842Y-68906804D01*
X108003191Y-68907195D01*
X108417560Y-68735981D01*
X108646941Y-68507000D01*
X109914297Y-68507000D01*
X110154778Y-68606856D01*
X110483779Y-68607143D01*
X110787846Y-68481505D01*
X111020688Y-68249070D01*
X111146856Y-67945222D01*
X111147143Y-67616221D01*
X111021505Y-67312154D01*
X110789070Y-67079312D01*
X110485222Y-66953144D01*
X110156221Y-66952857D01*
X109913857Y-67053000D01*
X108646697Y-67053000D01*
X108419228Y-66825133D01*
X108005158Y-66653196D01*
X107556809Y-66652805D01*
X107281625Y-66766509D01*
X107681219Y-66366914D01*
X108003191Y-66367195D01*
X108417560Y-66195981D01*
X108734867Y-65879228D01*
X108906804Y-65465158D01*
X108907195Y-65016809D01*
X108735981Y-64602440D01*
X108419228Y-64285133D01*
X108005158Y-64113196D01*
X107556809Y-64112805D01*
X107142440Y-64284019D01*
X106825133Y-64600772D01*
X106653196Y-65014842D01*
X106652913Y-65338953D01*
X106208866Y-65783000D01*
X105198479Y-65783000D01*
X105221985Y-65747821D01*
X105322997Y-65240000D01*
X105221985Y-64732179D01*
X104934328Y-64301669D01*
X104503818Y-64014012D01*
X104282555Y-63970000D01*
X104503818Y-63925988D01*
X104934328Y-63638331D01*
X105047387Y-63469125D01*
X107114113Y-63469125D01*
X107165011Y-63670655D01*
X107583277Y-63832115D01*
X108031493Y-63821220D01*
X108394989Y-63670655D01*
X108445887Y-63469125D01*
X107780000Y-62803238D01*
X107114113Y-63469125D01*
X105047387Y-63469125D01*
X105221985Y-63207821D01*
X105322997Y-62700000D01*
X105283867Y-62503277D01*
X106647885Y-62503277D01*
X106658780Y-62951493D01*
X106809345Y-63314989D01*
X107010875Y-63365887D01*
X107676762Y-62700000D01*
X107883238Y-62700000D01*
X108549125Y-63365887D01*
X108750655Y-63314989D01*
X108912115Y-62896723D01*
X108901220Y-62448507D01*
X108750655Y-62085011D01*
X108549125Y-62034113D01*
X107883238Y-62700000D01*
X107676762Y-62700000D01*
X107010875Y-62034113D01*
X106809345Y-62085011D01*
X106647885Y-62503277D01*
X105283867Y-62503277D01*
X105221985Y-62192179D01*
X105047388Y-61930875D01*
X107114113Y-61930875D01*
X107780000Y-62596762D01*
X108445887Y-61930875D01*
X108394989Y-61729345D01*
X107976723Y-61567885D01*
X107528507Y-61578780D01*
X107165011Y-61729345D01*
X107114113Y-61930875D01*
X105047388Y-61930875D01*
X104934328Y-61761669D01*
X104503818Y-61474012D01*
X104302981Y-61434063D01*
X104724551Y-61251603D01*
X105084853Y-60879756D01*
X105267258Y-60439376D01*
X105238880Y-60383191D01*
X106652805Y-60383191D01*
X106824019Y-60797560D01*
X107140772Y-61114867D01*
X107554842Y-61286804D01*
X108003191Y-61287195D01*
X108417560Y-61115981D01*
X108734867Y-60799228D01*
X108906804Y-60385158D01*
X108907195Y-59936809D01*
X108735981Y-59522440D01*
X108419228Y-59205133D01*
X108005158Y-59033196D01*
X107556809Y-59032805D01*
X107142440Y-59204019D01*
X106825133Y-59520772D01*
X106653196Y-59934842D01*
X106652805Y-60383191D01*
X105238880Y-60383191D01*
X105163019Y-60233000D01*
X104043000Y-60233000D01*
X104043000Y-60253000D01*
X103897000Y-60253000D01*
X103897000Y-60233000D01*
X102776981Y-60233000D01*
X102694477Y-60396344D01*
X102178758Y-59880624D01*
X102672742Y-59880624D01*
X102776981Y-60087000D01*
X103897000Y-60087000D01*
X103897000Y-58966753D01*
X104043000Y-58966753D01*
X104043000Y-60087000D01*
X105163019Y-60087000D01*
X105267258Y-59880624D01*
X105084853Y-59440244D01*
X104724551Y-59068397D01*
X104249376Y-58862736D01*
X104043000Y-58966753D01*
X103897000Y-58966753D01*
X103690624Y-58862736D01*
X103215449Y-59068397D01*
X102855147Y-59440244D01*
X102672742Y-59880624D01*
X102178758Y-59880624D01*
X102157000Y-59858866D01*
X102157000Y-55381134D01*
X102451281Y-55086853D01*
X102872897Y-55087221D01*
X103342417Y-54893219D01*
X103701957Y-54534307D01*
X103896778Y-54065125D01*
X103897218Y-53560916D01*
X104191133Y-53267000D01*
X108009297Y-53267000D01*
X108249778Y-53366856D01*
X108578779Y-53367143D01*
X108882846Y-53241505D01*
X109115688Y-53009070D01*
X109241856Y-52705222D01*
X109242143Y-52376221D01*
X109116505Y-52072154D01*
X108884070Y-51839312D01*
X108580222Y-51713144D01*
X108251221Y-51712857D01*
X108008857Y-51813000D01*
X103890000Y-51813000D01*
X103611789Y-51868340D01*
X103375933Y-52025933D01*
X103375931Y-52025936D01*
X102868650Y-52533216D01*
X102367103Y-52532779D01*
X101897583Y-52726781D01*
X101538043Y-53085693D01*
X101343222Y-53554875D01*
X101342779Y-54062897D01*
X101365056Y-54116810D01*
X100915933Y-54565933D01*
X100758340Y-54801789D01*
X100758340Y-54801790D01*
X100702999Y-55080000D01*
X100703000Y-55080005D01*
X100703000Y-55879235D01*
X100674067Y-55835933D01*
X100674064Y-55835931D01*
X98896784Y-54058650D01*
X98897221Y-53557103D01*
X98703219Y-53087583D01*
X98344307Y-52728043D01*
X97875125Y-52533222D01*
X97370916Y-52532782D01*
X95880941Y-51042807D01*
X95781505Y-50802154D01*
X95581701Y-50602000D01*
X142838590Y-50602000D01*
X142639312Y-50800930D01*
X142639312Y-50800930D01*
G37*
X142639312Y-50800930D02*
X142538746Y-51043121D01*
X141027073Y-52554793D01*
X140975125Y-52533222D01*
X140467103Y-52532779D01*
X139997583Y-52726781D01*
X139638043Y-53085693D01*
X139443222Y-53554875D01*
X139442782Y-54059084D01*
X139015933Y-54485933D01*
X138858340Y-54721789D01*
X138858340Y-54721790D01*
X138802999Y-55000000D01*
X138803000Y-55000005D01*
X138803000Y-55879235D01*
X138774067Y-55835933D01*
X138774064Y-55835931D01*
X136996784Y-54058650D01*
X136997221Y-53557103D01*
X136803219Y-53087583D01*
X136444307Y-52728043D01*
X135975125Y-52533222D01*
X135470916Y-52532782D01*
X134964067Y-52025933D01*
X134882609Y-51971505D01*
X134728211Y-51868340D01*
X134682052Y-51859158D01*
X134450000Y-51812999D01*
X134449995Y-51813000D01*
X130410703Y-51813000D01*
X130170222Y-51713144D01*
X129841221Y-51712857D01*
X129537154Y-51838495D01*
X129304312Y-52070930D01*
X129178144Y-52374778D01*
X129177857Y-52703779D01*
X129303495Y-53007846D01*
X129535930Y-53240688D01*
X129839778Y-53366856D01*
X130168779Y-53367143D01*
X130411143Y-53267000D01*
X134148866Y-53267000D01*
X134443216Y-53561350D01*
X134442779Y-54062897D01*
X134636781Y-54532417D01*
X134995693Y-54891957D01*
X135464875Y-55086778D01*
X135969084Y-55087218D01*
X137533000Y-56651133D01*
X137533000Y-61429995D01*
X137532999Y-61430000D01*
X137562594Y-61578780D01*
X137588340Y-61708211D01*
X137640844Y-61786789D01*
X137745933Y-61944067D01*
X140770901Y-64969035D01*
X140717003Y-65240000D01*
X140818015Y-65747821D01*
X140841521Y-65783000D01*
X135720000Y-65783000D01*
X135672115Y-65792525D01*
X135701985Y-65747821D01*
X135802997Y-65240000D01*
X135701985Y-64732179D01*
X135414328Y-64301669D01*
X134983818Y-64014012D01*
X134762555Y-63970000D01*
X134983818Y-63925988D01*
X135414328Y-63638331D01*
X135701985Y-63207821D01*
X135802997Y-62700000D01*
X135701985Y-62192179D01*
X135414328Y-61761669D01*
X134983818Y-61474012D01*
X134762555Y-61430000D01*
X134983818Y-61385988D01*
X135414328Y-61098331D01*
X135701985Y-60667821D01*
X135802997Y-60160000D01*
X135701985Y-59652179D01*
X135414328Y-59221669D01*
X134983818Y-58934012D01*
X134475997Y-58833000D01*
X134424003Y-58833000D01*
X134402228Y-58837331D01*
X134515688Y-58724070D01*
X134641856Y-58420222D01*
X134642143Y-58091221D01*
X134516505Y-57787154D01*
X134349555Y-57619912D01*
X134515688Y-57454070D01*
X134641856Y-57150222D01*
X134642143Y-56821221D01*
X134516505Y-56517154D01*
X134284070Y-56284312D01*
X133980222Y-56158144D01*
X133651221Y-56157857D01*
X133408857Y-56258000D01*
X131910000Y-56258000D01*
X131631789Y-56313340D01*
X131395933Y-56470933D01*
X131395931Y-56470936D01*
X130125933Y-57740933D01*
X129968340Y-57976789D01*
X129968340Y-57976790D01*
X129912999Y-58255000D01*
X129913000Y-58255005D01*
X129913000Y-59293303D01*
X129685133Y-59520772D01*
X129513196Y-59934842D01*
X129512805Y-60383191D01*
X129684019Y-60797560D01*
X130000772Y-61114867D01*
X130414842Y-61286804D01*
X130863191Y-61287195D01*
X131277560Y-61115981D01*
X131594867Y-60799228D01*
X131766804Y-60385158D01*
X131767195Y-59936809D01*
X131595981Y-59522440D01*
X131367000Y-59293059D01*
X131367000Y-58556134D01*
X132211133Y-57712000D01*
X133188371Y-57712000D01*
X133114312Y-57785930D01*
X133013746Y-58028120D01*
X132030933Y-59010933D01*
X131873340Y-59246789D01*
X131873340Y-59246790D01*
X131817999Y-59525000D01*
X131818000Y-59525005D01*
X131818000Y-61763867D01*
X131608866Y-61973000D01*
X131506697Y-61973000D01*
X131279228Y-61745133D01*
X130865158Y-61573196D01*
X130416809Y-61572805D01*
X130002440Y-61744019D01*
X129685133Y-62060772D01*
X129513196Y-62474842D01*
X129512805Y-62923191D01*
X129684019Y-63337560D01*
X130000772Y-63654867D01*
X130414842Y-63826804D01*
X130863191Y-63827195D01*
X131117461Y-63722133D01*
X131083144Y-63804778D01*
X131082857Y-64133779D01*
X131117678Y-64218051D01*
X130865158Y-64113196D01*
X130416809Y-64112805D01*
X130002440Y-64284019D01*
X129685133Y-64600772D01*
X129513196Y-65014842D01*
X129512805Y-65463191D01*
X129644948Y-65783000D01*
X125965703Y-65783000D01*
X125725222Y-65683144D01*
X125396221Y-65682857D01*
X125092154Y-65808495D01*
X124859312Y-66040930D01*
X124733144Y-66344778D01*
X124732857Y-66673779D01*
X124858495Y-66977846D01*
X125090930Y-67210688D01*
X125394778Y-67336856D01*
X125723779Y-67337143D01*
X125966143Y-67237000D01*
X129645176Y-67237000D01*
X129513196Y-67554842D01*
X129512805Y-68003191D01*
X129644948Y-68323000D01*
X129370005Y-68323000D01*
X129370000Y-68322999D01*
X129137948Y-68369158D01*
X129091789Y-68378340D01*
X128855933Y-68535933D01*
X128855931Y-68535936D01*
X128434999Y-68956867D01*
X128014065Y-68535933D01*
X127932607Y-68481505D01*
X127778209Y-68378340D01*
X127732050Y-68369158D01*
X127499998Y-68322999D01*
X127499993Y-68323000D01*
X122051133Y-68323000D01*
X119937000Y-66208866D01*
X119937000Y-64596629D01*
X120010930Y-64670688D01*
X120314778Y-64796856D01*
X120643779Y-64797143D01*
X120886143Y-64697000D01*
X125154297Y-64697000D01*
X125394778Y-64796856D01*
X125723779Y-64797143D01*
X126027846Y-64671505D01*
X126260688Y-64439070D01*
X126386856Y-64135222D01*
X126387143Y-63806221D01*
X126261505Y-63502154D01*
X126029070Y-63269312D01*
X125725222Y-63143144D01*
X125396221Y-63142857D01*
X125153857Y-63243000D01*
X120885703Y-63243000D01*
X120706880Y-63168746D01*
X119937000Y-62398866D01*
X119937000Y-57921134D01*
X120707192Y-57150941D01*
X120886143Y-57077000D01*
X125154297Y-57077000D01*
X125394778Y-57176856D01*
X125723779Y-57177143D01*
X126027846Y-57051505D01*
X126260688Y-56819070D01*
X126386856Y-56515222D01*
X126387143Y-56186221D01*
X126261505Y-55882154D01*
X126029070Y-55649312D01*
X125725222Y-55523144D01*
X125396221Y-55522857D01*
X125153857Y-55623000D01*
X120885703Y-55623000D01*
X120645222Y-55523144D01*
X120316221Y-55522857D01*
X120012154Y-55648495D01*
X119779312Y-55880930D01*
X119678746Y-56123120D01*
X119210000Y-56591867D01*
X118454067Y-55835933D01*
X118348868Y-55765642D01*
X118218211Y-55678340D01*
X118172052Y-55669158D01*
X117940000Y-55622999D01*
X117939995Y-55623000D01*
X115805703Y-55623000D01*
X115565222Y-55523144D01*
X115236221Y-55522857D01*
X114993857Y-55623000D01*
X110725703Y-55623000D01*
X110485222Y-55523144D01*
X110156221Y-55522857D01*
X109852154Y-55648495D01*
X109619312Y-55880930D01*
X109493144Y-56184778D01*
X109492857Y-56513779D01*
X109618495Y-56817846D01*
X109850930Y-57050688D01*
X110154778Y-57176856D01*
X110483779Y-57177143D01*
X110726143Y-57077000D01*
X114994297Y-57077000D01*
X115234778Y-57176856D01*
X115563779Y-57177143D01*
X115806143Y-57077000D01*
X117638866Y-57077000D01*
X118483000Y-57921133D01*
X118483000Y-62398867D01*
X117638866Y-63243000D01*
X115805703Y-63243000D01*
X115565222Y-63143144D01*
X115236221Y-63142857D01*
X114993857Y-63243000D01*
X110725703Y-63243000D01*
X110485222Y-63143144D01*
X110156221Y-63142857D01*
X109852154Y-63268495D01*
X109619312Y-63500930D01*
X109493144Y-63804778D01*
X109492857Y-64133779D01*
X109618495Y-64437846D01*
X109850930Y-64670688D01*
X110154778Y-64796856D01*
X110483779Y-64797143D01*
X110726143Y-64697000D01*
X114994297Y-64697000D01*
X115234778Y-64796856D01*
X115563779Y-64797143D01*
X115806143Y-64697000D01*
X117939995Y-64697000D01*
X117940000Y-64697001D01*
X118172052Y-64650842D01*
X118218211Y-64641660D01*
X118454067Y-64484067D01*
X118483000Y-64455134D01*
X118483000Y-66509995D01*
X118482999Y-66510000D01*
X118515578Y-66673779D01*
X118538340Y-66788211D01*
X118648352Y-66952857D01*
X118695933Y-67024067D01*
X121235931Y-69564064D01*
X121235933Y-69564067D01*
X121471789Y-69721660D01*
X121750000Y-69777000D01*
X127198864Y-69777000D01*
X127407998Y-69986133D01*
X127407998Y-73954054D01*
X127373000Y-74130000D01*
X127373000Y-88264235D01*
X127344067Y-88220933D01*
X122477000Y-83353866D01*
X122477000Y-75400000D01*
X122421660Y-75121789D01*
X122264067Y-74885933D01*
X122264064Y-74885931D01*
X120526934Y-73148800D01*
X120536769Y-73125115D01*
X120537229Y-72597202D01*
X120335631Y-72109297D01*
X119962666Y-71735681D01*
X119475115Y-71533231D01*
X118947202Y-71532771D01*
X118459297Y-71734369D01*
X118085681Y-72107334D01*
X117883231Y-72594885D01*
X117882771Y-73122798D01*
X117893384Y-73148483D01*
X116155933Y-74885933D01*
X115998340Y-75121789D01*
X115998340Y-75121790D01*
X115942999Y-75400000D01*
X115943000Y-75400005D01*
X115943000Y-83353867D01*
X110653866Y-88643000D01*
X108774824Y-88643000D01*
X108906804Y-88325158D01*
X108907195Y-87876809D01*
X108775052Y-87557000D01*
X110549297Y-87557000D01*
X110789778Y-87656856D01*
X111118779Y-87657143D01*
X111422846Y-87531505D01*
X111655688Y-87299070D01*
X111781856Y-86995222D01*
X111782143Y-86666221D01*
X111656505Y-86362154D01*
X111424070Y-86129312D01*
X111120222Y-86003144D01*
X110791221Y-86002857D01*
X110548857Y-86103000D01*
X108774824Y-86103000D01*
X108906804Y-85785158D01*
X108907195Y-85336809D01*
X108735981Y-84922440D01*
X108419228Y-84605133D01*
X108005158Y-84433196D01*
X107556809Y-84432805D01*
X107142440Y-84604019D01*
X106825133Y-84920772D01*
X106653196Y-85334842D01*
X106652805Y-85783191D01*
X106784948Y-86103000D01*
X105240000Y-86103000D01*
X104961789Y-86158340D01*
X104725933Y-86315933D01*
X104725931Y-86315936D01*
X104223595Y-86818272D01*
X103995997Y-86773000D01*
X103944003Y-86773000D01*
X103436182Y-86874012D01*
X103005672Y-87161669D01*
X102792000Y-87481452D01*
X102792000Y-87131134D01*
X106389064Y-83534069D01*
X106389067Y-83534067D01*
X106546660Y-83298211D01*
X106557604Y-83243191D01*
X106652805Y-83243191D01*
X106824019Y-83657560D01*
X107140772Y-83974867D01*
X107554842Y-84146804D01*
X108003191Y-84147195D01*
X108417560Y-83975981D01*
X108734867Y-83659228D01*
X108906804Y-83245158D01*
X108907195Y-82796809D01*
X108735981Y-82382440D01*
X108419228Y-82065133D01*
X108005158Y-81893196D01*
X107556809Y-81892805D01*
X107142440Y-82064019D01*
X106825133Y-82380772D01*
X106653196Y-82794842D01*
X106652805Y-83243191D01*
X106557604Y-83243191D01*
X106583700Y-83112001D01*
X106602001Y-83020000D01*
X106602000Y-83019995D01*
X106602000Y-80703191D01*
X106652805Y-80703191D01*
X106824019Y-81117560D01*
X107140772Y-81434867D01*
X107554842Y-81606804D01*
X108003191Y-81607195D01*
X108417560Y-81435981D01*
X108734867Y-81119228D01*
X108906804Y-80705158D01*
X108907195Y-80256809D01*
X108735981Y-79842440D01*
X108419228Y-79525133D01*
X108005158Y-79353196D01*
X107556809Y-79352805D01*
X107142440Y-79524019D01*
X106825133Y-79840772D01*
X106653196Y-80254842D01*
X106652805Y-80703191D01*
X106602000Y-80703191D01*
X106602000Y-78163191D01*
X106652805Y-78163191D01*
X106824019Y-78577560D01*
X107140772Y-78894867D01*
X107554842Y-79066804D01*
X108003191Y-79067195D01*
X108417560Y-78895981D01*
X108734867Y-78579228D01*
X108906804Y-78165158D01*
X108907195Y-77716809D01*
X108735981Y-77302440D01*
X108419228Y-76985133D01*
X108005158Y-76813196D01*
X107556809Y-76812805D01*
X107142440Y-76984019D01*
X106825133Y-77300772D01*
X106653196Y-77714842D01*
X106652805Y-78163191D01*
X106602000Y-78163191D01*
X106602000Y-77305005D01*
X106602001Y-77305000D01*
X106546660Y-77026790D01*
X106546660Y-77026789D01*
X106389067Y-76790933D01*
X106389064Y-76790931D01*
X105754067Y-76155933D01*
X105672609Y-76101505D01*
X105518211Y-75998340D01*
X105472052Y-75989158D01*
X105240000Y-75942999D01*
X105239995Y-75943000D01*
X105198479Y-75943000D01*
X105221985Y-75907821D01*
X105278601Y-75623191D01*
X106652805Y-75623191D01*
X106824019Y-76037560D01*
X107140772Y-76354867D01*
X107554842Y-76526804D01*
X108003191Y-76527195D01*
X108417560Y-76355981D01*
X108734867Y-76039228D01*
X108906804Y-75625158D01*
X108907195Y-75176809D01*
X108735981Y-74762440D01*
X108419228Y-74445133D01*
X108005158Y-74273196D01*
X107556809Y-74272805D01*
X107142440Y-74444019D01*
X106825133Y-74760772D01*
X106653196Y-75174842D01*
X106652805Y-75623191D01*
X105278601Y-75623191D01*
X105322997Y-75400000D01*
X105221985Y-74892179D01*
X104934328Y-74461669D01*
X104503818Y-74174012D01*
X104282555Y-74130000D01*
X104503818Y-74085988D01*
X104934328Y-73798331D01*
X105221985Y-73367821D01*
X105278601Y-73083191D01*
X106652805Y-73083191D01*
X106824019Y-73497560D01*
X107140772Y-73814867D01*
X107554842Y-73986804D01*
X108003191Y-73987195D01*
X108417560Y-73815981D01*
X108734867Y-73499228D01*
X108906804Y-73085158D01*
X108907195Y-72636809D01*
X108735981Y-72222440D01*
X108419228Y-71905133D01*
X108005158Y-71733196D01*
X107556809Y-71732805D01*
X107142440Y-71904019D01*
X106825133Y-72220772D01*
X106653196Y-72634842D01*
X106652805Y-73083191D01*
X105278601Y-73083191D01*
X105322997Y-72860000D01*
X105221985Y-72352179D01*
X104934328Y-71921669D01*
X104503818Y-71634012D01*
X104282555Y-71590000D01*
X104503818Y-71545988D01*
X104934328Y-71258331D01*
X105221985Y-70827821D01*
X105278601Y-70543191D01*
X106652805Y-70543191D01*
X106824019Y-70957560D01*
X107140772Y-71274867D01*
X107554842Y-71446804D01*
X108003191Y-71447195D01*
X108417560Y-71275981D01*
X108734867Y-70959228D01*
X108906804Y-70545158D01*
X108907195Y-70096809D01*
X108735981Y-69682440D01*
X108419228Y-69365133D01*
X108005158Y-69193196D01*
X107556809Y-69192805D01*
X107142440Y-69364019D01*
X106825133Y-69680772D01*
X106653196Y-70094842D01*
X106652805Y-70543191D01*
X105278601Y-70543191D01*
X105322997Y-70320000D01*
X105221985Y-69812179D01*
X104934328Y-69381669D01*
X104503818Y-69094012D01*
X104282555Y-69050000D01*
X104503818Y-69005988D01*
X104934328Y-68718331D01*
X105221985Y-68287821D01*
X105322997Y-67780000D01*
X105221985Y-67272179D01*
X105198479Y-67237000D01*
X106509995Y-67237000D01*
X106510000Y-67237001D01*
X106742052Y-67190842D01*
X106788211Y-67181660D01*
X106815813Y-67163217D01*
X106653196Y-67554842D01*
X106652805Y-68003191D01*
X106824019Y-68417560D01*
X107140772Y-68734867D01*
X107554842Y-68906804D01*
X108003191Y-68907195D01*
X108417560Y-68735981D01*
X108646941Y-68507000D01*
X109914297Y-68507000D01*
X110154778Y-68606856D01*
X110483779Y-68607143D01*
X110787846Y-68481505D01*
X111020688Y-68249070D01*
X111146856Y-67945222D01*
X111147143Y-67616221D01*
X111021505Y-67312154D01*
X110789070Y-67079312D01*
X110485222Y-66953144D01*
X110156221Y-66952857D01*
X109913857Y-67053000D01*
X108646697Y-67053000D01*
X108419228Y-66825133D01*
X108005158Y-66653196D01*
X107556809Y-66652805D01*
X107281625Y-66766509D01*
X107681219Y-66366914D01*
X108003191Y-66367195D01*
X108417560Y-66195981D01*
X108734867Y-65879228D01*
X108906804Y-65465158D01*
X108907195Y-65016809D01*
X108735981Y-64602440D01*
X108419228Y-64285133D01*
X108005158Y-64113196D01*
X107556809Y-64112805D01*
X107142440Y-64284019D01*
X106825133Y-64600772D01*
X106653196Y-65014842D01*
X106652913Y-65338953D01*
X106208866Y-65783000D01*
X105198479Y-65783000D01*
X105221985Y-65747821D01*
X105322997Y-65240000D01*
X105221985Y-64732179D01*
X104934328Y-64301669D01*
X104503818Y-64014012D01*
X104282555Y-63970000D01*
X104503818Y-63925988D01*
X104934328Y-63638331D01*
X105047387Y-63469125D01*
X107114113Y-63469125D01*
X107165011Y-63670655D01*
X107583277Y-63832115D01*
X108031493Y-63821220D01*
X108394989Y-63670655D01*
X108445887Y-63469125D01*
X107780000Y-62803238D01*
X107114113Y-63469125D01*
X105047387Y-63469125D01*
X105221985Y-63207821D01*
X105322997Y-62700000D01*
X105283867Y-62503277D01*
X106647885Y-62503277D01*
X106658780Y-62951493D01*
X106809345Y-63314989D01*
X107010875Y-63365887D01*
X107676762Y-62700000D01*
X107883238Y-62700000D01*
X108549125Y-63365887D01*
X108750655Y-63314989D01*
X108912115Y-62896723D01*
X108901220Y-62448507D01*
X108750655Y-62085011D01*
X108549125Y-62034113D01*
X107883238Y-62700000D01*
X107676762Y-62700000D01*
X107010875Y-62034113D01*
X106809345Y-62085011D01*
X106647885Y-62503277D01*
X105283867Y-62503277D01*
X105221985Y-62192179D01*
X105047388Y-61930875D01*
X107114113Y-61930875D01*
X107780000Y-62596762D01*
X108445887Y-61930875D01*
X108394989Y-61729345D01*
X107976723Y-61567885D01*
X107528507Y-61578780D01*
X107165011Y-61729345D01*
X107114113Y-61930875D01*
X105047388Y-61930875D01*
X104934328Y-61761669D01*
X104503818Y-61474012D01*
X104302981Y-61434063D01*
X104724551Y-61251603D01*
X105084853Y-60879756D01*
X105267258Y-60439376D01*
X105238880Y-60383191D01*
X106652805Y-60383191D01*
X106824019Y-60797560D01*
X107140772Y-61114867D01*
X107554842Y-61286804D01*
X108003191Y-61287195D01*
X108417560Y-61115981D01*
X108734867Y-60799228D01*
X108906804Y-60385158D01*
X108907195Y-59936809D01*
X108735981Y-59522440D01*
X108419228Y-59205133D01*
X108005158Y-59033196D01*
X107556809Y-59032805D01*
X107142440Y-59204019D01*
X106825133Y-59520772D01*
X106653196Y-59934842D01*
X106652805Y-60383191D01*
X105238880Y-60383191D01*
X105163019Y-60233000D01*
X104043000Y-60233000D01*
X104043000Y-60253000D01*
X103897000Y-60253000D01*
X103897000Y-60233000D01*
X102776981Y-60233000D01*
X102694477Y-60396344D01*
X102178758Y-59880624D01*
X102672742Y-59880624D01*
X102776981Y-60087000D01*
X103897000Y-60087000D01*
X103897000Y-58966753D01*
X104043000Y-58966753D01*
X104043000Y-60087000D01*
X105163019Y-60087000D01*
X105267258Y-59880624D01*
X105084853Y-59440244D01*
X104724551Y-59068397D01*
X104249376Y-58862736D01*
X104043000Y-58966753D01*
X103897000Y-58966753D01*
X103690624Y-58862736D01*
X103215449Y-59068397D01*
X102855147Y-59440244D01*
X102672742Y-59880624D01*
X102178758Y-59880624D01*
X102157000Y-59858866D01*
X102157000Y-55381134D01*
X102451281Y-55086853D01*
X102872897Y-55087221D01*
X103342417Y-54893219D01*
X103701957Y-54534307D01*
X103896778Y-54065125D01*
X103897218Y-53560916D01*
X104191133Y-53267000D01*
X108009297Y-53267000D01*
X108249778Y-53366856D01*
X108578779Y-53367143D01*
X108882846Y-53241505D01*
X109115688Y-53009070D01*
X109241856Y-52705222D01*
X109242143Y-52376221D01*
X109116505Y-52072154D01*
X108884070Y-51839312D01*
X108580222Y-51713144D01*
X108251221Y-51712857D01*
X108008857Y-51813000D01*
X103890000Y-51813000D01*
X103611789Y-51868340D01*
X103375933Y-52025933D01*
X103375931Y-52025936D01*
X102868650Y-52533216D01*
X102367103Y-52532779D01*
X101897583Y-52726781D01*
X101538043Y-53085693D01*
X101343222Y-53554875D01*
X101342779Y-54062897D01*
X101365056Y-54116810D01*
X100915933Y-54565933D01*
X100758340Y-54801789D01*
X100758340Y-54801790D01*
X100702999Y-55080000D01*
X100703000Y-55080005D01*
X100703000Y-55879235D01*
X100674067Y-55835933D01*
X100674064Y-55835931D01*
X98896784Y-54058650D01*
X98897221Y-53557103D01*
X98703219Y-53087583D01*
X98344307Y-52728043D01*
X97875125Y-52533222D01*
X97370916Y-52532782D01*
X95880941Y-51042807D01*
X95781505Y-50802154D01*
X95581701Y-50602000D01*
X142838590Y-50602000D01*
X142639312Y-50800930D01*
M02*
